<svg width="48" height="48" viewBox="0 0 48 48" fill="none" xmlns="http://www.w3.org/2000/svg">
<path d="M41.68 9.22023C40.6585 8.19824 39.4456 7.38753 38.1107 6.8344C36.7758 6.28128 35.345 5.99658 33.9 5.99658C32.455 5.99658 31.0242 6.28128 29.6893 6.8344C28.3544 7.38753 27.1415 8.19824 26.12 9.22023L24 11.3402L21.88 9.22023C19.8166 7.15685 17.0181 5.99765 14.1 5.99765C11.1819 5.99765 8.38338 7.15685 6.32 9.22023C4.25661 11.2836 3.09742 14.0822 3.09742 17.0002C3.09742 19.9183 4.25661 22.7168 6.32 24.7802L8.44 26.9002L24 42.4602L39.56 26.9002L41.68 24.7802C42.702 23.7587 43.5127 22.5459 44.0658 21.2109C44.6189 19.876 44.9036 18.4452 44.9036 17.0002C44.9036 15.5553 44.6189 14.1244 44.0658 12.7895C43.5127 11.4546 42.702 10.2417 41.68 9.22023Z" fill="#FC3158" stroke="#FC3158" stroke-width="2" stroke-linecap="round" stroke-linejoin="round"/>
</svg>
