<svg width="16" height="20" viewBox="0 0 16 20" fill="none" xmlns="http://www.w3.org/2000/svg">
<path d="M16 4.528V17.5C16 18.8807 14.8807 20 13.5 20H2.5C1.11929 20 0 18.8807 0 17.5V2.50003C0 1.11931 1.11929 2.58138e-05 2.5 2.58138e-05H11.472C11.6048 -0.00839366 11.7429 0.0358654 11.8536 0.146473L15.8536 4.14647C15.9642 4.25708 16.0084 4.39526 16 4.528ZM11 1.00003H2.5C1.67157 1.00003 1 1.6716 1 2.50003V17.5C1 18.3285 1.67157 19 2.5 19H13.5C14.3284 19 15 18.3285 15 17.5V5.00003H11.5C11.2239 5.00003 11 4.77617 11 4.50003V1.00003ZM12 1.70713V4.00003H14.2929L12 1.70713Z" fill="#616161"/>
</svg>
