<svg width="18" height="18" viewBox="0 0 18 18" fill="none" xmlns="http://www.w3.org/2000/svg">
<g clip-path="url(#clip0)">
<path d="M3.34235 1.99999H0.5C0.223858 1.99999 0 1.77614 0 1.49999C0 1.22385 0.223858 0.999993 0.5 0.999993H4.5C4.77614 0.999993 5 1.22385 5 1.49999V5.49999C5 5.77614 4.77614 5.99999 4.5 5.99999C4.22386 5.99999 4 5.77614 4 5.49999V2.75435C2.12535 4.25565 1 6.5322 1 8.99999C1 13.4183 4.58172 17 9 17C13.4183 17 17 13.4183 17 8.99999C17 4.7556 13.6849 1.25604 9.46722 1.01339C9.19153 0.997534 8.9809 0.761189 8.99676 0.485502C9.01262 0.209816 9.24897 -0.000814642 9.52466 0.015046C14.2707 0.288092 18 4.22489 18 8.99999C18 13.9706 13.9706 18 9 18C4.02944 18 0 13.9706 0 8.99999C0 6.23851 1.25354 3.68868 3.34235 1.99999Z" fill="#616161"/>
</g>
<defs>
<clipPath id="clip0">
<rect width="18" height="18" fill="white"/>
</clipPath>
</defs>
</svg>
