<?xml version="1.0" encoding="utf-8"?>
<!-- Generator: Adobe Illustrator 21.1.0, SVG Export Plug-In . SVG Version: 6.00 Build 0)  -->
<svg version="1.1" id="Layer_6" xmlns="http://www.w3.org/2000/svg" xmlns:xlink="http://www.w3.org/1999/xlink" x="0px" y="0px"
	 viewBox="0 0 309.2 303.7" style="enable-background:new 0 0 309.2 303.7;" xml:space="preserve">
<style type="text/css">
	.st0{fill:url(#SVGID_1_);}
	.st1{fill:url(#SVGID_2_);}
	.st2{fill:url(#SVGID_3_);}
	.st3{fill:url(#SVGID_4_);}
	.st4{fill:url(#SVGID_5_);}
	.st5{fill:url(#SVGID_6_);}
	.st6{fill:url(#SVGID_7_);}
</style>
<g id="Layer_18">
	
		<linearGradient id="SVGID_1_" gradientUnits="userSpaceOnUse" x1="858.1535" y1="-215.4497" x2="1011.92" y2="-215.4497" gradientTransform="matrix(1 0 0 -1 -858.14 -49.79)">
		<stop  offset="0" style="stop-color:#93FD93"/>
		<stop  offset="0.51" style="stop-color:#21C2C1"/>
		<stop  offset="1" style="stop-color:#84F599"/>
	</linearGradient>
	<path class="st0" d="M136.5,233.5c0,0,11.7-63.7-50-97.8S21.9,102,9.7,98.1c-7-2.4-14.2,2.6-6.1,12.8s3.5,12.8,19.7,17.3
		s18.7,24.3,26.8,29.2c8.1,4.9,15.2,6.2,40,16.9c22.5,9.7,41.7,37.1,41.7,46.8s22,12.9,22,12.9L136.5,233.5z"/>
	
		<linearGradient id="SVGID_2_" gradientUnits="userSpaceOnUse" x1="915.7653" y1="-166.9856" x2="1003.1454" y2="-274.1156" gradientTransform="matrix(1 0 0 -1 -858.14 -49.79)">
		<stop  offset="0" style="stop-color:#93FD93"/>
		<stop  offset="0.51" style="stop-color:#21C2C1"/>
		<stop  offset="1" style="stop-color:#84F599"/>
	</linearGradient>
	<path class="st1" d="M134.3,224.6c0,0,15.7-58.6-38.3-90.3S23.1,103,12.4,99.2C6.3,97,23.1,104.6,30.1,114s5.3,7.3,18,14.3
		c14.7,8.1,20.8,16,29.4,17.6c12.5,2.4,8.8,15.4,30.5,25.2c19.6,8.9,22.1,32.7,22.1,41.7s19.2,12,19.2,12L134.3,224.6z"/>
	
		<linearGradient id="SVGID_3_" gradientUnits="userSpaceOnUse" x1="1016.4244" y1="-288.1557" x2="1136.5544" y2="-195.2057" gradientTransform="matrix(1 0 0 -1 -858.14 -49.79)">
		<stop  offset="0" style="stop-color:#93FD93"/>
		<stop  offset="0.51" style="stop-color:#21C2C1"/>
		<stop  offset="1" style="stop-color:#84F599"/>
	</linearGradient>
	<path class="st2" d="M188.7,216l6.1-5.8c2.9-2.7,6.5-4.7,10.4-5.7c19.1-5,79.1-23.8,104-69.2c0.2-0.4,0-0.9-0.4-1.1
		c0,0-0.1,0-0.1,0c-0.1,0-0.2-0.1-0.3-0.1c-8.3-0.6-51-1.3-108.1,47.4c-1,0.8-2,1.8-2.8,2.8c-1.4,2-3.8,5.4-4.9,7.2
		c-1.5,2.6,1.5,7-2.5,10.9S177.5,216,177.5,216l7,5.2L188.7,216z"/>
	
		<linearGradient id="SVGID_4_" gradientUnits="userSpaceOnUse" x1="1046.6136" y1="-240.8951" x2="943.4336" y2="-110.275" gradientTransform="matrix(1 0 0 -1 -858.14 -49.79)">
		<stop  offset="0" style="stop-color:#93FD93"/>
		<stop  offset="0.51" style="stop-color:#21C2C1"/>
		<stop  offset="1" style="stop-color:#84F599"/>
	</linearGradient>
	<path class="st3" d="M156.2,212.2c0,0,16.4-146.6-28.3-192.7c-41.2-42.4-41.8-3.4-41.7,3.2c0,0.6,0.2,1.1,0.4,1.6
		c9.7,18.1,13.1,39,9.6,59.2c-4.2,21.2,26.1,18.4,28.7,39.3s13.2,53.1,12.1,67.9s-1.2,29.2-1.2,29.2l16.5,0.5L156.2,212.2z"/>
	
		<linearGradient id="SVGID_5_" gradientUnits="userSpaceOnUse" x1="944.728" y1="-159.9609" x2="1017.3268" y2="-159.9609" gradientTransform="matrix(1 0 0 -1 -858.14 -49.79)">
		<stop  offset="0" style="stop-color:#93FD93"/>
		<stop  offset="0.51" style="stop-color:#21C2C1"/>
		<stop  offset="1" style="stop-color:#84F599"/>
	</linearGradient>
	<path class="st4" d="M156,212.7c0.1-0.3,0.2-0.7,0.3-1c1-9.6,14.8-147.7-28.4-192.2c-40.9-42.2-41.5-4-41.3,2.9
		c0.1,0.8,0.5,1.6,0.9,2.3c3,4.4,16.5,23.6,28.5,21.4c33.1-5.9,3.9,33.9,21.9,55.2c14.4,16.8,9.6,74.8,8.5,89.7
		c-0.7,8.4-2.1,16.6-4.2,24.8c-0.4,2.1,1,4.1,3,4.5c0.1,0,0.2,0,0.3,0c0.3,0,0.5,0.1,0.8,0.1h3c1.8,0.1,3.4-0.8,4.2-2.4L156,212.7z"
		/>
	
		<linearGradient id="SVGID_6_" gradientUnits="userSpaceOnUse" x1="1011.0566" y1="-278.5484" x2="1089.6967" y2="-164.8184" gradientTransform="matrix(1 0 0 -1 -858.14 -49.79)">
		<stop  offset="0" style="stop-color:#93FD93"/>
		<stop  offset="0.51" style="stop-color:#21C2C1"/>
		<stop  offset="1" style="stop-color:#84F599"/>
	</linearGradient>
	<path class="st5" d="M172.1,221.2c0,0,2.9-40.6,26.6-65.4c6.6-6.8,15-11.5,24.2-13.6c7.1-1.6,18.7-7.3,28.8-26.3
		c0,0,19.1-27,38.2-35.2s0-9.2,0-9.2s-54.6,10.4-89.6,42.4c-2.2,2-4.5,3.9-7,5.5c-9.1,6.2-34.2,29.6-33.1,97.9L172.1,221.2z"/>
	
		<linearGradient id="SVGID_7_" gradientUnits="userSpaceOnUse" x1="965.7581" y1="-307.9589" x2="1077.7224" y2="-307.9589" gradientTransform="matrix(1 0 0 -1 -858.14 -49.79)">
		<stop  offset="0" style="stop-color:#F8C547"/>
		<stop  offset="1" style="stop-color:#F71D69"/>
	</linearGradient>
	<path class="st6" d="M219.5,217.9c0,0,0.8-4.9-5.7-4.8c-5.7,0.2-102.1-0.5-102.1-0.5s-4.5,0-4.2,3.4s14.9,83.7,16.3,85.4
		c0.6,1,1.6,1.8,2.8,2.1c1.8,0.5,69.5,0.1,69.5,0.1c1.6-0.2,2.8-1.5,2.9-3.1C198.9,300.6,219.7,218.9,219.5,217.9"/>
</g>
</svg>
