<svg width="96" height="96" viewBox="0 0 96 96" fill="none" xmlns="http://www.w3.org/2000/svg">
<circle cx="48" cy="48" r="48" fill="#E7F6FF"/>
<path fill-rule="evenodd" clip-rule="evenodd" d="M64.3286 93.1512C59.2316 94.9949 53.7332 96 48 96C36.6562 96 26.2314 92.0649 18.0164 85.4853C23.4453 81.4128 30.1909 79 37.5 79C48.6412 79 58.4731 84.6061 64.3286 93.1512Z" fill="#147EFB"/>
<path d="M37.5303 54.9687C37.4204 59.5214 39.7633 65.7054 43.0375 68.9334C46.3117 72.1614 51.414 73.0176 55.8684 72.5027C65.7606 71.2879 68.7918 60.7247 69.6769 52.2556C70.6488 42.9419 69.9199 29.3879 60.4905 24.3146C56.2791 22.0469 51.362 22.8741 47.5555 25.5641C45.6241 26.9518 43.988 28.7098 42.7425 30.7358C42.0425 31.8948 41.4276 33.1031 40.9029 34.3513C40.388 35.5488 40.0352 38.1578 39.2137 39.0892C38.3922 40.0205 36.3849 39.1991 34.9502 39.2454C33.3965 39.2627 31.882 39.7353 30.5942 40.6048C29.5547 41.3441 28.6936 42.3065 28.0741 43.4215C27.4545 44.5366 27.0921 45.776 27.0134 47.0492C26.6836 53.1985 32.5206 54.8993 37.5303 54.9687Z" fill="#147EFB"/>
<path d="M59.6459 37.1165C61.3733 42.2585 62.2772 47.6412 62.3243 53.0654C59.9927 53.4606 57.6315 53.6541 55.2667 53.6439" stroke="#0053C7" stroke-width="3" stroke-linecap="round" stroke-linejoin="round"/>
</svg>
