<?xml version="1.0" encoding="iso-8859-1"?>
<!-- Generator: Adobe Illustrator 19.0.0, SVG Export Plug-In . SVG Version: 6.00 Build 0)  -->
<svg version="1.1" fill="#147EFB" id="Layer_1" xmlns="http://www.w3.org/2000/svg" xmlns:xlink="http://www.w3.org/1999/xlink" x="0px" y="0px"
	 viewBox="0 0 330 330" style="enable-background:new 0 0 330 330;" xml:space="preserve">
<path id="XMLID_104_" d="M315,30h-85V15c0-8.284-6.716-15-15-15c-8.284,0-15,6.716-15,15v15h-70V15c0-8.284-6.716-15-15-15
	s-15,6.716-15,15v15H15C6.716,30,0,36.716,0,45v270c0,8.284,6.716,15,15,15h300c8.284,0,15-6.716,15-15V45
	C330,36.716,323.285,30,315,30z M300,60v30H30V60H300z M30,300V120h270v180H30z"/>
<g>
</g>
<g>
</g>
<g>
</g>
<g>
</g>
<g>
</g>
<g>
</g>
<g>
</g>
<g>
</g>
<g>
</g>
<g>
</g>
<g>
</g>
<g>
</g>
<g>
</g>
<g>
</g>
<g>
</g>
</svg>
