<svg version="1.1" id="Uploaded to svgrepo.com" xmlns="http://www.w3.org/2000/svg" xmlns:xlink="http://www.w3.org/1999/xlink" x="0px" y="0px"
	 width="32px" height="32px" viewBox="0 0 32 32" style="enable-background:new 0 0 32 32;" xml:space="preserve">
<style type="text/css">
	.puchipuchi_een{fill:#137EFA;}
</style>
<path class="puchipuchi_een" d="M1,24c0,1.1,0.9,2,2,2h26c1.1,0,2-0.9,2-2V12H1V24z M4,19h12c0.552,0,1,0.448,1,1s-0.448,1-1,1H4
	c-0.552,0-1-0.448-1-1S3.448,19,4,19z M4,22h5c0.552,0,1,0.448,1,1s-0.448,1-1,1H4c-0.552,0-1-0.448-1-1S3.448,22,4,22z M31,8v1H1V8
	c0-1.1,0.9-2,2-2h26C30.1,6,31,6.9,31,8z"/>
</svg>
