<svg xmlns="http://www.w3.org/2000/svg" viewBox="0 0 800 1000"><title>jake-hi</title><g id="jake"><g id="hi"><g id="body"><path d="M390,314.69c-.19,7.87,3.86,18.56,9.52,24.14S414,345.89,421.7,345c17.1-2.1,22.34-20.36,23.87-35,1.68-16.1.42-39.53-15.88-48.3-7.28-3.92-15.78-2.49-22.36,2.16a31,31,0,0,0-8.32,8.94,48.28,48.28,0,0,0-3.18,6.25c-.89,2.07-1.5,6.58-2.92,8.19s-4.89.19-7.37.27a13.73,13.73,0,0,0-7.53,2.35A14.79,14.79,0,0,0,371.82,301C371.25,311.63,381.34,314.57,390,314.69Z" style="fill:#1e78f0"/><path d="M588.77,633.49A1069.15,1069.15,0,0,0,585.86,521c-1.2-15.77-2.29-31.65-4.55-47.32-3-20.88-11.95-39.08-24.89-55.62-15.89-20.31-37.06-35-62.47-40.39-13.45-2.85-27.54-3.51-41.19-4.75-35.72-3.26-72.12-7.64-108-4.31-19.81,1.85-39.58,3.58-59.42,4.88-19.61,1.29-39.16,2.69-58.79.83-3.49-.33-8-.43-10.62-3.06-4-3.92-1.47-11.32-.29-15.93,3.44-13.37,7.62-26.71,12.32-39.68q3.19-8.81,6.84-17.44c1.79-4.25,2.33-5.68,6.43-7.6s8-3.69,12-5.49c4.51-2,13.21-4,16.5-7.78,2.68-3.11,1.81-9.54-1.27-12.11-3.69-3.09-8.32-.81-12.5-.36-3.87.41-5.41.91-5.23-3.15a73.67,73.67,0,0,1,1.47-10.12c.83-4.49,1.53-9,2.24-13.53.85-5.36,2.71-12.23,1.56-17.65a7.09,7.09,0,0,0-7.63-5.81c-5.59.58-8.06,7.37-9.74,11.85-.62,1.67-1.8,9.25-3.06,10-.5.31-5.49.28-6-.18-1.09-1-.26-10.48-.37-12-.49-7.17-4-23.16-14.8-15.61-4,2.84-3.48,9.85-4.37,14.27-.66,3.31-1.11,7.35-2.37,10.49-.83,2,0,2.19-1.73,2.19-2.12,0-1.38-2-1.69-3.83-.74-4.58-2.3-9-7.09-10.73-3.89-1.39-8.88-.26-10.42,3.89-.89,2.39-.38,5.47-.52,8a98.19,98.19,0,0,1-1,10.13,78,78,0,0,1-6.4,20.45c-12,26-22,52.71-31.39,79.78-7.58,21.95-17.29,46.67-6.29,69.2,8.23,16.87,25.33,27.17,42.43,33.3,22.77,8.16,47.85,10.34,71.67,13.61q21.53,2.94,43.12,5.45c.67,22.09.92,42.65,2,63.74,1.3,25.22,2.06,50.48,2.78,75.72.56,19.9,1.56,39.9,1.26,59.81-.33,21.88-1.36,43.73-1.44,65.62-.08,23.61-.17,47.21-1.13,70.8-1.2,29.76-3,59.53-4.49,89.28-.1,1.93.09,4-.93,5.28s-3.7,2-5,2.84a38.8,38.8,0,0,0-6.81,5.37c-2.24,2.31-4,5.43-2,8.49,2.18,3.3,7.05,2.88,10.51,3.11,16.45,1.06,33,.91,49.44.59q10-.19,20.08-.51c3.54-.11,8.47-.3,13.3-4.43s4.36-13.3,4.42-20.65c.16-19-.46-54.52.13-73.45,1.21-38.55,5.17-77,6-115.5s.76-92,2.17-130.58c.33-9.28.74-3.55.79-12.83,0-2.83,1.05-30.22,1.05-30.22s16.23-1.86,19.49-2.12c10.26-.8,30.83-1,30.83-1s4.36,33.87,5.79,50.88,2.71,48.72,4.16,65.78c3.06,35.79,3.12,71.64,4.74,107.47,1.64,36.09,3.7,72.17,4.17,108.31.18,14.17.06,28.29-.28,42.45-.37,15.4,3.23,16.25,17.66,16.45,5.63.08,13.27.12,18.91.11,11.08,0,22.13-.49,33.21-.73a143.24,143.24,0,0,0,17.07-1c3.93-.48,11.77-.53,13.55-5,2.82-7.15-7.55-9.87-12.1-12-3.41-1.58-6.65-3.15-8.06-6.46-.89-2.09-.47-5.91-.64-8.15q-.51-6.87-.94-13.76c-1.61-25.56-1.69-51.12-2.21-76.71s-2.51-50.78-3.83-76.22c8,5.08,19.14,6,28.36,6,10-.06,18.59-3.14,23.57-12.4,5.4-10.05,5.09-24.13,5.4-35.27C589.73,660.46,588.38,647,588.77,633.49Z" style="fill:#1e78f0"/></g><g id="body-lines"><line x1="220.84" y1="914.99" x2="568.97" y2="914.99" style="fill:none;stroke:#3741f0;stroke-linecap:round;stroke-linejoin:round;stroke-width:6px"/><path d="M524.08,702.29a21,21,0,0,1,5-16" style="fill:none;stroke:#3741f0;stroke-linecap:round;stroke-linejoin:round;stroke-width:6px"/><path d="M526.21,694a7.62,7.62,0,0,0,5.27.88" style="fill:none;stroke:#3741f0;stroke-linecap:round;stroke-linejoin:round;stroke-width:6px"/><path d="M551.46,716.82a9.27,9.27,0,0,0,5.29-3.43" style="fill:none;stroke:#3741f0;stroke-linecap:round;stroke-linejoin:round;stroke-width:6px"/><path d="M565.21,718.78a9.15,9.15,0,0,0,4.62-4.29" style="fill:none;stroke:#3741f0;stroke-linecap:round;stroke-linejoin:round;stroke-width:6px"/><path d="M508.77,460c6.68,12.7,10.08,94.16,11.21,133.35l2.13,73.74a24.26,24.26,0,0,1-.44,6.81c-1.36,5.31-6.18,9.48-6.5,14.94-.25,4.33.87,11.95,5.54,11.33-1.3,7,4.67,16.45,10.16,16.63" style="fill:none;stroke:#3741f0;stroke-linecap:round;stroke-linejoin:round;stroke-width:6px"/><path d="M428.23,283.83a89,89,0,0,1,4.63,27.57,71.16,71.16,0,0,1-12.2,1" style="fill:none;stroke:#3741f0;stroke-linecap:round;stroke-linejoin:round;stroke-width:6px"/></g></g></g></svg>