<svg width="318" height="212" viewBox="0 0 318 212" fill="none" xmlns="http://www.w3.org/2000/svg">
<rect width="318" height="212" fill="#23196F"/>
<path d="M45.782 90.2499H47.91V91.9999H41.47V90.2499H43.598V84.5519L41.918 85.5319L41.092 83.9639L44.228 82.1299H45.782V90.2499Z" fill="#42E8DF"/>
<path d="M61.7687 86.5539V91.3839C61.2927 91.6172 60.7327 91.7992 60.0887 91.9299C59.4447 92.0606 58.7821 92.1259 58.1007 92.1259C57.0554 92.1259 56.1501 91.9252 55.3847 91.5239C54.6194 91.1132 54.0314 90.5299 53.6207 89.7739C53.2101 89.0086 53.0047 88.1032 53.0047 87.0579C53.0047 86.0312 53.2054 85.1399 53.6067 84.3839C54.0174 83.6186 54.6007 83.0306 55.3567 82.6199C56.1127 82.2092 56.9947 82.0039 58.0027 82.0039C58.7121 82.0039 59.3701 82.1019 59.9767 82.2979C60.5927 82.4939 61.1014 82.7646 61.5027 83.1099L60.8167 84.6639C60.3594 84.3372 59.9114 84.1039 59.4727 83.9639C59.0434 83.8146 58.5767 83.7399 58.0727 83.7399C56.1687 83.7399 55.2167 84.8459 55.2167 87.0579C55.2167 88.1966 55.4641 89.0459 55.9587 89.6059C56.4534 90.1659 57.2001 90.4459 58.1987 90.4459C58.7401 90.4459 59.2767 90.3759 59.8087 90.2359V88.0659H57.8767V86.5539H61.7687Z" fill="#42E8DF"/>
<path d="M69.9627 86.8899C70.532 87.0579 70.9707 87.3519 71.2787 87.7719C71.596 88.1826 71.7547 88.6912 71.7547 89.2979C71.7547 90.1286 71.4467 90.7866 70.8307 91.2719C70.224 91.7572 69.384 91.9999 68.3107 91.9999H63.6207V82.1299H68.1707C69.1973 82.1299 70.0093 82.3586 70.6067 82.8159C71.2133 83.2732 71.5167 83.8986 71.5167 84.6919C71.5167 85.2052 71.3767 85.6579 71.0967 86.0499C70.826 86.4326 70.448 86.7126 69.9627 86.8899ZM65.7487 86.1479H67.8067C68.3667 86.1479 68.7773 86.0546 69.0387 85.8679C69.3093 85.6719 69.4447 85.3779 69.4447 84.9859C69.4447 84.5752 69.3093 84.2766 69.0387 84.0899C68.7773 83.8939 68.3667 83.7959 67.8067 83.7959H65.7487V86.1479ZM68.0587 90.3339C68.6373 90.3339 69.0573 90.2359 69.3187 90.0399C69.58 89.8439 69.7107 89.5266 69.7107 89.0879C69.7107 88.6492 69.58 88.3272 69.3187 88.1219C69.0573 87.9166 68.6373 87.8139 68.0587 87.8139H65.7487V90.3339H68.0587Z" fill="#42E8DF"/>
<path d="M85.7512 91.9999H83.3712L81.6632 88.8499C81.5232 88.6072 81.3552 88.4346 81.1592 88.3319C80.9632 88.2199 80.7158 88.1639 80.4172 88.1639H79.3392V91.9999H77.1832V82.1299H81.7192C82.8765 82.1299 83.7492 82.3866 84.3372 82.8999C84.9345 83.4039 85.2332 84.1366 85.2332 85.0979C85.2332 85.8446 85.0232 86.4699 84.6032 86.9739C84.1925 87.4779 83.6092 87.8092 82.8532 87.9679C83.3665 88.0986 83.8005 88.4672 84.1552 89.0739L85.7512 91.9999ZM81.3972 86.5119C82.0225 86.5119 82.4752 86.4046 82.7552 86.1899C83.0352 85.9659 83.1752 85.6206 83.1752 85.1539C83.1752 84.6779 83.0352 84.3326 82.7552 84.1179C82.4752 83.9032 82.0225 83.7959 81.3972 83.7959H79.3112V86.5119H81.3972Z" fill="#42E8DF"/>
<path d="M94.3949 91.9999L93.4569 89.8159H88.8649L87.9269 91.9999H85.7289L90.2649 82.1299H92.0149L96.5509 91.9999H94.3949ZM89.5789 88.1639H92.7429L91.1609 84.4679L89.5789 88.1639Z" fill="#42E8DF"/>
<path d="M105.483 82.1299H107.177V91.9999H105.259V86.1479L102.991 90.3759H101.591L99.3225 86.2039V91.9999H97.4045V82.1299H99.1265L102.305 88.1639L105.483 82.1299Z" fill="#42E8DF"/>
<path d="M24 88L26 90L30 86" stroke="#42E8DF" stroke-width="2" stroke-linecap="round" stroke-linejoin="round"/>
<path d="M24 113L26 115L30 111" stroke="#42E8DF" stroke-width="2" stroke-linecap="round" stroke-linejoin="round"/>
<path d="M24 138L26 140L30 136" stroke="#42E8DF" stroke-width="2" stroke-linecap="round" stroke-linejoin="round"/>
<path d="M47.714 115.25V117H40.924V115.39L44.214 111.904C44.9046 111.176 45.25 110.504 45.25 109.888C45.25 109.104 44.802 108.712 43.906 108.712C43.4953 108.712 43.066 108.796 42.618 108.964C42.17 109.123 41.7313 109.356 41.302 109.664L40.616 108.11C41.008 107.774 41.512 107.508 42.128 107.312C42.744 107.107 43.374 107.004 44.018 107.004C45.0446 107.004 45.8613 107.251 46.468 107.746C47.084 108.241 47.392 108.903 47.392 109.734C47.392 110.303 47.2706 110.831 47.028 111.316C46.7946 111.801 46.398 112.343 45.838 112.94L43.64 115.25H47.714Z" fill="#42E8DF"/>
<path d="M53.2102 110.616C53.8168 110.616 54.3582 110.751 54.8342 111.022C55.3102 111.283 55.6788 111.652 55.9402 112.128C56.2015 112.604 56.3322 113.155 56.3322 113.78C56.3322 114.443 56.1735 115.026 55.8562 115.53C55.5482 116.034 55.1048 116.426 54.5262 116.706C53.9568 116.977 53.2895 117.112 52.5242 117.112C51.8988 117.112 51.2782 117.014 50.6622 116.818C50.0462 116.613 49.5468 116.342 49.1642 116.006L49.8502 114.452C50.7555 115.087 51.6562 115.404 52.5522 115.404C53.1215 115.404 53.5508 115.273 53.8402 115.012C54.1388 114.751 54.2882 114.363 54.2882 113.85C54.2882 113.365 54.1342 112.982 53.8262 112.702C53.5275 112.422 53.1168 112.282 52.5942 112.282C52.2675 112.282 51.9408 112.343 51.6142 112.464C51.2968 112.585 51.0075 112.753 50.7462 112.968H49.5002V107.13H55.8562V108.796H51.6282V110.994C52.0762 110.742 52.6035 110.616 53.2102 110.616Z" fill="#42E8DF"/>
<path d="M70.1769 111.554V116.384C69.7009 116.617 69.1409 116.799 68.4969 116.93C67.8529 117.061 67.1902 117.126 66.5089 117.126C65.4635 117.126 64.5582 116.925 63.7929 116.524C63.0275 116.113 62.4395 115.53 62.0289 114.774C61.6182 114.009 61.4129 113.103 61.4129 112.058C61.4129 111.031 61.6135 110.14 62.0149 109.384C62.4255 108.619 63.0089 108.031 63.7649 107.62C64.5209 107.209 65.4029 107.004 66.4109 107.004C67.1202 107.004 67.7782 107.102 68.3849 107.298C69.0009 107.494 69.5095 107.765 69.9109 108.11L69.2249 109.664C68.7675 109.337 68.3195 109.104 67.8809 108.964C67.4515 108.815 66.9849 108.74 66.4809 108.74C64.5769 108.74 63.6249 109.846 63.6249 112.058C63.6249 113.197 63.8722 114.046 64.3669 114.606C64.8615 115.166 65.6082 115.446 66.6069 115.446C67.1482 115.446 67.6849 115.376 68.2169 115.236V113.066H66.2849V111.554H70.1769Z" fill="#42E8DF"/>
<path d="M78.3708 111.89C78.9401 112.058 79.3788 112.352 79.6868 112.772C80.0041 113.183 80.1628 113.691 80.1628 114.298C80.1628 115.129 79.8548 115.787 79.2388 116.272C78.6321 116.757 77.7921 117 76.7188 117H72.0288V107.13H76.5788C77.6055 107.13 78.4175 107.359 79.0148 107.816C79.6215 108.273 79.9248 108.899 79.9248 109.692C79.9248 110.205 79.7848 110.658 79.5048 111.05C79.2341 111.433 78.8561 111.713 78.3708 111.89ZM74.1568 111.148H76.2148C76.7748 111.148 77.1855 111.055 77.4468 110.868C77.7175 110.672 77.8528 110.378 77.8528 109.986C77.8528 109.575 77.7175 109.277 77.4468 109.09C77.1855 108.894 76.7748 108.796 76.2148 108.796H74.1568V111.148ZM76.4668 115.334C77.0455 115.334 77.4655 115.236 77.7268 115.04C77.9881 114.844 78.1188 114.527 78.1188 114.088C78.1188 113.649 77.9881 113.327 77.7268 113.122C77.4655 112.917 77.0455 112.814 76.4668 112.814H74.1568V115.334H76.4668Z" fill="#42E8DF"/>
<path d="M89.0493 117.126C88.3026 117.126 87.584 117.028 86.8933 116.832C86.2026 116.627 85.6286 116.347 85.1713 115.992L85.8713 114.438C86.8233 115.101 87.892 115.432 89.0773 115.432C89.6933 115.432 90.1646 115.334 90.4913 115.138C90.8273 114.933 90.9953 114.653 90.9953 114.298C90.9953 113.981 90.8413 113.733 90.5333 113.556C90.2346 113.379 89.698 113.206 88.9233 113.038C88.0553 112.861 87.36 112.646 86.8373 112.394C86.324 112.142 85.946 111.834 85.7033 111.47C85.47 111.097 85.3533 110.639 85.3533 110.098C85.3533 109.501 85.5166 108.969 85.8433 108.502C86.1793 108.035 86.646 107.671 87.2433 107.41C87.8406 107.139 88.5313 107.004 89.3153 107.004C90.0153 107.004 90.6873 107.107 91.3313 107.312C91.9846 107.517 92.5026 107.793 92.8853 108.138L92.1853 109.692C91.28 109.029 90.328 108.698 89.3293 108.698C88.76 108.698 88.312 108.81 87.9853 109.034C87.6586 109.249 87.4953 109.547 87.4953 109.93C87.4953 110.154 87.556 110.341 87.6773 110.49C87.808 110.63 88.018 110.756 88.3073 110.868C88.606 110.98 89.026 111.097 89.5673 111.218C90.8366 111.498 91.7466 111.857 92.2973 112.296C92.8573 112.735 93.1373 113.341 93.1373 114.116C93.1373 115.049 92.778 115.787 92.0593 116.328C91.3406 116.86 90.3373 117.126 89.0493 117.126Z" fill="#42E8DF"/>
<path d="M98.1684 117.126C97.4218 117.126 96.7031 117.028 96.0124 116.832C95.3218 116.627 94.7478 116.347 94.2904 115.992L94.9904 114.438C95.9424 115.101 97.0111 115.432 98.1964 115.432C98.8124 115.432 99.2838 115.334 99.6104 115.138C99.9464 114.933 100.114 114.653 100.114 114.298C100.114 113.981 99.9604 113.733 99.6524 113.556C99.3538 113.379 98.8171 113.206 98.0424 113.038C97.1744 112.861 96.4791 112.646 95.9564 112.394C95.4431 112.142 95.0651 111.834 94.8224 111.47C94.5891 111.097 94.4724 110.639 94.4724 110.098C94.4724 109.501 94.6358 108.969 94.9624 108.502C95.2984 108.035 95.7651 107.671 96.3624 107.41C96.9598 107.139 97.6504 107.004 98.4344 107.004C99.1344 107.004 99.8064 107.107 100.45 107.312C101.104 107.517 101.622 107.793 102.004 108.138L101.304 109.692C100.399 109.029 99.4471 108.698 98.4484 108.698C97.8791 108.698 97.4311 108.81 97.1044 109.034C96.7778 109.249 96.6144 109.547 96.6144 109.93C96.6144 110.154 96.6751 110.341 96.7964 110.49C96.9271 110.63 97.1371 110.756 97.4264 110.868C97.7251 110.98 98.1451 111.097 98.6864 111.218C99.9558 111.498 100.866 111.857 101.416 112.296C101.976 112.735 102.256 113.341 102.256 114.116C102.256 115.049 101.897 115.787 101.178 116.328C100.46 116.86 99.4564 117.126 98.1684 117.126Z" fill="#42E8DF"/>
<path d="M103.83 107.13H107.666C108.739 107.13 109.663 107.326 110.438 107.718C111.212 108.11 111.805 108.675 112.216 109.412C112.626 110.149 112.832 111.031 112.832 112.058C112.832 113.085 112.626 113.971 112.216 114.718C111.814 115.455 111.226 116.02 110.452 116.412C109.677 116.804 108.748 117 107.666 117H103.83V107.13ZM107.512 115.236C109.612 115.236 110.662 114.177 110.662 112.058C110.662 109.949 109.612 108.894 107.512 108.894H106.014V115.236H107.512Z" fill="#42E8DF"/>
<path d="M40.98 132.13H44.816C45.8893 132.13 46.8133 132.326 47.588 132.718C48.3626 133.11 48.9553 133.675 49.366 134.412C49.7766 135.15 49.982 136.032 49.982 137.058C49.982 138.085 49.7766 138.972 49.366 139.718C48.9646 140.456 48.3766 141.02 47.602 141.412C46.8273 141.804 45.8986 142 44.816 142H40.98V132.13ZM44.662 140.236C46.762 140.236 47.812 139.177 47.812 137.058C47.812 134.949 46.762 133.894 44.662 133.894H43.164V140.236H44.662Z" fill="#42E8DF"/>
<path d="M51.6577 132.13H55.4937C56.567 132.13 57.491 132.326 58.2657 132.718C59.0404 133.11 59.633 133.675 60.0437 134.412C60.4544 135.15 60.6597 136.032 60.6597 137.058C60.6597 138.085 60.4544 138.972 60.0437 139.718C59.6424 140.456 59.0544 141.02 58.2797 141.412C57.505 141.804 56.5764 142 55.4937 142H51.6577V132.13ZM55.3397 140.236C57.4397 140.236 58.4897 139.177 58.4897 137.058C58.4897 134.949 57.4397 133.894 55.3397 133.894H53.8417V140.236H55.3397Z" fill="#42E8DF"/>
<path d="M65.4714 142.112C64.7434 142.112 64.1041 141.968 63.5534 141.678C63.0028 141.38 62.5781 140.964 62.2794 140.432C61.9808 139.891 61.8314 139.256 61.8314 138.528C61.8314 137.8 61.9808 137.17 62.2794 136.638C62.5781 136.097 63.0028 135.682 63.5534 135.392C64.1041 135.103 64.7434 134.958 65.4714 134.958C66.1994 134.958 66.8388 135.103 67.3895 135.392C67.9401 135.682 68.3648 136.097 68.6635 136.638C68.9621 137.17 69.1115 137.8 69.1115 138.528C69.1115 139.256 68.9621 139.891 68.6635 140.432C68.3648 140.964 67.9401 141.38 67.3895 141.678C66.8388 141.968 66.1994 142.112 65.4714 142.112ZM65.4714 140.502C66.4981 140.502 67.0114 139.844 67.0114 138.528C67.0114 137.866 66.8761 137.371 66.6054 137.044C66.3441 136.718 65.9661 136.554 65.4714 136.554C64.4448 136.554 63.9314 137.212 63.9314 138.528C63.9314 139.844 64.4448 140.502 65.4714 140.502Z" fill="#42E8DF"/>
<path d="M74.0239 142.126C73.2773 142.126 72.5586 142.028 71.8679 141.832C71.1773 141.627 70.6033 141.347 70.1459 140.992L70.8459 139.438C71.7979 140.101 72.8666 140.432 74.0519 140.432C74.6679 140.432 75.1393 140.334 75.4659 140.138C75.8019 139.933 75.9699 139.653 75.9699 139.298C75.9699 138.981 75.8159 138.734 75.5079 138.556C75.2093 138.379 74.6726 138.206 73.8979 138.038C73.0299 137.861 72.3346 137.646 71.8119 137.394C71.2986 137.142 70.9206 136.834 70.6779 136.47C70.4446 136.097 70.3279 135.64 70.3279 135.098C70.3279 134.501 70.4913 133.969 70.8179 133.502C71.1539 133.036 71.6206 132.672 72.2179 132.41C72.8153 132.14 73.5059 132.004 74.2899 132.004C74.9899 132.004 75.6619 132.107 76.3059 132.312C76.9593 132.518 77.4773 132.793 77.8599 133.138L77.1599 134.692C76.2546 134.03 75.3026 133.698 74.3039 133.698C73.7346 133.698 73.2866 133.81 72.9599 134.034C72.6333 134.249 72.4699 134.548 72.4699 134.93C72.4699 135.154 72.5306 135.341 72.6519 135.49C72.7826 135.63 72.9926 135.756 73.2819 135.868C73.5806 135.98 74.0006 136.097 74.5419 136.218C75.8113 136.498 76.7213 136.858 77.2719 137.296C77.8319 137.735 78.1119 138.342 78.1119 139.116C78.1119 140.05 77.7526 140.787 77.0339 141.328C76.3153 141.86 75.3119 142.126 74.0239 142.126Z" fill="#42E8DF"/>
<path d="M87.6832 134.958C88.2712 134.958 88.7939 135.112 89.2512 135.42C89.7179 135.719 90.0772 136.144 90.3292 136.694C90.5905 137.236 90.7212 137.861 90.7212 138.57C90.7212 139.28 90.5905 139.905 90.3292 140.446C90.0772 140.978 89.7226 141.389 89.2652 141.678C88.8079 141.968 88.2805 142.112 87.6832 142.112C87.2165 142.112 86.7919 142.019 86.4092 141.832C86.0359 141.636 85.7465 141.366 85.5412 141.02V144.52H83.4272V135.126H85.5132V136.092C85.7185 135.738 86.0125 135.462 86.3952 135.266C86.7779 135.061 87.2072 134.958 87.6832 134.958ZM87.0672 140.502C87.5619 140.502 87.9445 140.339 88.2152 140.012C88.4859 139.676 88.6212 139.196 88.6212 138.57C88.6212 137.936 88.4859 137.446 88.2152 137.1C87.9445 136.746 87.5619 136.568 87.0672 136.568C86.5725 136.568 86.1899 136.741 85.9192 137.086C85.6485 137.422 85.5132 137.908 85.5132 138.542C85.5132 139.168 85.6485 139.653 85.9192 139.998C86.1899 140.334 86.5725 140.502 87.0672 140.502Z" fill="#42E8DF"/>
<path d="M96.9272 136.694L95.7372 136.82C95.1492 136.876 94.7338 137.044 94.4912 137.324C94.2485 137.595 94.1272 137.959 94.1272 138.416V142H92.0132V135.126H94.0432V136.288C94.3885 135.495 95.1025 135.061 96.1852 134.986L96.8012 134.944L96.9272 136.694Z" fill="#42E8DF"/>
<path d="M100.8 142.112C100.072 142.112 99.4322 141.968 98.8816 141.678C98.3309 141.38 97.9062 140.964 97.6076 140.432C97.3089 139.891 97.1596 139.256 97.1596 138.528C97.1596 137.8 97.3089 137.17 97.6076 136.638C97.9062 136.097 98.3309 135.682 98.8816 135.392C99.4322 135.103 100.072 134.958 100.8 134.958C101.528 134.958 102.167 135.103 102.718 135.392C103.268 135.682 103.693 136.097 103.992 136.638C104.29 137.17 104.44 137.8 104.44 138.528C104.44 139.256 104.29 139.891 103.992 140.432C103.693 140.964 103.268 141.38 102.718 141.678C102.167 141.968 101.528 142.112 100.8 142.112ZM100.8 140.502C101.826 140.502 102.34 139.844 102.34 138.528C102.34 137.866 102.204 137.371 101.934 137.044C101.672 136.718 101.294 136.554 100.8 136.554C99.7729 136.554 99.2596 137.212 99.2596 138.528C99.2596 139.844 99.7729 140.502 100.8 140.502Z" fill="#42E8DF"/>
<path d="M109.466 140.558C109.68 140.558 109.904 140.544 110.138 140.516L110.026 142.056C109.755 142.094 109.484 142.112 109.214 142.112C108.168 142.112 107.403 141.884 106.918 141.426C106.442 140.969 106.204 140.274 106.204 139.34V136.708H104.902V135.126H106.204V133.11H108.318V135.126H110.04V136.708H108.318V139.326C108.318 140.148 108.7 140.558 109.466 140.558Z" fill="#42E8DF"/>
<path d="M117.26 138.962H112.78C112.845 139.513 113.022 139.914 113.312 140.166C113.61 140.409 114.03 140.53 114.572 140.53C114.926 140.53 115.276 140.474 115.622 140.362C115.976 140.241 116.298 140.073 116.588 139.858L117.148 141.272C116.812 141.534 116.401 141.739 115.916 141.888C115.44 142.038 114.959 142.112 114.474 142.112C113.316 142.112 112.402 141.795 111.73 141.16C111.067 140.516 110.736 139.644 110.736 138.542C110.736 137.842 110.88 137.222 111.17 136.68C111.459 136.139 111.86 135.719 112.374 135.42C112.887 135.112 113.47 134.958 114.124 134.958C115.085 134.958 115.846 135.271 116.406 135.896C116.975 136.522 117.26 137.371 117.26 138.444V138.962ZM114.18 136.414C113.778 136.414 113.456 136.545 113.214 136.806C112.98 137.058 112.836 137.427 112.78 137.912H115.482C115.454 137.418 115.328 137.044 115.104 136.792C114.889 136.54 114.581 136.414 114.18 136.414Z" fill="#42E8DF"/>
<path d="M121.813 142.112C120.693 142.112 119.811 141.795 119.167 141.16C118.523 140.526 118.201 139.662 118.201 138.57C118.201 137.852 118.355 137.222 118.663 136.68C118.971 136.13 119.405 135.705 119.965 135.406C120.525 135.108 121.173 134.958 121.911 134.958C122.415 134.958 122.9 135.038 123.367 135.196C123.833 135.346 124.211 135.551 124.501 135.812L123.941 137.254C123.67 137.04 123.371 136.876 123.045 136.764C122.727 136.643 122.415 136.582 122.107 136.582C121.556 136.582 121.127 136.746 120.819 137.072C120.52 137.399 120.371 137.884 120.371 138.528C120.371 139.172 120.52 139.662 120.819 139.998C121.127 140.325 121.556 140.488 122.107 140.488C122.415 140.488 122.727 140.432 123.045 140.32C123.371 140.199 123.67 140.031 123.941 139.816L124.501 141.272C124.193 141.534 123.801 141.739 123.325 141.888C122.849 142.038 122.345 142.112 121.813 142.112Z" fill="#42E8DF"/>
<path d="M129.331 140.558C129.546 140.558 129.77 140.544 130.003 140.516L129.891 142.056C129.62 142.094 129.35 142.112 129.079 142.112C128.034 142.112 127.268 141.884 126.783 141.426C126.307 140.969 126.069 140.274 126.069 139.34V136.708H124.767V135.126H126.069V133.11H128.183V135.126H129.905V136.708H128.183V139.326C128.183 140.148 128.566 140.558 129.331 140.558Z" fill="#42E8DF"/>
<path d="M130.937 142V135.126H133.051V142H130.937ZM130.867 131.822H133.135V133.796H130.867V131.822Z" fill="#42E8DF"/>
<path d="M137.973 142.112C137.245 142.112 136.606 141.968 136.055 141.678C135.505 141.38 135.08 140.964 134.781 140.432C134.483 139.891 134.333 139.256 134.333 138.528C134.333 137.8 134.483 137.17 134.781 136.638C135.08 136.097 135.505 135.682 136.055 135.392C136.606 135.103 137.245 134.958 137.973 134.958C138.701 134.958 139.341 135.103 139.891 135.392C140.442 135.682 140.867 136.097 141.165 136.638C141.464 137.17 141.613 137.8 141.613 138.528C141.613 139.256 141.464 139.891 141.165 140.432C140.867 140.964 140.442 141.38 139.891 141.678C139.341 141.968 138.701 142.112 137.973 142.112ZM137.973 140.502C139 140.502 139.513 139.844 139.513 138.528C139.513 137.866 139.378 137.371 139.107 137.044C138.846 136.718 138.468 136.554 137.973 136.554C136.947 136.554 136.433 137.212 136.433 138.528C136.433 139.844 136.947 140.502 137.973 140.502Z" fill="#42E8DF"/>
<path d="M147.212 134.958C148.033 134.958 148.645 135.201 149.046 135.686C149.447 136.162 149.648 136.886 149.648 137.856V142H147.534V137.954C147.534 137.488 147.445 137.147 147.268 136.932C147.1 136.718 146.834 136.61 146.47 136.61C146.031 136.61 145.677 136.75 145.406 137.03C145.145 137.31 145.014 137.684 145.014 138.15V142H142.9V135.126H144.958V136.106C145.201 135.733 145.513 135.448 145.896 135.252C146.288 135.056 146.727 134.958 147.212 134.958Z" fill="#42E8DF"/>
<path d="M31.0199 184.162C29.7839 184.162 28.7099 183.898 27.7979 183.37C26.8979 182.842 26.2019 182.086 25.7099 181.102C25.2179 180.118 24.9719 178.966 24.9719 177.646C24.9719 176.326 25.2119 175.18 25.6919 174.208C26.1839 173.224 26.8859 172.468 27.7979 171.94C28.7099 171.412 29.7839 171.148 31.0199 171.148C32.2559 171.148 33.3239 171.412 34.2239 171.94C35.1359 172.468 35.8319 173.224 36.3119 174.208C36.8039 175.18 37.0499 176.326 37.0499 177.646C37.0499 178.966 36.8039 180.118 36.3119 181.102C35.8199 182.086 35.1179 182.842 34.2059 183.37C33.3059 183.898 32.2439 184.162 31.0199 184.162ZM31.0199 182.308C32.1839 182.308 33.0899 181.906 33.7379 181.102C34.3979 180.298 34.7279 179.146 34.7279 177.646C34.7279 176.146 34.3979 175 33.7379 174.208C33.0899 173.404 32.1839 173.002 31.0199 173.002C29.8439 173.002 28.9259 173.404 28.2659 174.208C27.6179 175 27.2939 176.146 27.2939 177.646C27.2939 179.146 27.6179 180.298 28.2659 181.102C28.9259 181.906 29.8439 182.308 31.0199 182.308Z" fill="white"/>
<path d="M44.3093 174.982C45.3653 174.982 46.1513 175.282 46.6673 175.882C47.1833 176.482 47.4413 177.388 47.4413 178.6V184H45.1913V178.726C45.1913 178.042 45.0593 177.544 44.7953 177.232C44.5433 176.92 44.1413 176.764 43.5893 176.764C42.9413 176.764 42.4193 176.968 42.0233 177.376C41.6393 177.784 41.4473 178.33 41.4473 179.014V184H39.1973V175.198H41.3933V176.512C41.6933 176.02 42.0953 175.642 42.5993 175.378C43.1033 175.114 43.6733 174.982 44.3093 174.982Z" fill="white"/>
<path d="M49.7266 184V171.31H51.9766V184H49.7266Z" fill="white"/>
<path d="M60.4709 175.216H62.6849L57.3929 187.24H55.1249L56.7269 183.658L53.0549 175.216H55.4309L57.9149 181.426L60.4709 175.216Z" fill="white"/>
<path d="M77.6762 180.4C77.6762 181.36 77.3402 182.176 76.6682 182.848C75.9962 183.508 75.1022 183.922 73.9862 184.09V186.07H72.1502V184.126C71.3462 184.066 70.6022 183.91 69.9182 183.658C69.2462 183.406 68.6582 183.07 68.1542 182.65L68.9282 180.976C69.5402 181.432 70.1582 181.768 70.7822 181.984C71.4182 182.2 72.1022 182.308 72.8342 182.308C73.6502 182.308 74.2742 182.152 74.7062 181.84C75.1502 181.528 75.3722 181.078 75.3722 180.49C75.3722 180.142 75.2522 179.86 75.0122 179.644C74.7722 179.428 74.4722 179.26 74.1122 179.14C73.7642 179.008 73.2662 178.858 72.6182 178.69C71.7062 178.462 70.9682 178.234 70.4042 178.006C69.8402 177.766 69.3542 177.406 68.9462 176.926C68.5382 176.434 68.3342 175.78 68.3342 174.964C68.3342 174.004 68.6822 173.182 69.3782 172.498C70.0862 171.814 70.9982 171.388 72.1142 171.22V169.24H73.9502V171.202C74.6342 171.286 75.2822 171.454 75.8942 171.706C76.5182 171.958 77.0342 172.27 77.4422 172.642L76.6682 174.316C75.5522 173.44 74.3582 173.002 73.0862 173.002C72.3422 173.002 71.7482 173.164 71.3042 173.488C70.8722 173.812 70.6562 174.262 70.6562 174.838C70.6562 175.234 70.7822 175.558 71.0342 175.81C71.2862 176.05 71.6042 176.242 71.9882 176.386C72.3842 176.53 72.9122 176.68 73.5722 176.836C74.4482 177.052 75.1562 177.274 75.6962 177.502C76.2482 177.718 76.7162 178.06 77.1002 178.528C77.4842 178.996 77.6762 179.62 77.6762 180.4Z" fill="white"/>
<path d="M84.3652 175.882C85.1572 175.882 85.8532 176.056 86.4532 176.404C87.0652 176.74 87.5332 177.214 87.8572 177.826C88.1932 178.438 88.3612 179.14 88.3612 179.932C88.3612 180.772 88.1692 181.51 87.7852 182.146C87.4012 182.782 86.8552 183.274 86.1472 183.622C85.4512 183.97 84.6292 184.144 83.6812 184.144C82.8892 184.144 82.1032 184.012 81.3232 183.748C80.5552 183.472 79.9192 183.112 79.4152 182.668L80.1892 180.976C81.3412 181.852 82.5172 182.29 83.7172 182.29C84.5092 182.29 85.1152 182.092 85.5352 181.696C85.9552 181.3 86.1652 180.736 86.1652 180.004C86.1652 179.296 85.9492 178.738 85.5172 178.33C85.0972 177.91 84.5212 177.7 83.7892 177.7C83.2972 177.7 82.8292 177.796 82.3852 177.988C81.9532 178.168 81.5632 178.432 81.2152 178.78H79.8292V171.31H87.7852V173.11H82.0972V176.53C82.7092 176.098 83.4652 175.882 84.3652 175.882Z" fill="white"/>
<path d="M95.3109 185.314L93.6009 184.774L98.2269 170.302L99.9369 170.842L95.3109 185.314Z" fill="white"/>
<path d="M110.159 174.982C111.155 174.982 111.899 175.282 112.391 175.882C112.883 176.47 113.129 177.376 113.129 178.6V184H110.879V178.69C110.879 178.018 110.765 177.532 110.537 177.232C110.309 176.92 109.943 176.764 109.439 176.764C108.839 176.764 108.371 176.968 108.035 177.376C107.699 177.784 107.531 178.354 107.531 179.086V184H105.281V178.69C105.281 178.018 105.167 177.532 104.939 177.232C104.723 176.92 104.357 176.764 103.841 176.764C103.253 176.764 102.791 176.968 102.455 177.376C102.119 177.784 101.951 178.354 101.951 179.086V184H99.7012V175.198H101.897V176.44C102.161 175.96 102.527 175.6 102.995 175.36C103.463 175.108 103.997 174.982 104.597 174.982C105.929 174.982 106.811 175.534 107.243 176.638C107.519 176.122 107.915 175.72 108.431 175.432C108.947 175.132 109.523 174.982 110.159 174.982Z" fill="white"/>
<path d="M119.43 184.144C118.53 184.144 117.738 183.958 117.054 183.586C116.382 183.214 115.86 182.68 115.488 181.984C115.116 181.288 114.93 180.478 114.93 179.554C114.93 178.63 115.116 177.826 115.488 177.142C115.86 176.446 116.382 175.912 117.054 175.54C117.738 175.168 118.53 174.982 119.43 174.982C120.33 174.982 121.116 175.168 121.788 175.54C122.472 175.912 122.994 176.446 123.354 177.142C123.726 177.826 123.912 178.63 123.912 179.554C123.912 180.478 123.726 181.288 123.354 181.984C122.994 182.68 122.472 183.214 121.788 183.586C121.116 183.958 120.33 184.144 119.43 184.144ZM119.412 182.398C120.144 182.398 120.702 182.158 121.086 181.678C121.47 181.198 121.662 180.49 121.662 179.554C121.662 178.63 121.47 177.928 121.086 177.448C120.702 176.956 120.15 176.71 119.43 176.71C118.71 176.71 118.152 176.956 117.756 177.448C117.372 177.928 117.18 178.63 117.18 179.554C117.18 180.49 117.372 181.198 117.756 181.678C118.14 182.158 118.692 182.398 119.412 182.398Z" fill="white"/>
<path d="M125.343 181.516H127.863V184H125.343V181.516Z" fill="white"/>
<g opacity="0.16" clip-path="url(#clip0)">
<line x1="331.345" y1="97.9936" x2="99.2499" y2="231.994" stroke="#42E8DF"/>
<line x1="334.439" y1="99.726" x2="102.345" y2="233.726" stroke="#42E8DF"/>
<line x1="337.534" y1="101.458" x2="105.439" y2="235.458" stroke="#42E8DF"/>
<line x1="340.629" y1="103.19" x2="108.534" y2="237.19" stroke="#42E8DF"/>
<line x1="343.724" y1="104.922" x2="111.629" y2="238.922" stroke="#42E8DF"/>
<line x1="346.818" y1="106.655" x2="114.724" y2="240.655" stroke="#42E8DF"/>
<line x1="349.913" y1="108.386" x2="117.818" y2="242.386" stroke="#42E8DF"/>
<line x1="353.008" y1="110.119" x2="120.913" y2="244.119" stroke="#42E8DF"/>
<line x1="356.103" y1="111.85" x2="124.008" y2="245.85" stroke="#42E8DF"/>
<line x1="359.197" y1="113.582" x2="127.102" y2="247.582" stroke="#42E8DF"/>
<line x1="362.292" y1="115.315" x2="130.197" y2="249.315" stroke="#42E8DF"/>
<line x1="365.387" y1="117.046" x2="133.292" y2="251.046" stroke="#42E8DF"/>
<line x1="368.481" y1="118.779" x2="136.387" y2="252.779" stroke="#42E8DF"/>
<line x1="371.576" y1="120.51" x2="139.481" y2="254.51" stroke="#42E8DF"/>
<line x1="374.671" y1="122.243" x2="142.576" y2="256.243" stroke="#42E8DF"/>
<line x1="377.766" y1="123.975" x2="145.671" y2="257.975" stroke="#42E8DF"/>
<line x1="380.86" y1="125.706" x2="148.766" y2="259.706" stroke="#42E8DF"/>
<line x1="383.955" y1="127.439" x2="151.86" y2="261.439" stroke="#42E8DF"/>
<line x1="387.05" y1="129.17" x2="154.955" y2="263.17" stroke="#42E8DF"/>
<line x1="390.145" y1="130.903" x2="158.05" y2="264.903" stroke="#42E8DF"/>
<line x1="393.239" y1="132.634" x2="161.144" y2="266.634" stroke="#42E8DF"/>
<line x1="396.334" y1="134.367" x2="164.239" y2="268.367" stroke="#42E8DF"/>
<line x1="399.428" y1="136.098" x2="167.334" y2="270.098" stroke="#42E8DF"/>
<line x1="402.523" y1="137.83" x2="170.429" y2="271.83" stroke="#42E8DF"/>
<line x1="405.618" y1="139.562" x2="173.523" y2="273.562" stroke="#42E8DF"/>
<line x1="408.713" y1="141.294" x2="176.618" y2="275.294" stroke="#42E8DF"/>
<line x1="411.808" y1="143.027" x2="179.713" y2="277.027" stroke="#42E8DF"/>
<line x1="414.902" y1="144.759" x2="182.808" y2="278.759" stroke="#42E8DF"/>
<line x1="417.997" y1="146.492" x2="185.902" y2="280.492" stroke="#42E8DF"/>
<line x1="421.092" y1="148.223" x2="188.997" y2="282.223" stroke="#42E8DF"/>
<line x1="424.187" y1="149.955" x2="192.092" y2="283.955" stroke="#42E8DF"/>
<line x1="427.281" y1="151.687" x2="195.186" y2="285.687" stroke="#42E8DF"/>
<line x1="430.376" y1="153.42" x2="198.281" y2="287.42" stroke="#42E8DF"/>
<line x1="433.471" y1="155.151" x2="201.376" y2="289.151" stroke="#42E8DF"/>
<line x1="436.565" y1="156.883" x2="204.471" y2="290.883" stroke="#42E8DF"/>
<line x1="439.66" y1="158.615" x2="207.565" y2="292.615" stroke="#42E8DF"/>
<line x1="442.755" y1="160.348" x2="210.66" y2="294.348" stroke="#42E8DF"/>
<line x1="445.85" y1="162.079" x2="213.755" y2="296.079" stroke="#42E8DF"/>
</g>
<g clip-path="url(#clip1)">
<path d="M246.93 141.231C246.63 141.231 246.301 141.133 245.967 140.941L239.789 137.387C239.67 137.318 239.627 137.164 239.699 137.043C239.768 136.924 239.923 136.883 240.042 136.952L246.217 140.506C246.637 140.746 247.019 140.793 247.293 140.637C247.567 140.48 247.717 140.126 247.717 139.643V138.16C247.717 137.489 247.956 136.981 248.392 136.731C248.827 136.479 249.389 136.527 249.971 136.862L251.262 137.604C251.381 137.672 251.424 137.827 251.352 137.946C251.283 138.067 251.131 138.11 251.009 138.039L249.719 137.297C249.299 137.054 248.917 137.009 248.645 137.166C248.371 137.323 248.221 137.675 248.221 138.16V139.643C248.221 140.313 247.98 140.82 247.546 141.072C247.36 141.179 247.152 141.231 246.93 141.231Z" fill="#42E8DF"/>
<path d="M244.528 142.607C244.228 142.607 243.899 142.51 243.565 142.317L237.387 138.763C237.266 138.694 237.225 138.54 237.294 138.421C237.366 138.3 237.519 138.259 237.64 138.328L243.815 141.882C244.235 142.124 244.617 142.172 244.891 142.013C245.163 141.856 245.313 141.504 245.313 141.022V139.536C245.313 138.866 245.554 138.359 245.991 138.107C246.427 137.858 246.985 137.905 247.57 138.238L248.858 138.982C248.979 139.051 249.02 139.206 248.951 139.324C248.881 139.446 248.726 139.486 248.607 139.417L247.317 138.675C246.897 138.433 246.515 138.385 246.241 138.542C245.969 138.699 245.819 139.053 245.819 139.536V141.022C245.819 141.692 245.578 142.198 245.141 142.448C244.958 142.555 244.75 142.607 244.528 142.607Z" fill="#42E8DF"/>
<path d="M242.127 143.986C241.826 143.986 241.497 143.888 241.161 143.696L234.986 140.142C234.864 140.071 234.824 139.919 234.893 139.797C234.962 139.679 235.117 139.638 235.239 139.707L241.414 143.261C241.834 143.503 242.215 143.548 242.489 143.391C242.761 143.235 242.912 142.88 242.912 142.398V140.915C242.912 140.244 243.152 139.736 243.587 139.486C244.023 139.234 244.584 139.282 245.166 139.617L246.456 140.358C246.578 140.427 246.618 140.582 246.549 140.701C246.48 140.822 246.325 140.862 246.205 140.793L244.915 140.052C244.495 139.809 244.114 139.762 243.839 139.921C243.568 140.078 243.417 140.43 243.417 140.915V142.398C243.417 143.068 243.176 143.575 242.74 143.826C242.556 143.933 242.349 143.986 242.127 143.986Z" fill="#42E8DF"/>
<path d="M239.725 145.362C239.422 145.362 239.095 145.264 238.759 145.072L232.584 141.518C232.462 141.449 232.422 141.295 232.491 141.176C232.56 141.055 232.715 141.014 232.834 141.083L239.012 144.637C239.431 144.879 239.813 144.927 240.085 144.767C240.359 144.611 240.51 144.259 240.51 143.774V142.291C240.51 141.62 240.75 141.114 241.184 140.862C241.621 140.612 242.181 140.658 242.763 140.993L244.054 141.734C244.175 141.806 244.216 141.958 244.147 142.079C244.078 142.198 243.923 142.241 243.801 142.172L242.513 141.428C242.093 141.188 241.709 141.14 241.437 141.297C241.163 141.454 241.013 141.808 241.013 142.291V143.774C241.013 144.444 240.774 144.953 240.338 145.202C240.154 145.309 239.947 145.362 239.725 145.362Z" fill="#42E8DF"/>
<path d="M237.321 146.741C237.02 146.741 236.693 146.643 236.357 146.451L230.18 142.897C230.06 142.826 230.02 142.674 230.089 142.552C230.158 142.433 230.313 142.391 230.432 142.46L236.61 146.013C237.03 146.256 237.411 146.303 237.683 146.146C237.957 145.987 238.108 145.635 238.108 145.153V143.667C238.108 142.997 238.346 142.491 238.783 142.241C239.219 141.989 239.78 142.037 240.362 142.372L241.652 143.113C241.771 143.182 241.814 143.337 241.745 143.456C241.674 143.577 241.521 143.617 241.399 143.548L240.109 142.807C239.689 142.564 239.307 142.517 239.036 142.676C238.761 142.833 238.611 143.185 238.611 143.667V145.153C238.611 145.823 238.372 146.329 237.936 146.581C237.75 146.686 237.542 146.741 237.321 146.741Z" fill="#42E8DF"/>
<path d="M234.919 148.117C234.618 148.117 234.289 148.019 233.955 147.827L227.778 144.273C227.659 144.204 227.616 144.05 227.687 143.928C227.756 143.809 227.911 143.769 228.031 143.838L234.208 147.392C234.625 147.632 235.01 147.679 235.281 147.522C235.556 147.365 235.706 147.014 235.706 146.529V145.045C235.706 144.375 235.944 143.869 236.381 143.617C236.817 143.365 237.378 143.412 237.96 143.748L239.25 144.489C239.37 144.561 239.412 144.713 239.341 144.834C239.272 144.953 239.117 144.993 238.997 144.924L237.707 144.183C237.287 143.94 236.906 143.895 236.631 144.052C236.359 144.209 236.209 144.561 236.209 145.045V146.529C236.209 147.199 235.968 147.708 235.534 147.957C235.348 148.064 235.141 148.117 234.919 148.117Z" fill="#42E8DF"/>
<path d="M232.517 149.494C232.217 149.494 231.887 149.396 231.553 149.204L225.376 145.65C225.254 145.581 225.214 145.426 225.283 145.308C225.354 145.186 225.51 145.146 225.629 145.215L231.804 148.769C232.224 149.011 232.605 149.059 232.88 148.899C233.151 148.742 233.304 148.391 233.304 147.908V146.422C233.304 145.752 233.543 145.246 233.979 144.994C234.413 144.744 234.976 144.789 235.558 145.125L236.848 145.869C236.968 145.938 237.008 146.09 236.939 146.211C236.87 146.33 236.715 146.372 236.596 146.304L235.305 145.56C234.885 145.319 234.504 145.272 234.23 145.429C233.958 145.586 233.807 145.94 233.807 146.422V147.908C233.807 148.578 233.567 149.085 233.132 149.334C232.946 149.441 232.739 149.494 232.517 149.494Z" fill="#42E8DF"/>
<path d="M230.115 150.871C229.815 150.871 229.486 150.774 229.149 150.581L222.974 147.028C222.852 146.957 222.812 146.804 222.881 146.683C222.95 146.564 223.105 146.522 223.227 146.59L229.402 150.146C229.822 150.387 230.203 150.434 230.478 150.277C230.75 150.12 230.9 149.766 230.9 149.284V147.798C230.9 147.13 231.141 146.621 231.575 146.372C232.011 146.12 232.572 146.167 233.154 146.503L234.444 147.244C234.566 147.313 234.606 147.468 234.537 147.589C234.468 147.708 234.313 147.748 234.194 147.679L232.903 146.938C232.481 146.695 232.102 146.648 231.828 146.807C231.556 146.964 231.406 147.315 231.406 147.798V149.284C231.406 149.954 231.165 150.46 230.728 150.712C230.545 150.819 230.337 150.871 230.115 150.871Z" fill="#42E8DF"/>
<path d="M227.714 152.248C227.411 152.248 227.084 152.151 226.748 151.958L220.572 148.405C220.451 148.336 220.41 148.181 220.479 148.063C220.549 147.941 220.704 147.901 220.823 147.97L227 151.523C227.42 151.766 227.802 151.811 228.076 151.654C228.348 151.497 228.498 151.145 228.498 150.661V149.177C228.498 148.507 228.739 148.001 229.173 147.749C229.61 147.497 230.17 147.544 230.752 147.879L232.043 148.621C232.164 148.692 232.205 148.845 232.136 148.966C232.066 149.085 231.911 149.125 231.79 149.058L230.502 148.314C230.082 148.074 229.7 148.027 229.426 148.184C229.152 148.341 229.002 148.695 229.002 149.177V150.661C229.002 151.331 228.763 151.84 228.327 152.089C228.143 152.196 227.935 152.248 227.714 152.248Z" fill="#42E8DF"/>
<path d="M225.309 153.625C225.009 153.628 224.682 153.53 224.346 153.338L218.168 149.782C218.049 149.713 218.009 149.558 218.078 149.439C218.147 149.318 218.302 149.278 218.421 149.347L224.599 152.9C225.018 153.143 225.4 153.188 225.672 153.031C225.946 152.874 226.097 152.522 226.097 152.04V150.554C226.097 149.884 226.335 149.377 226.772 149.128C227.208 148.876 227.768 148.923 228.35 149.256L229.641 150C229.762 150.069 229.803 150.224 229.734 150.342C229.662 150.464 229.51 150.504 229.388 150.435L228.098 149.694C227.678 149.451 227.296 149.404 227.024 149.563C226.75 149.72 226.6 150.072 226.6 150.554V152.04C226.6 152.71 226.361 153.216 225.925 153.466C225.739 153.573 225.531 153.625 225.309 153.625Z" fill="#42E8DF"/>
<path d="M222.907 155.004C222.607 155.004 222.278 154.907 221.944 154.714L215.766 151.161C215.647 151.092 215.604 150.937 215.676 150.818C215.745 150.697 215.9 150.657 216.019 150.726L222.194 154.279C222.616 154.522 222.998 154.567 223.27 154.41C223.544 154.253 223.694 153.899 223.694 153.416V151.933C223.694 151.263 223.933 150.754 224.369 150.505C224.806 150.253 225.366 150.3 225.948 150.635L227.239 151.377C227.358 151.446 227.401 151.6 227.329 151.722C227.26 151.84 227.105 151.881 226.986 151.812L225.696 151.07C225.276 150.828 224.894 150.783 224.622 150.94C224.348 151.096 224.198 151.448 224.198 151.933V153.416C224.198 154.087 223.957 154.593 223.523 154.845C223.337 154.952 223.129 155.004 222.907 155.004Z" fill="#42E8DF"/>
<path d="M220.506 156.38C220.205 156.38 219.876 156.283 219.542 156.09L213.364 152.537C213.245 152.468 213.202 152.313 213.271 152.194C213.343 152.073 213.496 152.033 213.617 152.102L219.792 155.655C220.212 155.898 220.594 155.945 220.868 155.786C221.14 155.629 221.29 155.277 221.29 154.795V153.309C221.29 152.639 221.531 152.133 221.968 151.881C222.404 151.631 222.965 151.676 223.547 152.011L224.837 152.755C224.956 152.824 224.997 152.979 224.928 153.098C224.858 153.219 224.703 153.259 224.584 153.19L223.294 152.446C222.874 152.206 222.492 152.159 222.218 152.316C221.946 152.472 221.796 152.827 221.796 153.309V154.795C221.796 155.463 221.555 155.971 221.121 156.221C220.935 156.328 220.727 156.38 220.506 156.38Z" fill="#42E8DF"/>
<path d="M218.104 157.758C217.803 157.758 217.474 157.661 217.138 157.466L210.963 153.915C210.841 153.843 210.8 153.691 210.87 153.57C210.939 153.451 211.094 153.411 211.215 153.477L217.391 157.031C217.81 157.273 218.192 157.321 218.466 157.164C218.738 157.007 218.888 156.653 218.888 156.17V154.685C218.888 154.014 219.129 153.508 219.566 153.259C220 153.007 220.56 153.054 221.142 153.389L222.433 154.131C222.554 154.2 222.595 154.354 222.526 154.473C222.457 154.594 222.302 154.635 222.182 154.566L220.892 153.824C220.472 153.582 220.091 153.537 219.816 153.694C219.544 153.85 219.394 154.202 219.394 154.685V156.17C219.394 156.841 219.153 157.347 218.717 157.599C218.533 157.704 218.326 157.758 218.104 157.758Z" fill="#42E8DF"/>
<path d="M215.702 159.134C215.399 159.134 215.072 159.037 214.736 158.844L208.561 155.291C208.439 155.222 208.399 155.067 208.468 154.946C208.537 154.827 208.692 154.787 208.811 154.856L214.989 158.409C215.408 158.649 215.79 158.697 216.062 158.54C216.336 158.383 216.487 158.031 216.487 157.546V156.063C216.487 155.393 216.727 154.884 217.162 154.634C217.598 154.385 218.159 154.43 218.741 154.765L220.031 155.507C220.153 155.576 220.193 155.73 220.124 155.851C220.055 155.97 219.9 156.011 219.778 155.942L218.49 155.2C218.068 154.958 217.686 154.913 217.414 155.069C217.142 155.226 216.99 155.578 216.99 156.063V157.546C216.99 158.217 216.751 158.725 216.315 158.975C216.131 159.082 215.924 159.134 215.702 159.134Z" fill="#42E8DF"/>
<path d="M213.3 160.51C212.997 160.51 212.67 160.413 212.334 160.22L206.159 156.667C206.037 156.598 205.997 156.446 206.066 156.324C206.135 156.203 206.29 156.163 206.409 156.232L212.587 159.785C213.007 160.028 213.388 160.075 213.66 159.916C213.934 159.759 214.085 159.407 214.085 158.925V157.439C214.085 156.769 214.323 156.263 214.76 156.011C215.196 155.761 215.757 155.809 216.339 156.141L217.629 156.885C217.748 156.954 217.791 157.109 217.722 157.228C217.65 157.349 217.498 157.389 217.376 157.32L216.086 156.579C215.668 156.336 215.284 156.289 215.013 156.446C214.738 156.605 214.588 156.957 214.588 157.439V158.925C214.588 159.595 214.349 160.102 213.913 160.351C213.727 160.458 213.522 160.51 213.3 160.51Z" fill="#42E8DF"/>
<path d="M210.896 161.889C210.595 161.889 210.266 161.792 209.932 161.599L203.755 158.045C203.636 157.974 203.593 157.822 203.664 157.701C203.733 157.582 203.888 157.541 204.008 157.61L210.185 161.164C210.603 161.404 210.987 161.452 211.258 161.295C211.533 161.138 211.683 160.784 211.683 160.301V158.818C211.683 158.148 211.922 157.639 212.358 157.389C212.794 157.137 213.355 157.185 213.937 157.52L215.227 158.262C215.347 158.331 215.39 158.485 215.318 158.604C215.249 158.725 215.096 158.766 214.974 158.697L213.684 157.955C213.264 157.713 212.883 157.667 212.611 157.824C212.337 157.981 212.186 158.333 212.186 158.818V160.301C212.186 160.972 211.945 161.478 211.511 161.73C211.325 161.837 211.118 161.889 210.896 161.889Z" fill="#42E8DF"/>
<path d="M208.494 163.266C208.193 163.266 207.864 163.169 207.53 162.976L201.353 159.423C201.233 159.354 201.191 159.199 201.262 159.08C201.331 158.959 201.486 158.919 201.606 158.988L207.781 162.541C208.2 162.784 208.582 162.829 208.856 162.672C209.128 162.515 209.281 162.163 209.281 161.678V160.195C209.281 159.525 209.519 159.018 209.956 158.767C210.39 158.517 210.951 158.564 211.535 158.897L212.825 159.639C212.944 159.71 212.985 159.862 212.916 159.984C212.847 160.102 212.692 160.145 212.572 160.076L211.282 159.332C210.862 159.092 210.481 159.045 210.206 159.202C209.934 159.358 209.784 159.713 209.784 160.195V161.678C209.784 162.351 209.543 162.857 209.109 163.107C208.923 163.214 208.716 163.266 208.494 163.266Z" fill="#42E8DF"/>
<path d="M206.092 164.645C205.791 164.645 205.462 164.547 205.126 164.355L198.951 160.801C198.829 160.73 198.789 160.578 198.858 160.457C198.927 160.338 199.082 160.295 199.204 160.364L205.379 163.918C205.799 164.16 206.18 164.208 206.455 164.051C206.726 163.894 206.877 163.54 206.877 163.057V161.571C206.877 160.901 207.118 160.395 207.554 160.145C207.988 159.893 208.549 159.941 209.131 160.276L210.421 161.018C210.543 161.087 210.583 161.241 210.514 161.36C210.445 161.481 210.29 161.522 210.171 161.453L208.88 160.711C208.46 160.468 208.079 160.421 207.805 160.58C207.533 160.737 207.382 161.089 207.382 161.571V163.057C207.382 163.727 207.141 164.234 206.705 164.486C206.521 164.59 206.314 164.645 206.092 164.645Z" fill="#42E8DF"/>
<path d="M203.69 166.021C203.387 166.021 203.061 165.923 202.724 165.731L196.549 162.177C196.428 162.108 196.387 161.954 196.456 161.833C196.525 161.714 196.68 161.673 196.8 161.742L202.977 165.296C203.397 165.538 203.779 165.584 204.053 165.427C204.325 165.27 204.475 164.918 204.475 164.433V162.95C204.475 162.279 204.716 161.773 205.15 161.521C205.587 161.269 206.147 161.317 206.729 161.652L208.019 162.394C208.141 162.465 208.182 162.617 208.112 162.738C208.043 162.857 207.888 162.897 207.767 162.829L206.479 162.087C206.056 161.844 205.675 161.799 205.403 161.956C205.129 162.113 204.978 162.467 204.978 162.95V164.433C204.978 165.103 204.74 165.612 204.303 165.862C204.12 165.969 203.912 166.021 203.69 166.021Z" fill="#42E8DF"/>
<path d="M201.286 167.397C200.986 167.397 200.659 167.302 200.323 167.107L194.147 163.553C194.026 163.484 193.985 163.33 194.054 163.211C194.124 163.09 194.279 163.049 194.398 163.118L200.575 166.672C200.995 166.914 201.377 166.962 201.649 166.803C201.923 166.646 202.073 166.294 202.073 165.811V164.326C202.073 163.655 202.314 163.149 202.748 162.897C203.185 162.648 203.745 162.693 204.327 163.028L205.618 163.772C205.739 163.841 205.78 163.993 205.711 164.114C205.641 164.233 205.486 164.276 205.365 164.207L204.074 163.463C203.655 163.223 203.275 163.175 203.001 163.332C202.727 163.489 202.576 163.843 202.576 164.326V165.811C202.576 166.482 202.338 166.988 201.902 167.238C201.718 167.345 201.51 167.397 201.286 167.397Z" fill="#42E8DF"/>
<path d="M256.774 141.343C256.552 141.343 256.345 141.291 256.161 141.184C255.725 140.934 255.484 140.426 255.484 139.758V138.272C255.484 137.789 255.334 137.435 255.062 137.278C254.787 137.122 254.406 137.169 253.986 137.412L252.696 138.153C252.574 138.222 252.421 138.179 252.352 138.06C252.283 137.942 252.324 137.787 252.445 137.718L253.733 136.974C254.318 136.639 254.878 136.594 255.312 136.843C255.749 137.095 255.99 137.602 255.99 138.272V139.758C255.99 140.24 256.14 140.592 256.412 140.749C256.686 140.906 257.068 140.861 257.487 140.618L263.663 137.065C263.787 136.996 263.937 137.036 264.008 137.157C264.078 137.276 264.035 137.431 263.915 137.5L257.74 141.053C257.404 141.246 257.075 141.343 256.774 141.343Z" fill="#42E8DF"/>
<path d="M259.176 142.722C258.954 142.722 258.747 142.667 258.563 142.563C258.127 142.311 257.888 141.805 257.888 141.134V139.651C257.888 139.166 257.736 138.814 257.464 138.657C257.189 138.498 256.808 138.546 256.388 138.788L255.1 139.53C254.976 139.599 254.823 139.556 254.754 139.437C254.685 139.318 254.726 139.164 254.847 139.095L256.138 138.353C256.719 138.018 257.28 137.97 257.716 138.222C258.151 138.472 258.391 138.978 258.391 139.651V141.134C258.391 141.617 258.542 141.971 258.814 142.128C259.086 142.285 259.47 142.237 259.889 141.997L266.067 138.441C266.186 138.372 266.339 138.415 266.41 138.534C266.479 138.655 266.439 138.807 266.317 138.878L260.142 142.432C259.806 142.625 259.479 142.722 259.176 142.722Z" fill="#42E8DF"/>
<path d="M261.578 144.097C261.356 144.097 261.151 144.045 260.965 143.938C260.528 143.688 260.29 143.18 260.29 142.509V141.026C260.29 140.543 260.14 140.189 259.865 140.032C259.593 139.875 259.209 139.923 258.792 140.163L257.502 140.907C257.378 140.976 257.225 140.933 257.156 140.814C257.087 140.693 257.129 140.541 257.249 140.47L258.539 139.728C259.121 139.393 259.682 139.345 260.118 139.597C260.555 139.849 260.793 140.356 260.793 141.026V142.509C260.793 142.994 260.943 143.346 261.218 143.503C261.489 143.66 261.871 143.615 262.291 143.372L268.468 139.818C268.59 139.747 268.743 139.79 268.812 139.909C268.881 140.03 268.84 140.184 268.721 140.253L262.544 143.807C262.207 144 261.881 144.097 261.578 144.097Z" fill="#42E8DF"/>
<path d="M263.982 145.474C263.758 145.474 263.553 145.422 263.367 145.315C262.93 145.065 262.692 144.559 262.692 143.889V142.403C262.692 141.921 262.541 141.569 262.267 141.412C261.995 141.253 261.614 141.3 261.194 141.543L259.903 142.284C259.782 142.353 259.629 142.313 259.558 142.192C259.488 142.073 259.531 141.918 259.651 141.849L260.941 141.105C261.523 140.772 262.083 140.725 262.52 140.975C262.956 141.227 263.195 141.733 263.195 142.403V143.889C263.195 144.371 263.345 144.723 263.619 144.88C263.891 145.039 264.275 144.992 264.693 144.749L270.87 141.196C270.992 141.127 271.145 141.169 271.214 141.288C271.285 141.41 271.242 141.562 271.123 141.631L264.946 145.184C264.609 145.377 264.283 145.474 263.982 145.474Z" fill="#42E8DF"/>
<path d="M266.384 146.853C266.162 146.853 265.955 146.801 265.768 146.694C265.334 146.442 265.093 145.935 265.093 145.265V143.782C265.093 143.297 264.943 142.945 264.669 142.788C264.397 142.629 264.013 142.676 263.596 142.919L262.305 143.661C262.184 143.729 262.031 143.689 261.962 143.57C261.89 143.449 261.933 143.295 262.052 143.226L263.343 142.484C263.927 142.149 264.488 142.104 264.922 142.353C265.358 142.603 265.597 143.111 265.597 143.782V145.265C265.597 145.748 265.747 146.102 266.021 146.259C266.293 146.416 266.675 146.368 267.097 146.128L273.272 142.574C273.394 142.503 273.546 142.546 273.616 142.665C273.687 142.786 273.644 142.938 273.525 143.009L267.347 146.563C267.014 146.755 266.684 146.853 266.384 146.853Z" fill="#42E8DF"/>
<path d="M268.785 148.23C268.564 148.23 268.356 148.178 268.17 148.071C267.736 147.821 267.495 147.315 267.495 146.642V145.159C267.495 144.676 267.345 144.322 267.073 144.165C266.799 144.008 266.417 144.056 265.997 144.296L264.707 145.04C264.585 145.109 264.433 145.066 264.363 144.947C264.294 144.826 264.335 144.674 264.454 144.603L265.744 143.861C266.329 143.526 266.889 143.481 267.323 143.73C267.76 143.982 268.001 144.488 268.001 145.159V146.642C268.001 147.127 268.151 147.479 268.423 147.636C268.695 147.792 269.076 147.747 269.499 147.505L275.674 143.951C275.795 143.882 275.948 143.923 276.019 144.044C276.089 144.163 276.046 144.317 275.926 144.386L269.749 147.94C269.415 148.132 269.086 148.23 268.785 148.23Z" fill="#42E8DF"/>
<path d="M271.188 149.608C270.966 149.608 270.758 149.553 270.575 149.449C270.138 149.197 269.897 148.69 269.897 148.02V146.534C269.897 146.052 269.747 145.7 269.475 145.543C269.201 145.384 268.822 145.431 268.399 145.674L267.109 146.415C266.99 146.487 266.835 146.444 266.766 146.323C266.696 146.204 266.737 146.049 266.859 145.98L268.149 145.239C268.731 144.904 269.291 144.856 269.728 145.108C270.162 145.358 270.403 145.864 270.403 146.534V148.02C270.403 148.502 270.553 148.857 270.825 149.014C271.099 149.17 271.481 149.123 271.901 148.88L278.076 145.327C278.2 145.258 278.35 145.301 278.422 145.42C278.491 145.541 278.45 145.693 278.329 145.764L272.154 149.318C271.817 149.51 271.488 149.608 271.188 149.608Z" fill="#42E8DF"/>
<path d="M273.589 150.985C273.367 150.985 273.16 150.932 272.976 150.825C272.54 150.576 272.301 150.067 272.301 149.397V147.914C272.301 147.431 272.151 147.077 271.877 146.92C271.602 146.763 271.221 146.808 270.803 147.051L269.513 147.792C269.389 147.864 269.236 147.821 269.167 147.702C269.098 147.581 269.139 147.429 269.26 147.357L270.551 146.616C271.133 146.281 271.693 146.233 272.13 146.485C272.564 146.737 272.805 147.243 272.805 147.914V149.397C272.805 149.882 272.955 150.234 273.229 150.39C273.501 150.547 273.883 150.502 274.302 150.26L280.48 146.706C280.599 146.635 280.754 146.678 280.823 146.799C280.893 146.918 280.852 147.072 280.73 147.141L274.555 150.695C274.219 150.887 273.892 150.985 273.589 150.985Z" fill="#42E8DF"/>
<path d="M275.993 152.362C275.772 152.362 275.564 152.31 275.378 152.205C274.944 151.953 274.703 151.447 274.703 150.776V149.291C274.703 148.808 274.553 148.454 274.279 148.297C274.007 148.14 273.623 148.188 273.205 148.428L271.915 149.172C271.793 149.241 271.641 149.198 271.569 149.079C271.5 148.96 271.543 148.806 271.662 148.737L272.952 147.993C273.534 147.66 274.097 147.613 274.531 147.862C274.968 148.114 275.206 148.62 275.206 149.291V150.776C275.206 151.259 275.357 151.611 275.631 151.768C275.903 151.925 276.284 151.879 276.704 151.637L282.882 148.083C283.003 148.014 283.156 148.055 283.225 148.176C283.294 148.295 283.254 148.449 283.135 148.518L276.957 152.072C276.621 152.267 276.294 152.362 275.993 152.362Z" fill="#42E8DF"/>
<path d="M278.395 153.74C278.173 153.74 277.966 153.687 277.78 153.58C277.346 153.328 277.105 152.822 277.105 152.152V150.666C277.105 150.184 276.955 149.832 276.68 149.675C276.408 149.516 276.027 149.563 275.607 149.806L274.317 150.547C274.195 150.616 274.042 150.576 273.971 150.455C273.902 150.336 273.945 150.181 274.064 150.112L275.354 149.371C275.936 149.036 276.497 148.988 276.933 149.24C277.37 149.49 277.608 149.998 277.608 150.666V152.152C277.608 152.634 277.758 152.988 278.033 153.145C278.305 153.302 278.686 153.255 279.106 153.015L285.284 149.461C285.405 149.39 285.558 149.432 285.629 149.554C285.699 149.673 285.656 149.827 285.536 149.896L279.359 153.45C279.025 153.642 278.696 153.74 278.395 153.74Z" fill="#42E8DF"/>
<path d="M280.797 155.116C280.575 155.116 280.368 155.064 280.182 154.957C279.748 154.707 279.507 154.198 279.507 153.528V152.045C279.507 151.562 279.357 151.208 279.085 151.051C278.81 150.894 278.429 150.939 278.009 151.182L276.719 151.926C276.597 151.995 276.444 151.952 276.375 151.833C276.306 151.712 276.347 151.56 276.468 151.489L277.756 150.747C278.341 150.414 278.899 150.367 279.335 150.616C279.772 150.868 280.013 151.374 280.013 152.045V153.528C280.013 154.013 280.163 154.365 280.435 154.522C280.709 154.678 281.091 154.633 281.51 154.391L287.686 150.837C287.807 150.766 287.96 150.809 288.031 150.93C288.101 151.049 288.058 151.203 287.938 151.272L281.761 154.826C281.427 155.018 281.098 155.116 280.797 155.116Z" fill="#42E8DF"/>
<path d="M283.199 156.492C282.977 156.492 282.77 156.44 282.586 156.333C282.149 156.083 281.909 155.577 281.909 154.907V153.421C281.909 152.939 281.758 152.587 281.486 152.43C281.212 152.271 280.83 152.318 280.411 152.561L279.12 153.302C278.999 153.371 278.846 153.331 278.777 153.209C278.708 153.091 278.748 152.936 278.87 152.867L280.158 152.126C280.742 151.79 281.303 151.743 281.739 151.995C282.173 152.244 282.414 152.751 282.414 153.421V154.907C282.414 155.389 282.564 155.741 282.836 155.898C283.111 156.055 283.492 156.01 283.912 155.767L290.087 152.214C290.209 152.145 290.364 152.187 290.433 152.306C290.502 152.427 290.462 152.58 290.34 152.649L284.165 156.205C283.829 156.397 283.499 156.492 283.199 156.492Z" fill="#42E8DF"/>
<path d="M285.601 157.871C285.379 157.871 285.171 157.819 284.988 157.712C284.551 157.46 284.313 156.954 284.313 156.284V154.8C284.313 154.315 284.162 153.964 283.888 153.807C283.616 153.65 283.232 153.697 282.812 153.938L281.525 154.679C281.4 154.748 281.248 154.708 281.179 154.589C281.11 154.468 281.15 154.313 281.272 154.244L282.562 153.503C283.144 153.167 283.705 153.12 284.141 153.372C284.575 153.621 284.816 154.13 284.816 154.8V156.284C284.816 156.766 284.966 157.12 285.238 157.277C285.512 157.436 285.896 157.389 286.314 157.146L292.491 153.593C292.613 153.522 292.766 153.564 292.835 153.683C292.904 153.804 292.863 153.959 292.742 154.028L286.567 157.581C286.23 157.774 285.904 157.871 285.601 157.871Z" fill="#42E8DF"/>
<path d="M288.005 159.247C287.783 159.247 287.576 159.194 287.39 159.087C286.953 158.838 286.715 158.329 286.715 157.661V156.176C286.715 155.693 286.565 155.339 286.29 155.182C286.018 155.025 285.637 155.073 285.217 155.315L283.927 156.057C283.805 156.126 283.652 156.083 283.581 155.964C283.512 155.845 283.555 155.691 283.674 155.622L284.964 154.878C285.546 154.545 286.109 154.497 286.543 154.747C286.98 154.999 287.218 155.505 287.218 156.176V157.661C287.218 158.144 287.368 158.496 287.643 158.652C287.915 158.809 288.296 158.764 288.718 158.522L294.893 154.968C295.015 154.899 295.168 154.942 295.237 155.061C295.306 155.18 295.266 155.334 295.146 155.403L288.969 158.957C288.635 159.149 288.306 159.247 288.005 159.247Z" fill="#42E8DF"/>
<path d="M290.407 160.626C290.185 160.626 289.978 160.574 289.792 160.467C289.358 160.215 289.117 159.709 289.117 159.039V157.555C289.117 157.07 288.966 156.719 288.694 156.562C288.42 156.402 288.039 156.45 287.619 156.692L286.328 157.434C286.207 157.503 286.054 157.463 285.985 157.341C285.916 157.222 285.956 157.068 286.076 156.999L287.366 156.257C287.948 155.922 288.508 155.875 288.945 156.127C289.381 156.376 289.62 156.885 289.62 157.555V159.039C289.62 159.521 289.77 159.875 290.044 160.032C290.319 160.189 290.7 160.141 291.12 159.901L297.295 156.348C297.417 156.276 297.57 156.319 297.641 156.438C297.71 156.559 297.667 156.711 297.548 156.783L291.371 160.336C291.037 160.529 290.707 160.626 290.407 160.626Z" fill="#42E8DF"/>
<path d="M292.809 162.003C292.587 162.003 292.379 161.95 292.196 161.843C291.759 161.594 291.518 161.085 291.518 160.415V158.931C291.518 158.449 291.368 158.095 291.096 157.938C290.822 157.781 290.44 157.829 290.021 158.069L288.73 158.813C288.609 158.882 288.456 158.839 288.387 158.72C288.318 158.599 288.358 158.447 288.48 158.375L289.768 157.634C290.352 157.301 290.913 157.251 291.347 157.503C291.783 157.755 292.024 158.261 292.024 158.931V160.415C292.024 160.9 292.174 161.251 292.446 161.408C292.718 161.565 293.102 161.52 293.522 161.278L299.697 157.724C299.819 157.653 299.971 157.695 300.043 157.814C300.112 157.936 300.069 158.09 299.95 158.159L293.772 161.713C293.438 161.905 293.109 162.003 292.809 162.003Z" fill="#42E8DF"/>
<path d="M295.21 163.382C294.989 163.382 294.781 163.327 294.597 163.223C294.161 162.971 293.92 162.464 293.92 161.794V160.308C293.92 159.826 293.77 159.474 293.498 159.317C293.224 159.158 292.842 159.205 292.422 159.448L291.132 160.19C291.013 160.258 290.857 160.218 290.788 160.097C290.719 159.978 290.76 159.823 290.881 159.755L292.172 159.011C292.754 158.678 293.314 158.63 293.748 158.88C294.185 159.132 294.426 159.638 294.426 160.308V161.794C294.426 162.277 294.576 162.628 294.848 162.788C295.122 162.945 295.504 162.897 295.924 162.655L302.101 159.101C302.22 159.032 302.373 159.075 302.444 159.194C302.514 159.315 302.473 159.467 302.351 159.538L296.174 163.09C295.84 163.282 295.511 163.382 295.21 163.382Z" fill="#42E8DF"/>
<path d="M297.612 164.756C297.391 164.756 297.183 164.704 296.999 164.597C296.563 164.345 296.324 163.839 296.324 163.168V161.685C296.324 161.2 296.172 160.848 295.9 160.692C295.626 160.532 295.244 160.58 294.824 160.822L293.536 161.564C293.412 161.635 293.26 161.592 293.19 161.474C293.121 161.352 293.162 161.2 293.283 161.129L294.574 160.387C295.156 160.052 295.716 160.007 296.153 160.257C296.587 160.506 296.828 161.015 296.828 161.685V163.168C296.828 163.651 296.978 164.005 297.25 164.162C297.524 164.319 297.906 164.271 298.326 164.031L304.501 160.478C304.622 160.406 304.777 160.449 304.847 160.568C304.916 160.689 304.875 160.844 304.754 160.913L298.578 164.466C298.242 164.659 297.915 164.756 297.612 164.756Z" fill="#42E8DF"/>
<path d="M300.014 166.133C299.792 166.133 299.587 166.081 299.401 165.974C298.965 165.724 298.726 165.218 298.726 164.548V163.062C298.726 162.58 298.576 162.225 298.302 162.068C298.03 161.912 297.646 161.959 297.226 162.199L295.938 162.943C295.814 163.012 295.664 162.969 295.592 162.851C295.523 162.729 295.566 162.577 295.685 162.508L296.976 161.764C297.558 161.429 298.118 161.384 298.555 161.633C298.991 161.885 299.23 162.392 299.23 163.062V164.548C299.23 165.03 299.38 165.382 299.654 165.539C299.926 165.696 300.308 165.651 300.727 165.408L306.905 161.855C307.024 161.786 307.179 161.826 307.248 161.947C307.318 162.066 307.277 162.221 307.155 162.29L300.98 165.843C300.644 166.036 300.317 166.133 300.014 166.133Z" fill="#42E8DF"/>
<path d="M302.419 167.511C302.197 167.511 301.989 167.459 301.803 167.352C301.369 167.1 301.128 166.594 301.128 165.923V164.438C301.128 163.955 300.978 163.603 300.704 163.446C300.432 163.287 300.05 163.335 299.63 163.577L298.34 164.319C298.218 164.388 298.066 164.347 297.996 164.228C297.925 164.107 297.968 163.953 298.087 163.884L299.377 163.142C299.962 162.807 300.522 162.759 300.956 163.011C301.393 163.261 301.631 163.767 301.631 164.438V165.923C301.631 166.406 301.782 166.76 302.056 166.917C302.328 167.074 302.709 167.026 303.132 166.786L309.307 163.23C309.428 163.161 309.581 163.204 309.65 163.323C309.722 163.444 309.679 163.596 309.56 163.667L303.382 167.221C303.048 167.414 302.719 167.511 302.419 167.511Z" fill="#42E8DF"/>
<path d="M299.334 164.635V170.1L251.872 197.409L204.411 170.1V164.633L299.334 164.635Z" fill="url(#paint0_linear)"/>
<path d="M251.872 191.942L204.411 164.632L251.872 137.325L299.334 164.635L251.872 191.942Z" fill="#BCBDFF"/>
<path d="M251.872 191.305L204.966 164.314L204.411 164.633L251.872 191.942L299.334 164.635L298.778 164.314L251.872 191.305Z" fill="#F6F6FF"/>
<path d="M251.873 185.643L215.368 164.64L251.873 143.637L288.377 164.64L251.873 185.643Z" fill="black"/>
<path opacity="0.502" d="M251.873 185.646L215.368 164.64L251.873 143.637L288.377 164.64L251.873 185.646Z" fill="url(#paint1_linear)"/>
<path opacity="0.502" d="M251.873 138.341L288.377 159.344V164.64L251.873 143.637V138.341Z" fill="url(#paint2_linear)"/>
<path opacity="0.502" d="M251.873 143.638L215.368 164.641V159.345L251.873 138.342V143.638Z" fill="url(#paint3_linear)"/>
<path opacity="0.502" d="M251.873 180.348L215.368 159.345L251.873 138.342L288.377 159.345L251.873 180.348Z" fill="url(#paint4_linear)"/>
<path opacity="0.502" d="M251.873 167.737L237.285 159.343L251.873 150.95L266.458 159.343L251.873 167.737Z" fill="#42E8E0"/>
<path opacity="0.502" d="M251.873 151.723L265.787 159.731L266.458 159.343L251.873 150.95L237.285 159.343L237.958 159.729L251.873 151.723Z" fill="#42E8E0"/>
<path opacity="0.502" d="M251.873 180.347V185.645L288.377 164.64V159.344L251.873 180.347Z" fill="url(#paint5_linear)"/>
<path opacity="0.502" d="M215.368 159.344V164.64L251.873 185.645V180.347L215.368 159.344Z" fill="url(#paint6_linear)"/>
<path opacity="0.8" d="M251.873 179.769L215.869 159.054L215.368 159.344L251.873 180.347L288.377 159.344L287.874 159.056L251.873 179.769Z" fill="#42E8E0"/>
<path d="M263.789 204C263.746 204 263.703 203.989 263.662 203.967L257.487 200.413C256.364 199.767 255.483 198.248 255.483 196.957V195.472C255.483 194.362 254.699 193.007 253.733 192.45L252.445 191.709C252.323 191.64 252.283 191.485 252.352 191.367C252.421 191.245 252.574 191.203 252.695 191.274L253.986 192.015C255.109 192.662 255.989 194.181 255.989 195.472V196.957C255.989 198.067 256.774 199.422 257.74 199.978L263.915 203.532C264.034 203.601 264.077 203.756 264.008 203.874C263.96 203.955 263.874 204 263.789 204Z" fill="#42E8DF"/>
<path d="M266.191 202.621C266.148 202.621 266.105 202.609 266.064 202.588L259.889 199.034C258.766 198.388 257.888 196.869 257.888 195.576V194.093C257.888 192.983 257.101 191.625 256.137 191.071L254.847 190.33C254.725 190.258 254.685 190.106 254.754 189.985C254.823 189.866 254.976 189.823 255.1 189.892L256.388 190.636C257.511 191.283 258.391 192.799 258.391 194.093V195.576C258.391 196.688 259.176 198.043 260.142 198.597L266.317 202.151C266.439 202.222 266.479 202.374 266.41 202.495C266.362 202.576 266.279 202.621 266.191 202.621Z" fill="#42E8DF"/>
<path d="M268.592 201.241C268.552 201.241 268.506 201.231 268.468 201.207L262.291 197.654C261.17 197.007 260.29 195.488 260.29 194.197V192.714C260.29 191.602 259.502 190.247 258.539 189.691L257.248 188.949C257.129 188.88 257.086 188.726 257.155 188.607C257.225 188.485 257.38 188.445 257.501 188.514L258.789 189.256C259.913 189.902 260.793 191.421 260.793 192.714V194.197C260.793 195.307 261.578 196.662 262.543 197.219L268.721 200.772C268.84 200.841 268.881 200.996 268.812 201.115C268.764 201.195 268.68 201.241 268.592 201.241Z" fill="#42E8DF"/>
<path d="M270.996 199.862C270.953 199.862 270.911 199.85 270.87 199.828L264.693 196.275C263.572 195.628 262.691 194.109 262.691 192.819V191.333C262.691 190.223 261.907 188.868 260.941 188.312L259.65 187.57C259.531 187.501 259.488 187.347 259.557 187.228C259.629 187.107 259.782 187.064 259.903 187.135L261.194 187.877C262.315 188.523 263.195 190.042 263.195 191.333V192.819C263.195 193.929 263.979 195.284 264.945 195.84L271.123 199.393C271.242 199.462 271.285 199.617 271.213 199.736C271.168 199.817 271.082 199.862 270.996 199.862Z" fill="#42E8DF"/>
<path d="M273.398 198.48C273.355 198.48 273.312 198.47 273.272 198.447L267.094 194.893C265.973 194.246 265.093 192.73 265.093 191.437V189.953C265.093 188.841 264.309 187.486 263.343 186.93L262.052 186.188C261.933 186.119 261.89 185.965 261.962 185.846C262.031 185.725 262.183 185.684 262.305 185.753L263.595 186.495C264.719 187.144 265.597 188.66 265.597 189.953V191.437C265.597 192.547 266.384 193.904 267.347 194.458L273.525 198.012C273.644 198.083 273.687 198.235 273.615 198.356C273.57 198.437 273.484 198.48 273.398 198.48Z" fill="#42E8DF"/>
<path d="M275.8 197.101C275.757 197.101 275.714 197.091 275.674 197.068L269.499 193.514C268.375 192.867 267.495 191.349 267.495 190.058V188.572C267.495 187.462 266.71 186.107 265.744 185.551L264.454 184.809C264.335 184.74 264.294 184.586 264.363 184.467C264.433 184.346 264.585 184.305 264.707 184.374L265.997 185.116C267.121 185.763 268.001 187.281 268.001 188.572V190.058C268.001 191.168 268.785 192.523 269.751 193.079L275.926 196.633C276.046 196.702 276.089 196.856 276.019 196.975C275.972 197.056 275.886 197.101 275.8 197.101Z" fill="#42E8DF"/>
<path d="M278.202 195.723C278.159 195.723 278.116 195.711 278.075 195.69L271.9 192.136C270.777 191.489 269.897 189.97 269.897 188.677V187.194C269.897 186.082 269.112 184.727 268.148 184.173L266.858 183.431C266.736 183.36 266.696 183.208 266.765 183.087C266.834 182.968 266.987 182.925 267.111 182.994L268.399 183.738C269.522 184.382 270.402 185.901 270.402 187.194V188.677C270.402 189.79 271.187 191.145 272.153 191.699L278.328 195.252C278.45 195.324 278.49 195.476 278.421 195.597C278.374 195.678 278.29 195.723 278.202 195.723Z" fill="#42E8DF"/>
<path d="M280.604 194.341C280.563 194.341 280.518 194.332 280.48 194.308L274.302 190.754C273.179 190.108 272.301 188.591 272.301 187.298V185.815C272.301 184.702 271.514 183.348 270.55 182.791L269.26 182.05C269.138 181.981 269.098 181.826 269.167 181.707C269.236 181.586 269.389 181.543 269.513 181.615L270.803 182.356C271.924 183.003 272.804 184.522 272.804 185.815V187.298C272.804 188.408 273.589 189.763 274.555 190.319L280.73 193.873C280.852 193.942 280.892 194.096 280.823 194.218C280.775 194.296 280.692 194.341 280.604 194.341Z" fill="#42E8DF"/>
<path d="M283.008 192.963C282.965 192.963 282.922 192.951 282.881 192.93L276.704 189.376C275.583 188.73 274.703 187.211 274.703 185.92V184.435C274.703 183.325 273.918 181.97 272.952 181.413L271.662 180.672C271.543 180.603 271.5 180.448 271.569 180.327C271.64 180.208 271.793 180.166 271.915 180.237L273.205 180.978C274.326 181.625 275.206 183.144 275.206 184.435V185.92C275.206 187.03 275.991 188.385 276.957 188.941L283.132 192.495C283.254 192.564 283.294 192.716 283.225 192.837C283.18 192.918 283.094 192.963 283.008 192.963Z" fill="#42E8DF"/>
<path d="M285.409 191.585C285.367 191.585 285.324 191.573 285.283 191.55L279.106 187.996C277.985 187.349 277.104 185.833 277.104 184.54V183.056C277.104 181.944 276.32 180.589 275.354 180.035L274.063 179.291C273.944 179.222 273.901 179.068 273.97 178.949C274.042 178.83 274.195 178.787 274.316 178.856L275.607 179.6C276.73 180.244 277.608 181.763 277.608 183.056V184.54C277.608 185.65 278.395 187.007 279.358 187.561L285.536 191.115C285.655 191.186 285.698 191.338 285.629 191.459C285.581 191.54 285.495 191.585 285.409 191.585Z" fill="#42E8DF"/>
<path d="M287.812 190.203C287.769 190.203 287.726 190.193 287.685 190.169L281.51 186.616C280.387 185.969 279.507 184.45 279.507 183.159V181.674C279.507 180.564 278.722 179.209 277.756 178.653L276.468 177.911C276.346 177.842 276.306 177.688 276.375 177.569C276.444 177.447 276.597 177.405 276.718 177.476L278.009 178.218C279.132 178.864 280.012 180.383 280.012 181.674V183.159C280.012 184.269 280.797 185.624 281.761 186.181L287.938 189.734C288.057 189.803 288.1 189.958 288.031 190.077C287.983 190.157 287.898 190.203 287.812 190.203Z" fill="#42E8DF"/>
<path d="M290.214 188.823C290.171 188.823 290.128 188.812 290.09 188.79L283.912 185.237C282.789 184.59 281.909 183.071 281.909 181.778V180.295C281.909 179.185 281.124 177.827 280.16 177.274L278.87 176.532C278.748 176.461 278.708 176.308 278.777 176.187C278.846 176.068 278.999 176.026 279.12 176.095L280.411 176.839C281.534 177.483 282.414 179.002 282.414 180.295V181.778C282.414 182.888 283.199 184.245 284.165 184.799L290.34 188.353C290.462 188.424 290.502 188.576 290.433 188.697C290.385 188.778 290.302 188.823 290.214 188.823Z" fill="#42E8DF"/>
<path d="M292.615 187.444C292.572 187.444 292.529 187.434 292.491 187.41L286.314 183.857C285.19 183.21 284.312 181.694 284.312 180.401V178.915C284.312 177.805 283.525 176.45 282.562 175.896L281.271 175.152C281.15 175.083 281.109 174.929 281.178 174.81C281.248 174.689 281.4 174.648 281.524 174.717L282.815 175.459C283.936 176.105 284.816 177.624 284.816 178.915V180.401C284.816 181.511 285.6 182.868 286.566 183.422L292.742 186.975C292.863 187.044 292.904 187.199 292.835 187.32C292.787 187.398 292.703 187.444 292.615 187.444Z" fill="#42E8DF"/>
<path d="M295.017 186.066C294.976 186.066 294.934 186.054 294.893 186.033L288.715 182.479C287.594 181.832 286.714 180.313 286.714 179.023V177.537C286.714 176.427 285.93 175.072 284.964 174.516L283.673 173.774C283.554 173.705 283.511 173.551 283.58 173.432C283.649 173.311 283.804 173.268 283.926 173.339L285.216 174.081C286.337 174.727 287.218 176.246 287.218 177.537V179.023C287.218 180.133 288.002 181.488 288.968 182.042L295.146 185.598C295.265 185.666 295.306 185.821 295.236 185.94C295.191 186.021 295.105 186.066 295.017 186.066Z" fill="#42E8DF"/>
<path d="M297.421 184.684C297.378 184.684 297.335 184.675 297.295 184.651L291.12 181.097C289.996 180.451 289.116 178.934 289.116 177.641V176.158C289.116 175.046 288.331 173.691 287.365 173.137L286.075 172.393C285.956 172.324 285.915 172.172 285.984 172.051C286.054 171.932 286.206 171.889 286.328 171.958L287.618 172.702C288.742 173.346 289.619 174.865 289.619 176.158V177.641C289.619 178.751 290.406 180.109 291.37 180.662L297.548 184.216C297.667 184.285 297.71 184.44 297.641 184.558C297.593 184.639 297.507 184.684 297.421 184.684Z" fill="#42E8DF"/>
<path d="M299.823 183.306C299.78 183.306 299.737 183.297 299.697 183.273L293.522 179.719C292.398 179.073 291.518 177.554 291.518 176.263V174.777C291.518 173.667 290.733 172.312 289.767 171.756L288.479 171.015C288.358 170.946 288.317 170.791 288.386 170.67C288.456 170.551 288.608 170.511 288.73 170.58L290.02 171.321C291.144 171.968 292.024 173.487 292.024 174.777V176.263C292.024 177.373 292.808 178.728 293.772 179.284L299.95 182.838C300.069 182.907 300.112 183.061 300.043 183.18C299.995 183.261 299.909 183.306 299.823 183.306Z" fill="#42E8DF"/>
<path d="M302.225 181.926C302.182 181.926 302.139 181.914 302.098 181.893L295.923 178.337C294.8 177.693 293.92 176.174 293.92 174.881V173.398C293.92 172.287 293.135 170.93 292.171 170.376L290.881 169.635C290.759 169.563 290.719 169.411 290.788 169.29C290.857 169.171 291.01 169.128 291.132 169.2L292.422 169.941C293.545 170.588 294.425 172.104 294.425 173.398V174.881C294.425 175.993 295.21 177.348 296.176 177.902L302.351 181.456C302.473 181.527 302.513 181.679 302.444 181.8C302.397 181.881 302.313 181.926 302.225 181.926Z" fill="#42E8DF"/>
<path d="M304.627 180.545C304.584 180.545 304.541 180.536 304.503 180.512L298.326 176.958C297.202 176.312 296.324 174.793 296.324 173.502V172.016C296.324 170.906 295.537 169.552 294.574 168.998L293.283 168.254C293.162 168.185 293.121 168.03 293.19 167.911C293.26 167.79 293.412 167.75 293.536 167.819L294.824 168.56C295.948 169.207 296.828 170.726 296.828 172.016V173.502C296.828 174.612 297.612 175.967 298.578 176.523L304.754 180.077C304.875 180.146 304.916 180.3 304.847 180.419C304.799 180.5 304.715 180.545 304.627 180.545Z" fill="#42E8DF"/>
<path d="M307.029 179.166C306.988 179.166 306.943 179.155 306.905 179.133L300.727 175.58C299.606 174.933 298.726 173.414 298.726 172.123V170.638C298.726 169.528 297.939 168.173 296.975 167.617L295.685 166.875C295.566 166.806 295.523 166.652 295.592 166.53C295.664 166.411 295.814 166.369 295.938 166.44L297.228 167.182C298.349 167.828 299.229 169.345 299.229 170.638V172.123C299.229 173.233 300.014 174.588 300.98 175.145L307.158 178.698C307.277 178.767 307.317 178.922 307.248 179.04C307.203 179.121 307.117 179.166 307.029 179.166Z" fill="#42E8DF"/>
<path d="M309.433 177.786C309.39 177.786 309.347 177.776 309.306 177.753L303.129 174.199C302.008 173.555 301.128 172.036 301.128 170.743V169.26C301.128 168.15 300.343 166.792 299.377 166.236L298.087 165.497C297.967 165.425 297.924 165.273 297.996 165.152C298.065 165.033 298.218 164.99 298.339 165.059L299.63 165.801C300.753 166.45 301.631 167.966 301.631 169.26V170.743C301.631 171.855 302.418 173.21 303.382 173.764L309.559 177.318C309.678 177.387 309.721 177.541 309.65 177.662C309.604 177.741 309.519 177.786 309.433 177.786Z" fill="#42E8DF"/>
<path d="M239.787 203.999C239.701 203.999 239.615 203.954 239.57 203.873C239.498 203.754 239.541 203.6 239.66 203.531L245.838 199.977C246.804 199.421 247.589 198.066 247.589 196.956V195.471C247.589 194.18 248.469 192.661 249.59 192.014L250.88 191.273C250.999 191.204 251.154 191.244 251.223 191.366C251.295 191.484 251.252 191.639 251.133 191.708L249.843 192.449C248.877 193.006 248.092 194.361 248.092 195.471V196.956C248.092 198.247 247.212 199.766 246.091 200.412L239.913 203.966C239.873 203.987 239.83 203.999 239.787 203.999Z" fill="#42E8DF"/>
<path d="M237.385 202.621C237.299 202.621 237.213 202.576 237.168 202.495C237.096 202.374 237.139 202.222 237.258 202.151L243.436 198.597C244.4 198.043 245.187 196.688 245.187 195.576V194.093C245.187 192.799 246.064 191.283 247.188 190.636L248.478 189.892C248.597 189.823 248.752 189.866 248.822 189.985C248.891 190.106 248.85 190.258 248.731 190.33L247.441 191.071C246.475 191.625 245.69 192.983 245.69 194.093V195.576C245.69 196.869 244.81 198.388 243.686 199.034L237.511 202.588C237.471 202.609 237.428 202.621 237.385 202.621Z" fill="#42E8DF"/>
<path d="M234.983 201.24C234.895 201.24 234.811 201.194 234.763 201.114C234.694 200.995 234.735 200.84 234.856 200.771L241.032 197.218C241.998 196.661 242.782 195.307 242.782 194.196V192.713C242.782 191.42 243.662 189.901 244.786 189.255L246.076 188.513C246.195 188.444 246.35 188.485 246.42 188.606C246.489 188.725 246.448 188.879 246.327 188.948L245.039 189.69C244.073 190.246 243.288 191.601 243.288 192.713V194.196C243.288 195.487 242.408 197.006 241.284 197.653L235.109 201.206C235.069 201.23 235.026 201.24 234.983 201.24Z" fill="#42E8DF"/>
<path d="M232.581 199.861C232.493 199.861 232.409 199.816 232.362 199.735C232.293 199.616 232.333 199.461 232.455 199.392L238.63 195.839C239.596 195.283 240.381 193.928 240.381 192.818V191.332C240.381 190.041 241.261 188.522 242.384 187.876L243.674 187.134C243.794 187.065 243.949 187.106 244.018 187.225C244.087 187.346 244.047 187.5 243.925 187.569L242.635 188.311C241.671 188.867 240.886 190.222 240.886 191.332V192.818C240.886 194.108 240.006 195.627 238.883 196.274L232.705 199.827C232.667 199.849 232.624 199.861 232.581 199.861Z" fill="#42E8DF"/>
<path d="M230.18 198.481C230.091 198.481 230.005 198.438 229.96 198.357C229.891 198.236 229.932 198.084 230.053 198.013L236.228 194.459C237.194 193.905 237.979 192.548 237.979 191.438V189.954C237.979 188.661 238.859 187.145 239.983 186.498L241.27 185.754C241.392 185.685 241.545 185.726 241.616 185.847C241.685 185.966 241.645 186.12 241.523 186.189L240.233 186.933C239.267 187.487 238.482 188.844 238.482 189.954V191.438C238.482 192.731 237.605 194.247 236.481 194.894L230.304 198.447C230.265 198.471 230.223 198.481 230.18 198.481Z" fill="#42E8DF"/>
<path d="M227.775 197.101C227.689 197.101 227.603 197.056 227.558 196.975C227.489 196.856 227.53 196.702 227.649 196.633L233.826 193.079C234.792 192.523 235.577 191.168 235.577 190.058V188.572C235.577 187.281 236.455 185.763 237.578 185.116L238.868 184.374C238.988 184.305 239.143 184.346 239.212 184.467C239.283 184.586 239.241 184.74 239.121 184.809L237.831 185.551C236.865 186.107 236.08 187.462 236.08 188.572V190.058C236.08 191.349 235.2 192.867 234.079 193.514L227.902 197.068C227.861 197.091 227.818 197.101 227.775 197.101Z" fill="#42E8DF"/>
<path d="M225.373 195.722C225.288 195.722 225.202 195.677 225.154 195.596C225.085 195.475 225.128 195.322 225.247 195.251L231.425 191.698C232.388 191.144 233.175 189.789 233.175 188.676V187.193C233.175 185.9 234.053 184.383 235.176 183.737L236.467 182.993C236.586 182.926 236.741 182.967 236.81 183.086C236.882 183.207 236.839 183.359 236.72 183.43L235.429 184.172C234.463 184.726 233.678 186.083 233.678 187.193V188.676C233.678 189.969 232.798 191.488 231.675 192.135L225.5 195.689C225.459 195.71 225.416 195.722 225.373 195.722Z" fill="#42E8DF"/>
<path d="M222.972 194.341C222.883 194.341 222.8 194.296 222.752 194.218C222.683 194.096 222.724 193.942 222.845 193.873L229.02 190.319C229.986 189.763 230.771 188.408 230.771 187.298V185.815C230.771 184.522 231.651 183.003 232.775 182.356L234.065 181.615C234.184 181.546 234.339 181.586 234.408 181.707C234.477 181.826 234.437 181.981 234.315 182.05L233.027 182.791C232.061 183.347 231.277 184.702 231.277 185.815V187.298C231.277 188.591 230.397 190.108 229.273 190.754L223.098 194.308C223.057 194.332 223.015 194.341 222.972 194.341Z" fill="#42E8DF"/>
<path d="M220.57 192.963C220.481 192.963 220.398 192.918 220.35 192.837C220.281 192.716 220.322 192.564 220.443 192.495L226.618 188.941C227.584 188.385 228.369 187.03 228.369 185.92V184.435C228.369 183.144 229.249 181.625 230.373 180.978L231.661 180.237C231.782 180.168 231.937 180.208 232.006 180.327C232.076 180.448 232.035 180.603 231.913 180.672L230.623 181.413C229.659 181.97 228.872 183.324 228.872 184.435V185.92C228.872 187.211 227.995 188.73 226.871 189.376L220.694 192.93C220.656 192.951 220.613 192.963 220.57 192.963Z" fill="#42E8DF"/>
<path d="M218.165 191.583C218.08 191.583 217.994 191.538 217.948 191.457C217.879 191.336 217.92 191.184 218.041 191.113L224.217 187.559C225.183 187.005 225.967 185.648 225.967 184.538V183.054C225.967 181.761 226.847 180.242 227.968 179.598L229.259 178.854C229.38 178.785 229.535 178.828 229.605 178.947C229.674 179.066 229.633 179.22 229.512 179.289L228.221 180.033C227.258 180.587 226.471 181.942 226.471 183.054V184.538C226.471 185.831 225.593 187.347 224.469 187.994L218.292 191.548C218.254 191.571 218.208 191.583 218.165 191.583Z" fill="#42E8DF"/>
<path d="M215.764 190.203C215.678 190.203 215.592 190.158 215.547 190.077C215.478 189.959 215.518 189.804 215.637 189.735L221.815 186.182C222.781 185.625 223.565 184.27 223.565 183.16V181.675C223.565 180.384 224.446 178.865 225.567 178.219L226.857 177.477C226.979 177.408 227.131 177.448 227.2 177.57C227.272 177.688 227.229 177.843 227.11 177.912L225.819 178.654C224.853 179.21 224.069 180.565 224.069 181.675V183.16C224.069 184.451 223.189 185.97 222.068 186.617L215.89 190.17C215.852 190.194 215.807 190.203 215.764 190.203Z" fill="#42E8DF"/>
<path d="M213.362 188.824C213.276 188.824 213.19 188.779 213.145 188.698C213.073 188.577 213.116 188.425 213.236 188.354L219.413 184.8C220.377 184.246 221.164 182.889 221.164 181.779V180.296C221.164 179.003 222.041 177.486 223.165 176.839L224.455 176.095C224.574 176.029 224.73 176.069 224.799 176.188C224.868 176.309 224.827 176.462 224.708 176.533L223.418 177.274C222.452 177.828 221.667 179.186 221.667 180.296V181.779C221.667 183.072 220.787 184.591 219.663 185.235L213.488 188.791C213.448 188.812 213.405 188.824 213.362 188.824Z" fill="#42E8DF"/>
<path d="M210.96 187.444C210.872 187.444 210.788 187.398 210.74 187.32C210.671 187.199 210.712 187.044 210.833 186.975L217.011 183.422C217.975 182.868 218.759 181.511 218.759 180.401V178.915C218.759 177.624 219.639 176.105 220.763 175.459L222.053 174.717C222.172 174.648 222.327 174.689 222.397 174.81C222.466 174.929 222.425 175.083 222.304 175.152L221.016 175.896C220.05 176.45 219.265 177.805 219.265 178.915V180.401C219.265 181.694 218.385 183.21 217.261 183.857L211.086 187.41C211.046 187.434 211.003 187.444 210.96 187.444Z" fill="#42E8DF"/>
<path d="M208.558 186.064C208.47 186.064 208.386 186.019 208.339 185.938C208.269 185.819 208.31 185.665 208.432 185.596L214.607 182.04C215.573 181.486 216.357 180.131 216.357 179.021V177.535C216.357 176.244 217.238 174.726 218.361 174.079L219.651 173.337C219.771 173.266 219.926 173.309 219.995 173.43C220.064 173.549 220.023 173.703 219.902 173.772L218.611 174.514C217.648 175.07 216.863 176.425 216.863 177.535V179.021C216.863 180.311 215.983 181.83 214.86 182.477L208.684 186.031C208.644 186.052 208.601 186.064 208.558 186.064Z" fill="#42E8DF"/>
<path d="M206.156 184.683C206.068 184.683 205.982 184.638 205.937 184.557C205.868 184.439 205.908 184.284 206.03 184.215L212.205 180.661C213.171 180.108 213.956 178.75 213.956 177.64V176.157C213.956 174.864 214.836 173.345 215.959 172.701L217.247 171.957C217.369 171.888 217.522 171.931 217.593 172.05C217.662 172.171 217.622 172.323 217.5 172.392L216.21 173.136C215.244 173.69 214.459 175.045 214.459 176.157V177.64C214.459 178.933 213.581 180.45 212.458 181.096L206.28 184.65C206.242 184.674 206.199 184.683 206.156 184.683Z" fill="#42E8DF"/>
<path d="M203.752 183.306C203.666 183.306 203.581 183.261 203.535 183.18C203.466 183.061 203.507 182.907 203.626 182.838L209.803 179.284C210.769 178.728 211.554 177.373 211.554 176.263V174.777C211.554 173.487 212.434 171.968 213.555 171.321L214.846 170.58C214.965 170.511 215.12 170.551 215.189 170.67C215.261 170.791 215.218 170.946 215.098 171.015L213.808 171.756C212.842 172.312 212.057 173.667 212.057 174.777V176.263C212.057 177.554 211.177 179.073 210.056 179.719L203.879 183.273C203.838 183.297 203.795 183.306 203.752 183.306Z" fill="#42E8DF"/>
<path d="M201.35 181.926C201.264 181.926 201.179 181.881 201.131 181.8C201.062 181.679 201.105 181.527 201.224 181.456L207.401 177.902C208.365 177.348 209.152 175.993 209.152 174.881V173.398C209.152 172.104 210.03 170.588 211.153 169.941L212.443 169.2C212.563 169.128 212.718 169.171 212.787 169.29C212.858 169.411 212.816 169.563 212.696 169.635L211.406 170.376C210.44 170.93 209.655 172.287 209.655 173.398V174.881C209.655 176.174 208.775 177.693 207.652 178.337L201.477 181.893C201.436 181.914 201.393 181.926 201.35 181.926Z" fill="#42E8DF"/>
<path d="M198.948 180.545C198.86 180.545 198.776 180.5 198.729 180.419C198.66 180.3 198.7 180.146 198.822 180.077L204.999 176.523C205.963 175.967 206.748 174.612 206.748 173.502V172.017C206.748 170.726 207.628 169.207 208.751 168.56L210.041 167.819C210.161 167.75 210.316 167.79 210.385 167.911C210.454 168.03 210.413 168.185 210.292 168.254L209.004 168.998C208.038 169.552 207.253 170.906 207.253 172.017V173.502C207.253 174.793 206.373 176.312 205.25 176.958L199.075 180.512C199.034 180.536 198.991 180.545 198.948 180.545Z" fill="#42E8DF"/>
<path d="M196.547 179.166C196.459 179.166 196.375 179.121 196.327 179.04C196.258 178.922 196.299 178.767 196.42 178.698L202.595 175.145C203.561 174.588 204.346 173.233 204.346 172.123V170.638C204.346 169.345 205.226 167.828 206.35 167.182L207.64 166.44C207.759 166.369 207.914 166.411 207.984 166.53C208.053 166.652 208.012 166.806 207.89 166.875L206.6 167.617C205.637 168.173 204.849 169.528 204.849 170.638V172.123C204.849 173.414 203.972 174.933 202.848 175.58L196.671 179.133C196.633 179.155 196.59 179.166 196.547 179.166Z" fill="#42E8DF"/>
<path d="M194.145 177.786C194.057 177.786 193.971 177.741 193.926 177.662C193.856 177.541 193.897 177.387 194.019 177.318L200.194 173.764C201.16 173.21 201.944 171.853 201.944 170.743V169.26C201.944 167.966 202.824 166.45 203.945 165.803L205.236 165.059C205.357 164.99 205.512 165.033 205.582 165.152C205.651 165.273 205.61 165.425 205.489 165.497L204.198 166.238C203.235 166.792 202.448 168.15 202.448 169.26V170.743C202.448 172.036 201.57 173.552 200.446 174.199L194.269 177.753C194.231 177.776 194.185 177.786 194.145 177.786Z" fill="#42E8DF"/>
<g opacity="0.302">
<path opacity="0.302" d="M219.535 74.9115C230.647 71.6977 243.792 69.8888 257.823 70.0053C259.674 70.0196 261.506 70.0671 263.321 70.1479C275.64 71.2699 280.022 84.2365 272.595 89.908C269.184 92.5132 265.074 92.4847 263.321 92.4728C261.506 92.392 259.674 92.3444 257.823 92.3302C243.792 92.2137 230.647 94.0226 219.535 97.2363C208.315 99.9604 207.652 88.5959 211.576 81.6455C212.897 79.3089 215.349 76.2426 219.535 74.9115Z" fill="#42E8DF"/>
<path opacity="0.302" d="M186 125.364C186.305 121.825 186.546 119.03 190.162 114.152C197.783 102.944 196.244 89.9206 192.034 90.522C191.357 90.6195 190.651 91.3469 190.162 91.827C187.603 95.1501 186.15 98.7227 186.01 102.45C186.002 102.647 186 102.844 186 103.039V125.364Z" fill="#42E8DF"/>
</g>
<path d="M283.493 149.73L275.111 129.091L277.537 128.111L285.918 148.753L283.493 149.73Z" fill="#42E8DF"/>
<path d="M239.413 120.068C238.54 124.46 234.261 127.315 229.856 126.445C225.448 125.575 222.584 121.311 223.457 116.921C224.33 112.53 228.609 109.675 233.014 110.543C237.419 111.413 240.284 115.677 239.413 120.068Z" fill="url(#paint7_radial)"/>
<path d="M273.43 130.486C273.43 146.22 264.03 158.972 252.433 158.972C240.834 158.972 231.435 146.22 231.435 130.486C231.435 114.753 240.834 110.039 252.433 110.039C264.03 110.039 273.43 114.753 273.43 130.486Z" fill="url(#paint8_radial)"/>
<path d="M273.43 130.486C273.43 146.22 264.03 158.972 252.433 158.972C240.834 158.972 231.435 146.22 231.435 130.486C231.435 114.753 240.834 110.039 252.433 110.039C264.03 110.039 273.43 114.753 273.43 130.486Z" fill="url(#paint9_linear)"/>
<path d="M262.566 124.325C256.97 127.546 247.895 127.546 242.299 124.325C236.704 121.105 236.704 115.885 242.299 112.664C247.895 109.445 256.97 109.445 262.566 112.664C268.161 115.885 268.161 121.105 262.566 124.325Z" fill="#382F90"/>
<path d="M242.299 114.86C247.895 111.642 256.97 111.642 262.566 114.86C264.877 116.191 266.232 117.862 266.632 119.593C267.205 117.135 265.85 114.554 262.566 112.664C256.97 109.445 247.895 109.445 242.299 112.664C239.015 114.554 237.66 117.133 238.232 119.593C238.633 117.862 239.988 116.191 242.299 114.86Z" fill="#443B9E"/>
<path d="M235.891 98.9016L238.483 94.4494C240.007 92.8735 241.226 90.7793 241.846 88.6757L244.472 84.1665L240.697 82.0058C240.575 81.9249 240.448 81.8513 240.317 81.7894H240.315C239.242 81.2831 237.813 81.4186 236.248 82.3195C232.909 84.2401 230.204 88.911 230.204 92.7522C230.204 94.6705 230.879 96.0206 231.972 96.6505H231.974L235.891 98.9016Z" fill="url(#paint10_radial)"/>
<path d="M246.18 88.0278C246.18 91.869 243.475 96.5422 240.136 98.4629C236.799 100.383 234.092 98.8265 234.092 94.9853C234.092 91.144 236.799 86.4708 240.136 84.5502C243.475 82.6296 246.18 84.1865 246.18 88.0278Z" fill="black"/>
<path d="M274.679 98.8135C274.679 110.601 265.094 120.157 253.266 120.157C241.438 120.157 231.85 110.601 231.85 98.8135C231.85 87.0282 241.438 77.4727 253.266 77.4727C265.094 77.4727 274.679 87.0282 274.679 98.8135Z" fill="url(#paint11_radial)"/>
<path d="M274.679 98.8135C274.679 110.601 265.094 120.157 253.266 120.157C241.438 120.157 231.85 110.601 231.85 98.8135C231.85 87.0282 241.438 77.4727 253.266 77.4727C265.094 77.4727 274.679 87.0282 274.679 98.8135Z" fill="url(#paint12_linear)"/>
<path d="M265.249 113.25L267.842 108.797C269.368 107.222 270.587 105.127 271.205 103.024L273.831 98.5145L270.055 96.3538C269.933 96.273 269.807 96.1993 269.676 96.1375L269.673 96.1352C268.6 95.6288 267.174 95.7643 265.607 96.6652C262.267 98.5859 259.563 103.259 259.563 107.1C259.563 109.019 260.238 110.369 261.33 110.999H261.333L265.249 113.25Z" fill="url(#paint13_radial)"/>
<path d="M275.541 102.376C275.541 106.218 272.834 110.888 269.495 112.809C266.158 114.73 263.451 113.173 263.451 109.332C263.451 105.49 266.158 100.819 269.495 98.8988C272.834 96.9782 275.541 98.5351 275.541 102.376Z" fill="#BCBDFF"/>
<path d="M263.73 109.382C263.73 105.541 266.434 100.87 269.774 98.9495C270.93 98.2839 272.011 98.0367 272.929 98.1556C271.954 97.9416 270.771 98.1651 269.495 98.8996C266.158 100.82 263.451 105.491 263.451 109.332C263.451 111.842 264.607 113.378 266.339 113.604C264.763 113.257 263.73 111.757 263.73 109.382Z" fill="#F6F6FF"/>
<path d="M273.817 103.368C273.817 106.116 271.882 109.453 269.495 110.827C267.11 112.198 265.175 111.086 265.175 108.34C265.175 105.595 267.11 102.255 269.495 100.884C271.882 99.5098 273.817 100.622 273.817 103.368Z" fill="#382F90"/>
<path d="M271.977 100.357C272.426 100.883 272.686 101.67 272.686 102.675C272.686 105.423 270.751 108.76 268.364 110.134C267.441 110.667 266.585 110.823 265.883 110.659C266.656 111.567 267.985 111.696 269.494 110.826C271.882 109.452 273.816 106.115 273.816 103.367C273.816 101.686 273.089 100.617 271.977 100.357Z" fill="#443B9E"/>
<path d="M246.583 108.922C246.037 113.12 242.858 114.439 239.485 111.867C236.11 109.295 233.82 103.809 234.367 99.6137C234.913 95.4159 238.092 94.0967 241.467 96.6686C244.84 99.2381 247.132 104.724 246.583 108.922Z" fill="#382F90"/>
<path d="M243.797 105.287C243.599 106.813 242.445 107.293 241.219 106.359C239.993 105.425 239.158 103.431 239.358 101.905C239.556 100.379 240.711 99.9009 241.937 100.835C243.165 101.769 243.997 103.764 243.797 105.287Z" fill="#42E8DF"/>
<path d="M241.104 111.258C237.732 108.686 235.44 103.2 235.986 99.0023C236.21 97.2909 236.871 96.0596 237.803 95.375C236.038 95.539 234.703 97.0294 234.366 99.6156C233.82 103.811 236.11 109.297 239.485 111.869C241.484 113.393 243.413 113.55 244.768 112.554C243.668 112.656 242.402 112.245 241.104 111.258Z" fill="#443B9E"/>
<path d="M239.776 111.732C236.401 109.16 234.109 103.674 234.657 99.4761C234.91 97.5341 235.728 96.2101 236.868 95.6016C235.578 96.1293 234.641 97.5079 234.366 99.614C233.82 103.809 236.11 109.296 239.485 111.867C241.295 113.248 243.048 113.503 244.372 112.797C243.089 113.325 241.457 113.013 239.776 111.732Z" fill="#42E8DF"/>
<path d="M284.301 130.174C283.428 134.564 279.149 137.419 274.744 136.551C270.339 135.681 267.474 131.417 268.347 127.027C269.218 122.634 273.497 119.779 277.904 120.649C282.31 121.519 285.174 125.784 284.301 130.174Z" fill="url(#paint14_radial)"/>
<path d="M284.301 130.174C283.428 134.564 279.149 137.419 274.744 136.551C270.339 135.681 267.474 131.417 268.347 127.027C269.218 122.634 273.497 119.779 277.904 120.649C282.31 121.519 285.174 125.784 284.301 130.174Z" fill="url(#paint15_linear)"/>
<path d="M289.293 155.454C288.833 159.305 285.42 166.6 282.331 166.234C279.243 165.865 277.647 157.976 278.11 154.125C278.57 150.272 281.449 147.448 284.538 147.816C287.626 148.183 289.756 151.603 289.293 155.454Z" fill="url(#paint16_radial)"/>
<path d="M289.293 155.454C288.833 159.305 285.42 166.6 282.331 166.234C279.243 165.865 277.647 157.976 278.11 154.125C278.57 150.272 281.449 147.448 284.538 147.816C287.626 148.183 289.756 151.603 289.293 155.454Z" fill="url(#paint17_linear)"/>
<path d="M209.914 130.676C209.444 130.676 208.989 130.422 208.755 129.977C208.418 129.338 208.667 128.549 209.308 128.216L226.099 119.459C226.739 119.124 227.531 119.371 227.864 120.008C228.201 120.648 227.953 121.437 227.311 121.77L210.52 130.527C210.327 130.629 210.119 130.676 209.914 130.676Z" fill="#42E8DF"/>
<path d="M210.21 135.537C206.799 137.4 198.859 138.872 197.363 136.155C195.868 133.435 201.382 127.557 204.795 125.691C208.208 123.827 212.187 124.519 213.682 127.238C215.178 129.958 213.623 133.673 210.21 135.537Z" fill="url(#paint18_radial)"/>
<path d="M210.21 135.537C206.799 137.4 198.859 138.872 197.363 136.155C195.868 133.435 201.382 127.557 204.795 125.691C208.208 123.827 212.187 124.519 213.682 127.238C215.178 129.958 213.623 133.673 210.21 135.537Z" fill="url(#paint19_linear)"/>
<g opacity="0.502">
<g opacity="0.502">
<path opacity="0.502" d="M194.205 131.907C193.694 136.005 191.562 138.444 189.32 135.392C186.446 131.477 186.167 127.65 186 125.363V103.038C186 106.53 187.164 109.901 189.32 113.067C194.057 120.875 194.62 128.584 194.205 131.907Z" fill="#42E8DF"/>
<path opacity="0.502" d="M260.712 135.999C258.945 136.046 257.158 136.065 255.357 136.048C241.273 135.934 228.224 133.897 217.333 130.481C206.455 127.584 205.799 138.929 209.596 145.937C212.298 150.924 215.957 152.291 217.333 152.806C228.224 156.222 241.273 158.259 255.357 158.373C257.158 158.39 258.945 158.371 260.712 158.323C273.494 157.385 276.84 145.15 270.868 139.44C269.201 137.848 266.086 135.956 260.712 135.999Z" fill="#42E8DF"/>
</g>
</g>
</g>
<path d="M60 28.9333L63.8686 28V46.6383C63.8686 48.6807 64.4776 49.8979 65.6955 50.2899C65.0982 51.4269 64.077 51.9947 62.6319 51.9932C60.8773 51.9932 60 50.7752 60 48.3392V28.9333Z" fill="white"/>
<path d="M68.1782 51.6777V38.28H66.0596V35.1067H72.0934V51.6731L68.1782 51.6777ZM70.1755 28.6855C70.6194 28.6855 71.0534 28.8172 71.4225 29.0638C71.7917 29.3105 72.0793 29.661 72.2492 30.0712C72.4191 30.4813 72.4636 30.9327 72.377 31.3681C72.2904 31.8035 72.0766 32.2034 71.7627 32.5174C71.4488 32.8313 71.0488 33.045 70.6134 33.1317C70.178 33.2183 69.7267 33.1738 69.3165 33.0039C68.9064 32.834 68.5558 32.5463 68.3092 32.1772C68.0625 31.8081 67.9309 31.3741 67.9309 30.9302C67.9315 30.335 68.1682 29.7645 68.589 29.3437C69.0098 28.9228 69.5804 28.6862 70.1755 28.6855Z" fill="white"/>
<path d="M85.9763 51.6834V42.103C85.9763 40.6913 85.7057 39.6577 85.1644 39.009C84.623 38.3604 83.7387 38.0337 82.5114 38.0337C81.8757 38.0509 81.2527 38.2154 80.6914 38.5144C80.1032 38.7882 79.587 39.1957 79.1841 39.7044V51.6834H75.3132V35.1171H78.0992L78.7992 36.6664C79.8507 35.422 81.4062 34.7998 83.4657 34.7998C85.435 34.7998 86.9905 35.3901 88.1323 36.5708C89.274 37.7514 89.8441 39.3995 89.8426 41.515V51.6834H85.9763Z" fill="white"/>
<path d="M91.9216 43.3583C91.9216 40.829 92.6512 38.7703 94.1102 37.1821C95.5693 35.5939 97.4958 34.7998 99.8898 34.7998C102.408 34.7998 104.363 35.5636 105.756 37.0911C107.148 38.6186 107.848 40.7077 107.856 43.3583C107.856 46.0027 107.146 48.1026 105.728 49.6582C104.309 51.2137 102.365 51.9914 99.8945 51.9914C97.3776 51.9914 95.42 51.2043 94.0216 49.6302C92.6232 48.056 91.9232 45.9653 91.9216 43.3583ZM95.9442 43.3583C95.9442 47.0107 97.2594 48.8368 99.8898 48.8368C100.449 48.8545 101.004 48.7335 101.505 48.4848C102.006 48.236 102.438 47.8672 102.762 47.4112C103.47 46.4639 103.823 45.1129 103.821 43.3583C103.821 39.7588 102.511 37.9583 99.8898 37.9567C99.3305 37.9393 98.7754 38.0597 98.2737 38.3076C97.7719 38.5554 97.3389 38.9229 97.0129 39.3777C96.3004 40.3281 95.9442 41.655 95.9442 43.3583Z" fill="white"/>
<path d="M120.843 51.6828V50.6772C120.523 51.0272 119.977 51.3352 119.209 51.5988C118.447 51.8599 117.647 51.9931 116.841 51.9932C114.528 51.9932 112.71 51.2605 111.386 49.7952C110.062 48.3299 109.4 46.2867 109.398 43.6657C109.398 41.0462 110.159 38.9135 111.68 37.2678C112.399 36.4689 113.283 35.8347 114.27 35.4086C115.257 34.9826 116.324 34.7747 117.399 34.7992C118.589 34.7832 119.766 35.0487 120.833 35.5738V28.9333L124.702 28V51.6828H120.843ZM120.843 39.0691C120.122 38.4506 119.209 38.101 118.26 38.0798C116.704 38.0798 115.512 38.5519 114.683 39.4961C113.854 40.4403 113.436 41.7944 113.43 43.5583C113.43 47.0023 115.091 48.725 118.414 48.7266C118.887 48.7034 119.352 48.591 119.783 48.3952C120.325 48.1619 120.677 47.9472 120.843 47.7209V39.0691Z" fill="white"/>
<path d="M142.5 45H130.883C130.954 46.3206 131.27 46.9276 132.105 47.6603C132.941 48.3929 134.065 48.7585 135.479 48.7569C137.243 48.7569 138.585 48.298 139.504 47.3803L141.004 50.3435C139.643 51.4448 137.611 51.9971 134.908 52.0002C132.38 52.0002 130.381 51.2597 128.911 49.7789C127.441 48.298 126.706 46.2307 126.706 43.577C126.706 40.9668 127.513 38.8513 129.128 37.2305C129.878 36.449 130.781 35.8302 131.781 35.4123C132.78 34.9945 133.855 34.7866 134.938 34.8015C137.341 34.8015 139.271 35.5186 140.727 36.9528C142.183 38.387 142.91 40.2132 142.908 42.4314C142.873 43.1568 142.68 44.2964 142.5 45ZM130.883 41.6707H139.023C138.754 39.2472 137.413 38.0347 135.001 38.0331C132.792 38.0331 131.419 39.2457 130.883 41.6707Z" fill="white"/>
<path d="M50 38.1645L45.6698 35.7237L42.0322 38.0044L41.9873 40.3336L40.2145 39.135L37.8036 40.6515C37.9644 44.548 37.9431 44.3952 37.9573 44.3952L32.0364 48.4883L31.0909 41.9544L37.6855 38.0942L35.2084 36.3958L30.6371 38.822L29.3607 29.8619L37.2222 26.7659L31.6251 24L24 26.4408L25.6971 34.8624L28.2545 36.898L26.3164 37.8418L27.5927 44.2156L29.3773 45.9334L28.1009 46.7292L29.0889 51.6594L33.0929 56C32.3602 50.9243 32.3838 51.0844 32.3956 51.0844V51.0698L37.1229 47.61C38.1676 46.8457 38.0471 46.9331 38.0684 46.9331L38.1298 48.4664L40.1862 50.2352L40.1342 45.3827L42.9705 43.2961C43.8475 42.6555 44.592 42.1121 44.5991 42.1121L44.4667 44.3612L45.9984 45.453L46.4002 40.7849L50 38.1645Z" fill="#42E8DF"/>
<defs>
<linearGradient id="paint0_linear" x1="180.944" y1="163.683" x2="302.581" y2="163.683" gradientUnits="userSpaceOnUse">
<stop stop-color="#5761D7"/>
<stop offset="1" stop-color="#BCBEFF"/>
</linearGradient>
<linearGradient id="paint1_linear" x1="215.368" y1="142.686" x2="288.377" y2="142.686" gradientUnits="userSpaceOnUse">
<stop stop-color="#42E8E0"/>
<stop offset="1" stop-color="#5761D7"/>
</linearGradient>
<linearGradient id="paint2_linear" x1="251.872" y1="137.389" x2="288.377" y2="137.389" gradientUnits="userSpaceOnUse">
<stop stop-color="#42E8E0"/>
<stop offset="1" stop-color="#5761D7"/>
</linearGradient>
<linearGradient id="paint3_linear" x1="215.368" y1="137.39" x2="251.873" y2="137.39" gradientUnits="userSpaceOnUse">
<stop stop-color="#42E8E0"/>
<stop offset="1" stop-color="#5761D7"/>
</linearGradient>
<linearGradient id="paint4_linear" x1="215.368" y1="137.39" x2="288.377" y2="137.39" gradientUnits="userSpaceOnUse">
<stop stop-color="#42E8E0"/>
<stop offset="1" stop-color="#5761D7"/>
</linearGradient>
<linearGradient id="paint5_linear" x1="251.873" y1="158.393" x2="288.377" y2="158.393" gradientUnits="userSpaceOnUse">
<stop stop-color="#42E8E0"/>
<stop offset="1" stop-color="#5761D7"/>
</linearGradient>
<linearGradient id="paint6_linear" x1="215.368" y1="158.393" x2="251.873" y2="158.393" gradientUnits="userSpaceOnUse">
<stop stop-color="#42E8E0"/>
<stop offset="1" stop-color="#5761D7"/>
</linearGradient>
<radialGradient id="paint7_radial" cx="0" cy="0" r="1" gradientUnits="userSpaceOnUse" gradientTransform="translate(267.185 94.6974) scale(43.1449 42.998)">
<stop stop-color="#C0BFF6"/>
<stop offset="1" stop-color="#393091"/>
</radialGradient>
<radialGradient id="paint8_radial" cx="0" cy="0" r="1" gradientUnits="userSpaceOnUse" gradientTransform="translate(264.821 126.217) scale(36.0847 35.9618)">
<stop stop-color="#C0BFF6"/>
<stop offset="1" stop-color="#393091"/>
</radialGradient>
<linearGradient id="paint9_linear" x1="230.692" y1="158.972" x2="230.692" y2="110.038" gradientUnits="userSpaceOnUse">
<stop stop-color="#42E8E0"/>
<stop offset="1" stop-color="#393091"/>
</linearGradient>
<radialGradient id="paint10_radial" cx="0" cy="0" r="1" gradientUnits="userSpaceOnUse" gradientTransform="translate(231.291 66.0893) scale(25.4117 25.3252)">
<stop stop-color="#C0BFF6"/>
<stop offset="1" stop-color="#393091"/>
</radialGradient>
<radialGradient id="paint11_radial" cx="0" cy="0" r="1" gradientUnits="userSpaceOnUse" gradientTransform="translate(266.63 95.6525) scale(36.1963 36.0731)">
<stop stop-color="#C0BFF6"/>
<stop offset="1" stop-color="#393091"/>
</radialGradient>
<linearGradient id="paint12_linear" x1="226.708" y1="116.65" x2="232.631" y2="74.3694" gradientUnits="userSpaceOnUse">
<stop stop-color="#42E8E0"/>
<stop offset="1" stop-color="#393091"/>
</linearGradient>
<radialGradient id="paint13_radial" cx="0" cy="0" r="1" gradientUnits="userSpaceOnUse" gradientTransform="translate(266.34 95.4879) scale(17.1899 17.1314)">
<stop stop-color="#C0BFF6"/>
<stop offset="1" stop-color="#393091"/>
</radialGradient>
<radialGradient id="paint14_radial" cx="0" cy="0" r="1" gradientUnits="userSpaceOnUse" gradientTransform="translate(280.753 123.739) scale(15.5935 15.5404)">
<stop stop-color="#C0BFF6"/>
<stop offset="1" stop-color="#393091"/>
</radialGradient>
<linearGradient id="paint15_linear" x1="264.89" y1="125.589" x2="276.955" y2="116.793" gradientUnits="userSpaceOnUse">
<stop stop-color="#42E8E0"/>
<stop offset="1" stop-color="#393091"/>
</linearGradient>
<radialGradient id="paint16_radial" cx="0" cy="0" r="1" gradientUnits="userSpaceOnUse" gradientTransform="translate(290.902 149.298) scale(13.491 13.4451)">
<stop stop-color="#C0BFF6"/>
<stop offset="1" stop-color="#393091"/>
</radialGradient>
<linearGradient id="paint17_linear" x1="279.365" y1="146.471" x2="289.826" y2="147.724" gradientUnits="userSpaceOnUse">
<stop stop-color="#42E8E0"/>
<stop offset="1" stop-color="#393091"/>
</linearGradient>
<radialGradient id="paint18_radial" cx="0" cy="0" r="1" gradientUnits="userSpaceOnUse" gradientTransform="translate(218.764 126.455) scale(12.4649 12.4225)">
<stop stop-color="#C0BFF6"/>
<stop offset="1" stop-color="#393091"/>
</radialGradient>
<linearGradient id="paint19_linear" x1="210.802" y1="138.868" x2="199.142" y2="138.424" gradientUnits="userSpaceOnUse">
<stop stop-color="#42E8E0"/>
<stop offset="1" stop-color="#393091"/>
</linearGradient>
<clipPath id="clip0">
<rect width="185" height="107" fill="white" transform="translate(133 105)"/>
</clipPath>
<clipPath id="clip1">
<rect width="124" height="134" fill="white" transform="translate(186 70)"/>
</clipPath>
</defs>
</svg>
