<?xml version="1.0" encoding="iso-8859-1"?>
<!-- Generator: Adobe Illustrator 18.0.0, SVG Export Plug-In . SVG Version: 6.00 Build 0)  -->
<!DOCTYPE svg PUBLIC "-//W3C//DTD SVG 1.1//EN" "http://www.w3.org/Graphics/SVG/1.1/DTD/svg11.dtd">
<svg version="1.1" id="Capa_1" xmlns="http://www.w3.org/2000/svg" xmlns:xlink="http://www.w3.org/1999/xlink" x="0px" y="0px"
	 viewBox="0 0 309.998 309.998" style="enable-background:new 0 0 309.998 309.998;" xml:space="preserve">
<path fill="#137EFB" d="M294.998,155.03H250v-48.82l39.714-39.715c5.858-5.857,5.858-15.356,0-21.213c-5.857-5.857-15.355-5.857-21.213,0
	l-23.7,23.701c-12.885-37.2-48.274-63.984-89.802-63.984c-41.528,0-76.913,26.787-89.797,63.989L41.497,45.282
	c-5.856-5.859-15.354-5.857-21.213,0s-5.858,15.355,0,21.213L60,106.212v48.818H15c-8.284,0-15,6.716-15,15c0,8.284,6.716,15,15,15
	h45.134c0.855,16.314,5.849,31.551,13.944,44.68l-49.685,49.683c-5.858,5.857-5.858,15.354,0,21.213
	c2.929,2.93,6.768,4.394,10.607,4.394c3.838,0,7.678-1.465,10.606-4.394l48.095-48.093c16.558,14.018,37.957,22.486,61.301,22.486
	c0.019,0,0.037-0.001,0.057-0.001c0.011,0,0.022,0.002,0.033,0.002c0.019,0,0.037-0.003,0.056-0.003
	c23.285-0.035,44.629-8.494,61.15-22.483l48.094,48.092c2.929,2.929,6.768,4.394,10.606,4.394c3.839,0,7.678-1.465,10.607-4.394
	c5.858-5.858,5.858-15.355,0-21.213l-49.683-49.681c8.096-13.131,13.089-28.366,13.944-44.682h45.132c8.284,0,15-6.716,15-15
	C309.998,161.746,303.282,155.03,294.998,155.03z M154.999,34.999c30.681,0,56.465,21.365,63.254,50H91.747
	C98.535,56.364,124.318,34.999,154.999,34.999z M90,179.999v-9.272c0.011-0.232,0.035-0.462,0.035-0.696
	c0-0.234-0.024-0.464-0.035-0.695v-54.336h50.092v128.254C111.415,236.494,90,210.708,90,179.999z M170.092,243.212V114.999H220
	v54.297c-0.012,0.244-0.037,0.486-0.037,0.734c0,0.248,0.025,0.49,0.037,0.734v9.234C220,210.645,198.676,236.388,170.092,243.212z"
	/>
<g>
</g>
<g>
</g>
<g>
</g>
<g>
</g>
<g>
</g>
<g>
</g>
<g>
</g>
<g>
</g>
<g>
</g>
<g>
</g>
<g>
</g>
<g>
</g>
<g>
</g>
<g>
</g>
<g>
</g>
</svg>
