<svg width="1920" height="384" viewBox="0 0 1920 384" fill="none" xmlns="http://www.w3.org/2000/svg">
<g clip-path="url(#clip0)">
<path d="M0 256.667L64 270.933C128 284.667 256 314 384 306.4C512 299.333 640 256.667 768 206.933C896 156.667 1024 100.667 1152 107.333C1280 114 1408 186 1536 178.4C1664 171.333 1792 86 1856 43.3333L1920 0.666626V384.667H1856C1792 384.667 1664 384.667 1536 384.667C1408 384.667 1280 384.667 1152 384.667C1024 384.667 896 384.667 768 384.667C640 384.667 512 384.667 384 384.667C256 384.667 128 384.667 64 384.667H0V256.667Z" fill="url(#paint0_linear)"/>
<path d="M0 256.667L64 270.933C128 284.667 256 314 384 306.4C512 299.333 640 256.667 768 206.933C896 156.667 1024 100.667 1152 107.333C1280 114 1408 186 1536 178.4C1664 171.333 1792 86 1856 43.3333L1920 0.666626" stroke="#B1E2FF"/>
</g>
<defs>
<linearGradient id="paint0_linear" x1="960" y1="0.666626" x2="960" y2="384.667" gradientUnits="userSpaceOnUse">
<stop stop-color="#E7F6FF"/>
<stop offset="1" stop-color="white" stop-opacity="0"/>
</linearGradient>
<clipPath id="clip0">
<rect width="1920" height="384" fill="white"/>
</clipPath>
</defs>
</svg>
