<svg xmlns="http://www.w3.org/2000/svg" viewBox="0 0 800 1000"><title>jake-yo-yo</title><g id="jake"><g id="yo-yo"><g id="body"><path d="M190.32,441.45c4.5-1.52,9.44-1.44,14.12-1.75l17.95-1.19c19.5-1.3,42.09-4.55,59.29,7.08A76.45,76.45,0,0,1,312,486.45c6.14,19.48,20.57,62.12,20.57,62.12s-.74-37.38,0-49.73c-.15-15.77,1-31.55,1.58-47.31.87-21.74,2.72-29.58,9.2-50.83,3.08-10.08,11-20.78,19.26-27.44,8.84-7.11,22.51-13,33.55-14.85,11.34-1.93,22.81-4.07,34.29-4.33,5.52-.49,11-.77,16.46-.95,24.08-.8,70.59-.31,89.76.79s38.37,4.37,55.77,11.71c61.58,26,68.29,103,74.09,160.39,5.6,55.48,7.79,152.94,8.31,187.73q2,14.91,3.76,29.84c.83,7.07,1.63,14.5,1.19,21.68.45,8,.19,16.3-4.21,23.2-3.07,4.8-15.43,12.43-27.84,12.15-1.79,0-3.5,0-5.16.1a33.57,33.57,0,0,1-8.31,4.58c-8.69,3.13-15.74-.63-21.43-7.23-1-.48-2-1-3-1.49a22.36,22.36,0,0,1-3.07-.23q.15,6,.31,12,.72,27,1.43,54c.21,8.23,1.47,37.52,1.47,37.52s3.21,2.65,6.61,5.81,5.82,8.75,0,9.19c0,0-73.2.23-79.49.23s-7.88-3.5-7.94-7.4q-.71-44.71-1.61-89.43c-2.06-102.11-8.51-303.3-8.51-303.3s-23.73-2.81-34.07-.38q-1.32,35.26-2,70.55c-1.91,107.26,5.4,213.13,8.81,321.58.14,4.46-3.27,7.63-6,7.63l-85.26,0c-3.93,0-6.13-5.06-3.25-7.85a43,43,0,0,1,9.52-7c.18-.09.36-.18.53-.25q-2.06-48.23-3.62-96.47-4.19-131.28-4.42-262.65c0-.48.1-4.49.27-10.45-.49,6.57-1,13.13-1.53,19.66-1.05,13.26-2.6,34.12-11.92,52.62s-29.5,23-50,23-43.16-15.53-54-35.88c-14.16-26.58-23.6-61.63-28.74-90.68-1.15.14-2.31.22-3.49.26l-.2.19c-3.37,2.84-8.15,2.95-12.09,1.32a30.23,30.23,0,0,1-12-9.41,11,11,0,0,1-1.41-10.4,21.14,21.14,0,0,1-3.5-5.19,17.86,17.86,0,0,1-.87-13.53l-7.41-.12c-5.34-.09-10.72,0-16.06-.28-4-.2-8.37-.93-11.45-3.65C178.47,451.74,183.54,443.74,190.32,441.45Z" style="fill:#1e78f0"/><path d="M501.08,300.22c-2.16,1.75-4.94,2.67-7.7,3.57-.43,7.82,1.69,18.93-4.29,23.66s-14.78,6.07-18.54,3.45c-9.49-6.62-14.68-15.78-17.65-25.68l-5.58,1.39c-1.6.39-3.09-.31-3.17-1.65a79.62,79.62,0,0,1,5.16-33.24c1.27-5.35,4.43-9.67,11.23-10.9,12.28-2.21,21.93,8.57,27.24,18.45l.22,0c5.93-.77,12.49,1.25,15.89,5.67C507.78,289.94,506,296.24,501.08,300.22Z" style="fill:#1e78f0"/></g><path id="object" d="M166.42,733.48c0,5.41,1,10.36,4.39,14.71a37.36,37.36,0,0,0,12.68,10.48,17,17,0,0,0,10.6,1.48,13.88,13.88,0,0,0,8.21-.35c11.16-4.2,15.34-21.33,10.5-32.52a25.5,25.5,0,0,0-.66-2.74c-2.76-9.17-11.63-14.46-21-14.35a32.5,32.5,0,0,0-14.74,3.9,11.23,11.23,0,0,0-4.56,4.29c-.36.27-.72.54-1.06.84C166.58,722.86,166.4,728.26,166.42,733.48Z" style="fill:#f0b441"/><g id="object-lines"><path d="M207.41,462.84c-2.28,86.09.43,170.23,1.14,256.35" style="fill:none;stroke:#dc8c2d;stroke-linecap:round;stroke-linejoin:round;stroke-width:6px"/><path d="M209.77,438.7c5.24,4.66,5.15,19.69-1.36,24.24" style="fill:none;stroke:#dc8c2d;stroke-linecap:round;stroke-linejoin:round;stroke-width:6px"/><path d="M189.09,716.17a21.11,21.11,0,0,0-10.62,13,23,23,0,0,0,1.8,16.74,24.06,24.06,0,0,0,11.27,10.63" style="fill:none;stroke:#dc8c2d;stroke-linecap:round;stroke-linejoin:round;stroke-width:6px"/></g><g id="body-lines"><path d="M252.54,454.62a56,56,0,0,0-10.43,12.58,16,16,0,0,0-1.65,3.35,16.24,16.24,0,0,0-.64,4.39c-.12,3,0,6.24,1.83,8.66a8,8,0,0,0,6.16,3.14,8.93,8.93,0,0,0,6.45-2.63,17.32,17.32,0,0,0,2.19-2.84q2.07-3.18,3.85-6.52" style="fill:none;stroke:#3741f0;stroke-linecap:round;stroke-linejoin:round;stroke-width:6px"/><path d="M260.37,473.53c1.17,1.89,1.78,4.14,3.26,5.82,1.78,2,4.5,2.88,7.09,3.65" style="fill:none;stroke:#3741f0;stroke-linecap:round;stroke-linejoin:round;stroke-width:6px"/><path d="M224.16,480.28c5,4.67,12.39,7.44,19.34,5.48" style="fill:none;stroke:#3741f0;stroke-linecap:round;stroke-linejoin:round;stroke-width:6px"/><path d="M249.26,499.49c4-.32,6.94-4.49,6.89-8.51,0-2.09-1-4.48-3.06-4.93" style="fill:none;stroke:#3741f0;stroke-linecap:round;stroke-linejoin:round;stroke-width:6px"/><path d="M220.37,461.9c6.44-.11,13.46,0,13.46,0" style="fill:none;stroke:#3741f0;stroke-linecap:round;stroke-linejoin:round;stroke-width:6px"/><path d="M272.08,498.87a10.91,10.91,0,0,0-2.37,2.79" style="fill:none;stroke:#3741f0;stroke-linecap:round;stroke-linejoin:round;stroke-width:6px"/><path d="M580.92,458c16.33,48.11,14.07,100.19,14.72,151,.5,38.87,3.55,123,3.55,123s-7.17,22.13-7.17,29,4.12,18.08,17,18.08" style="fill:none;stroke:#3741f0;stroke-linecap:round;stroke-linejoin:round;stroke-width:6px"/><path d="M397.84,453.1c.88,31.28.38,49,.33,80.35" style="fill:none;stroke:#3741f0;stroke-linecap:round;stroke-linejoin:round;stroke-width:6px"/><path d="M649.44,788.56l-6.22,9.17" style="fill:none;stroke:#3741f0;stroke-linecap:round;stroke-linejoin:round;stroke-width:6px"/><path d="M667.25,785.16l-3,6.71" style="fill:none;stroke:#3741f0;stroke-linecap:round;stroke-linejoin:round;stroke-width:6px"/><path d="M603.46,760.94a109.65,109.65,0,0,0,7.87,23.25" style="fill:none;stroke:#3741f0;stroke-linecap:round;stroke-linejoin:round;stroke-width:6px"/><path d="M595.7,772.57c.08,4,1.5,11.48,4.15,14.44a50.59,50.59,0,0,0,9.21,7.53" style="fill:none;stroke:#3741f0;stroke-linecap:round;stroke-linejoin:round;stroke-width:6px"/><line x1="340.2" y1="916.1" x2="685.58" y2="916.1" style="fill:none;stroke:#3741f0;stroke-linecap:round;stroke-linejoin:round;stroke-width:6px"/></g></g></g></svg>