<svg xmlns="http://www.w3.org/2000/svg" viewBox="0 0 800 1000"><title>jake-telephone-call</title><g id="jake"><g id="telephone-call"><g id="body"><path d="M593.76,395.69c-1.42-24.9-6.44-50.06-18.48-71.75-.25-.57-.5-1.12-.76-1.68a116.26,116.26,0,0,1-.42-23.07c.31-3.66,1.76-8.27.29-11.81a6.74,6.74,0,0,0-8.65-3.64,4.15,4.15,0,0,0-2.79,2.85,4.26,4.26,0,0,0-1.8,2.25c-1,2.56-1.93,5.18-2.75,7.85a107.25,107.25,0,0,0-18.15-17.14c-4.19-3.12-10,1.21-7.16,6q7.54,12.59,15.07,25.17c.35.58.71,1.16,1.09,1.76a6.64,6.64,0,0,0-.42,2.42c-.37.69-.76,1.38-1.12,2.08-1-1.38-2-2.77-3-4.16-5.36-7.44-11-14.69-19-19.46a4.76,4.76,0,0,0-6.38,2c-2.6,5.78,1.47,10.19,4.76,14.64,3.14,4.25,6.34,8.47,9.35,12.8,2,2.85,3.91,5.78,5.66,8.81l-1.35,2.21-16.33-13.75c-4.32-3.65-9.46,1.37-7.15,6,4.47,9,10.94,16.71,17.06,24.63.25.43.48.87.72,1.31l-.19.51a7.21,7.21,0,0,1,.67,1.15c.19.25.38.5.56.76a5,5,0,0,1,1.08,3.15c3.9,17.05,1.52,40.91,1.21,55.08-.27,12.46,1.06,54.16-6.55,54.78S513.26,440.05,506.44,415s-16.7-42-33.37-57c-10.18-9.16-23.44-16-37.16-18.1-.41-.12-.82-.25-1.23-.35a60.64,60.64,0,0,0-11-1.61c-14.83-2.76-31.56-3.29-44-3.55l-41.35-.89a87.2,87.2,0,0,0-10.81-.23l-2.81-.06a75.12,75.12,0,0,0-13,.93c-13,1-27,2.87-34,5.11-13.18,4.16-26,11.89-35.82,27.46s-21,42.75-26.56,61.31a328.86,328.86,0,0,0-13.95,80.81c-.94,17.53,2.21,61.92,25.87,100.56-1,13.74-1.92,29.94-2.42,39.53-1.52,28.64-4.65,83-4.56,111.76s-3.43,115.72-7,142.47c0,.11,0,.22,0,.33-2.55.43-5.12.8-7.72,1.07-7.12.72-8.44,11.28-1.08,12.79,12.68,2.62,25.63,1.25,38.45,1.24,15.34,0,27.69,1.75,43,1.1,4.75-.2,5.83-8.26,5.83-8.37.44-11.23,1.84-64.52,2.18-80.06.61-28.29,2.59-56.53,4.3-84.77.86-14.13,1.66-28.25,2.19-42.39.24-6.31,1.4-24.13,2.78-43,5.2.55,10,.8,13.58.83a91.27,91.27,0,0,0,34.11-6.91c12.73-5.35,20.62-14.81,24.08-19.65,2.93-4.11,7.28-10.58,8.41-15.82a6.07,6.07,0,0,0,2.18-2.64l.83-.82c.17,9.08.31,17.75.41,25.62.41,30.82,1.63,60.62,2.47,91.45.83,30.28,2.83,108.24,2.91,116.54.08,7.56.38,16.55.6,24.11.23,8.13.47,16.26.41,24.39,0,3.14-.68,11.09-.61,11.5a1.25,1.25,0,0,0,0,.14l0,.12,0-.06c.14,1.53,1.29,12,7.1,9.74a8,8,0,0,0,.93-.43,6.46,6.46,0,0,0,2.87.55c29.3-.8,52.87,1.68,82.14-.69,5.89-.47,7.93-7,4.24-11.19-3.19-3.65-8.82-6.46-13.05-8.37-.53-9.1-2.21-54.44-2.74-67.88C473,804.12,472.53,776.56,472,749c-.51-27.74-1.08-55.36-1.91-83.11-.64-21.46-.49-100.13-1.32-111.47-.5-6.93-.5-25.42-.36-43.83,2.76,7.25,5.68,14.43,9.09,21.36,12,24.34,34.84,51.35,65.11,43,31.38-8.63,42.4-42.33,46.74-71,2.71-17.9,3.79-36,4.35-54.09S594.79,413.71,593.76,395.69Z" style="fill:#1e78f0"/><path d="M328.51,246.64a97.75,97.75,0,0,0,2.5,33.07,2.24,2.24,0,0,0,3.33,1.26l6.27-3c8.91,15.67,21.43,28,33.62,17.38a6.73,6.73,0,0,0,2.23-1.44c9.36-8.93,10.09-22.1,7.38-34.17,7.75-3.21,16.14-8.57,15.73-17.12-.62-13.43-17.25-10.93-26.86-9.27-4.9-7.75-11.32-14.54-19.67-17.18-19.14-6.06-27.09,14.75-24.59,30.16Z" style="fill:#1e78f0"/></g><path id="object" d="M531.35,350.73c-6.12-7.92-12.59-15.61-17.06-24.63-2.31-4.66,2.83-9.68,7.15-6l16.33,13.75,1.35-2.21c-1.75-3-3.68-6-5.66-8.81-3-4.33-6.21-8.55-9.35-12.8-3.29-4.45-7.36-8.86-4.76-14.64a4.76,4.76,0,0,1,6.38-2c8,4.77,13.6,12,19,19.46,1.1,1.53,2.2,3.06,3.32,4.57a4,4,0,0,0,.84-1.9,6.74,6.74,0,0,1,.4-3c-.38-.6-.74-1.18-1.09-1.76q-7.53-12.58-15.07-25.17c-2.88-4.82,3-9.15,7.16-6A107.5,107.5,0,0,1,561,299.9a154.81,154.81,0,0,0,6.16-26.34,134.23,134.23,0,0,0-3.9-54.66c-4.65-16.36-12.2-32.38-25.08-44.14-12.24-11.17-38.5-22.59-46.12-25.77s-30.28,9-41.1,20.18c-11.9,12.36-19.57,27.29-24.14,43.45a180.07,180.07,0,0,0-5.31,24c-1,7.31-1.63,29.76,3.53,33.61s17.26,9,29,17.18c25.94,18.14,30.23,52.75,23.93,81-2.23,10-38.24,78.42-54.05,102.15-5.61,8.43-11.54,17.44-20.17,23.28a27.43,27.43,0,0,1-14,5c-6.42.31-12.68-1.65-18.59-3.89a132.68,132.68,0,0,1-32.72-18.21c-2.83-2.15-5.23-1.57-8.5-.73a61.39,61.39,0,0,0-7.48,2.51A63.87,63.87,0,0,0,309,486.17c-18.23,13.16-30.08,33.85-37.77,54.2a156,156,0,0,0-10,51.65,48.24,48.24,0,0,0,0,6.13c.08,4.63-.67,10.23,1.91,15.35,1.67,3.33,10.72,9.81,19.69,14.91-1.72-3.44-3.35-6.82-4.48-9.2-1.57-3.33-3.05-7.13-1.48-10.76a5.85,5.85,0,0,1,7.79-3.1c2.9,1.34,4.55,4.83,6.44,7.25a81,81,0,0,0,7.22,8,86.84,86.84,0,0,0,13.25,10.65,14.07,14.07,0,0,0,2.86-1.75c11.87-7.87,18.38-21.06,28.07-31.12a6.09,6.09,0,0,1,5.14-2,5.25,5.25,0,0,1,4.92,6.63c-1.53,6.05-6.65,11.49-10,16.67q-2.83,4.38-5.53,8.84c1.61-.1,3.23-.19,4.84-.25,2.33-2.83,4.65-5.68,6.83-8.71L361,602.45c2.48-3.46,10-1.41,9.38,3.6-1.07,8.57-8.36,19.1-12.55,26.43,1.23.1,3.9.35,4,.37.41-.51,5.49-7.29,6-8.25a66.33,66.33,0,0,1,7.11-10.37c2.95-3.57,8.51-2.29,8.7,2.68a17.54,17.54,0,0,1-2,7.63A91.24,91.24,0,0,0,399,610.33c10-10.54,17.76-22.83,25.25-35.12q12-19.69,22.91-40,12-22.28,22.66-45.19c14.05-23,26.67-46.9,38.52-71.07q14.28-29.16,27.6-58.82A86.19,86.19,0,0,0,531.35,350.73Z" style="fill:#f0b441"/><g id="object-lines"><path d="M353.33,496.65c-28.93,20-41.44,55.2-52.28,88.07-2.7,8.17-5.4,16.38-7.29,24.74" style="fill:none;stroke:#dc8c2d;stroke-linecap:round;stroke-linejoin:round;stroke-width:6px"/><path d="M512.1,165.11c-33.57,27.9-55.82,68.34-61.05,111" style="fill:none;stroke:#dc8c2d;stroke-linecap:round;stroke-linejoin:round;stroke-width:6px"/></g><g id="body-lines"><path d="M283.26,411.68c-6.53,24-11.58,70.67-11.59,82.65,0,6.23,1.4,19.78,3.34,30.4" style="fill:none;stroke:#3741f0;stroke-linecap:round;stroke-linejoin:round;stroke-width:6px"/><line x1="530.9" y1="917.92" x2="163.65" y2="917.92" style="fill:none;stroke:#3741f0;stroke-linecap:round;stroke-linejoin:round;stroke-width:6px"/><path d="M229.35,614c6.63,15.82,42.86,49.74,70.83,49.74" style="fill:none;stroke:#3741f0;stroke-linecap:round;stroke-linejoin:round;stroke-width:6px"/></g></g></g></svg>