<svg width="540" height="486" viewBox="0 0 540 486" fill="none" xmlns="http://www.w3.org/2000/svg">
<g clip-path="url(#clip0)">
<path d="M461.289 413.952C356.013 474.733 183.977 474.728 78.7108 413.952C-26.2994 353.325 -25.9202 254.457 79.5572 193.559C86.5689 189.511 97.9379 189.511 104.95 193.559L270 288.851L435.05 193.559C442.062 189.511 453.431 189.511 460.443 193.559C565.92 254.457 566.299 353.325 461.289 413.952Z" fill="#E7F6FF"/>
<g filter="url(#filter0_d)">
<rect width="540" height="40" rx="20" transform="matrix(0.866025 -0.5 0.866025 0.5 0 442)" fill="white"/>
</g>
<rect width="46" height="24" rx="12" transform="matrix(0.866025 -0.5 0.866025 0.5 427.817 203)" fill="#E7F6FF"/>
<path d="M441.732 202.096L447.382 198.834L448.121 199.261L451.928 206.079L450.849 206.702L447.127 199.947L442.568 202.579L441.732 202.096Z" fill="#147EFB"/>
<path d="M455.379 197.899C455.921 197.586 456.503 197.381 457.125 197.283C457.756 197.18 458.386 197.185 459.016 197.297C459.639 197.404 460.217 197.612 460.75 197.92C461.292 198.232 461.647 198.578 461.817 198.956C461.995 199.329 461.983 199.709 461.781 200.097C461.571 200.479 461.175 200.839 460.593 201.175C460.075 201.473 459.469 201.716 458.774 201.903C458.079 202.08 457.396 202.176 456.725 202.19L456.337 201.532C457.784 201.452 458.923 201.172 459.756 200.692C460.354 200.346 460.653 199.978 460.653 199.586C460.653 199.194 460.362 198.83 459.78 198.494C459.214 198.167 458.588 198.001 457.901 197.997C457.222 197.987 456.604 198.144 456.046 198.466C455.23 198.937 454.91 199.504 455.088 200.167L454.397 200.566L449.39 197.675L454.518 194.714L455.343 195.19L451.196 197.584L454.239 199.341C454.248 199.084 454.349 198.834 454.543 198.592C454.737 198.34 455.015 198.109 455.379 197.899Z" fill="#147EFB"/>
<path d="M467.778 197.278L466.65 197.453L462.964 189.487L464.092 189.312L467.778 197.278ZM463.316 195.556C462.669 195.93 461.946 196.095 461.146 196.053C460.337 196.007 459.501 195.734 458.636 195.234C457.779 194.74 457.314 194.261 457.242 193.799C457.161 193.333 457.444 192.913 458.09 192.539C458.737 192.166 459.464 192.003 460.273 192.049C461.073 192.091 461.901 192.36 462.758 192.854C463.623 193.354 464.096 193.837 464.177 194.303C464.249 194.765 463.962 195.183 463.316 195.556ZM462.613 195.15C463.009 194.922 463.146 194.665 463.025 194.38C462.912 194.091 462.524 193.755 461.861 193.372C461.206 192.994 460.628 192.773 460.127 192.707C459.634 192.637 459.19 192.717 458.793 192.945C458.397 193.174 458.256 193.433 458.369 193.722C458.482 194.012 458.866 194.345 459.521 194.723C460.184 195.106 460.766 195.33 461.267 195.395C461.768 195.461 462.217 195.379 462.613 195.15ZM472.639 194.219C471.993 194.593 471.269 194.758 470.469 194.716C469.661 194.67 468.824 194.397 467.959 193.897C467.103 193.403 466.638 192.924 466.565 192.462C466.484 191.996 466.767 191.576 467.414 191.202C468.069 190.824 468.792 190.659 469.584 190.705C470.384 190.747 471.217 191.018 472.082 191.517C472.947 192.017 473.419 192.5 473.5 192.966C473.581 193.424 473.294 193.841 472.639 194.219ZM471.936 193.813C472.34 193.58 472.486 193.323 472.373 193.043C472.26 192.754 471.868 192.416 471.197 192.028C470.542 191.65 469.964 191.429 469.463 191.363C468.962 191.298 468.513 191.38 468.117 191.608C467.721 191.837 467.58 192.096 467.693 192.385C467.814 192.67 468.202 193.001 468.857 193.379C469.519 193.762 470.097 193.988 470.59 194.058C471.092 194.124 471.54 194.042 471.936 193.813Z" fill="#147EFB"/>
<path d="M57.5318 426.018L64.609 430.104C65.7417 430.758 66.3029 431.418 66.2925 432.084C66.2925 432.756 65.7209 433.422 64.5778 434.082C63.2476 434.85 61.7874 435.297 60.1974 435.423L59.683 434.64C60.5248 434.538 61.2419 434.4 61.8342 434.226C62.4266 434.052 62.9982 433.806 63.5489 433.488C64.2764 433.068 64.6297 432.636 64.609 432.192C64.5986 431.754 64.2192 431.319 63.471 430.887L62.1304 430.113C62.4006 430.521 62.437 430.932 62.2395 431.346C62.0525 431.754 61.6523 432.135 61.0392 432.489C60.3741 432.873 59.6259 433.125 58.7945 433.245C57.9735 433.359 57.1317 433.335 56.2691 433.173C55.417 433.005 54.6168 432.705 53.8685 432.273C53.1203 431.841 52.6007 431.379 52.3097 430.887C52.0291 430.389 51.9875 429.903 52.185 429.429C52.3928 428.949 52.8293 428.517 53.4944 428.133C54.0971 427.785 54.7519 427.557 55.4585 427.449C56.1652 427.341 56.8719 427.359 57.5786 427.503L56.2691 426.747L57.5318 426.018ZM60.2442 431.742C60.9717 431.322 61.3042 430.854 61.2419 430.338C61.1691 429.816 60.7067 429.309 59.8545 428.817C59.0127 428.331 58.1449 428.07 57.2512 428.034C56.3575 427.986 55.5417 428.175 54.8038 428.601C54.066 429.027 53.7282 429.504 53.7906 430.032C53.8529 430.548 54.305 431.049 55.1468 431.535C55.9989 432.027 56.8771 432.294 57.7812 432.336C58.6853 432.366 59.5063 432.168 60.2442 431.742Z" fill="#121212"/>
<path d="M70.7187 427.297C70.0016 427.711 69.2066 427.984 68.3336 428.116C67.4711 428.242 66.5929 428.221 65.6992 428.053C64.8054 427.873 63.9637 427.555 63.1738 427.099C62.384 426.643 61.8384 426.16 61.5371 425.65C61.2357 425.128 61.1941 424.618 61.4124 424.12C61.641 423.616 62.1138 423.157 62.8309 422.743C63.548 422.329 64.343 422.056 65.2159 421.924C66.0889 421.792 66.9722 421.816 67.866 421.996C68.7597 422.164 69.6015 422.476 70.3913 422.932C71.1811 423.388 71.7267 423.877 72.0281 424.399C72.3295 424.909 72.3658 425.416 72.1372 425.92C71.9086 426.424 71.4357 426.883 70.7187 427.297ZM69.6742 426.694C70.4225 426.262 70.7498 425.791 70.6563 425.281C70.5628 424.759 70.0432 424.225 69.0975 423.679C68.1725 423.145 67.258 422.851 66.3539 422.797C65.4394 422.737 64.6132 422.92 63.8753 423.346C63.1375 423.772 62.8205 424.249 62.9244 424.777C63.018 425.299 63.5272 425.827 64.4521 426.361C65.3874 426.901 66.3019 427.201 67.1957 427.261C68.0998 427.315 68.926 427.126 69.6742 426.694Z" fill="#121212"/>
<path d="M79.3654 422.304C78.6483 422.718 77.8533 422.991 76.9804 423.123C76.1178 423.249 75.2396 423.228 74.3459 423.06C73.4522 422.88 72.6104 422.562 71.8206 422.106C71.0308 421.65 70.4852 421.167 70.1838 420.657C69.8824 420.135 69.8408 419.625 70.0591 419.127C70.2877 418.623 70.7606 418.164 71.4776 417.75C72.1947 417.336 72.9897 417.063 73.8627 416.931C74.7356 416.799 75.619 416.823 76.5127 417.003C77.4064 417.171 78.2482 417.483 79.038 417.939C79.8278 418.395 80.3734 418.884 80.6748 419.406C80.9762 419.916 81.0126 420.423 80.7839 420.927C80.5553 421.431 80.0825 421.89 79.3654 422.304ZM78.321 421.701C79.0692 421.269 79.3966 420.798 79.303 420.288C79.2095 419.766 78.6899 419.232 77.7442 418.686C76.8193 418.152 75.9047 417.858 75.0006 417.804C74.0861 417.744 73.2599 417.927 72.5221 418.353C71.7842 418.779 71.4672 419.256 71.5712 419.784C71.6647 420.306 72.1739 420.834 73.0988 421.368C74.0341 421.908 74.9487 422.208 75.8424 422.268C76.7465 422.322 77.5727 422.133 78.321 421.701Z" fill="#121212"/>
<path d="M83.9591 410.76L91.0363 414.846C92.169 415.5 92.7302 416.16 92.7198 416.826C92.7198 417.498 92.1482 418.164 91.0051 418.824C89.6749 419.592 88.2148 420.039 86.6247 420.165L86.1103 419.382C86.9521 419.28 87.6692 419.142 88.2615 418.968C88.8539 418.794 89.4255 418.548 89.9763 418.23C90.7037 417.81 91.0571 417.378 91.0363 416.934C91.0259 416.496 90.6466 416.061 89.8983 415.629L88.5577 414.855C88.8279 415.263 88.8643 415.674 88.6668 416.088C88.4798 416.496 88.0797 416.877 87.4665 417.231C86.8014 417.615 86.0532 417.867 85.2218 417.987C84.4008 418.101 83.559 418.077 82.6964 417.915C81.8443 417.747 81.0441 417.447 80.2958 417.015C79.5476 416.583 79.028 416.121 78.737 415.629C78.4564 415.131 78.4148 414.645 78.6123 414.171C78.8201 413.691 79.2566 413.259 79.9217 412.875C80.5245 412.527 81.1792 412.299 81.8858 412.191C82.5925 412.083 83.2992 412.101 84.0059 412.245L82.6964 411.489L83.9591 410.76ZM86.6715 416.484C87.399 416.064 87.7315 415.596 87.6692 415.08C87.5964 414.558 87.134 414.051 86.2818 413.559C85.44 413.073 84.5723 412.812 83.6785 412.776C82.7848 412.728 81.969 412.917 81.2311 413.343C80.4933 413.769 80.1555 414.246 80.2179 414.774C80.2802 415.29 80.7323 415.791 81.5741 416.277C82.4262 416.769 83.3044 417.036 84.2085 417.078C85.1127 417.108 85.9336 416.91 86.6715 416.484Z" fill="#121212"/>
<path d="M93.888 413.794L82.8981 407.449L84.1608 406.72L95.1506 413.065L93.888 413.794Z" fill="#121212"/>
<path d="M100.27 405.951L94.7207 409.155C95.6457 409.641 96.555 409.89 97.4487 409.902C98.3321 409.908 99.1739 409.68 99.9741 409.218C100.857 408.708 101.367 408.066 101.502 407.292L102.842 407.58C102.822 407.952 102.645 408.342 102.312 408.75C101.969 409.152 101.528 409.509 100.987 409.821C99.8026 410.505 98.5191 410.844 97.137 410.838C95.7652 410.826 94.4661 410.466 93.2398 409.758C92.4604 409.308 91.9252 408.825 91.6342 408.309C91.3329 407.787 91.2861 407.274 91.4939 406.77C91.7122 406.26 92.1694 405.804 92.8657 405.402C93.8738 404.82 94.9961 404.556 96.2328 404.61C97.4591 404.658 98.649 405.015 99.8026 405.681L100.27 405.951ZM93.8634 405.96C93.1983 406.344 92.8709 406.773 92.8813 407.247C92.9021 407.715 93.2554 408.189 93.9413 408.669L98.3529 406.122C97.563 405.69 96.7836 405.462 96.0146 405.438C95.2352 405.408 94.5181 405.582 93.8634 405.96Z" fill="#121212"/>
<path d="M103.954 406.146L105.544 405.228L107.135 406.146L105.544 407.064L103.954 406.146Z" fill="#121212"/>
<path d="M112.355 403.258C111.607 403.69 110.796 403.972 109.924 404.104C109.051 404.236 108.172 404.221 107.289 404.059C106.406 403.885 105.569 403.57 104.779 403.114C103.99 402.658 103.449 402.172 103.158 401.656C102.867 401.128 102.831 400.609 103.049 400.099C103.278 399.583 103.766 399.109 104.514 398.677C105.024 398.383 105.616 398.149 106.291 397.975C106.957 397.795 107.59 397.705 108.193 397.705L108.708 398.488C107.409 398.566 106.39 398.818 105.652 399.244C104.873 399.694 104.52 400.192 104.592 400.738C104.665 401.284 105.164 401.824 106.089 402.358C107.003 402.886 107.928 403.168 108.863 403.204C109.799 403.24 110.656 403.033 111.436 402.583C112.173 402.157 112.61 401.569 112.745 400.819L114.101 401.116C114.08 401.476 113.914 401.848 113.602 402.232C113.291 402.616 112.875 402.958 112.355 403.258Z" fill="#121212"/>
<path d="M119.752 398.987C119.035 399.401 118.24 399.674 117.367 399.806C116.505 399.932 115.627 399.911 114.733 399.743C113.839 399.563 112.997 399.245 112.207 398.789C111.418 398.333 110.872 397.85 110.571 397.34C110.269 396.818 110.228 396.308 110.446 395.81C110.675 395.306 111.147 394.847 111.865 394.433C112.582 394.019 113.377 393.746 114.25 393.614C115.123 393.482 116.006 393.506 116.9 393.686C117.793 393.854 118.635 394.166 119.425 394.622C120.215 395.078 120.76 395.567 121.062 396.089C121.363 396.599 121.399 397.106 121.171 397.61C120.942 398.114 120.469 398.573 119.752 398.987ZM118.708 398.384C119.456 397.952 119.783 397.481 119.69 396.971C119.596 396.449 119.077 395.915 118.131 395.369C117.206 394.835 116.292 394.541 115.388 394.487C114.473 394.427 113.647 394.61 112.909 395.036C112.171 395.462 111.854 395.939 111.958 396.467C112.052 396.989 112.561 397.517 113.486 398.051C114.421 398.591 115.336 398.891 116.229 398.951C117.133 399.005 117.96 398.816 118.708 398.384Z" fill="#121212"/>
<path d="M125.811 386.381C127.495 385.409 129.34 385.502 131.345 386.66L136.115 389.414L134.853 390.143L130.145 387.425C129.449 387.023 128.815 386.801 128.243 386.759C127.682 386.711 127.131 386.843 126.591 387.155C125.957 387.521 125.671 387.932 125.733 388.388C125.796 388.844 126.196 389.285 126.934 389.711L131.267 392.213L130.005 392.942L125.297 390.224C124.59 389.816 123.956 389.594 123.395 389.558C122.824 389.516 122.268 389.651 121.727 389.963C121.093 390.329 120.807 390.74 120.87 391.196C120.932 391.652 121.332 392.093 122.07 392.519L126.404 395.021L125.141 395.75L117.549 391.367L118.797 390.647L119.997 391.34C119.779 390.95 119.753 390.569 119.919 390.197C120.085 389.825 120.433 389.486 120.963 389.18C122.138 388.502 123.411 388.343 124.782 388.703C124.533 388.307 124.502 387.905 124.689 387.497C124.866 387.083 125.24 386.711 125.811 386.381Z" fill="#121212"/>
<path d="M408.398 230.339L410.019 231.275L402.63 235.541L401.149 234.686L400.869 230.204C400.827 229.676 400.708 229.241 400.51 228.899C400.313 228.545 400.017 228.254 399.622 228.026C399.123 227.738 398.603 227.606 398.063 227.63C397.523 227.642 396.977 227.807 396.426 228.125C395.439 228.695 394.826 229.487 394.587 230.501L392.451 230.042C392.503 229.568 392.753 229.07 393.199 228.548C393.646 228.014 394.213 227.549 394.899 227.153C396 226.517 397.143 226.169 398.328 226.109C399.513 226.049 400.562 226.283 401.477 226.811C402.111 227.177 402.573 227.6 402.864 228.08C403.145 228.554 403.306 229.175 403.347 229.943L403.519 233.156L408.398 230.339Z" fill="#121212"/>
<path d="M409.171 223.629C409.815 223.257 410.543 223.011 411.353 222.891C412.154 222.765 412.964 222.777 413.785 222.927C414.606 223.065 415.36 223.332 416.046 223.728C416.752 224.136 417.23 224.592 417.48 225.096C417.719 225.594 417.714 226.095 417.464 226.599C417.215 227.103 416.737 227.559 416.03 227.967C414.637 228.771 413.094 229.122 411.4 229.02C409.706 228.906 407.986 228.345 406.24 227.337C405.035 226.641 404.172 225.939 403.653 225.231C403.133 224.511 402.982 223.824 403.201 223.17C403.409 222.51 403.975 221.913 404.9 221.379C405.555 221.001 406.308 220.698 407.16 220.47C408.002 220.236 408.854 220.104 409.717 220.074L410.512 221.307C408.787 221.427 407.477 221.745 406.583 222.261C405.783 222.723 405.503 223.281 405.742 223.935C405.97 224.583 406.719 225.285 407.986 226.041C407.758 225.633 407.753 225.216 407.971 224.79C408.179 224.358 408.579 223.971 409.171 223.629ZM414.346 227.103C414.918 226.773 415.188 226.407 415.157 226.005C415.136 225.597 414.819 225.216 414.206 224.862C413.603 224.514 412.949 224.334 412.242 224.322C411.535 224.31 410.896 224.469 410.325 224.799C409.753 225.129 409.472 225.507 409.483 225.933C409.493 226.347 409.795 226.725 410.387 227.067C410.99 227.415 411.655 227.595 412.382 227.607C413.11 227.607 413.764 227.439 414.346 227.103Z" fill="#121212"/>
<path d="M421.34 218.223C422.161 217.953 422.976 217.854 423.787 217.926C424.608 217.992 425.356 218.22 426.032 218.61C426.998 219.168 427.393 219.816 427.216 220.554C427.029 221.286 426.292 222.024 425.003 222.768C423.714 223.512 422.436 223.938 421.168 224.046C419.89 224.148 418.767 223.92 417.801 223.362C417.126 222.972 416.731 222.54 416.616 222.066C416.492 221.586 416.668 221.112 417.146 220.644C416.388 220.842 415.634 220.905 414.886 220.833C414.127 220.755 413.452 220.545 412.859 220.203C411.945 219.675 411.566 219.06 411.722 218.358C411.877 217.656 412.553 216.96 413.748 216.27C414.943 215.58 416.149 215.19 417.365 215.1C418.58 215.01 419.646 215.229 420.56 215.757C421.163 216.105 421.532 216.498 421.667 216.936C421.802 217.374 421.693 217.803 421.34 218.223ZM415.322 217.179C414.023 217.929 413.904 218.61 414.964 219.222C415.494 219.528 416.06 219.669 416.663 219.645C417.266 219.609 417.889 219.405 418.534 219.033C419.178 218.661 419.526 218.304 419.578 217.962C419.63 217.608 419.391 217.278 418.861 216.972C417.801 216.36 416.621 216.429 415.322 217.179ZM423.428 221.859C424.915 221.001 425.102 220.251 423.99 219.609C422.878 218.967 421.579 219.075 420.093 219.933C418.606 220.791 418.419 221.541 419.531 222.183C420.643 222.825 421.942 222.717 423.428 221.859Z" fill="#121212"/>
<g clip-path="url(#clip1)">
<path d="M32.2286 445.062L33.545 446.382L31.8199 447.421C30.2934 447.155 28.9019 446.679 27.7658 446.034C26.6296 445.388 25.783 444.592 25.299 443.715L27.1558 442.975L29.4033 443.479C29.9986 444.18 30.996 444.74 32.2258 445.064L32.2286 445.062Z" fill="#FBBB00"/>
<path d="M40.1538 437.323C41.6239 437.9 42.7939 438.698 43.5386 439.631C44.2832 440.563 44.5743 441.595 44.3807 442.615L42.3029 443.698L40.2792 442.85C40.6169 442.102 40.4997 441.31 39.9473 440.607L36.2428 442.746L33.502 441.163L40.1566 437.321L40.1538 437.323Z" fill="#518EF8"/>
<path d="M44.3807 442.615C44.2247 443.44 43.756 444.236 43.0079 444.945C42.2598 445.654 41.2506 446.259 40.0519 446.717C38.8533 447.176 37.4945 447.476 36.072 447.598C34.6496 447.719 33.1983 447.658 31.8212 447.419L32.2286 445.062C33.0013 445.264 33.8414 445.367 34.6901 445.363C35.5388 445.359 36.3757 445.247 37.1421 445.037C37.9086 444.826 38.5861 444.522 39.1274 444.144C39.6687 443.767 40.0606 443.326 40.2757 442.852L44.3807 442.615Z" fill="#28B446"/>
<path d="M33.7286 436.367L33.3212 438.724C32.468 438.838 31.6705 439.062 30.988 439.379C30.3056 439.696 29.7557 440.098 29.3794 440.555C29.003 441.012 28.8098 441.511 28.8142 442.017C28.8186 442.523 29.0204 443.022 29.4047 443.476L25.3011 443.712C24.8578 442.907 24.7327 442.054 24.935 441.217C25.1374 440.38 25.662 439.58 26.4704 438.875C27.2788 438.171 28.3504 437.58 29.6064 437.146C30.8625 436.711 32.271 436.445 33.7286 436.367Z" fill="#F14336"/>
</g>
<g filter="url(#filter1_d)">
<rect width="540" height="40" rx="20" transform="matrix(0.866025 -0.5 0.866025 0.5 41.5692 466)" fill="white"/>
</g>
<rect width="46" height="24" rx="12" transform="matrix(0.866025 -0.5 0.866025 0.5 469.386 227)" fill="#E7F6FF"/>
<path d="M496.735 227.244L497.571 227.727L492.067 230.905L491.315 230.471L491.012 226.838C490.964 226.343 490.851 225.942 490.673 225.634C490.495 225.317 490.224 225.053 489.86 224.843C489.392 224.572 488.894 224.444 488.369 224.458C487.844 224.472 487.33 224.624 486.829 224.913C486.005 225.389 485.524 226.045 485.386 226.88L484.247 226.656C484.263 226.273 484.433 225.881 484.756 225.48C485.079 225.069 485.5 224.715 486.017 224.416C486.801 223.963 487.621 223.723 488.478 223.695C489.343 223.662 490.119 223.844 490.806 224.241C491.299 224.526 491.659 224.864 491.885 225.256C492.12 225.643 492.261 226.145 492.31 226.761L492.516 229.68L496.735 227.244Z" fill="#147EFB"/>
<path d="M496.948 221.899C497.49 221.586 498.072 221.381 498.694 221.283C499.325 221.18 499.955 221.185 500.586 221.297C501.208 221.404 501.786 221.612 502.319 221.92C502.861 222.232 503.217 222.578 503.386 222.956C503.564 223.329 503.552 223.709 503.35 224.097C503.14 224.479 502.744 224.839 502.162 225.175C501.645 225.473 501.038 225.716 500.343 225.903C499.648 226.08 498.965 226.176 498.294 226.19L497.906 225.532C499.353 225.452 500.493 225.172 501.325 224.692C501.923 224.346 502.222 223.978 502.222 223.586C502.222 223.194 501.932 222.83 501.35 222.494C500.784 222.167 500.157 222.001 499.47 221.997C498.791 221.987 498.173 222.144 497.615 222.466C496.799 222.937 496.48 223.504 496.657 224.167L495.966 224.566L490.959 221.675L496.088 218.714L496.912 219.19L492.765 221.584L495.809 223.341C495.817 223.084 495.918 222.834 496.112 222.592C496.306 222.34 496.585 222.109 496.948 221.899Z" fill="#147EFB"/>
<path d="M509.347 221.278L508.219 221.453L504.534 213.487L505.661 213.312L509.347 221.278ZM504.885 219.556C504.238 219.93 503.515 220.095 502.715 220.053C501.907 220.007 501.07 219.734 500.205 219.234C499.348 218.74 498.884 218.261 498.811 217.799C498.73 217.333 499.013 216.913 499.66 216.539C500.306 216.166 501.034 216.003 501.842 216.049C502.642 216.091 503.471 216.36 504.327 216.854C505.192 217.354 505.665 217.837 505.746 218.303C505.819 218.765 505.532 219.183 504.885 219.556ZM504.182 219.15C504.578 218.922 504.715 218.665 504.594 218.38C504.481 218.091 504.093 217.755 503.43 217.372C502.775 216.994 502.198 216.773 501.696 216.707C501.203 216.637 500.759 216.717 500.363 216.945C499.967 217.174 499.825 217.433 499.938 217.722C500.052 218.012 500.435 218.345 501.09 218.723C501.753 219.106 502.335 219.33 502.836 219.395C503.337 219.461 503.786 219.379 504.182 219.15ZM514.209 218.219C513.562 218.593 512.839 218.758 512.038 218.716C511.23 218.67 510.394 218.397 509.529 217.897C508.672 217.403 508.207 216.924 508.134 216.462C508.054 215.996 508.337 215.576 508.983 215.202C509.638 214.824 510.361 214.659 511.153 214.705C511.954 214.747 512.786 215.018 513.651 215.517C514.516 216.017 514.989 216.5 515.07 216.966C515.15 217.424 514.863 217.841 514.209 218.219ZM513.506 217.813C513.91 217.58 514.055 217.323 513.942 217.043C513.829 216.754 513.437 216.416 512.766 216.028C512.111 215.65 511.533 215.429 511.032 215.363C510.531 215.298 510.082 215.38 509.686 215.608C509.29 215.837 509.149 216.096 509.262 216.385C509.383 216.67 509.771 217.001 510.426 217.379C511.089 217.762 511.667 217.988 512.16 218.058C512.661 218.124 513.109 218.042 513.506 217.813Z" fill="#147EFB"/>
<path d="M97.7604 450.81L99.0231 450.081L104.916 458.667L103.622 459.414L102 457.002L91.3068 454.536L92.6474 453.762L101.393 455.877L97.7604 450.81Z" fill="#121212"/>
<path d="M103.074 447.508C104.041 446.95 105.007 446.68 105.974 446.698C106.94 446.704 107.927 446.998 108.936 447.58L113.721 450.343L112.49 451.054L111.196 450.307C111.445 450.679 111.492 451.054 111.336 451.432C111.17 451.804 110.822 452.143 110.292 452.449C109.803 452.731 109.252 452.935 108.639 453.061C108.037 453.181 107.439 453.208 106.847 453.142C106.254 453.076 105.745 452.92 105.319 452.674C104.747 452.344 104.451 452.005 104.43 451.657C104.399 451.303 104.649 450.895 105.179 450.433C105.698 449.965 106.55 449.389 107.735 448.705L108.078 448.507L107.564 448.21C106.93 447.844 106.343 447.655 105.802 447.643C105.251 447.625 104.685 447.784 104.103 448.12C103.23 448.624 102.633 449.281 102.31 450.091L100.97 449.803C101.084 449.413 101.334 449.011 101.718 448.597C102.103 448.171 102.555 447.808 103.074 447.508ZM109.466 451.774C110.089 451.414 110.39 451 110.37 450.532C110.349 450.052 110.006 449.62 109.341 449.236L108.889 448.975L108.608 449.137C107.694 449.665 107.039 450.091 106.644 450.415C106.239 450.733 106.026 451.006 106.005 451.234C105.984 451.45 106.15 451.66 106.504 451.864C106.909 452.098 107.392 452.209 107.953 452.197C108.515 452.173 109.019 452.032 109.466 451.774Z" fill="#121212"/>
<path d="M112.073 442.313C113.892 441.263 115.804 441.317 117.81 442.475L122.58 445.229L121.317 445.958L116.625 443.249C115.918 442.841 115.263 442.625 114.661 442.601C114.068 442.571 113.471 442.73 112.868 443.078C112.172 443.48 111.829 443.924 111.839 444.41C111.85 444.896 112.219 445.349 112.946 445.769L117.295 448.28L116.033 449.009L105.043 442.664L106.305 441.935L110.919 444.599C110.712 444.191 110.706 443.792 110.904 443.402C111.112 443.006 111.501 442.643 112.073 442.313Z" fill="#121212"/>
<path d="M128.15 442.138C127.433 442.552 126.638 442.825 125.765 442.957C124.903 443.083 124.025 443.062 123.131 442.894C122.237 442.714 121.395 442.396 120.606 441.94C119.816 441.484 119.27 441.001 118.969 440.491C118.667 439.969 118.626 439.459 118.844 438.961C119.073 438.457 119.546 437.998 120.263 437.584C120.98 437.17 121.775 436.897 122.648 436.765C123.521 436.633 124.404 436.657 125.298 436.837C126.191 437.005 127.033 437.317 127.823 437.773C128.613 438.229 129.158 438.718 129.46 439.24C129.761 439.75 129.798 440.257 129.569 440.761C129.34 441.265 128.867 441.724 128.15 442.138ZM127.106 441.535C127.854 441.103 128.182 440.632 128.088 440.122C127.994 439.6 127.475 439.066 126.529 438.52C125.604 437.986 124.69 437.692 123.786 437.638C122.871 437.578 122.045 437.761 121.307 438.187C120.569 438.613 120.252 439.09 120.356 439.618C120.45 440.14 120.959 440.668 121.884 441.202C122.819 441.742 123.734 442.042 124.627 442.102C125.531 442.156 126.358 441.967 127.106 441.535Z" fill="#121212"/>
<path d="M136.797 437.146C136.08 437.56 135.285 437.833 134.412 437.965C133.549 438.091 132.671 438.07 131.778 437.902C130.884 437.722 130.042 437.404 129.252 436.948C128.462 436.492 127.917 436.009 127.615 435.499C127.314 434.977 127.273 434.467 127.491 433.969C127.719 433.465 128.192 433.006 128.909 432.592C129.626 432.178 130.421 431.905 131.294 431.773C132.167 431.641 133.051 431.665 133.944 431.845C134.838 432.013 135.68 432.325 136.47 432.781C137.26 433.237 137.805 433.726 138.106 434.248C138.408 434.758 138.444 435.265 138.216 435.769C137.987 436.273 137.514 436.732 136.797 437.146ZM135.753 436.543C136.501 436.111 136.828 435.64 136.735 435.13C136.641 434.608 136.122 434.074 135.176 433.528C134.251 432.994 133.336 432.7 132.432 432.646C131.518 432.586 130.692 432.769 129.954 433.195C129.216 433.621 128.899 434.098 129.003 434.626C129.096 435.148 129.606 435.676 130.531 436.21C131.466 436.75 132.38 437.05 133.274 437.11C134.178 437.164 135.004 436.975 135.753 436.543Z" fill="#121212"/>
<path d="M140.15 433.248L141.74 432.33L143.33 433.248L141.74 434.166L140.15 433.248Z" fill="#121212"/>
<path d="M148.551 430.36C147.803 430.792 146.992 431.074 146.119 431.206C145.246 431.338 144.368 431.323 143.485 431.161C142.601 430.987 141.765 430.672 140.975 430.216C140.185 429.76 139.645 429.274 139.354 428.758C139.063 428.23 139.026 427.711 139.244 427.201C139.473 426.685 139.962 426.211 140.71 425.779C141.219 425.485 141.811 425.251 142.487 425.077C143.152 424.897 143.786 424.807 144.389 424.807L144.903 425.59C143.604 425.668 142.586 425.92 141.848 426.346C141.068 426.796 140.715 427.294 140.788 427.84C140.86 428.386 141.359 428.926 142.284 429.46C143.199 429.988 144.124 430.27 145.059 430.306C145.994 430.342 146.852 430.135 147.631 429.685C148.369 429.259 148.805 428.671 148.94 427.921L150.297 428.218C150.276 428.578 150.11 428.95 149.798 429.334C149.486 429.718 149.07 430.06 148.551 430.36Z" fill="#121212"/>
<path d="M155.948 426.09C155.231 426.504 154.436 426.777 153.563 426.909C152.7 427.035 151.822 427.014 150.928 426.846C150.035 426.666 149.193 426.348 148.403 425.892C147.613 425.436 147.068 424.953 146.766 424.443C146.465 423.921 146.423 423.411 146.641 422.913C146.87 422.409 147.343 421.95 148.06 421.536C148.777 421.122 149.572 420.849 150.445 420.717C151.318 420.585 152.201 420.609 153.095 420.789C153.989 420.957 154.831 421.269 155.62 421.725C156.41 422.181 156.956 422.67 157.257 423.192C157.559 423.702 157.595 424.209 157.366 424.713C157.138 425.217 156.665 425.676 155.948 426.09ZM154.903 425.487C155.652 425.055 155.979 424.584 155.885 424.074C155.792 423.552 155.272 423.018 154.327 422.472C153.402 421.938 152.487 421.644 151.583 421.59C150.668 421.53 149.842 421.713 149.104 422.139C148.367 422.565 148.05 423.042 148.154 423.57C148.247 424.092 148.756 424.62 149.681 425.154C150.616 425.694 151.531 425.994 152.425 426.054C153.329 426.108 154.155 425.919 154.903 425.487Z" fill="#121212"/>
<path d="M162.007 413.483C163.69 412.511 165.535 412.604 167.541 413.762L172.311 416.516L171.048 417.245L166.34 414.527C165.644 414.125 165.01 413.903 164.439 413.861C163.877 413.813 163.327 413.945 162.786 414.257C162.152 414.623 161.866 415.034 161.929 415.49C161.991 415.946 162.391 416.387 163.129 416.813L167.463 419.315L166.2 420.044L161.492 417.326C160.786 416.918 160.152 416.696 159.591 416.66C159.019 416.618 158.463 416.753 157.923 417.065C157.289 417.431 157.003 417.842 157.065 418.298C157.128 418.754 157.528 419.195 158.266 419.621L162.599 422.123L161.336 422.852L153.745 418.469L154.992 417.749L156.192 418.442C155.974 418.052 155.948 417.671 156.114 417.299C156.281 416.927 156.629 416.588 157.159 416.282C158.333 415.604 159.606 415.445 160.978 415.805C160.729 415.409 160.697 415.007 160.884 414.599C161.061 414.185 161.435 413.813 162.007 413.483Z" fill="#121212"/>
<path d="M445.612 245.874C447.004 245.07 448.548 244.725 450.242 244.839C451.935 244.941 453.655 245.496 455.401 246.504C456.607 247.2 457.469 247.908 457.989 248.628C458.509 249.336 458.664 250.02 458.457 250.68C458.238 251.334 457.667 251.928 456.742 252.462C456.087 252.84 455.339 253.146 454.497 253.38C453.645 253.608 452.788 253.737 451.925 253.767L451.13 252.534C452.855 252.414 454.165 252.096 455.058 251.58C455.879 251.106 456.165 250.545 455.916 249.897C455.677 249.243 454.918 248.535 453.64 247.773C453.868 248.181 453.884 248.604 453.687 249.042C453.479 249.474 453.079 249.861 452.486 250.203C451.832 250.581 451.104 250.833 450.304 250.959C449.493 251.079 448.677 251.07 447.856 250.932C447.035 250.782 446.282 250.509 445.596 250.113C444.889 249.705 444.417 249.252 444.178 248.754C443.939 248.244 443.939 247.74 444.178 247.242C444.427 246.738 444.905 246.282 445.612 245.874ZM451.317 249.042C451.899 248.706 452.185 248.331 452.174 247.917C452.164 247.491 451.863 247.107 451.27 246.765C450.668 246.417 450.002 246.243 449.275 246.243C448.548 246.231 447.893 246.393 447.311 246.729C446.739 247.059 446.469 247.431 446.5 247.845C446.521 248.253 446.833 248.631 447.436 248.979C448.038 249.327 448.693 249.507 449.4 249.519C450.106 249.531 450.746 249.372 451.317 249.042Z" fill="#121212"/>
<path d="M466.588 246.777C465.289 247.527 463.818 247.824 462.176 247.668C460.524 247.506 458.778 246.894 456.938 245.832C455.12 244.782 454.075 243.783 453.805 242.835C453.535 241.887 454.049 241.038 455.348 240.288C456.647 239.538 458.118 239.241 459.76 239.397C461.402 239.553 463.132 240.156 464.951 241.206C466.78 242.262 467.835 243.267 468.115 244.221C468.396 245.175 467.887 246.027 466.588 246.777ZM465.013 245.868C465.72 245.46 465.912 244.977 465.59 244.419C465.257 243.855 464.385 243.165 462.971 242.349C461.568 241.539 460.389 241.044 459.433 240.864C458.466 240.678 457.63 240.789 456.923 241.197C456.216 241.605 456.024 242.088 456.346 242.646C456.658 243.198 457.515 243.879 458.918 244.689C460.332 245.505 461.527 246.009 462.504 246.201C463.47 246.387 464.307 246.276 465.013 245.868Z" fill="#121212"/>
<g clip-path="url(#clip2)">
<rect width="16" height="16" transform="matrix(0.866025 -0.5 0.866025 0.5 62.3538 466)" fill="#6001D2"/>
<g clip-path="url(#clip3)">
<path d="M69.6531 467.214L71.5113 466.141L75.3542 467.111L73.6893 464.884L75.4986 463.839L79.3103 469.186L77.4896 470.237L76.5034 468.807L69.6531 467.214Z" fill="white"/>
<path d="M80.7339 466.433C81.3555 466.074 81.3569 465.493 80.7368 465.135C80.1168 464.777 79.1101 464.778 78.4885 465.137C77.8668 465.496 77.8655 466.077 78.4855 466.435C79.1056 466.793 80.1122 466.792 80.7339 466.433Z" fill="white"/>
<path d="M79.5716 464.035L77.5451 465.205L75.0343 461.679L77.0532 460.513L79.5716 464.035Z" fill="white"/>
</g>
</g>
</g>
<defs>
<filter id="filter0_d" x="8.14612" y="177.858" width="486.003" height="282.284" filterUnits="userSpaceOnUse" color-interpolation-filters="sRGB">
<feFlood flood-opacity="0" result="BackgroundImageFix"/>
<feColorMatrix in="SourceAlpha" type="matrix" values="0 0 0 0 0 0 0 0 0 0 0 0 0 0 0 0 0 0 127 0"/>
<feOffset dy="2"/>
<feGaussianBlur stdDeviation="1"/>
<feColorMatrix type="matrix" values="0 0 0 0 0 0 0 0 0 0 0 0 0 0 0 0 0 0 0.04 0"/>
<feBlend mode="normal" in2="BackgroundImageFix" result="effect1_dropShadow"/>
<feBlend mode="normal" in="SourceGraphic" in2="effect1_dropShadow" result="shape"/>
</filter>
<filter id="filter1_d" x="49.7153" y="201.858" width="486.003" height="282.284" filterUnits="userSpaceOnUse" color-interpolation-filters="sRGB">
<feFlood flood-opacity="0" result="BackgroundImageFix"/>
<feColorMatrix in="SourceAlpha" type="matrix" values="0 0 0 0 0 0 0 0 0 0 0 0 0 0 0 0 0 0 127 0"/>
<feOffset dy="2"/>
<feGaussianBlur stdDeviation="1"/>
<feColorMatrix type="matrix" values="0 0 0 0 0 0 0 0 0 0 0 0 0 0 0 0 0 0 0.04 0"/>
<feBlend mode="normal" in2="BackgroundImageFix" result="effect1_dropShadow"/>
<feBlend mode="normal" in="SourceGraphic" in2="effect1_dropShadow" result="shape"/>
</filter>
<clipPath id="clip0">
<rect width="540" height="486" fill="white"/>
</clipPath>
<clipPath id="clip1">
<rect width="16" height="16" fill="white" transform="matrix(0.866025 -0.5 0.866025 0.5 20.7846 442)"/>
</clipPath>
<clipPath id="clip2">
<rect width="16" height="16" fill="white" transform="matrix(0.866025 -0.5 0.866025 0.5 62.3538 466)"/>
</clipPath>
<clipPath id="clip3">
<rect width="11" height="10" fill="white" transform="matrix(0.866025 -0.5 0.866025 0.5 67.55 466)"/>
</clipPath>
</defs>
</svg>
