<svg width="350" height="563" viewBox="0 0 350 563" fill="none" xmlns="http://www.w3.org/2000/svg">
<path fill-rule="evenodd" clip-rule="evenodd" d="M349.502 121.082C349.273 99.5211 349.044 77.22 349.003 55.3182C348.973 38.7773 347.312 6.91111 347.241 5.5606C347.076 2.43983 344.495 -0.0043863 341.369 5.91021e-06H341.246C227.744 2.26652 120.901 2.6658 14.6156 1.21547C14.1757 1.20837 13.7363 1.25172 13.3062 1.34465L9.71856 2.07862C7.09388 2.64026 5.18415 4.91017 5.07984 7.59224C1.31602 104.013 -0.286984 197.287 0.041837 301.123C0.0400062 304.29 2.54931 306.888 5.71399 306.995L5.81039 306.998L5.81225 306.999L5.81586 306.999C8.13802 307.078 36.2398 308.034 55.5949 308.034C58.4369 308.034 61.0909 308.034 63.4455 307.964C96.6446 307.306 130.595 306.831 163.425 306.373C221.491 305.568 281.536 304.735 342.033 302.814C345.085 302.718 347.554 300.298 347.711 297.248C350.721 238.654 350.104 179.12 349.506 121.518L349.502 121.082ZM60.856 22.4362L61.3845 20.9565C62.0925 18.9814 63.8004 17.5341 65.8649 17.1597C67.9293 16.7853 70.0367 17.5407 71.3932 19.1414C72.7496 20.7421 73.1491 22.9449 72.4411 24.9199L71.9068 26.4055C70.7735 29.4034 67.4456 30.9387 64.4294 29.8553C61.4131 28.7719 59.8228 25.47 60.856 22.4362ZM46.7624 17.034C43.5195 17.034 40.8906 19.6629 40.8906 22.9058V24.3914C40.8906 27.6343 43.5195 30.2632 46.7624 30.2632C50.0053 30.2632 52.6342 27.6343 52.6342 24.3914V22.9058C52.6342 19.6629 50.0053 17.034 46.7624 17.034ZM21.0746 21.6962L21.6089 20.2165C22.7018 17.1617 26.0641 15.5712 29.1189 16.6641C32.1737 17.757 33.7642 21.1193 32.6714 24.1741L32.137 25.6597C31.0426 28.7129 27.6802 30.3007 24.627 29.2063C21.5738 28.1118 19.986 24.7494 21.0804 21.6962H21.0746ZM164.65 294.61C220.502 293.829 278.162 293.023 336.244 291.241C338.926 234.887 338.346 177.562 337.785 122.048L337.776 121.206L337.762 119.839C337.543 98.6792 337.318 76.8328 337.277 55.3241C337.271 51.1316 337.154 45.8529 336.978 40.3216C332.993 42.5362 328.249 42.5203 323.711 42.5051C323.027 42.5028 322.347 42.5006 321.676 42.506L301.712 42.6762C253.614 43.0638 205.514 43.3574 157.412 43.557C110.113 43.7645 62.8119 43.8682 15.5087 43.8682C12.7431 125.903 11.5453 206.881 11.7684 295.434C23.1773 295.786 49.113 296.496 63.2053 296.215C96.4397 295.557 130.408 295.081 163.255 294.629L164.65 294.61Z" fill="#E7F6FF"/>
<path d="M186.998 115.55C190.277 111.184 191.387 105.603 191.648 100.245C191.877 94.8082 191.59 89.3617 190.791 83.9788C190.046 78.8597 188.339 73.5468 184.189 70.1266C176.581 63.9345 165.039 65.6558 159.435 73.4798C154.376 80.5213 153.28 90.5659 154.756 99.2244C154.579 101.209 154.599 103.205 154.815 105.186C155.002 114.015 164.659 122.026 173.064 122.48C178.429 122.778 183.824 119.768 186.998 115.55Z" fill="#147EFB"/>
<path d="M339.23 227.001C332.195 203.611 323.045 180.117 306.563 161.667C305.273 160.229 303.105 161.138 302.539 162.733C301.721 165.22 301.333 167.828 301.391 170.445L301.227 170.348C300.773 169.715 300.318 169.082 299.841 168.456C295.784 162.971 290.867 158.177 285.281 154.261C283.314 152.912 280.766 151.228 278.255 151.474C275.743 151.72 274.425 153.955 274.67 156.325C275.147 160.87 279.38 164.79 282.122 168.172C284.454 171.064 291.064 179.983 291.205 180.192C290.617 181.086 290.043 181.995 289.476 182.904C287.181 180.363 283.426 174.879 281.69 172.845C271.131 160.438 267.115 158.016 263.806 161.25C260.498 164.484 265.982 172.546 269.603 176.935C273.803 182.096 277.593 187.577 280.937 193.328C280.773 193.604 279.298 194.819 279.134 195.08C276.988 192.419 275.028 189.513 272.532 187.181C270.58 185.355 267.562 182.531 264.678 182.449C262.294 182.39 261.124 184.424 261.258 186.577C261.571 191.689 265.244 196.823 267.77 201.22C272.241 208.954 277.07 220.75 278.948 224.386C280.825 228.022 283.798 236.033 285.095 239.527C285.9 241.681 286.63 243.864 287.33 246.062C286.518 246.062 285.706 246.099 284.901 246.174C280.371 246.576 275.915 247.441 271.399 247.918C269.7 240.682 265.386 233.447 261.712 228.499C254.256 218.623 244.371 210.845 233.017 205.921C205.939 194.074 174.419 198.179 147.326 207.956C124.182 216.324 102.163 230.191 88.1614 250.6C85.6446 249.996 83.0828 249.597 80.5013 249.408C75.2853 249.013 70.2258 247.918 65.047 247.485C64.2572 247.418 63.4599 247.389 62.6626 247.381C64.6272 241.308 67.1206 235.419 70.114 229.781C73.2883 223.961 77.5654 216.406 81.7084 208.5C84.0705 204.029 91.1941 190.668 91.8498 185.594C92.133 183.455 91.1047 181.339 88.7128 181.242C85.8365 181.13 83.7725 182.896 81.9692 184.871C79.6593 187.39 74.95 192.628 72.7965 195.303C72.6326 195.027 71.4627 194.059 71.3062 193.813C71.567 193.403 75.5536 187.107 77.9082 183.604C80.2629 180.102 82.8336 175.408 85.0541 171.824C87.2746 168.24 88.5339 163.739 85.449 161.63C82.3642 159.521 79.3687 161.995 76.3583 164.819C73.3479 167.643 70.8219 171.116 68.3108 174.238C66.6268 176.324 64.2945 180.028 61.828 182.397C61.3288 181.451 59.2796 180.594 58.7506 179.663C58.8922 179.469 65.5612 171.466 67.8935 168.582C70.6207 165.199 74.8382 162.271 75.3449 157.718C75.5908 155.356 74.2719 153.113 71.7608 152.867C69.2497 152.621 66.7013 154.313 64.7341 155.654C59.1008 159.506 54.4586 164.596 50.1815 169.879C49.6673 170.505 49.1457 171.123 48.6316 171.742C48.6822 169.164 48.2942 166.596 47.484 164.149C46.9177 162.554 44.7494 161.645 43.4603 163.091C26.9777 181.54 17.8274 205.027 10.7932 228.417C4.12422 250.615 -2.73109 273.416 1.10639 296.769C2.41455 305.184 4.86901 313.379 8.40133 321.128C11.6502 328.087 16.3669 335.151 23.3042 338.862C31.2772 343.124 42.1637 342.141 50.5689 339.719C59.4361 337.171 67.0068 331.768 73.3256 325.152C77.2053 320.974 80.8024 316.543 84.0929 311.888C88.2582 306.173 92.5577 300.502 96.0152 294.318C98.9957 289.102 101.082 283.297 103.109 277.641C104.118 274.92 104.978 272.147 105.687 269.333C106.276 269.579 106.857 269.81 107.446 270.078C107.513 271.799 107.952 273.625 108.086 275.167C108.645 281.449 108.772 287.76 108.772 294.057C108.772 306.076 108.541 318.065 108.899 330.077C109.644 355.568 111.007 380.873 110.806 406.357C110.709 418.652 111.678 467.273 112.259 479.56C112.84 491.713 112.967 542.383 112.967 542.383C112.967 542.383 106.917 547.331 105.747 548.426C100.583 553.247 100.374 556.988 105.911 559.335C113.019 559.395 166.662 559.335 166.662 559.335C168.696 558.739 170.482 557.5 171.751 555.803C173.659 553.083 172.437 544.842 172.437 530.178C172.437 515.513 171.438 462.623 171.379 450.216C171.319 437.81 171.155 425.314 170.693 412.833C169.754 387.609 171.699 361.828 170.216 336.634C169.471 324.25 168.942 311.851 168.681 299.444C168.547 293.245 168.493 287.035 168.518 280.816C168.518 280.652 168.518 280.48 168.518 280.316C172.641 280.118 176.756 279.733 180.865 279.161C184.322 278.685 187.757 278.066 191.177 277.388C191.671 281.731 191.786 286.109 191.52 290.473C190.998 303.14 191.021 315.681 191.624 328.363C192.839 353.698 194.545 378.705 195.052 404.017C195.574 429.852 196.676 509.53 196.855 523.665C196.937 530.23 196.855 536.668 196.587 543.218C196.401 547.897 196.051 555.14 197.399 557.964C198.748 560.788 204.105 560.654 204.105 560.654H258.158C266.243 560.654 270.505 557.532 265.878 553.098C262.547 549.901 253.956 545.036 253.956 545.036C253.956 545.036 253.769 532.674 253.769 527.324C253.769 514.231 252.711 452.809 252.57 427.013C252.428 401.216 250.334 359.525 249.134 333.803C248.531 320.785 247.488 307.805 246.653 294.802C246.258 288.669 245.908 282.529 245.67 276.382C245.632 275.428 245.67 274.251 245.752 272.954C246.124 274.094 246.497 275.227 246.914 276.337C248.941 281.993 251.064 287.768 254.008 293.014C257.473 299.191 261.772 304.869 265.93 310.584C269.211 315.209 272.793 319.612 276.653 323.766C282.971 330.375 290.542 335.777 299.409 338.333C307.814 340.755 318.701 341.731 326.674 337.476C333.626 333.751 338.343 326.694 341.577 319.734C345.108 311.988 347.562 303.795 348.872 295.383C352.754 272.016 345.899 249.222 339.23 227.001Z" fill="#147EFB"/>
<path d="M289.568 255.682C298.078 276.002 299.851 293.349 295.962 293.349" stroke="#0053C7" stroke-width="4.47085" stroke-linecap="round" stroke-linejoin="round"/>
<path d="M304.127 173.075C307.726 177.546 311.929 181.741 313.948 187.196" stroke="#0053C7" stroke-width="4.47085" stroke-linecap="round" stroke-linejoin="round"/>
<path d="M58.4371 263.685C50.8143 286.732 49.7562 298.058 53.8172 299.452" stroke="#0053C7" stroke-width="4.47085" stroke-linecap="round" stroke-linejoin="round"/>
<path d="M45.8757 174.387C42.2766 178.858 38.074 183.053 36.0547 188.507" stroke="#0053C7" stroke-width="4.47085" stroke-linecap="round" stroke-linejoin="round"/>
<path d="M41 561H329" stroke="#0053C7" stroke-width="4" stroke-linecap="round" stroke-linejoin="round"/>
<path d="M285.124 239.505C283.828 236.01 280.87 228 278.977 224.364C277.084 220.727 272.271 208.932 267.8 201.197C265.274 196.801 261.6 191.667 261.287 186.555C261.153 184.402 262.323 182.367 264.707 182.427C267.591 182.509 270.609 185.333 272.561 187.159C275.058 189.491 277.032 192.375 279.163 195.057C279.327 194.774 280.803 193.567 280.966 193.306C277.622 187.554 273.833 182.073 269.633 176.913C266.011 172.524 260.557 164.462 263.836 161.228C267.114 157.994 271.138 160.415 281.719 172.822C283.455 174.856 287.211 180.341 289.506 182.882C290.072 181.972 290.646 181.063 291.235 180.169C291.115 179.961 284.484 171.041 282.151 168.15C279.424 164.767 275.192 160.848 274.7 156.302C274.454 153.933 275.773 151.697 278.284 151.451C280.795 151.206 283.343 152.89 285.311 154.238C290.896 158.162 295.81 162.963 299.863 168.456C300.34 169.081 300.795 169.715 301.249 170.348C301.62 170.542 301.978 170.758 302.322 170.996C302.278 150.401 302.032 128.747 301.361 112.011C300.869 99.6193 300.318 87.2276 300.318 74.821C300.347 73.8525 299.967 72.9166 299.27 72.243C298.574 71.5693 297.626 71.2203 296.659 71.2816C288.03 72.1683 279.521 73.6437 270.937 74.9626C262.278 76.4033 253.734 78.4652 245.371 81.1323C236.839 83.7403 228.382 86.5942 219.82 89.1128C213.457 90.9906 203.099 95.2006 193.494 99.6417C178.822 101.028 150.88 100.61 150.88 100.61C141.834 95.9085 124.643 90.387 119.867 88.9414C110.299 86.0503 92.669 81.8104 83.8689 80.1413C75.0688 78.4722 58.1913 74.1802 49.3017 72.9507C44.7266 72.3248 44.7266 78.2635 44.7266 85.3275C44.7266 89.8729 47.5656 130.386 48.3032 172.025C48.9292 171.28 49.5551 170.535 50.181 169.789C54.4581 164.529 59.1227 159.417 64.7336 155.565C66.7008 154.223 69.2492 152.532 71.7603 152.778C74.2715 153.024 75.5904 155.267 75.3445 157.629C74.8676 162.181 70.6501 165.08 67.893 168.493C65.5607 171.384 58.8917 179.379 58.7501 179.573C59.2792 180.505 61.3283 181.361 61.8276 182.308C64.294 179.938 66.6263 176.235 68.3103 174.148C70.8214 171.026 73.3475 167.554 76.3579 164.73C79.3682 161.906 82.3712 159.424 85.4486 161.541C88.526 163.657 87.2816 168.113 85.0537 171.734C82.8257 175.356 80.2326 180.035 77.9077 183.515C75.5829 186.995 71.5666 193.314 71.3058 193.723C71.4697 194.006 72.6396 194.975 72.7961 195.214C74.9495 192.561 79.6588 187.323 81.9688 184.782C83.772 182.807 85.8361 181.056 88.7123 181.153C91.1042 181.25 92.1325 183.388 91.8494 185.504C91.1936 190.579 84.0701 203.924 81.708 208.41C77.565 216.316 73.2879 223.872 70.1136 229.691C65.6427 237.94 61.8201 248.603 58.7501 260.853L58.0795 263.506L58.4223 263.618C61.6189 264.676 64.7485 265.965 67.9899 266.889C77.1253 269.482 86.4694 271.419 95.7241 273.521C104.979 275.622 109.755 276.561 118.965 279.132C125.805 281.047 132.482 283.416 139.442 284.847C142.757 285.525 155.499 290.063 155.663 290.242C155.44 290.953 155.569 291.728 156.011 292.328C156.452 292.929 157.153 293.283 157.899 293.282C173.867 293.23 186.959 293.349 202.92 292.537C204.843 292.44 204.075 289.556 204.075 289.556C204.075 289.556 212.391 284.929 215.059 283.647C218.412 282.045 221.899 280.726 225.289 279.176C234.85 274.84 244.581 270.868 254.193 266.643C265.631 261.628 278.314 258.983 289.588 253.551C288.261 248.909 286.853 244.14 285.124 239.505Z" fill="#FECB2E"/>
<path d="M185.434 99.6267C185.434 99.6267 194.957 92.8384 202.423 89.9994C212.601 86.1247 223.287 81.7432 233.644 78.4199C248.875 73.5392 263.495 68.2189 279.478 69.0535V72.5705" stroke="#FD9426" stroke-width="4.47085" stroke-linecap="round" stroke-linejoin="round"/>
<path d="M63.6615 74.9923L63.6094 71.1176C99.6743 74.2024 128.884 84.2395 158.533 98.9933" stroke="#FD9426" stroke-width="4.47085" stroke-linecap="round" stroke-linejoin="round"/>
<path d="M58.0137 73.6884V65.6334C64.9062 65.9165 88.1323 69.3591 98.1545 71.1325C114.644 74.0982 128.802 78.7181 148.176 86.3111C157.099 89.7731 165.599 94.2404 173.511 99.6268C190.463 87.7045 211.692 79.3961 230.358 73.5468C246.177 68.5916 267.727 63.1148 286.325 65.6334L286.571 71.289" stroke="#FD9426" stroke-width="4.47085" stroke-linecap="round" stroke-linejoin="round"/>
<path d="M197.207 101.862C197.207 101.862 199.629 128.136 199.666 138.642C199.741 155.855 201.752 173.001 201.462 190.251C201.149 208.932 202.378 227.694 203.503 246.338C204.092 256.084 204.576 276.956 204.576 286.732" stroke="#FD9426" stroke-width="4.47085" stroke-linecap="round" stroke-linejoin="round"/>
<path d="M148.795 102.473C148.795 102.473 149.48 118.486 149.816 124.515C150.449 135.938 150.814 147.502 151.179 158.94C151.857 179.946 151.537 200.832 153.027 221.771C154.518 242.709 154.175 267.15 154.234 288.051" stroke="#FD9426" stroke-width="4.47085" stroke-linecap="round" stroke-linejoin="round"/>
</svg>
