<svg width="350" height="502" viewBox="0 0 350 502" fill="none" xmlns="http://www.w3.org/2000/svg">
<path d="M349.014 5.92267C348.508 5.3438 347.826 4.94593 347.072 4.78994C346.318 4.63396 345.533 4.72845 344.838 5.05896C337.62 8.48572 324.352 9.94982 315.256 8.31719C311.4 7.61499 308.144 6.35452 304.683 5.0098C300.478 3.37015 296.126 1.67432 290.688 1.10554C282.424 0.241825 275.604 0.842208 270.103 6.02098C267.358 3.01202 263.368 1.10554 258.709 0.680704C254.392 0.294491 250.336 1.63219 246.755 2.8119L246.403 2.93127C239.301 5.26962 231.661 7.44295 223.932 7.49561C215.742 7.55881 204.479 5.32228 199.805 1.04936C199.148 0.399921 198.26 0.0344189 197.334 0.0318737C196.408 0.0293286 195.518 0.389947 194.857 1.03576C194.196 1.68157 193.816 2.56069 193.801 3.48306C193.785 4.40542 194.134 5.29691 194.773 5.9648C201.201 13.2677 202.949 24.4679 199.023 33.2034C193.472 45.5587 191.041 56.0251 191.368 66.1052C191.721 77.2317 195.834 84.3029 201.86 91.9324C193.754 97.0198 191.379 107.806 192.827 116.861C193.719 122.44 196.436 129.388 198.974 135.448C201.405 141.255 201.088 148.147 200.486 154.127C199.354 165.074 195.929 177.812 191.566 180.979C190.838 181.52 190.347 182.32 190.197 183.212C190.047 184.105 190.248 185.021 190.759 185.769C191.27 186.517 192.051 187.039 192.939 187.228C193.828 187.416 194.755 187.255 195.527 186.779C201.486 183.008 213.899 180.273 220.591 181.253C224.845 181.878 228.316 183.205 231.989 184.613C236.034 186.158 240.218 187.773 245.515 188.419C252.651 189.311 259.999 189.599 265.864 183.981C266.736 185.067 267.738 186.042 268.849 186.885C271.663 189.044 275.015 190.399 278.544 190.803C279.249 190.868 279.953 190.901 280.658 190.901C285.818 190.901 290.72 189.146 295.108 187.555L295.872 187.278C302.921 184.753 310.47 182.405 318.156 182.289C325.842 182.173 336.352 183.626 340.915 188.191C341.567 188.853 342.455 189.232 343.386 189.244C344.317 189.256 345.215 188.901 345.884 188.256C346.553 187.611 346.938 186.729 346.956 185.801C346.974 184.874 346.623 183.977 345.98 183.307C341.472 178.528 339.005 170.151 339.21 160.327C339.379 152.143 341.204 146.199 343.735 137.976L343.788 137.8C346.152 130.111 348.588 120.024 346.41 110.207C345.064 104.151 342.741 99.3863 339.196 95.5066C344.524 90.0188 346.473 81.1043 345.93 73.7312C345.56 68.742 344.278 63.974 343.041 59.3605C342.258 56.4534 341.522 53.7043 340.993 50.9025C338.397 36.7705 341.37 22.1856 349.293 10.1815C349.722 9.53979 349.928 8.77492 349.877 8.00513C349.827 7.23534 349.524 6.50349 349.014 5.92267V5.92267ZM255.502 165.018C255.354 165.123 255.214 165.24 255.086 165.369C243.384 165.215 231.708 165.01 220.059 164.755C220.23 164.499 220.367 164.223 220.468 163.933C223.227 155.855 227.076 148.188 231.908 141.143L235.555 141.891L234.269 148.481C234.106 149.313 234.252 150.176 234.678 150.91C235.104 151.643 235.783 152.199 236.588 152.473C244.422 155.146 252.016 158.473 259.287 162.42C258.016 163.262 256.755 164.128 255.502 165.018ZM240.394 135.694L236.517 134.904C239.033 131.792 241.72 128.822 244.567 126.007C246.705 135.522 250.524 144.583 255.844 152.768C251.249 150.561 246.55 148.582 241.747 146.831L243.118 139.809C243.298 138.904 243.113 137.965 242.603 137.195C242.093 136.425 241.3 135.886 240.394 135.694V135.694ZM266.089 152.47C265.888 152.936 265.652 153.488 265.384 154.025C257.774 144.205 252.718 132.664 250.664 120.428C250.665 120.413 250.665 120.397 250.664 120.382L251.157 119.961C251.347 121.088 251.548 122.211 251.781 123.324C251.929 124.026 252.29 124.665 252.814 125.157C253.338 125.648 254 125.968 254.712 126.073C255.424 126.178 256.151 126.064 256.796 125.745C257.441 125.426 257.972 124.918 258.318 124.29L263.633 114.526C263.89 114.055 264.14 113.595 264.394 113.142L274.089 124.195C274.538 124.711 275.127 125.085 275.785 125.272C276.444 125.459 277.143 125.451 277.797 125.249L266.089 152.47ZM282.579 41.7036C282.77 42.4289 283.189 43.0741 283.775 43.5448C284.361 44.0155 285.083 44.2869 285.835 44.3193C285.948 44.3193 286.586 44.4457 287.982 46.3276C289.715 48.6659 290.42 50.5408 290.029 51.717C289.733 52.6088 288.662 53.4374 287.298 53.8236C285.905 54.1618 284.469 54.2919 283.037 54.2098C282.318 52.6295 281.404 51.1445 280.316 49.7895C276.341 44.9407 268.027 42.5322 262.487 44.6774C259.7 45.7553 257.289 47.8584 255.122 51.1061C253.837 53.0484 252.765 55.1224 251.925 57.2925C252.08 54.0053 252.884 50.7808 254.292 47.8038C255.7 44.8269 257.683 42.1561 260.13 39.9445L260.197 40.085C260.404 40.5275 260.702 40.922 261.071 41.2433C261.44 41.5647 261.873 41.8057 262.341 41.9511C262.809 42.0965 263.302 42.143 263.789 42.0877C264.276 42.0324 264.746 41.8764 265.169 41.6298C270.567 38.5142 276.877 37.3462 283.037 38.3224C282.731 38.8242 282.532 39.3832 282.452 39.9649C282.372 40.5465 282.413 41.1383 282.572 41.7036H282.579ZM254.033 65.6453H254.05C254.828 65.6457 255.583 65.3902 256.2 64.9183C256.816 64.4465 257.258 63.785 257.458 63.0366C258.189 60.1804 259.386 57.4631 261 54.9928C262.315 53.0231 263.678 51.7521 265.046 51.222C267.717 50.1897 272.834 51.7521 274.826 54.2063C277.261 57.2048 278.181 61.3829 278.759 65.073C279.274 68.3773 279.59 71.7094 279.707 75.0513C279.784 77.4072 279.724 79.3102 279.164 80.9323C277.49 85.76 269.226 88.9374 261.927 89.5764C261.466 89.617 261.017 89.7477 260.607 89.961C260.196 90.1743 259.832 90.4661 259.535 90.8197C259.237 91.1733 259.013 91.5817 258.874 92.0217C258.735 92.4617 258.684 92.9247 258.725 93.3842C258.766 93.8436 258.897 94.2906 259.111 94.6996C259.325 95.1085 259.618 95.4715 259.973 95.7677C260.328 96.0639 260.738 96.2875 261.18 96.4258C261.621 96.5642 262.086 96.6145 262.547 96.5739C265.22 96.3352 267.864 95.8461 270.445 95.1133L270.544 99.4073C268.739 99.3757 266.935 99.3617 265.888 99.4073C263.555 99.5232 260.087 99.8954 257.613 100.204H257.582L256.651 86.4165C256.429 81.8522 256.087 74.1946 256.123 72.9728C256.135 72.5117 256.057 72.0526 255.891 71.6218C255.726 71.191 255.476 70.7969 255.158 70.462C254.84 70.1271 254.458 69.8581 254.035 69.6702C253.612 69.4823 253.156 69.3792 252.693 69.367H252.341C251.418 69.3459 250.547 69.3248 249.737 69.23C248.112 69.0475 246.847 68.4857 246.441 67.7694C246.326 67.5188 246.285 67.2406 246.323 66.9675C246.361 66.6944 246.477 66.4379 246.656 66.2281C247.146 65.7366 248.242 65.4557 249.663 65.4557C250.297 65.4557 250.967 65.4978 251.675 65.5435C252.383 65.5891 253.212 65.6558 254.026 65.6558L254.033 65.6453ZM272.947 112.205L267.858 106.401C269.201 106.401 270.956 106.436 272.531 106.475C272.605 107.728 272.701 109.101 272.803 110.116C272.866 110.797 272.912 111.496 272.94 112.205H272.947ZM259.848 107.016C258.949 108.389 258.184 109.793 257.437 111.169L257.141 111.71C256.986 110.277 256.841 108.841 256.708 107.412C257.631 107.286 258.72 107.146 259.848 107.016ZM285.948 124.1C287.71 125.396 289.472 126.776 291.206 128.229C291.177 128.618 291.213 129.008 291.312 129.385C291.98 131.884 292.451 134.431 292.722 137.003C290.255 136.968 287.788 137.003 285.342 137.133C284.695 137.165 284.069 137.373 283.533 137.736C282.997 138.099 282.572 138.602 282.304 139.19C282.036 139.777 281.937 140.427 282.015 141.068C282.094 141.709 282.349 142.315 282.752 142.821L286.382 147.386C281.866 149.417 277.435 151.629 273.088 154.021L285.948 124.1ZM279.939 120.045L280.006 120.084L279.943 120.228C279.943 120.168 279.943 120.108 279.939 120.045ZM267.425 165.502C275.682 160.302 284.355 155.788 293.356 152.006C293.859 151.798 294.306 151.476 294.664 151.066C295.021 150.657 295.278 150.17 295.414 149.645C295.551 149.12 295.563 148.57 295.451 148.039C295.338 147.508 295.104 147.01 294.766 146.585L292.725 144.026C293.934 144.026 295.139 144.078 296.341 144.134C296.825 144.157 297.309 144.079 297.762 143.907C298.215 143.735 298.628 143.471 298.974 143.132C299.32 142.794 299.592 142.388 299.773 141.94C299.954 141.492 300.041 141.011 300.027 140.529C299.985 139.047 299.879 137.569 299.721 136.098C308.665 145.226 316.302 155.798 320.644 165.692C302.967 165.748 285.194 165.682 267.425 165.502ZM321.025 148.183V151.539C311.076 135.708 295.414 120.344 279.996 111.949C279.96 111.11 279.908 110.256 279.819 109.4C279.597 107.23 279.407 102.953 279.404 102.911C279.377 102.315 279.199 101.735 278.885 101.226C278.571 100.717 278.132 100.297 277.61 100.004L277.43 92.2799C281.307 90.1452 284.457 87.1714 285.828 83.2145C286.797 80.4056 286.847 77.5196 286.752 74.8055C286.629 71.1801 286.286 67.5654 285.726 63.981C285.582 63.0787 285.423 62.1448 285.229 61.2003C286.593 61.148 287.947 60.9358 289.261 60.5683C292.901 59.515 295.693 57.0292 296.725 53.8974C298.47 48.6308 294.847 43.7435 293.656 42.1389C292.98 41.1858 292.201 40.3098 291.333 39.5267C291.454 39.2776 291.556 39.0193 291.636 38.7543C291.827 38.1242 291.886 37.4616 291.808 36.808C291.73 36.1544 291.518 35.5237 291.185 34.9554C289.962 32.8488 287.559 32.0763 286.582 31.8446C279.382 30.1776 271.834 30.8734 265.064 33.8283L264.711 33.0629C264.501 32.6135 264.197 32.2135 263.82 31.8895C263.443 31.5655 263.001 31.3248 262.524 31.1831C262.047 31.0415 261.545 31.0022 261.052 31.0678C260.558 31.1334 260.084 31.3024 259.661 31.5637C250.357 37.3078 244.507 48.3324 244.894 59.2201C243.687 59.6666 242.589 60.3644 241.673 61.267C240.406 62.559 239.589 64.2224 239.343 66.0121C239.097 67.8017 239.434 69.6228 240.306 71.2067C241.867 73.9805 244.94 75.7711 248.951 76.21L249.159 76.231C249.296 80.1634 249.575 85.9215 249.62 86.8027C249.619 86.8238 249.619 86.8449 249.62 86.8659L250.632 101.858C250.496 101.981 250.368 102.113 250.248 102.251C249.936 102.613 249.7 103.034 249.555 103.488C249.409 103.942 249.356 104.42 249.398 104.895V104.895L249.522 106.205C249.701 108.09 249.874 110 250.089 111.914C249.747 112.046 249.428 112.233 249.145 112.465C235.922 123.265 225.797 135.662 218.924 149.44C218.537 135.985 218.283 118.683 218.219 111.678C218.107 94.692 218.41 77.488 219.118 60.5437C219.418 53.4409 219.428 33.737 219.421 25.7354C226.071 25.5177 240.567 25.0648 245.448 25.0613C253.906 25.0613 262.494 25.114 270.949 25.2368C287.023 25.4756 303.301 25.9566 319.382 26.6693C321.331 67.1515 321.176 108.329 321.025 148.183Z" fill="#E7F6FF"/>
<path d="M264.949 67.4117H265.012C265.937 67.4118 266.824 67.0501 267.483 66.4046C268.143 65.759 268.521 64.8812 268.536 63.9604V63.7286C268.547 63.2655 268.465 62.8049 268.296 62.3734C268.127 61.942 267.873 61.5481 267.551 61.2145C267.228 60.881 266.842 60.6144 266.416 60.43C265.989 60.2456 265.53 60.1472 265.065 60.1404H265.002C264.078 60.1402 263.191 60.5014 262.532 61.1463C261.873 61.7911 261.494 62.668 261.477 63.5882V63.8234C261.467 64.2866 261.549 64.7472 261.718 65.1787C261.887 65.6101 262.141 66.004 262.463 66.3376C262.786 66.6711 263.172 66.9377 263.598 67.1221C264.025 67.3064 264.484 67.4049 264.949 67.4117V67.4117Z" fill="#E7F6FF"/>
<path d="M269.81 71.4986C269.153 71.897 268.646 72.4982 268.364 73.2107C268.083 73.9232 268.043 74.7079 268.25 75.4452C268.458 76.1824 268.901 76.8319 269.514 77.2946C270.126 77.7573 270.874 78.0078 271.642 78.008C271.894 78.0088 272.144 77.9817 272.39 77.9273C275.075 77.348 276.753 74.8972 276.883 71.3722C276.994 68.1873 276.814 64.9989 276.344 61.8468C276.208 60.9253 275.71 60.0955 274.96 59.5398C274.21 58.984 273.269 58.748 272.344 58.8834C271.419 59.0189 270.586 59.5149 270.028 60.2622C269.47 61.0096 269.233 61.9471 269.369 62.8685C269.772 65.5981 269.925 68.3587 269.824 71.1159C269.826 71.2436 269.821 71.3714 269.81 71.4986V71.4986Z" fill="#E7F6FF"/>
<path d="M268.531 128.065L268.573 125.512C268.588 124.582 268.232 123.683 267.582 123.014C266.933 122.345 266.043 121.961 265.109 121.945H265.067C264.142 121.945 263.255 122.307 262.595 122.952C261.936 123.598 261.558 124.476 261.542 125.396L261.5 127.97L265.024 128.03L268.531 128.065Z" fill="#E7F6FF"/>
<path d="M261.995 139.465L261.967 141.087C261.952 142.015 262.307 142.912 262.953 143.58C263.6 144.249 264.486 144.635 265.417 144.654H265.477C266.402 144.655 267.289 144.293 267.948 143.647C268.608 143.002 268.986 142.124 269.002 141.203L269.03 139.574L265.506 139.504L261.995 139.465Z" fill="#E7F6FF"/>
<path d="M6.049 426.376C0.0256371 431.221 -0.252026 440.215 0.413266 447.254C1.78784 461.997 7.58302 476.059 16.6524 487.715C20.8207 493.064 25.6872 497.827 31.1212 501.876H132.015C133.419 501.195 134.489 500.093 135.451 498.872C137.65 496.072 139.63 493.084 141.59 490.124C145.567 484.11 149.222 477.889 152.54 471.486C158.173 460.622 163.932 446.554 155.72 435.38C151.377 429.463 144.325 427.412 137.282 428.983C133.197 429.893 129.584 431.894 126.285 434.347C129.218 428.445 132.126 422.535 135.011 416.616C139.135 408.1 143.132 399.233 144.575 389.796C145.892 381.166 144.897 371.776 138.599 365.216C132.606 358.976 123.77 358.392 116.152 361.804C110.379 364.387 106.098 368.91 102.481 373.97C102.587 371.962 102.46 369.948 102.101 367.97C101.689 365.71 100.835 363.555 99.5904 361.627C98.3455 359.698 96.7333 358.035 94.8462 356.733C91.0524 354.169 86.3816 353.921 82.2662 355.845C77.917 357.882 74.8078 361.845 71.9514 365.569C69.095 369.293 66.4531 373.129 63.9789 377.101C60.9823 368.65 56.2126 360.702 49.2985 354.941C41.238 348.222 30.4146 344.537 19.9597 346.62C14.9067 347.629 10.5796 350.446 8.10811 355.038C5.80983 359.307 5.08406 364.238 4.80914 369.02C4.18384 380.155 5.25078 391.321 7.9734 402.135C10.0941 410.622 13.2065 418.828 17.2463 426.583C13.6311 424.805 9.49918 423.598 6.049 426.376Z" fill="#E7F6FF"/>
<g clip-path="url(#clip0)">
<path d="M217.667 115.663C215.24 116.225 212.716 116.225 210.289 115.663C209.276 121.152 207.142 126.352 202.037 128.923C197.536 131.193 192.141 129.47 188.521 126.314C184.455 122.768 183.152 117.367 183.051 112.161C182.868 103.057 185.002 89.2683 193.532 84.0686C197.454 81.6793 202.005 82.2641 205.492 84.4458C208.98 86.6275 211.315 92.544 211.485 98.2782L212.373 98.5485C213.814 98.9823 215.262 99.3847 216.672 99.9255C219.82 101.145 223.018 103.031 224.094 106.496C224.629 108.231 223.899 110.702 222.961 112.324C221.847 114.317 219.769 115.191 217.667 115.663Z" fill="#147EFB"/>
<path d="M3.56189 133.676C7.69139 134.387 12.7525 138.442 16.1896 140.398L16.9954 139.568C16.0826 138.228 13.9045 136.323 12.7714 135.167C9.53582 131.859 5.68332 128.332 4.49357 125.534C3.30382 122.736 5.38746 119.706 9.61138 120.504C13.8353 121.303 25.632 131.451 25.632 131.451L26.7022 130.382C26.3182 129.891 22.7804 125.352 20.2121 122.472C18.0025 119.957 16.4351 116.185 18.4369 114.135C20.4387 112.085 24.543 113.915 26.8848 115.751C31.1528 119.096 42.9621 130.614 49.9306 138.291C50.2831 133.947 49.9306 129.168 49.9873 126.93C49.9873 124.572 51.0448 122.328 53.8587 122.768C56.6725 123.208 58.1707 128.137 59.6941 135.022C61.2175 141.907 61.2427 151.489 62.8416 159.744C68.5826 170.162 73.3101 183.397 77.0682 194.067C81.7265 207.302 84.9306 216.897 87.0772 231.433C88.8335 228.233 92.8434 220.217 94.713 217.085C99.1195 209.735 103.104 202.165 107.46 194.784C115.826 180.713 125.609 167.591 140.049 159.235C153.999 151.162 169.963 147.836 185.814 145.824C200.541 143.987 215.37 143.089 230.212 143.133C239.025 143.208 253.321 143.68 265.722 148.131C275.618 151.684 284.953 157.852 293.59 163.755C310.939 175.614 333.45 195.312 339.386 203.033C345.322 210.754 350.263 219.324 349.546 231.817C348.828 244.31 338.844 258.916 331.504 266.077C323.881 273.534 309.327 287.97 298.632 293.911C287.937 299.853 275.932 303.418 267.535 300.174C266.862 299.953 266.264 299.548 265.81 299.004C265.81 301.18 265.81 303.355 265.741 305.531C265.288 327.216 264.809 348.832 265.168 370.524C265.521 391.958 264.753 413.385 264.954 434.819C265.067 446.702 264.513 485.69 264.513 485.69C267.51 488.444 271.369 491.022 274.623 493.468C277.387 495.543 277.141 499.755 272.961 499.755C268.781 499.755 222.803 499.9 220.021 499.9C217.238 499.9 214.985 499.102 214.941 496.7C214.796 480.604 214.349 465.206 213.845 449.117C213.581 440.71 214.317 400.766 213.782 392.058C213.253 383.589 213.656 355.711 213.738 347.26C213.914 329.706 210.962 271.478 212.869 253.791C202.035 252.204 191.061 251.782 180.136 252.534C179.953 268.529 177.737 319.35 177.668 336.578C177.536 370.826 177.441 405.067 177.101 439.308C176.919 457.869 177.334 489.608 177.334 492.707C177.334 495.807 176.755 499.485 172.481 499.485C168.207 499.485 155.296 499.259 147.075 499.485C138.186 499.749 130.009 499.051 121.127 499.485C118.464 499.617 116.091 496.014 118.344 493.927C121.637 490.859 125.036 487.753 129.26 484.402C129.052 448.01 130.254 410.21 130.173 373.818C130.135 355.49 130.33 337.169 131.331 318.866C132.332 300.564 131.897 282.223 132.143 263.902C132.281 253.785 132.772 243.694 133.295 233.59C133.37 232.062 133.427 230.534 133.49 229C121.567 254.47 105.635 277.118 97.6527 282.607C87.3542 289.68 66.8515 288.127 59.4108 280.28C51.9702 272.434 46.1914 258.312 44.2085 247.152C41.7912 233.364 41.1869 227.812 37.731 214.181C34.1491 200.046 30.4918 190.163 25.2355 176.569C24.4381 174.494 23.6114 172.43 22.7553 170.376C19.1546 162.504 7.52775 145.597 1.35239 139.568C-0.775307 137.436 0.817287 133.205 3.56189 133.676ZM312.11 232.754C312.009 227.925 302.233 218.752 293.451 212.546C284.67 206.34 269.833 196.199 263.267 192.206C262.549 210.05 262.537 225.454 263.431 242.097C263.468 242.795 263.506 243.486 263.55 244.184C269.889 249.843 275.095 256.728 277.771 264.687C287.975 261.613 312.229 237.582 312.11 232.754Z" fill="#147EFB"/>
<path d="M262.739 243.26C261.568 241.374 250.728 231.811 247.052 235.489C243.218 239.337 258.181 249.045 260.58 252.157C255.827 247.988 245.982 239.374 243.313 243.235C240.644 247.095 247.354 251.377 250.76 254.489C255.04 258.407 257.81 262.311 261.675 266.272C259.554 263.701 251.924 254.483 248.065 256.646C242.702 259.651 252.346 266.624 254.209 268.932C259.956 276.024 263.268 283.921 265.723 295.515" stroke="#0053C7" stroke-width="4" stroke-linecap="round" stroke-linejoin="round"/>
<path d="M49.5594 112.18C56.0998 110.073 64.6673 107.558 71.1763 106.993C79.9892 106.225 90.3507 105.157 99.9316 105.666" stroke="#0053C7" stroke-width="4" stroke-linecap="round" stroke-linejoin="round"/>
<path d="M77.1073 132.444C85.2908 129.829 94.3178 129.181 102.879 128.829" stroke="#0053C7" stroke-width="4" stroke-linecap="round" stroke-linejoin="round"/>
<path d="M320.564 499.963L32 500.005" stroke="#0053C7" stroke-width="4" stroke-linecap="round" stroke-linejoin="round"/>
<path d="M47.9355 166.101L41.9931 169.005" stroke="#0053C7" stroke-width="4" stroke-linecap="round" stroke-linejoin="round"/>
<path d="M41.3516 139.31C39.9264 139.486 38.5686 140.017 37.4034 140.856C36.2383 141.694 35.3033 142.812 34.6848 144.106C34.0663 145.401 33.7842 146.83 33.8646 148.262C33.945 149.694 34.3853 151.083 35.1448 152.3" stroke="#0053C7" stroke-width="4" stroke-linecap="round" stroke-linejoin="round"/>
<path d="M193.883 94.097C191.876 99.642 190.758 105.469 190.572 111.362C193.094 111.854 195.652 112.127 198.221 112.18" stroke="#0053C7" stroke-width="4" stroke-linecap="round" stroke-linejoin="round"/>
</g>
<defs>
<clipPath id="clip0">
<rect width="350" height="420" fill="white" transform="matrix(-1 0 0 1 350 82)"/>
</clipPath>
</defs>
</svg>
