<?xml version="1.0" encoding="utf-8"?>

<!DOCTYPE svg PUBLIC "-//W3C//DTD SVG 1.1//EN" "http://www.w3.org/Graphics/SVG/1.1/DTD/svg11.dtd">
<svg version="1.1" id="Layer_1" xmlns="http://www.w3.org/2000/svg" xmlns:xlink="http://www.w3.org/1999/xlink" x="0px" y="0px"
	 width="100px" height="100px" viewBox="0 0 100 100" enable-background="new 0 0 100 100" xml:space="preserve">
<g>
	<path d="M24.253,68h21.984l22.577,16.552C69.165,84.81,69.581,84.91,70,84.91c0.309,0,0.617-0.086,0.902-0.229
		C71.576,84.34,72,83.635,72,82.881V68h4.425C81.884,68,86,63.75,86,58.271V27.756C86,22.218,81.794,18,76.425,18H24.253
		C18.695,18,14,22.403,14,27.756v30.516C14,63.57,18.6,68,24.253,68z M18,27.756C18,24.626,20.922,22,24.253,22h52.172
		C79.604,22,82,24.407,82,27.756v30.516C82,61.521,79.655,64,76.425,64H70c-1.104,0-2,0.776-2,1.881v13.045L48.079,64.329
		C47.735,64.077,47.32,64,46.894,64H24.253C20.805,64,18,61.364,18,58.271V27.756z"/>
</g>
</svg>
