<svg xmlns="http://www.w3.org/2000/svg" viewBox="0 0 800 1000"><title>jake-trumpet</title><g id="jake"><g id="trumpet"><g id="body"><path d="M463.64,650.59c-.91-16.47-5.43-32.2-8.93-39.81-13.51-29.4-32.34-68.17-50.6-105.3,11.05-8.69,18-21.52,22.17-34.81,5.4-17.23,7.32-35.78,8.18-53.74a344.61,344.61,0,0,0-2.15-56.27,514.07,514.07,0,0,0-9.62-55c-2-8.79-4.13-17.55-6.5-26.24a78.12,78.12,0,0,0-5.7-15.57h0c-2.56-7.16-5.91-14.25-12.65-18.19-6.42-3.75-13-4.06-18.21-.42-4.14-3.77-11.19-4.18-16.46-2.56-5.58,1.71-6.93,4.14-9.27,9.3-5-1-11.16,2.81-13.72,7.5-3.64,6.67-4.06,15.66-1.64,22.67,0,.69.05,1.39.12,2.09a3.24,3.24,0,0,0,1.92,2.74c2.35,4.67,5.18,7.13,10.65,5.84,7.18,30.24,15.36,66.87,17.31,82.14s3.12,35.75-2.74,36.06c-5.41.28-21.3-30.43-28.73-40.45-4.25-5.74-9.1-12-15-16.12-.29-1.45-.57-2.9-.86-4.36-1.14-5.79-2.19-11.62-3.06-17.47.07-.08.15-.15.21-.23,5.46-6.9,5.58-16.31,4.26-24.66-.59-3.7-2.39-7.58-4.24-11.48-.09-.3-.16-.6-.25-.89,7,.33,5.78-12,4.71-14.38-5.19-11.64-16.81-15.16-24.71-9.1-2.33-3.09-6.85-3-10.43-1.65s-5.69,3-7.3,5.47c-2.31-.44-5.6-1.95-7.93-1.35-5.12,1.33-10.81,5-13.36,15.36v0c-4,11.7-6.69,38.76-6.58,55.18a181.4,181.4,0,0,0-35.66,6.34c-8.81,2.52-25.41,7.05-34,12.49-7.58,3.39-16.38,8.17-23,11.85a36.94,36.94,0,0,0-18,22.5,45,45,0,0,0-2.59,22.38c2.26,18.26,8.1,32.39,16.94,48.32,1.11,2,2.48,4.18,4,6.5,8.16,21.31,20.46,53.18,28.57,76.69,5.83,16.9,20,53.78,24.67,70.35,4.28,15.08,3.35,49.67.49,72.17-2.33,18.24-14.17,91.47-16.38,110.05-2.07,17.49-9.05,77.2-9.49,84.95s1.61,14.18,7.68,14.18h99.1c8,0,3.91-9.3,1.1-12-5.27-5-10.75-11.92-16.05-16.88,2.11-13.39,3.49-26.92,5.74-40.27,3.58-21.29,21.44-127.88,24.12-149,2.44-19.18,5.13-56-7.25-92.37-4-11.81-8.43-23.47-13.08-35a61.48,61.48,0,0,0,16.21-9.38,71.62,71.62,0,0,0,9.9-9.69c5.45,11.44,10.64,22.36,14.49,30.49a486.13,486.13,0,0,1,20.35,49c7.33,21.22,8.56,31.16,7.78,50.45-.34,8.34-3.62,27.64-4.84,35.91-3.12,21.1-12.47,65.88-16.33,86.85-3.94,21.48-15.84,93.2-16.25,100.55s1.28,11.34,6.41,11.34H436.45c4.72,0,5.67-5.67,2.38-9.88s-10.49-14.42-18.55-21.22c.59-3.51,18-77,25.4-110.57,4.16-18.86,8.37-37.48,12.36-56.42C461.77,687.87,464.56,667.06,463.64,650.59Z" style="fill:#1e78f0"/><path d="M180.81,318.73a66.9,66.9,0,0,0,13.84-.59,25.25,25.25,0,0,0,6.75,10.13,17.85,17.85,0,0,0,17,3.16c14.48-4.57,18.15-20.79,16.74-34.2-.16-1.59-.34-3.26-.54-5l8.81-2c1.59-.36,2.45-1.6,1.74-2.75a89.24,89.24,0,0,0-19.27-22.09,20.79,20.79,0,0,0-8.15-6.16c-8.53-3.59-21.32.36-25.47,5.09s-5.13,13.62-4.6,20.49c.08,1.07.18,2.13.29,3.19-5.28.92-10.41,2.51-14.52,6.18-4.37,3.9-6.68,9.73-5.06,15.49C170,315.65,174.94,318.32,180.81,318.73Z" style="fill:#1e78f0"/></g><g id="object-lines"><path d="M537.78,146.75a32,32,0,0,0,5.55-6.67" style="fill:none;stroke:#dc8c2d;stroke-linecap:round;stroke-linejoin:round;stroke-width:6px"/><path d="M548,176.93c4.32-3.3,14.54-7.23,14.54-7.23" style="fill:none;stroke:#dc8c2d;stroke-linecap:round;stroke-linejoin:round;stroke-width:6px"/><path d="M561.56,223.44l19.55.81" style="fill:none;stroke:#dc8c2d;stroke-linecap:round;stroke-linejoin:round;stroke-width:6px"/><path d="M563.67,258.72,575,261.64" style="fill:none;stroke:#dc8c2d;stroke-linecap:round;stroke-linejoin:round;stroke-width:6px"/></g><g id="object"><path d="M314,284.85a87.35,87.35,0,0,1,4.7,12.75l15.68-3,11.11-2.09c-3-1.34-4.8-4.77-6.64-9.45a26.16,26.16,0,0,1-1.33-4.69l-6,1.13c-6.06,1.14-12.17,2.3-18.29,3.44C313.53,283.61,313.78,284.23,314,284.85Z" style="fill:#f0b441"/><path d="M533,205.49c-4.74-18.21-13.71-33.26-25.26-42.37a2.74,2.74,0,0,0-2.12-.56,2.77,2.77,0,0,0-1.85,1.17c-11.95,17.59-26,35-39.51,51.84-7.49,9.3-32.83,37.08-37.16,42.23-2,2.39-3.92,4.78-5.74,7.14a66.83,66.83,0,0,0-7.77.39c-7.37.79-18,2.49-30.94,4.76a9.65,9.65,0,0,1,1.6,4.72c.21,3.5-2.81,9.11-4.11,11.34,12-2.14,22.36-3.88,30.06-4.92-9.94,16.32-15,30.67-16.32,39.72-2.39,16.34,3.24,34.54,14.69,47.51,9.7,11,22.15,16.85,35.07,16.56,14.47-.32,28.73-8.12,38.13-20.86a56.06,56.06,0,0,0,8.65-48.94,67.68,67.68,0,0,0-30.86-39.53,76.42,76.42,0,0,0-20.39-8.42c12.67-13.27,38-16.82,48.46-15.31,14.6,2.11,28.27,6.62,40.86,11.2a2.82,2.82,0,0,0,2.14-.11,2.76,2.76,0,0,0,1.41-1.61C538.1,243,538.38,226.23,533,205.49ZM475.61,319.42A40.77,40.77,0,0,1,469.39,355c-6.6,8.94-16.37,14.41-26.12,14.63-8.31.18-16.55-3.86-23.2-11.38-8.54-9.67-12.76-23.11-11-35.09,1.23-8.39,7.54-24.58,19.73-42.32C448.86,283.69,469.25,297,475.61,319.42Z" style="fill:#f0b441"/><path d="M254,309.26l1.13-.19a141.06,141.06,0,0,1,3-16.1l-6.69,1.13A7.68,7.68,0,0,0,254,309.26Z" style="fill:#f0b441"/></g><g id="body-lines"><line x1="503.22" y1="905.1" x2="145.51" y2="905.1" style="fill:none;stroke:#3741f0;stroke-linecap:round;stroke-linejoin:round;stroke-width:6px"/><path d="M287.79,560.18c-21.74,3-45.93,3.93-63.4-9.35a90.42,90.42,0,0,1-11.58-11.16c-10.22-11.09-46-52.89-46-52.89" style="fill:none;stroke:#3741f0;stroke-linecap:round;stroke-linejoin:round;stroke-width:6px"/><path d="M252.55,346.87c3.82,30.11,8.13,60.6,8.95,90.14.37,13.56.73,31.08-5.95,33.38s-19.69-6.6-23.89-14l-23.51-41.52" style="fill:none;stroke:#3741f0;stroke-linecap:round;stroke-linejoin:round;stroke-width:6px"/><path d="M352.86,298c-2.24-11,9.85-28.59,16.43-31s13.17-1.12,14.82,4.51-5.28,15.1-8.61,17.45c4-1.28,11.18-.85,14.83,1.28,1.82,1.06,3.61,3.42,4.83,6" style="fill:none;stroke:#3741f0;stroke-linecap:round;stroke-linejoin:round;stroke-width:6px"/><path d="M355.44,406.87C371.44,434,391.22,473,404.69,502" style="fill:none;stroke:#3741f0;stroke-linecap:round;stroke-linejoin:round;stroke-width:6px"/><path d="M379.43,245.6c-5.77,1.51-9.6,11.88-8.71,20.94" style="fill:none;stroke:#3741f0;stroke-linecap:round;stroke-linejoin:round;stroke-width:6px"/><path d="M392.7,256.57a15.17,15.17,0,0,1-.62,4.47,31.47,31.47,0,0,1-2.39,6.68,20,20,0,0,1-4.16,5.46" style="fill:none;stroke:#3741f0;stroke-linecap:round;stroke-linejoin:round;stroke-width:6px"/><path d="M352.86,254c-2.78,8.82-2.21,19.18,2.75,27" style="fill:none;stroke:#3741f0;stroke-linecap:round;stroke-linejoin:round;stroke-width:6px"/><path d="M296.65,272.13a11.79,11.79,0,0,0-1.84,4.2" style="fill:none;stroke:#3741f0;stroke-linecap:round;stroke-linejoin:round;stroke-width:6px"/><path d="M278.54,277.27a7.78,7.78,0,0,0-2.41,4.36" style="fill:none;stroke:#3741f0;stroke-linecap:round;stroke-linejoin:round;stroke-width:6px"/><path d="M324.42,357.58c8.92,34.51,16.95,83.82,17,111s-8.24,55.84-22.37,69" style="fill:none;stroke:#3741f0;stroke-linecap:round;stroke-linejoin:round;stroke-width:6px"/></g></g></g></svg>