<?xml version="1.0" encoding="UTF-8" standalone="no"?>
<svg
   xmlns:dc="http://purl.org/dc/elements/1.1/"
   xmlns:cc="http://creativecommons.org/ns#"
   xmlns:rdf="http://www.w3.org/1999/02/22-rdf-syntax-ns#"
   xmlns:svg="http://www.w3.org/2000/svg"
   xmlns="http://www.w3.org/2000/svg"
   xmlns:sodipodi="http://sodipodi.sourceforge.net/DTD/sodipodi-0.dtd"
   xmlns:inkscape="http://www.inkscape.org/namespaces/inkscape"
   width="32"
   height="32"
   viewBox="0 0 32 32"
   version="1.1"
   id="svg20"
   sodipodi:docname="logo.svg"
   style="fill:none"
   inkscape:version="0.92.5 (2060ec1f9f, 2020-04-08)">
  <metadata
     id="metadata26">
    <rdf:RDF>
      <cc:Work
         rdf:about="">
        <dc:format>image/svg+xml</dc:format>
        <dc:type
           rdf:resource="http://purl.org/dc/dcmitype/StillImage" />
        <dc:title></dc:title>
      </cc:Work>
    </rdf:RDF>
  </metadata>
  <defs
     id="defs24" />
  <sodipodi:namedview
     pagecolor="#ffffff"
     bordercolor="#666666"
     borderopacity="1"
     objecttolerance="10"
     gridtolerance="10"
     guidetolerance="10"
     inkscape:pageopacity="0"
     inkscape:pageshadow="2"
     inkscape:window-width="3072"
     inkscape:window-height="1600"
     id="namedview22"
     showgrid="false"
     inkscape:zoom="5.0357143"
     inkscape:cx="70"
     inkscape:cy="16"
     inkscape:window-x="0"
     inkscape:window-y="54"
     inkscape:window-maximized="1"
     inkscape:current-layer="svg20" />
  <path
     d="M 17.875,32 C 25.6487,32 32,25.648 32,17.875 32,10.1209 25.6636,3.8125 17.875,3.8125 c -0.5177,0 -0.9375,0.41975 -0.9375,0.9375 V 16.9375 H 4.75 c -0.51775,0 -0.9375,0.4198 -0.9375,0.9375 0,7.7886 6.3084,14.125 14.0625,14.125 z"
     id="path2"
     inkscape:connector-curvature="0"
     style="fill:#147efb" />
  <path
     d="M 0.9375,0 H 14.125 c 0.5178,0 0.9375,0.41975 0.9375,0.9375 V 14.125 c 0,0.5178 -0.4197,0.9375 -0.9375,0.9375 C 6.35131,15.0625 0,8.7105 0,0.9375 0,0.41975 0.41975,0 0.9375,0 Z"
     id="path4"
     inkscape:connector-curvature="0"
     style="fill:#fc3158" />
</svg>
