<svg width="350" height="441" viewBox="0 0 350 441" fill="none" xmlns="http://www.w3.org/2000/svg">
<path d="M135.939 229.059C142.016 222.567 150.289 213.326 156.143 207.359C159.607 203.827 165.152 198.088 169.099 193.995C170.446 192.6 171.287 190.795 171.49 188.867C171.692 186.94 171.243 185 170.215 183.356C167.645 179.245 164.32 174.013 162.503 171.469C133.791 131.239 104.15 91.6719 74.0076 52.5028C72.3119 50.3026 69.367 49.4286 66.8989 51.032C37.0645 70.4357 16.5714 100.997 5.72136 134.518C0.163605 151.697 -0.711396 168.582 0.477397 186.599C1.20757 197.401 2.41446 209.619 5.64291 220.017C8.61791 229.608 12.4257 238.511 18.1886 246.685C31.917 266.155 45.2533 283.756 63.1033 299.471C64.1242 300.356 65.449 300.812 66.7994 300.743C68.1497 300.673 69.4205 300.083 70.3446 299.097L114.342 252.128L135.939 229.059Z" fill="#E7F6FF"/>
<path d="M154.556 129.027C160.385 138.719 166.018 148.527 171.453 158.449C172.605 160.54 175.641 163.596 178.38 163.205C181.12 162.813 183.262 160.414 182.997 156.291C179.745 106.353 180.189 56.2438 184.324 6.37145C184.578 3.35751 181.754 1.57929 179.195 1.24776C146.979 -2.74797 114.427 5.37887 87.8811 24.0452C84.9846 26.1007 84.6527 29.3738 86.8432 32.0924C111.613 62.8143 134.237 95.2022 154.556 129.027Z" fill="#E7F6FF"/>
<path d="M345.383 139.581C339.385 118.11 327.726 99.1947 312.797 82.835C298.314 66.9998 280.21 54.4437 260.556 45.4321C257.255 43.9191 246.677 38.928 235.416 35.3716C224.156 31.8151 215.985 30.3142 213.372 30.3142C210.76 30.3142 206.572 30.2057 206.427 35.3896C205.129 79.9959 204.779 157.153 203.977 167.774C203.174 178.395 201.183 184.465 196.494 191.011C169.23 229.101 137.905 267.818 103.05 299.133C101.053 300.942 98.8259 303.274 96.9854 305.288C95.951 306.426 95.3998 307.921 95.4483 309.457C95.4967 310.993 96.1409 312.451 97.2449 313.522C100.449 316.638 104.836 320.719 107.503 322.413C117.125 328.442 127.464 333.245 138.279 336.711C159.835 343.752 182.844 346 205.431 345.873C217.675 345.795 229.569 342.805 241.378 339.369C252.989 335.994 263.706 330.098 273.663 323.395C292.841 310.484 310.226 292.81 323.146 273.364C335.722 254.43 342.154 234.87 346.035 212.784C348.231 200.288 349.655 188.709 349.848 176.014C350.076 163.721 348.573 151.457 345.383 139.581Z" fill="#E7F6FF"/>
<path d="M71.2974 286.071C70.8666 286.034 70.4326 286.074 70.0158 286.19C66.7049 287.066 63.2824 287.443 59.8607 287.309C59.2437 287.284 58.6285 287.226 58.018 287.133C56.0879 283.332 55.6607 279.011 54.2452 275.406C53.0974 272.486 49.4533 272.621 48.2489 275.772C47.2195 278.464 47.4305 281.605 47.4254 284.436L47.2915 284.214C46.3908 282.729 46.0305 280.883 45.6908 279.201C45.032 275.973 44.3423 272.311 43.704 269.083C43.1893 266.354 39.0717 265.508 37.6871 267.819C35.6952 271.176 35.5614 275.973 35.5459 280.042C33.0084 275.349 33.9452 269.609 32.4217 264.57C31.5364 261.656 27.8305 262.156 26.0033 263.977C24.1761 265.797 23.5687 270.65 23.5893 274.637C23.6319 276.056 23.7573 277.472 23.9651 278.876C23.3629 278.438 22.7555 278.015 22.1327 277.618C19.6107 276.009 16.9084 278.49 17.3408 281.13C18.2673 286.803 22.6629 291.724 27.0739 295.571C27.5887 296.767 28.3747 297.827 29.3695 298.666C31.7114 302.735 34.079 304.854 37.157 306.18C41.3415 307.969 47.5232 309.475 53.8901 307.382C65.8827 303.503 72.8004 300.166 75.6621 288.562C76.2283 286.2 73.3202 285.318 71.2974 286.071Z" fill="#147EFB"/>
<path d="M122.789 434.765L122.815 434.801C122.817 434.779 122.817 434.756 122.815 434.734C122.81 434.746 122.801 434.757 122.789 434.765Z" fill="#147EFB"/>
<path d="M137.158 126.753C137.508 128.357 139.027 132.174 140.844 135.273C142.661 138.373 147.241 141.266 153.958 140.039C162.472 138.491 164.386 129.997 164.458 122.503C164.53 114.886 162.997 104.968 156.769 99.8108C149.872 94.0964 141.677 98.6607 138.728 106.056C137.812 108.416 137.171 110.873 136.819 113.38C135.058 113.38 133.216 113.225 131.522 113.922C129.935 114.636 128.657 115.898 127.923 117.479C127.188 119.06 127.046 120.852 127.523 122.529C128.774 126.81 133.056 127.207 137.158 126.753Z" fill="#147EFB"/>
<path d="M298.014 194.207C297.773 190.164 292.312 189.565 291.087 192.809C289.542 196.863 287.226 202.258 284.91 205.889C285.903 202.727 286.583 193.413 285.909 190.014C285.394 187.482 280.859 185.697 279.547 188.467C277.241 193.33 276.562 198.642 274.364 203.501C274.652 200.659 274.22 195.481 273.818 192.67C273.401 189.746 268.259 188.962 267.564 192.247C266.535 196.951 265.717 202.722 264.476 206.884C262.313 214.141 259.066 221.029 254.846 227.313C251.212 232.295 245.72 234.796 243.368 233.228C239.59 230.716 238.221 226.926 237.248 222.645C235.128 213.078 233.944 203.238 232.029 193.614C230.398 185.434 228.992 176.95 225.801 169.204C215.358 143.855 184.491 146.32 162.194 147.759C147.324 148.713 132.933 148.316 118.228 151.235C106.477 153.567 91.9211 156.207 84.7718 167.162C82.8318 169.756 81.0627 172.475 79.4755 175.3C79.3229 175.545 79.2018 175.808 79.1152 176.084C78.4336 178.346 78.3327 180.745 78.8218 183.057C76.7064 195.264 78.5645 208.601 79.2902 220.5C80.5873 241.655 81.8809 262.811 83.1711 283.967L83.6292 291.43C83.2586 299.212 82.8468 307 82.538 314.788C81.9924 328.542 83.8299 361.323 83.0527 374.97C82.6873 381.628 83.5108 407.822 82.9189 414.465C82.5174 418.983 81.9203 425.12 81.6887 429.633C79.6042 430.598 76.202 432.32 74.6372 434.141C72.8255 436.25 73.86 439.458 76.7733 439.675C91.2623 440.742 113.451 439.7 117.435 439.7C121.419 439.7 122.531 436.957 122.459 431.118C122.407 427.085 122.489 420.912 122.577 416.884C122.659 413.14 122.778 409.39 122.788 405.646C122.788 401.52 123.267 363.355 124.332 348.399C125.413 333.143 124.615 317.825 124.708 302.544C124.811 285.793 125.223 269.021 125.629 252.295C133.005 252.135 140.365 250.985 147.762 250.944C151.277 250.944 155.209 251.032 158.889 250.392C159.121 257.896 160.907 265.421 161.864 272.925C162.683 279.341 162.76 285.818 163.697 292.224C164.685 298.99 166.023 305.711 166.744 312.518C167.464 319.326 167.356 326.278 167.665 333.148C167.979 340.152 168.422 347.15 168.895 354.149C169.848 368.146 170.923 382.138 171.33 396.161C171.551 403.861 171.037 411.551 170.923 419.256C170.836 424.718 171.186 433.883 171.186 435.905C171.186 437.926 171.829 439.938 174.181 439.974C181.789 440.092 189.293 439.02 196.88 438.818C203.221 438.648 209.645 439.159 215.878 437.694C219.481 436.843 218.709 431.629 215.178 431.366C213.886 431.268 212.604 431.118 211.343 430.938V430.778C209.233 417.57 208.878 404.15 209.13 390.803C209.392 376.491 208.157 362.251 206.654 348.032C205.151 333.813 206.268 319.713 205.419 305.525C205.002 298.573 203.659 291.76 202.845 284.859C202.006 277.85 201.456 270.815 200.704 263.801C199.901 256.333 195.737 212.82 195.367 208.684C195.701 208.168 198.3 207.4 198.995 207.028L199.474 207.266C199.361 218.56 199.989 229.958 203.025 240.892C205.903 251.248 210.931 262.636 219.687 269.309C234.345 280.475 257.26 276.623 268.702 262.605C269.731 261.35 270.742 260.059 271.734 258.732C279.3 249.763 291.972 225.301 294.602 215.806C296.836 207.596 298.529 203.068 298.014 194.207Z" fill="#147EFB"/>
<path d="M346.572 185.553C342.043 180.566 335.964 180.555 329.659 180.359C321.166 180.091 311.552 180.561 303.059 181.025C293.902 181.54 259.252 184.315 250.101 184.929C233.306 186.058 205.558 189.38 195.568 190.318C185.727 191.242 176.009 192.123 166.178 193.072C156.347 194.021 129.819 196.951 126.469 197.554C128.6 193.377 129.104 188.384 125.439 185.073C121.234 181.277 114.116 182.428 108.891 185.656C106.735 180.643 104.326 175.744 100.79 171.52C96.1576 165.97 89.5694 162.185 82.9348 159.513C68.7752 153.84 54.8885 156.589 41.6297 163.232C18.4164 174.877 2.2495 198.204 0.628175 224.311C-0.668884 245.193 7.31935 268.355 24.3046 281.125C23.9329 278.992 23.7008 276.837 23.6098 274.673C23.6098 270.686 24.1966 265.839 26.0238 264.013C27.851 262.187 31.5569 261.692 32.4421 264.606C33.9863 269.624 33.0289 275.364 35.5664 280.078C35.5664 276.009 35.7157 271.213 37.7076 267.855C39.0767 265.545 43.1841 266.39 43.7245 269.119C44.3627 272.347 45.0524 276.009 45.7113 279.237C46.051 280.919 46.4113 282.765 47.312 284.251L47.4458 284.472C47.4458 281.641 47.2451 278.5 48.2694 275.808C49.4738 272.657 53.1179 272.523 54.2657 275.442C56.2267 280.439 56.2782 286.829 61.0958 291.275C65.8131 291.043 70.5038 290.427 75.1216 289.434C87.1091 286.855 99.673 282.44 106.174 271.347C111.614 262.063 114.754 248.479 116.283 237.596C120.467 239.598 127.2 238.783 130.833 235.018C133.407 232.346 133.011 228.096 129.922 223.883C132.82 223.496 138.399 223.14 141.297 222.748C159.456 220.283 177.641 217.73 195.975 217.142C204.997 216.848 213.763 215.992 222.703 214.837C231.644 213.682 240.744 213.326 249.818 213.042C254.095 212.908 258.367 212.635 262.634 212.299C263.303 210.541 263.921 208.746 264.487 206.869C265.753 202.707 266.597 196.935 267.575 192.232C268.27 188.947 273.412 189.73 273.829 192.655C274.23 195.476 274.663 200.654 274.375 203.485C276.572 198.627 277.252 193.315 279.558 188.451C280.87 185.682 285.42 187.466 285.919 189.999C286.594 193.397 285.919 202.712 284.921 205.873C287.227 202.263 289.553 196.848 291.097 192.794C292.322 189.56 297.788 190.148 298.025 194.192C298.54 203.052 296.841 207.601 294.572 215.786C293.87 218.142 293.026 220.453 292.044 222.707C292.194 224.347 292.302 225.972 292.322 227.524C292.405 233.63 292.652 243.311 294.783 249.113C296.841 254.688 301.844 253.796 305.247 249.82C305.761 253.193 306.569 256.493 308.103 259.32C310.908 264.477 316.853 264.002 319.427 258.871C321.558 254.59 321.964 249.309 322.072 244.322C328.573 247.793 329.865 236.183 330.194 231.114C330.601 224.925 330.061 222.207 329.335 216.08C328.954 213.038 328.728 209.979 328.655 206.915C334.755 206.698 341.904 206.219 346.531 201.758C350.649 197.781 350.335 189.694 346.572 185.553ZM56.1289 232.197C55.2683 233.623 54.2152 234.922 52.9995 236.06C46.0407 242.527 32.2002 244.311 26.0649 235.683C23.1311 231.557 22.8944 226.4 23.8414 221.325C24.7885 216.25 27.4444 213.46 30.4091 210.525C33.7701 208.292 37.3936 206.471 41.7326 207.044C49.9267 208.117 56.1032 214.899 57.0091 222.955C57.3467 226.063 57.0472 229.208 56.1289 232.197Z" fill="#FECB2E"/>
<path d="M97.8876 240.5C94.0582 239.267 90.0537 236.89 86.6104 234.708C83.8309 232.934 77.8604 229.685 76.6971 225.657C75.5339 221.629 88.7515 224.78 94.0221 225.461C90.3214 223.651 85.4111 222.97 83.4552 219.447C81.4993 215.925 88.206 214.357 91.4692 213.382C89.5545 212.557 86.8677 211.577 85.6684 209.803C87.0787 207.833 88.6383 207.57 87.8354 204.909C86.5898 200.783 84.5207 198.122 80.0221 193.614C82.9817 194.671 86.6361 194.888 89.5493 193.614" stroke="#FD9426" stroke-width="4" stroke-linecap="round" stroke-linejoin="round"/>
<path d="M137.066 219.638C147.566 218.493 171.263 214.821 181.794 214.037C204.874 212.315 227.933 210.845 250.925 208.112" stroke="#FD9426" stroke-width="4" stroke-linecap="round" stroke-linejoin="round"/>
<path d="M15.2207 198.178C19.817 187.863 27.5119 179.256 36.9773 173.036" stroke="#FD9426" stroke-width="4" stroke-linecap="round" stroke-linejoin="round"/>
<path d="M65.5332 283.905C72.5075 283.838 82.7398 281.254 88.381 276.989C91.1964 274.854 94.3361 272.022 96.3795 269.253C97.7744 267.36 98.6803 264.544 100.224 262.961" stroke="#FD9426" stroke-width="4" stroke-linecap="round" stroke-linejoin="round"/>
<path d="M344.447 196.203C343.371 198.534 342.208 199.535 339.552 200.515C337.071 201.433 333.586 202.505 330.879 202.284" stroke="#FD9426" stroke-width="4" stroke-linecap="round" stroke-linejoin="round"/>
<path d="M37.8574 438.978H262.83" stroke="#0053C7" stroke-width="4" stroke-linecap="round" stroke-linejoin="round"/>
<path d="M154.846 109.852C156.317 114.458 157.051 119.267 157.023 124.102C154.945 124.43 152.842 124.575 150.738 124.536" stroke="#0053C7" stroke-width="4" stroke-linecap="round" stroke-linejoin="round"/>
</svg>
