<svg xmlns="http://www.w3.org/2000/svg" viewBox="0 0 800 1000"><title>jake-reading</title><g id="jake"><g id="reading"><g id="body"><path d="M416.1,325.43c4.4-5.86,5.89-13.35,6.24-20.54a115.54,115.54,0,0,0-1.15-21.83c-1-6.87-3.29-14-8.86-18.59-10.21-8.31-25.7-6-33.22,4.5-6.79,9.45-8.26,22.93-6.28,34.55a40.43,40.43,0,0,0,.08,8c.25,11.85,13.21,22.6,24.49,23.21C404.6,335.13,411.84,331.09,416.1,325.43Z" style="fill:#1e78f0"/><path d="M620.4,475c-9.44-31.39-21.72-62.92-43.84-87.68-1.73-1.93-4.64-.71-5.4,1.43a30.9,30.9,0,0,0-1.54,10.35l-.22-.13c-.61-.85-1.22-1.7-1.86-2.54A85,85,0,0,0,548,377.38c-2.64-1.81-6.06-4.07-9.43-3.74s-5.14,3.33-4.81,6.51c.64,6.1,6.32,11.36,10,15.9,3.13,3.88,12,15.85,12.19,16.13-.79,1.2-1.56,2.42-2.32,3.64-3.08-3.41-8.12-10.77-10.45-13.5-14.17-16.65-19.56-19.9-24-15.56s2.92,15.16,7.78,21.05a171.05,171.05,0,0,1,15.21,22c-.22.37-2.2,2-2.42,2.35-2.88-3.57-5.51-7.47-8.86-10.6-2.62-2.45-6.67-6.24-10.54-6.35-3.2-.08-4.77,2.65-4.59,5.54.42,6.86,5.35,13.75,8.74,19.65,6,10.38,12.48,26.21,15,31.09s6.51,15.63,8.25,20.32c1.08,2.89,2.06,5.82,3,8.77-1.09,0-2.18.05-3.26.15-6.08.54-12.06,1.7-18.12,2.34-2.28-9.71-8.07-19.42-13-26.06a96.21,96.21,0,0,0-38.51-30.3c-36.34-15.9-78.64-10.39-115,2.73-31.06,11.23-60.61,29.84-79.4,57.23a64.06,64.06,0,0,0-10.28-1.6c-7-.53-13.79-2-20.74-2.58-1.06-.09-2.13-.13-3.2-.14a146.54,146.54,0,0,1,10-23.62c4.26-7.81,10-17.95,15.56-28.56,3.17-6,12.73-23.93,13.61-30.74.38-2.87-1-5.71-4.21-5.84-3.86-.15-6.63,2.22-9.05,4.87-3.1,3.38-9.42,10.41-12.31,14-.22-.37-1.79-1.67-2-2,.35-.55,5.7-9,8.86-13.7s6.61-11,9.59-15.81,4.67-10.85.53-13.68-8.16.49-12.2,4.28-7.43,8.45-10.8,12.64c-2.26,2.8-5.39,7.77-8.7,10.95-.67-1.27-3.42-2.42-4.13-3.67.19-.26,9.14-11,12.27-14.87,3.66-4.54,9.32-8.47,10-14.58.33-3.17-1.44-6.18-4.81-6.51s-6.79,1.94-9.43,3.74c-7.56,5.17-13.79,12-19.53,19.09-.69.84-1.39,1.67-2.08,2.5a30.52,30.52,0,0,0-1.54-10.19c-.76-2.14-3.67-3.36-5.4-1.42-22.12,24.76-34.4,56.28-43.84,87.67-8.95,29.79-18.15,60.39-13,91.73a125.16,125.16,0,0,0,9.79,32.69c4.36,9.34,10.69,18.82,20,23.8,10.7,5.72,25.31,4.4,36.59,1.15,11.9-3.42,22.06-10.67,30.54-19.55A172.23,172.23,0,0,0,278,588.92c5.59-7.67,11.36-15.28,16-23.58,4-7,6.8-14.79,9.52-22.38a107.85,107.85,0,0,0,3.46-11.15c.79.33,1.57.64,2.36,1,.09,2.31.68,4.76.86,6.83.75,8.43.92,16.9.92,25.35,0,16.13-.31,32.22.17,48.34,1,34.21,2.83,68.17,2.56,102.37-.13,16.5,1.17,81.75,1.95,98.24.78,16.31.95,84.31.95,84.31s-8.12,6.64-9.69,8.11c-6.93,6.47-7.21,11.49.22,14.64,9.54.08,81.53,0,81.53,0a13.15,13.15,0,0,0,6.83-4.74c2.56-3.65.92-14.71.92-34.39s-1.34-90.66-1.42-107.31-.3-33.42-.92-50.17c-1.26-33.85,1.35-68.45-.64-102.26-1-16.62-1.71-33.26-2.06-49.91q-.27-12.48-.22-25c0-.22,0-.45,0-.67q8.3-.4,16.57-1.55c4.64-.64,9.25-1.47,13.84-2.38a101,101,0,0,1,.46,17.56c-.7,17-.67,33.83.14,50.85,1.63,34,3.92,67.56,4.6,101.53.7,34.67,2.18,141.6,2.42,160.57.11,8.81,0,17.45-.36,26.24-.25,6.28-.72,16,1.09,19.79s9,3.61,9,3.61H511.6c10.85,0,16.57-4.19,10.36-10.14-4.47-4.29-16-10.82-16-10.82s-.25-16.59-.25-23.77c0-17.57-1.42-100-1.61-134.62s-3-90.57-4.61-125.09c-.81-17.47-2.21-34.89-3.33-52.34-.53-8.23-1-16.47-1.32-24.72-.05-1.28,0-2.86.11-4.6.5,1.53,1,3.05,1.56,4.54,2.72,7.59,5.57,15.34,9.52,22.38,4.65,8.29,10.42,15.91,16,23.58a173.32,173.32,0,0,0,14.39,17.69c8.48,8.87,18.64,16.12,30.54,19.55,11.28,3.25,25.89,4.56,36.59-1.15,9.33-5,15.66-14.47,20-23.81a125.21,125.21,0,0,0,9.79-32.68C638.55,535.41,629.35,504.82,620.4,475Z" style="fill:#1e78f0"/></g><g id="body-lines"><path d="M553.75,513.49c11.42,27.27,13.8,50.55,8.58,50.55" style="fill:none;stroke:#3741f0;stroke-linecap:round;stroke-linejoin:round;stroke-width:6px"/><path d="M573.29,402.63c4.83,6,10.47,11.63,13.18,18.95" style="fill:none;stroke:#3741f0;stroke-linecap:round;stroke-linejoin:round;stroke-width:6px"/><path d="M243.57,524.23c-10.23,30.93-11.65,46.13-6.2,48" style="fill:none;stroke:#3741f0;stroke-linecap:round;stroke-linejoin:round;stroke-width:6px"/><path d="M226.71,404.39c-4.83,6-10.47,11.63-13.18,18.95" style="fill:none;stroke:#3741f0;stroke-linecap:round;stroke-linejoin:round;stroke-width:6px"/><line x1="220.27" y1="922.23" x2="605.99" y2="922.23" style="fill:none;stroke:#3741f0;stroke-linecap:round;stroke-linejoin:round;stroke-width:6px"/></g><path id="object" d="M547.79,491.78c-1.74-4.69-5.71-15.44-8.25-20.32s-9-20.71-15-31.09c-3.39-5.9-8.32-12.79-8.74-19.65-.18-2.89,1.39-5.62,4.59-5.54,3.87.11,7.92,3.9,10.54,6.35,3.35,3.13,6,7,8.86,10.6.22-.38,2.2-2,2.42-2.35a171.05,171.05,0,0,0-15.21-22c-4.86-5.89-12.18-16.71-7.78-21.05s9.8-1.09,24,15.56c2.33,2.73,7.37,10.09,10.45,13.5.76-1.22,1.53-2.44,2.32-3.64-.16-.28-9.06-12.25-12.19-16.13-3.66-4.54-9.34-9.8-10-15.9-.33-3.18,1.44-6.18,4.81-6.51s6.79,1.93,9.43,3.74a85,85,0,0,1,19.53,19.08c.64.84,1.25,1.69,1.86,2.54a13.44,13.44,0,0,1,1.44.87c-.06-27.64-.39-56.7-1.29-79.16-.66-16.63-1.4-33.26-1.4-49.91a4.62,4.62,0,0,0-4.91-4.75c-11.58,1.19-23,3.17-34.52,4.94a245.57,245.57,0,0,0-34.31,8.28c-11.45,3.5-22.8,7.33-34.29,10.71-8.54,2.52-22.44,8.17-35.33,14.13-19.69,1.86-57.19,1.3-57.19,1.3-12.14-6.31-35.21-13.72-41.62-15.66-12.84-3.88-36.5-9.57-48.31-11.81s-34.46-8-46.39-9.65c-6.14-.84-6.14,7.13-6.14,16.61,0,6.1,3.81,60.47,4.8,116.35.84-1,1.68-2,2.52-3,5.74-7.06,12-13.92,19.53-19.09,2.64-1.8,6.06-4.07,9.43-3.74s5.14,3.34,4.81,6.51c-.64,6.11-6.3,10-10,14.58-3.13,3.88-12.08,14.61-12.27,14.87.71,1.25,3.46,2.4,4.13,3.67,3.31-3.18,6.44-8.15,8.7-10.95,3.37-4.19,6.76-8.85,10.8-12.64s8.07-7.12,12.2-4.28,2.46,8.82-.53,13.68-6.47,11.14-9.59,15.81-8.51,13.15-8.86,13.7c.22.38,1.79,1.68,2,2,2.89-3.56,9.21-10.59,12.31-14,2.42-2.65,5.19-5,9.05-4.87,3.21.13,4.59,3,4.21,5.84-.88,6.81-10.44,24.72-13.61,30.74-5.56,10.61-11.3,20.75-15.56,28.56-6,11.07-11.13,25.38-15.25,41.82l-.9,3.56.46.15c4.29,1.42,8.49,3.15,12.84,4.39,12.26,3.48,24.8,6.08,37.22,8.9s18.83,4.08,31.19,7.53c9.18,2.57,18.14,5.75,27.48,7.67,4.45.91,21.55,7,21.77,7.24a3.14,3.14,0,0,0,3,4.08c21.43-.07,39,.09,60.42-1,2.58-.13,1.55-4,1.55-4s11.16-6.21,14.74-7.93c4.5-2.15,9.18-3.92,13.73-6,12.83-5.82,25.89-11.15,38.79-16.82,15.35-6.73,32.37-10.28,47.5-17.57C552,504.4,550.11,498,547.79,491.78Z" style="fill:#f0b441"/><g id="object-lines"><path d="M414,304.06s12.78-9.11,22.8-12.92c13.66-5.2,28-11.08,41.9-15.54,20.44-6.55,40.06-13.69,61.51-12.57l0,4.72" style="fill:none;stroke:#dc8c2d;stroke-linecap:round;stroke-linejoin:round;stroke-width:6px"/><path d="M250.58,271l-.07-5.2c48.4,4.14,87.6,17.61,127.39,37.41" style="fill:none;stroke:#dc8c2d;stroke-linecap:round;stroke-linejoin:round;stroke-width:6px"/><path d="M243,269.25l0-10.81c9.25.38,40.42,5,53.87,7.38C319,269.8,338,276,364,286.19a169.11,169.11,0,0,1,34,17.87c22.75-16,51.24-27.15,76.29-35,21.23-6.65,50.15-14,75.11-10.62l.33,7.59" style="fill:none;stroke:#dc8c2d;stroke-linecap:round;stroke-linejoin:round;stroke-width:6px"/><path d="M429.8,307.06s3.25,35.26,3.3,49.36c.1,23.1,2.8,46.11,2.41,69.26-.42,25.07,1.23,50.25,2.74,75.27.79,13.08,1.44,41.09,1.44,54.21" style="fill:none;stroke:#dc8c2d;stroke-linecap:round;stroke-linejoin:round;stroke-width:6px"/><path d="M364.83,307.88s.92,21.49,1.37,29.58c.85,15.33,1.34,30.85,1.83,46.2.91,28.19.48,56.22,2.48,84.32s1.54,60.9,1.62,88.95" style="fill:none;stroke:#dc8c2d;stroke-linecap:round;stroke-linejoin:round;stroke-width:6px"/></g></g></g></svg>