<svg width="730" height="121" viewBox="0 0 730 121" fill="none" xmlns="http://www.w3.org/2000/svg">
<g clip-path="url(#clip0_1608_68)">
<path d="M48.3111 28.6979C40.3225 28.8543 41.9864 33.8988 36.3564 35.1745C30.6372 36.4706 29.7343 21.2412 24.0164 21.2412C18.2979 21.2412 17.0311 36.0349 9.87073 46.1908L9.66644 46.4783L25.0182 55.318L48.3111 41.9048V28.6979Z" fill="#36A2EB"/>
<path d="M48.3111 28.2388C45.6368 24.8153 43.8229 20.8794 39.9204 20.8794C33.0143 20.8794 34.8314 32.1173 27.1989 32.1173C19.5657 32.1173 18.7632 20.0294 10.1161 31.3924C7.36076 35.0129 5.1429 39.05 3.40076 42.87L25.0182 55.3185L48.3111 41.9053V28.2388Z" fill="#FFCE56"/>
<path opacity="0.8" d="M1.72467 32.894C4.34538 25.6547 5.47646 19.7915 10.4796 19.7915C18.1121 19.7915 19.9289 41.1804 26.4721 39.0044C33.0143 36.8295 32.2871 25.2286 42.4646 25.2286C44.4018 25.2286 46.3796 26.4124 48.3114 28.3273V41.905L25.0186 55.3182L1.72503 41.905L1.72467 32.894Z" fill="#FE6184"/>
<path d="M25 57L0.252869 42.7504V14.25L25 0L49.7472 14.25V42.75L25 57ZM3.16037 41.076L25 53.652L46.8396 41.076V15.9244L25 3.34839L3.16037 15.9244V41.076Z" fill="#E7E9ED"/>
<path d="M125.773 20.9476C125.572 20.9476 125.522 20.8424 125.622 20.6845L126.675 19.2634C126.776 19.1055 127.026 19.0002 127.227 19.0002H145.129C145.33 19.0002 145.38 19.1581 145.279 19.316L144.427 20.6845C144.327 20.8424 144.076 21.0002 143.926 21.0002L125.773 20.9476Z" fill="#00ACD7"/>
<path d="M118.201 26.0002C118 26.0002 117.95 25.8921 118.05 25.73L119.103 24.2705C119.204 24.1084 119.454 24.0002 119.655 24.0002H142.521C142.722 24.0002 142.822 24.1624 142.772 24.3246L142.371 25.6219C142.321 25.8381 142.12 25.9462 141.92 25.9462L118.201 26.0002Z" fill="#00ACD7"/>
<path d="M130.336 30.9476C130.135 30.9476 130.085 30.7897 130.185 30.6318L130.888 29.316C130.988 29.1581 131.188 29.0002 131.389 29.0002H141.418C141.619 29.0002 141.719 29.1581 141.719 29.3687L141.619 30.6318C141.619 30.8423 141.418 31.0002 141.268 31.0002L130.336 30.9476Z" fill="#00ACD7"/>
<path d="M182.388 20.3235C179.228 21.0954 177.072 21.6742 173.963 22.4461C173.211 22.639 173.161 22.6873 172.509 21.9637C171.757 21.1436 171.205 20.613 170.152 20.1306C166.993 18.6351 163.934 19.0693 161.075 20.8542C157.665 22.9767 155.91 26.1123 155.961 30.0197C156.011 33.8789 158.769 37.0628 162.73 37.5934C166.14 38.0276 168.998 36.8698 171.255 34.4096C171.706 33.8789 172.108 33.3 172.609 32.6247C170.804 32.6247 168.547 32.6247 162.931 32.6247C161.878 32.6247 161.627 31.9976 161.978 31.1775C162.63 29.6821 163.833 27.1736 164.536 25.9193C164.686 25.6299 165.037 25.1475 165.789 25.1475C168.347 25.1475 177.774 25.1475 184.042 25.1475C183.942 26.45 183.942 27.7525 183.741 29.0549C183.19 32.5282 181.836 35.712 179.629 38.51C176.019 43.0927 171.305 45.9389 165.338 46.7107C160.424 47.3379 155.86 46.4213 151.849 43.5269C148.138 40.8255 146.032 37.2557 145.48 32.8176C144.828 27.5595 146.433 22.832 149.742 18.6834C153.303 14.197 158.017 11.3509 163.783 10.3379C168.497 9.51779 173.01 10.0484 177.072 12.7016C179.73 14.39 181.635 16.7055 182.889 19.5034C183.19 19.9376 182.989 20.1788 182.388 20.3235Z" fill="#00ACD7"/>
<path d="M198.986 47C194.423 46.9036 190.26 45.6493 186.75 42.7549C183.792 40.2947 181.936 37.1591 181.334 33.4446C180.432 27.9935 181.986 23.1695 185.396 18.8762C189.057 14.2452 193.47 11.8332 199.437 10.8201C204.552 9.95181 209.366 10.4342 213.729 13.2804C217.69 15.8853 220.147 19.4068 220.799 24.0379C221.652 30.5502 219.696 35.8566 215.033 40.3912C211.723 43.6232 207.661 45.6493 202.998 46.5659C201.644 46.8071 200.29 46.8553 198.986 47ZM210.921 27.5111C210.87 26.884 210.87 26.4016 210.77 25.9192C209.868 21.1435 205.304 18.442 200.54 19.5033C195.877 20.5163 192.868 23.3625 191.765 27.897C190.862 31.6598 192.768 35.4707 196.378 37.0144C199.136 38.1721 201.894 38.0274 204.552 36.7249C208.514 34.7471 210.67 31.6598 210.921 27.5111Z" fill="#00ACD7"/>
<path d="M344.716 41.3961C341.622 43.0145 325.591 49.6279 322.178 51.4131C318.765 53.1986 316.869 53.1813 314.173 51.8881C311.477 50.595 294.417 43.6809 291.344 42.207C289.808 41.4706 289 40.8488 289 40.2615V34.3806C289 34.3806 311.21 29.5295 314.795 28.2388C318.381 26.9481 319.625 26.9015 322.676 28.0229C325.728 29.1447 343.973 32.4474 346.988 33.5556L346.987 39.3534C346.987 39.9347 346.291 40.5725 344.716 41.3961Z" fill="#912626"/>
<path d="M344.715 35.5499C341.621 37.1676 325.59 43.7813 322.177 45.5663C318.764 47.352 316.869 47.3345 314.173 46.0413C311.476 44.749 294.417 37.8338 291.344 36.3608C288.271 34.887 288.207 33.8726 291.226 32.6867C294.244 31.5004 311.21 24.822 314.796 23.5313C318.381 22.2411 319.625 22.194 322.676 23.3158C325.727 24.4372 341.662 30.8011 344.678 31.909C347.694 33.0183 347.81 33.9317 344.715 35.5499Z" fill="#C6302B"/>
<path d="M344.716 31.8805C341.622 33.4992 325.591 40.1123 322.178 41.8982C318.765 43.683 316.869 43.6657 314.173 42.3726C311.476 41.0801 294.417 34.1653 291.344 32.6914C289.808 31.9551 289 31.3342 289 30.7467V24.8651C289 24.8651 311.21 20.0142 314.795 18.7235C318.381 17.4328 319.625 17.386 322.676 18.5076C325.728 19.6292 343.973 22.9312 346.988 24.0396L346.987 29.838C346.987 30.4192 346.291 31.0569 344.716 31.8805Z" fill="#912626"/>
<path d="M344.715 26.0342C341.621 27.6524 325.59 34.2656 322.177 36.0512C318.764 37.8362 316.869 37.8187 314.173 36.5256C311.476 35.2333 294.417 28.3183 291.344 26.8451C288.271 25.3717 288.207 24.3572 291.226 23.1708C294.244 21.9851 311.21 15.3062 314.796 14.0158C318.381 12.7253 319.625 12.6785 322.676 13.8001C325.727 14.9215 341.662 21.2849 344.678 22.3933C347.694 23.5024 347.81 24.416 344.715 26.0342Z" fill="#C6302B"/>
<path d="M344.716 22.0119C341.622 23.6301 325.591 30.2438 322.178 32.0297C318.765 33.8147 316.869 33.7972 314.173 32.504C311.476 31.2115 294.417 24.2965 291.344 22.8233C289.808 22.0863 289 21.4651 289 20.8783V14.9965C289 14.9965 311.21 10.1458 314.795 8.85532C318.381 7.56441 319.625 7.51805 322.676 8.63941C325.728 9.761 343.973 13.0631 346.988 14.1715L346.987 19.9697C346.987 20.5503 346.291 21.1881 344.716 22.0119Z" fill="#912626"/>
<path d="M344.715 16.166C341.621 17.7842 325.59 24.3978 322.177 26.1828C318.764 27.9678 316.869 27.9503 314.173 26.6578C311.477 25.3646 294.417 18.4501 291.344 16.9767C288.271 15.5035 288.207 14.4887 291.226 13.3026C294.244 12.1167 311.21 5.43872 314.796 4.14781C318.381 2.85713 319.625 2.81076 322.676 3.93235C325.727 5.05394 341.662 11.4174 344.678 12.5258C347.694 13.6339 347.81 14.5478 344.715 16.166Z" fill="#C6302B"/>
<path d="M325.08 10.4447L320.095 10.964L318.979 13.6585L317.176 10.6517L311.419 10.1326L315.715 8.57829L314.426 6.19238L318.448 7.77057L322.239 6.52511L321.214 8.99216L325.08 10.4447ZM318.681 23.5169L309.376 19.6449L322.709 17.5915L318.681 23.5169ZM305.781 11.9424C309.717 11.9424 312.907 13.1833 312.907 14.7138C312.907 16.2447 309.717 17.4854 305.781 17.4854C301.845 17.4854 298.655 16.2444 298.655 14.7138C298.655 13.1833 301.845 11.9424 305.781 11.9424Z" fill="white"/>
<path d="M330.972 11.1814L338.863 14.31L330.979 17.4357L330.972 11.1814Z" fill="#621B1C"/>
<path d="M322.242 14.6462L330.972 11.1814L330.979 17.4357L330.123 17.7716L322.242 14.6462Z" fill="#9A2928"/>
<path d="M431.389 42.5848C431.389 42.784 431.162 42.9434 430.876 42.9434C430.55 42.9732 430.322 42.8139 430.322 42.5848C430.322 42.3855 430.55 42.2262 430.836 42.2262C431.132 42.1963 431.389 42.3557 431.389 42.5848ZM428.317 42.1365C428.248 42.3357 428.445 42.5648 428.742 42.6246C428.999 42.7242 429.295 42.6246 429.354 42.4254C429.414 42.2262 429.226 41.9971 428.929 41.9074C428.673 41.8377 428.386 41.9373 428.317 42.1365ZM432.683 41.9672C432.397 42.0369 432.199 42.2262 432.229 42.4553C432.259 42.6545 432.516 42.784 432.812 42.7143C433.098 42.6445 433.296 42.4553 433.266 42.2561C433.237 42.0668 432.97 41.9373 432.683 41.9672ZM439.184 3.79688C425.482 3.79688 415 14.2857 415 28.1016C415 39.1482 421.896 48.6012 431.745 51.9281C433.009 52.1572 433.454 51.3703 433.454 50.7229C433.454 50.1053 433.424 46.6986 433.424 44.6068C433.424 44.6068 426.509 46.101 425.057 41.6385C425.057 41.6385 423.931 38.7398 422.31 37.9928C422.31 37.9928 420.048 36.4289 422.469 36.4588C422.469 36.4588 424.928 36.658 426.282 39.0287C428.445 42.8736 432.071 41.768 433.484 41.1105C433.711 39.5168 434.353 38.4111 435.064 37.7537C429.542 37.1361 423.97 36.3293 423.97 26.7469C423.97 24.0076 424.721 22.633 426.302 20.8799C426.045 20.2324 425.205 17.5629 426.558 14.1164C428.623 13.4689 433.375 16.8059 433.375 16.8059C435.351 16.248 437.475 15.9592 439.579 15.9592C441.683 15.9592 443.807 16.248 445.783 16.8059C445.783 16.8059 450.535 13.459 452.6 14.1164C453.953 17.5729 453.113 20.2324 452.856 20.8799C454.437 22.643 455.405 24.0176 455.405 26.7469C455.405 36.3592 449.586 37.1262 444.064 37.7537C444.973 38.5406 445.744 40.0348 445.744 42.3756C445.744 45.7324 445.714 49.8861 445.714 50.7029C445.714 51.3504 446.168 52.1373 447.423 51.9082C457.302 48.6012 464 39.1482 464 28.1016C464 14.2857 452.886 3.79688 439.184 3.79688ZM424.602 38.1521C424.474 38.2518 424.504 38.4809 424.672 38.6701C424.83 38.8295 425.057 38.8992 425.185 38.7697C425.314 38.6701 425.284 38.441 425.116 38.2518C424.958 38.0924 424.731 38.0227 424.602 38.1521ZM423.535 37.3453C423.466 37.4748 423.565 37.6342 423.763 37.7338C423.921 37.8334 424.118 37.8035 424.188 37.6641C424.257 37.5346 424.158 37.3752 423.96 37.2756C423.763 37.2158 423.605 37.2457 423.535 37.3453ZM426.736 40.8914C426.578 41.0209 426.637 41.3197 426.865 41.509C427.092 41.7381 427.378 41.768 427.507 41.6086C427.635 41.4791 427.576 41.1803 427.378 40.991C427.161 40.7619 426.865 40.732 426.736 40.8914ZM425.61 39.4272C425.452 39.5268 425.452 39.7857 425.61 40.0148C425.768 40.2439 426.035 40.3436 426.163 40.2439C426.321 40.1145 426.321 39.8555 426.163 39.6264C426.025 39.3973 425.768 39.2977 425.61 39.4272Z" fill="black"/>
<path d="M575.948 5H569.032C567.61 5 567 5.58922 567 7.0318V23H543V7.03205C543 5.60978 542.411 5.00024 540.968 5.00024H534.032C532.589 5.00024 532 5.58947 532 7.03205L532 47.9682C532 49.4108 532.589 50 534.032 50H540.968C542.39 50 543 49.4311 543 47.9682L543 32H567V47.9682C567 49.3905 567.589 50 569.032 50H575.968C577.39 50 578 49.4108 578 47.9682V7.0318C577.959 5.65018 577.37 5 575.948 5Z" fill="#D50C2D"/>
<path d="M712.398 25.1809L710.656 24.4851C702.465 42.8836 669.883 31.6982 667.922 37.1715C667.596 40.8686 685.716 37.8745 698.67 38.5012C702.62 38.6922 704.601 41.6693 702.923 46.5218L706.227 46.532C710.038 34.6704 722.201 40.7239 722.71 36.8092C721.875 34.2354 708.731 36.8092 712.398 25.1809Z" fill="white"/>
<path d="M703.859 44.4929C704.382 42.7531 704.207 41.0133 703.336 39.9693C702.465 38.9253 701.245 38.2295 699.676 38.0555L669.353 37.7073C669.178 37.7073 669.004 37.5333 668.83 37.5333C668.656 37.3594 668.656 37.1854 668.83 37.0115C669.004 36.6636 669.178 36.4893 669.527 36.4893L700.025 36.1414C703.685 35.9675 707.519 33.0097 708.913 29.5301L710.656 25.0064C710.656 24.8322 710.83 24.6582 710.656 24.4843C708.738 15.6109 700.722 8.99927 691.311 8.99927C682.597 8.99927 675.104 14.5669 672.49 22.3966C670.747 21.1786 668.656 20.4825 666.216 20.6568C662.033 21.0046 658.722 24.4843 658.199 28.66C658.025 29.704 658.199 30.748 658.374 31.7917C651.577 31.9657 646 37.5333 646 44.4929C646 45.1887 646 45.7109 646.174 46.4067C646.174 46.7549 646.523 46.9288 646.697 46.9288H702.639C702.987 46.9288 703.336 46.7549 703.336 46.4067L703.859 44.4929Z" fill="#F4811F"/>
<path d="M713.4 25.1853H712.527C712.352 25.1853 712.177 25.3612 712.003 25.5371L710.779 29.7593C710.255 31.5185 710.43 33.278 711.304 34.3333C712.177 35.389 713.4 36.0925 714.973 36.2687L721.438 36.6205C721.613 36.6205 721.788 36.7964 721.962 36.7964C722.137 36.9723 722.137 37.1482 721.962 37.3241C721.788 37.6762 721.613 37.852 721.263 37.852L714.624 38.2038C710.954 38.3797 707.11 41.3704 705.712 44.8888L705.363 46.4724C705.188 46.6483 705.363 47.0001 705.712 47.0001H728.777C729.126 47.0001 729.301 46.8242 729.301 46.4724C729.651 45.065 730 43.4817 730 41.8981C730 32.75 722.486 25.1853 713.4 25.1853Z" fill="#FAAD3F"/>
<path d="M0 88.5H730" stroke="#B1E2FF"/>
<path d="M25.5 89V121" stroke="#B1E2FF"/>
<path d="M252.5 89V121" stroke="#B1E2FF"/>
<path d="M555.5 89V121" stroke="#B1E2FF"/>
</g>
<defs>
<clipPath id="clip0_1608_68">
<rect width="730" height="121" fill="white"/>
</clipPath>
</defs>
</svg>
