<?xml version="1.0" encoding="UTF-8" standalone="no"?>
<!-- Generator: Adobe Illustrator 19.0.0, SVG Export Plug-In . SVG Version: 6.00 Build 0)  -->

<svg
   version="1.1"
   id="Capa_1"
   x="0px"
   y="0px"
   viewBox="0 0 60 60"
   style="enable-background:new 0 0 60 60;"
   xml:space="preserve"
   sodipodi:docname="computer.svg"
   inkscape:version="1.2.1 (9c6d41e, 2022-07-14)"
   xmlns:inkscape="http://www.inkscape.org/namespaces/inkscape"
   xmlns:sodipodi="http://sodipodi.sourceforge.net/DTD/sodipodi-0.dtd"
   xmlns="http://www.w3.org/2000/svg"
   xmlns:svg="http://www.w3.org/2000/svg"><defs
   id="defs134" /><sodipodi:namedview
   id="namedview132"
   pagecolor="#ffffff"
   bordercolor="#000000"
   borderopacity="0.25"
   inkscape:showpageshadow="2"
   inkscape:pageopacity="0.0"
   inkscape:pagecheckerboard="0"
   inkscape:deskcolor="#d1d1d1"
   showgrid="false"
   inkscape:zoom="3.9333333"
   inkscape:cx="31.779661"
   inkscape:cy="31.398305"
   inkscape:window-width="1376"
   inkscape:window-height="629"
   inkscape:window-x="0"
   inkscape:window-y="25"
   inkscape:window-maximized="0"
   inkscape:current-layer="g99" />
<g
   id="g99">
	<path
   d="M55.501,0H4.499C2.018,0,0,2.018,0,4.499v40.003C0,46.982,2.018,49,4.499,49h17.855c0.142,1.752-0.618,3.481-2.023,4.472   l-1.799,1.269c-0.112,0.077-0.207,0.171-0.285,0.275C17.547,55.095,17,55.683,17,56.403C17,58.387,18.613,60,20.597,60h18.807   C41.387,60,43,58.387,43,56.403c0-0.721-0.548-1.309-1.248-1.388c-0.076-0.102-0.168-0.194-0.277-0.271l-1.804-1.271   c-1.408-0.992-2.169-2.724-2.025-4.474h17.855C57.982,49,60,46.982,60,44.501V4.499C60,2.018,57.982,0,55.501,0z M58,39H2V4.499   C2,3.121,3.121,2,4.499,2h51.003C56.879,2,58,3.121,58,4.499V39z"
   id="path85" />
	
	
	
	
	
	
</g>
<g
   id="g101">
</g>
<g
   id="g103">
</g>
<g
   id="g105">
</g>
<g
   id="g107">
</g>
<g
   id="g109">
</g>
<g
   id="g111">
</g>
<g
   id="g113">
</g>
<g
   id="g115">
</g>
<g
   id="g117">
</g>
<g
   id="g119">
</g>
<g
   id="g121">
</g>
<g
   id="g123">
</g>
<g
   id="g125">
</g>
<g
   id="g127">
</g>
<g
   id="g129">
</g>
</svg>
