<?xml version="1.0" encoding="iso-8859-1"?>
<!-- Generator: Adobe Illustrator 19.0.0, SVG Export Plug-In . SVG Version: 6.00 Build 0)  -->
<svg version="1.1" id="Capa_1" xmlns="http://www.w3.org/2000/svg" xmlns:xlink="http://www.w3.org/1999/xlink" x="0px" y="0px"
	 viewBox="0 0 59 59" style="enable-background:new 0 0 59 59;" xml:space="preserve">
<g>
	<circle cx="37" cy="42.028" r="2"/>
	<circle cx="44" cy="49.028" r="2"/>
	<circle cx="44" cy="35.028" r="2"/>
	<path d="M18,39.028v-3h-4v3c0,0.553-0.448,1-1,1h-3v4h3c0.552,0,1,0.447,1,1v3h4v-3c0-0.553,0.448-1,1-1h3v-4h-3
		C18.448,40.028,18,39.581,18,39.028z"/>
	<path d="M44.246,27.028H31v-11.5c0-1.93,1.57-3.5,3.5-3.5s3.5,1.57,3.5,3.5v3.5c0,2.757,2.243,5,5,5s5-2.243,5-5v-16
		c0-0.553-0.448-1-1-1s-1,0.447-1,1v16c0,1.654-1.346,3-3,3s-3-1.346-3-3v-3.5c0-3.032-2.467-5.5-5.5-5.5s-5.5,2.468-5.5,5.5v11.5
		H14.972C6.716,27.028,0,33.744,0,42c0,7.149,5.209,14.872,12.963,14.972l0.209,0.001c2.122,0,5.701-0.359,9.382-1.367
		c4.268-1.17,9.854-1.169,14.107-0.001c3.623,0.997,7.712,1.368,9.438,1.368l0.158-0.001C52.386,56.867,59,51.113,59,42
		C59,33.744,52.381,27.028,44.246,27.028z M44,31.028c2.206,0,4,1.794,4,4s-1.794,4-4,4s-4-1.794-4-4S41.794,31.028,44,31.028z
		 M24,45.028c0,0.553-0.448,1-1,1h-3v3c0,0.553-0.448,1-1,1h-6c-0.552,0-1-0.447-1-1v-3H9c-0.552,0-1-0.447-1-1v-6
		c0-0.553,0.448-1,1-1h3v-3c0-0.553,0.448-1,1-1h6c0.552,0,1,0.447,1,1v3h3c0.552,0,1,0.447,1,1V45.028z M28,33.028
		c-0.552,0-1-0.447-1-1s0.448-1,1-1h4.631c0.552,0,1,0.447,1,1s-0.448,1-1,1H28z M37,46.028c-2.206,0-4-1.794-4-4s1.794-4,4-4
		s4,1.794,4,4S39.206,46.028,37,46.028z M44,53.028c-2.206,0-4-1.794-4-4s1.794-4,4-4s4,1.794,4,4S46.206,53.028,44,53.028z
		 M51,46.028c-2.206,0-4-1.794-4-4s1.794-4,4-4s4,1.794,4,4S53.206,46.028,51,46.028z"/>
	<circle cx="51" cy="42.028" r="2"/>
</g>
<g>
</g>
<g>
</g>
<g>
</g>
<g>
</g>
<g>
</g>
<g>
</g>
<g>
</g>
<g>
</g>
<g>
</g>
<g>
</g>
<g>
</g>
<g>
</g>
<g>
</g>
<g>
</g>
<g>
</g>
</svg>
