<svg width="258" height="200" viewBox="0 0 258 200" fill="none" xmlns="http://www.w3.org/2000/svg">
<g clip-path="url(#clip0_1151_277)">
<g opacity="0.24">
<path d="M105.167 225.159C106.158 224.278 108.885 222.119 109.926 221.302C120.811 212.799 132.289 205.091 144.272 198.238C137.544 185.081 129.76 172.498 120.995 160.614C119.86 159.06 120.722 156.054 122.935 156.088C147.812 156.341 172.688 156.275 197.563 155.89C190.73 138.229 182.159 121.297 171.978 105.346C170.756 103.446 171.785 101.298 173.919 100.819L248.088 84.1663C248.859 84.7526 249.503 85.491 249.98 86.3363C252.378 90.4217 252.93 95.6168 253.358 100.249C253.793 105.019 253.759 109.845 254.406 114.592C255.136 119.912 256.066 125.233 256.797 130.553C257.383 134.829 258.147 139.393 257.803 143.718C257.648 145.683 257.046 147.066 255.287 147.974C253.343 148.978 251.126 149.544 249.011 150.182C243.125 150.083 237.24 150.21 231.356 150.562C237.474 161.662 241.694 173.714 243.84 186.217C243.921 186.966 243.706 187.718 243.241 188.309C242.776 188.901 242.099 189.285 241.354 189.379C219.962 191.044 198.334 184.948 177.1 188.596C183.603 199.53 189.415 210.863 194.502 222.53C195.391 224.57 193.511 226.661 191.449 226.406C168.975 223.646 146.243 223.761 123.798 226.748C118.948 227.394 111.159 228.819 109.305 229.078C107.452 229.336 104.603 229.682 104.032 228.58C103.461 227.478 104.176 226.041 105.167 225.159Z" fill="#E7F6FF"/>
<path d="M0.407855 71.1654C-0.299564 69.2082 0.551609 66.2249 2.96137 66.5669C14.0737 68.0645 25.0192 70.6197 35.6502 74.198C25.8582 57.1734 19.1036 38.5605 15.6911 19.1994C15.3544 17.2992 16.599 15.2432 18.5246 15.38L46.9349 17.398L61.14 18.4203C65.6115 18.7395 70.2759 18.6749 74.7058 19.4692C79.2454 20.2825 80.6981 25.0443 82.6047 29.0271C84.8367 33.6838 87.0674 38.3392 89.2968 42.9934C93.7027 52.1725 98.1099 61.3567 102.518 70.5459L117.65 102.161C117.897 102.623 118.024 103.14 118.019 103.664C118.015 104.188 117.879 104.703 117.625 105.16C117.371 105.618 117.006 106.004 116.564 106.283C116.122 106.562 115.618 106.724 115.097 106.756C102.235 107.896 89.3548 108.447 76.4573 108.409C88.5549 128.069 98.1431 149.18 104.996 171.244C105.48 172.787 104.327 174.687 102.919 174.98C89.5293 177.773 75.9492 179.552 62.2938 180.3C66.3594 196.098 68.2909 212.374 68.0364 228.69C68.0023 230.97 65.5207 232.532 63.7313 231.221C59.7177 228.262 56.6178 224.224 54.7884 219.573C54.6729 219.423 54.5692 219.264 54.4782 219.098L20.174 155.746C19.0391 153.652 20.6242 151.121 22.7275 151.148L44.3322 151.444C36.6527 139.138 28.8976 126.875 21.5207 114.356C13.4214 100.618 5.93481 86.3858 0.407855 71.1654Z" fill="#E7F6FF"/>
</g>
<path d="M219.589 158.671C219.739 158.154 219.746 157.605 219.608 157.085C219.47 156.564 219.193 156.091 218.807 155.716C217.536 154.553 212.955 152.656 210.031 151.369L210.724 151.264C215.013 150.571 213.195 144.04 208.921 144.734C205.921 145.212 202.891 145.484 199.854 145.547C195.507 142.346 192.381 138.25 189.275 133.814C186.883 130.405 184.553 126.96 182.5 123.348C177.643 109.093 171.463 95.1657 160.79 84.2878C154.568 77.8926 146.898 73.0889 138.428 70.2827C129.361 67.2961 117.364 65.0705 109.86 64.2626C107.176 63.8665 104.399 63.5798 101.381 63.4078C98.8331 63.2671 95.1644 63.0325 91.4488 62.9961C84.4761 61.1509 73.3761 61.2865 66.789 63.9395C58.2946 67.3535 52.8124 74.1084 50.879 82.8493C47.2728 99.153 45.9856 115.457 47.5021 131.922C47.4135 135.69 47.4552 139.511 47.7262 143.123C48.8205 157.681 53.4586 169.106 56.5593 178.045C59.7798 187.385 67.5915 207.754 70.192 216.928C72.5579 225.267 72.042 244.38 70.463 256.816C69.1758 266.897 62.646 307.375 61.4162 317.637C60.2697 327.311 56.4082 360.31 56.1632 364.594C55.9183 368.878 57.0543 372.412 60.4156 372.412H115.16C119.564 372.412 117.328 367.263 115.77 365.782C112.857 363.02 109.834 359.199 106.911 356.458C108.073 349.056 108.839 341.577 110.079 334.197C112.054 322.438 121.924 263.519 123.41 251.844C124.759 241.242 126.239 220.894 119.402 200.796C116.395 191.935 112.971 183.236 109.376 174.605C114.806 173.562 120.189 172.275 125.489 170.695C125.89 170.581 126.281 170.445 126.682 170.325C129.46 176.58 132.284 182.835 134.609 187.739C138.846 196.563 142.6 205.611 145.854 214.843C149.904 226.565 150.586 232.043 150.149 242.723C149.961 247.335 148.153 258 147.475 262.571C145.75 274.23 140.591 298.978 138.46 310.575C136.276 322.443 129.7 362.082 129.475 366.142C129.251 370.202 130.184 372.397 133.019 372.397H185.57C188.175 372.397 188.696 369.269 186.883 366.934C185.069 364.599 181.083 358.96 176.627 355.202C176.961 353.263 186.575 312.639 190.666 294.094C192.97 283.67 195.294 273.376 197.493 262.909C199.577 253.105 201.099 241.602 200.594 232.496C200.088 223.391 197.243 214.848 195.659 210.496C190.004 194.922 183.053 177.862 176.481 162.022C194.069 172.223 202.319 174.344 204.872 174.964C207.426 175.585 210.834 176.34 214.252 175.089C216.691 174.193 217.291 170.993 214.977 169.533C214.565 169.273 214.148 169.043 213.731 168.824L216.196 168.673C218.369 168.543 220.152 166.15 218.802 164.097C218.191 163.144 217.395 162.324 216.462 161.684C216.681 161.59 216.9 161.496 217.108 161.392C217.697 161.15 218.225 160.781 218.654 160.31C219.083 159.84 219.403 159.28 219.589 158.671V158.671Z" fill="#E7F6FF"/>
<path d="M91.0052 43.096C93.4006 43.9977 95.8845 44.6441 98.4156 45.0245C98.519 47.2995 99.1812 49.5139 100.344 51.472C101.26 52.8659 102.514 54.0049 103.99 54.7824C105.465 55.5599 107.113 55.9506 108.781 55.918C116.624 55.8554 121.121 48.8815 122.851 41.9962L128.193 42.3402C128.378 42.3722 128.568 42.3611 128.748 42.3079C128.928 42.2546 129.094 42.1606 129.232 42.0331C129.37 41.9056 129.477 41.7481 129.544 41.5727C129.612 41.3972 129.638 41.2087 129.621 41.0215C128.741 34.727 126.747 28.6395 123.732 23.0447C123.061 20.9477 121.811 19.0831 120.126 17.6657C116.197 14.3925 108.802 14.4081 105.842 16.2324C102.882 18.0566 100.927 22.5964 100.109 26.3127C99.979 26.8913 99.8591 27.4698 99.7445 28.0484C96.8053 27.6731 93.8401 27.6888 91.0729 28.9605C88.1286 30.3105 85.9659 33.0208 85.8877 36.3254C85.7939 39.7237 87.9514 41.9284 91.0052 43.096Z" fill="#E7F6FF"/>
<path d="M146.621 98.4493C148.16 102.998 149.256 107.685 149.894 112.444" stroke="#96C2DD" stroke-width="4" stroke-linecap="round" stroke-linejoin="round"/>
<path d="M86.8987 97.5112C85.8565 102.697 87.1801 117.208 90.2027 132.193C102.678 132.261 119.141 131.396 138.016 126.293" stroke="#96C2DD" stroke-width="4" stroke-linecap="round" stroke-linejoin="round"/>
<path d="M48.6172 131.979C50.8216 143.342 53.5887 154.022 58.1955 164.639C59.9673 168.715 63.8914 173.739 67.4403 176.413C71.9376 179.806 78.1078 180.312 83.7255 179.921C90.3022 179.462 101.173 178.425 108.495 176.961" stroke="#96C2DD" stroke-width="4" stroke-linecap="round" stroke-linejoin="round"/>
<path d="M210.866 111.396C209.604 105.908 204.195 88.0615 199.839 87.9416C195.482 87.8217 173.126 88.0719 162.099 93.7897C156.752 96.5573 153.062 101.128 149.722 106.002C146.298 111 143.197 116.207 141.149 121.935C140.649 123.325 140.216 124.743 139.852 126.189L139.956 126.157C141.253 125.53 142.416 124.655 143.38 123.583C145.88 121.085 148.788 119.031 151.978 117.51C153.281 116.88 155.345 117.839 155.694 119.256C156.392 122.107 154.797 123.291 153.13 125.339C153.015 125.48 152.906 125.626 152.802 125.766C158.899 124.901 165.025 124.281 171.182 123.906C174.418 123.713 175.596 128.492 172.412 129.535L158.909 133.95C158.946 134.32 158.982 134.684 159.013 135.055L168.998 133.095C172.224 132.459 177.936 131.453 177.81 136.644C177.701 141.023 172.078 141.82 168.873 142.899C165.799 143.941 162.739 144.984 159.686 146.026C159.453 146.452 159.115 146.811 158.703 147.068C158.291 147.324 157.82 147.47 157.335 147.491L157.408 147.59C159.84 146.846 162.307 146.196 164.808 145.641C167.414 145.067 170.921 143.665 173.23 145.547C173.621 145.872 173.916 146.298 174.085 146.777C174.254 147.257 174.29 147.774 174.189 148.273C173.256 151.285 169.842 152.088 167.232 153.355L165.95 153.98C159.854 157.777 153.269 160.725 146.376 162.742C145.146 163.336 143.885 163.873 142.671 164.378C143.719 167.281 144.971 170.106 146.418 172.832C147.535 175.037 149.189 176.924 151.228 178.321C155.204 182.835 160.775 186.264 165.981 188.584C176.541 193.299 188.294 194.658 199.651 192.477C200.083 192.395 200.491 192.217 200.844 191.956C201.328 191.945 201.797 191.783 202.184 191.492C214.415 182.157 213.826 160.964 214.92 148.752C216.077 136.212 213.56 123.228 210.866 111.396Z" fill="#FECB2E"/>
<path d="M233.502 136.707L197.231 138.364C196.402 138.383 195.614 138.73 195.041 139.33C194.468 139.93 194.156 140.733 194.175 141.562C194.193 142.391 194.541 143.179 195.14 143.753C195.74 144.326 196.542 144.638 197.372 144.619H197.512L233.793 142.961C234.623 142.924 235.403 142.559 235.963 141.946C236.523 141.333 236.817 140.523 236.779 139.693C236.742 138.864 236.377 138.083 235.764 137.523C235.151 136.963 234.341 136.67 233.512 136.707H233.502Z" fill="#FD9426"/>
<path d="M243.381 126.767L207.872 128.367C207.042 128.386 206.254 128.733 205.681 129.333C205.108 129.933 204.797 130.736 204.815 131.565C204.834 132.394 205.181 133.182 205.781 133.756C206.38 134.329 207.183 134.641 208.012 134.622H208.153L243.663 133.022C244.492 132.985 245.272 132.619 245.832 132.006C246.392 131.393 246.686 130.583 246.649 129.754C246.611 128.924 246.246 128.144 245.633 127.584C245.021 127.024 244.211 126.73 243.381 126.767V126.767Z" fill="#FD9426"/>
<path d="M54.8484 174.235C50.57 222.562 40.778 368.211 -30.7676 368.211" stroke="#FD9426" stroke-width="4" stroke-linecap="round" stroke-linejoin="round"/>
<path d="M197.667 90.7562C194.066 97.4591 191.257 109.134 190.668 117.557C188.99 141.533 191.523 166.124 197.964 188.349" stroke="#FD9426" stroke-width="4" stroke-linecap="round" stroke-linejoin="round"/>
<path d="M112.626 129.128C110.54 123.939 109.194 118.483 108.629 112.918C107.545 103.052 107.175 93.1121 105.576 83.3236C103.835 72.6439 101.928 64.7005 91.5937 61.4325C89.0222 60.6561 86.3015 60.5113 83.6621 61.0103" stroke="#FD9426" stroke-width="4" stroke-linecap="round" stroke-linejoin="round"/>
</g>
<defs>
<clipPath id="clip0_1151_277">
<rect width="258" height="200" fill="white"/>
</clipPath>
</defs>
</svg>
