<svg width="258" height="200" viewBox="0 0 258 200" fill="none" xmlns="http://www.w3.org/2000/svg">
<g clip-path="url(#clip0_1316_149)">
<path fill-rule="evenodd" clip-rule="evenodd" d="M96.7814 22.4956C97.2411 19.4646 95.1935 16.6087 92.1584 16.0836C89.0838 15.5517 86.1601 17.6129 85.6282 20.6875L85.2516 22.8645L85.2324 22.9827C84.7726 26.0137 86.8203 28.8695 89.8554 29.3947C92.93 29.9266 95.8536 27.8654 96.3856 24.7908L96.7622 22.6138L96.7814 22.4956ZM127.865 24.3481C130.396 26.1727 130.969 29.7037 129.145 32.2349C127.345 34.7309 123.887 35.3226 121.364 33.589L121.258 33.5143C119.155 31.9987 115.604 32.3943 113.87 34.3046L113.789 34.3967C111.76 36.7678 108.194 37.0455 105.823 35.0172C103.452 32.9888 103.174 29.4224 105.202 27.0514C110.727 20.5937 120.964 19.3738 127.865 24.3481ZM82.7031 41.8834C83.4308 38.8492 81.561 35.7996 78.5268 35.0719C69.7373 32.964 60.1291 38.3541 57.3446 46.9535C56.3834 49.922 58.0107 53.1077 60.9792 54.0689C63.9477 55.0301 67.1334 53.4028 68.0946 50.4343L68.1317 50.3241C69.1549 47.3956 72.8776 45.337 75.8917 46.0598L76.0099 46.0868C79.0047 46.7387 81.9849 44.8782 82.7031 41.8834ZM115.4 40.5496C129.499 43.5883 140.19 52.4069 146.396 65.551C147.728 68.3726 146.52 71.7399 143.699 73.0721C140.877 74.4043 137.51 73.1969 136.178 70.3753C131.489 60.4441 123.757 54.0056 113.336 51.665L113.019 51.5953C109.969 50.9379 108.029 47.9323 108.687 44.8821C109.344 41.8319 112.35 39.8921 115.4 40.5496ZM135.722 168.255C131.863 134.351 117.507 80.2435 104.424 52.8083C103.081 49.9919 99.7095 48.7974 96.8931 50.1405C94.0767 51.4835 92.8822 54.8554 94.2253 57.6718C106.733 83.9015 120.771 136.807 124.495 169.532C124.848 172.632 127.647 174.86 130.747 174.507C133.847 174.154 136.075 171.355 135.722 168.255ZM229.669 145.474C239.325 146.426 248.377 150.61 255.359 157.348C257.604 159.515 257.667 163.092 255.5 165.337C253.333 167.582 249.757 167.645 247.512 165.478C242.431 160.575 235.864 157.505 228.849 156.749L228.561 156.719C225.456 156.413 223.187 153.648 223.492 150.543C223.798 147.438 226.564 145.168 229.669 145.474ZM190.286 161.317C193.083 159.934 194.229 156.545 192.846 153.748C191.462 150.952 188.074 149.806 185.277 151.189C177.931 154.822 171.635 160.269 166.983 167.016C165.212 169.585 165.859 173.103 168.428 174.874C170.997 176.645 174.515 175.999 176.286 173.43C179.846 168.267 184.665 164.097 190.286 161.317ZM93.1034 157.841C95.4296 159.921 95.6296 163.493 93.55 165.819C91.3695 168.258 89.5259 170.978 88.0684 173.907C86.6784 176.701 83.2869 177.839 80.4934 176.449C77.6999 175.059 76.5622 171.667 77.9522 168.874C79.8596 165.04 82.2724 161.48 85.126 158.288C87.2056 155.962 90.7772 155.762 93.1034 157.841ZM39.2957 156.666L39.1775 156.664C36.1113 156.638 33.574 159.07 33.4848 162.15C33.3945 165.269 35.8497 167.87 38.9687 167.961L39.1684 167.968C44.8893 168.198 50.1411 171.214 53.2226 176.05L53.2925 176.157C54.995 178.702 58.428 179.432 61.0233 177.778C63.6547 176.102 64.4285 172.609 62.7517 169.978C57.6219 161.928 48.8371 156.942 39.2957 156.666ZM211.267 157.984C214.045 159.404 215.146 162.808 213.725 165.586C209.713 173.434 208.92 183.316 210.483 196.535C210.849 199.634 208.634 202.443 205.535 202.809C202.437 203.175 199.628 200.96 199.261 197.862C197.46 182.62 198.415 170.709 203.665 160.442C205.085 157.664 208.489 156.563 211.267 157.984ZM94.0627 217.919L93.9504 217.861C91.2088 216.496 87.8652 217.566 86.4331 220.291C84.9814 223.053 86.0435 226.469 88.8054 227.921L97.4043 232.44L97.4887 232.485C98.8871 233.243 99.9164 234.358 101.679 236.992L101.899 237.323L103.114 239.177C104.219 240.846 105.112 242.076 106.152 243.288C108.184 245.656 111.751 245.928 114.119 243.897C116.487 241.865 116.759 238.298 114.727 235.93L114.534 235.701C113.989 235.044 113.449 234.303 112.778 233.303L112.43 232.779L111.279 231.022C108.371 226.633 106.286 224.346 102.664 222.44L94.0627 217.919ZM49.3887 227.015C50.2435 229.889 48.7036 232.907 45.9277 233.927L45.8849 233.942L45.8607 233.956C45.7617 234.011 45.6335 234.088 45.4809 234.185L45.3205 234.289L45.0893 234.444L44.8418 234.614C44.3734 234.94 43.8253 235.345 43.214 235.817L43.0457 235.948C41.2074 237.377 38.9444 239.293 36.6521 241.361L36.0755 241.884L35.445 242.462C33.6699 244.097 31.9994 245.715 30.6086 247.148L30.3889 247.375C29.5098 248.288 28.7713 249.1 28.208 249.772L28.0042 250.019L27.8739 250.18C27.6051 250.517 27.4249 250.766 27.3531 250.886L27.3393 250.91C25.818 253.634 22.3763 254.609 19.652 253.088C16.9278 251.566 15.9526 248.125 17.4739 245.4C18.9726 242.717 23.3335 238.173 28.8754 233.159L29.697 232.42L30.301 231.881C35.6285 227.154 39.846 223.959 42.3628 223.211C45.3535 222.321 48.4991 224.024 49.3887 227.015ZM68.0553 227.417C70.8573 228.79 72.016 232.174 70.6432 234.976C66.485 243.463 65.2392 253.081 67.0931 262.343L67.1575 262.658C67.7928 265.713 65.8314 268.705 62.7765 269.34C59.7216 269.975 56.7301 268.014 56.0948 264.959C53.6373 253.142 55.1859 240.843 60.4961 230.005C61.8689 227.203 65.2533 226.044 68.0553 227.417ZM43.6276 193.201C45.5386 190.734 45.0883 187.186 42.6217 185.275C37.2146 181.085 30.1897 179.08 22.7184 179.138C17.2236 179.181 12.0696 180.174 4.82296 182.26L4.06575 182.48C1.07088 183.356 -0.647125 186.493 0.228486 189.488C1.1041 192.483 4.24174 194.201 7.23661 193.325C13.9625 191.359 18.4107 190.472 22.8061 190.437C27.9015 190.398 32.4668 191.701 35.7013 194.207L35.8061 194.286C38.2675 196.105 41.7435 195.633 43.6276 193.201ZM126.361 179.909C129.095 181.413 130.092 184.848 128.589 187.582C127.105 190.279 123.742 191.286 121.027 189.869L120.916 189.81C115.422 186.788 108.076 187.175 102.916 190.74L102.752 190.855C100.209 192.662 96.6818 192.065 94.8746 189.521C93.0674 186.978 93.6644 183.451 96.208 181.644C104.908 175.462 117.011 174.766 126.361 179.909ZM187.97 130.521C190.782 131.874 191.965 135.249 190.612 138.061C189.278 140.836 185.974 142.025 183.185 140.757L183.072 140.704C173.459 136.081 163.843 135.645 154.956 139.627L154.687 139.749C151.851 141.051 148.497 139.807 147.196 136.971C145.895 134.135 147.138 130.781 149.974 129.48C162.121 123.905 175.338 124.447 187.97 130.521ZM252.449 128.045C255.569 127.99 258.053 125.417 257.998 122.297C257.943 119.177 255.37 116.692 252.25 116.747C242.912 116.912 234.032 119.595 225.375 124.547C222.667 126.096 221.727 129.547 223.276 132.256C224.825 134.964 228.276 135.904 230.985 134.355C238.067 130.304 245.117 128.174 252.449 128.045ZM193.841 100.745L194.331 101.004C201.122 104.641 205.28 108.788 208.349 115.395C209.663 118.224 208.435 121.584 205.605 122.899C202.813 124.196 199.505 123.017 198.155 120.267L198.101 120.155C196.071 115.784 193.596 113.365 188.609 110.76C185.843 109.315 184.773 105.902 186.218 103.136C187.662 100.371 191.076 99.2998 193.841 100.745ZM86.9183 59.1723C88.4243 56.4396 87.4299 53.0034 84.6972 51.4973C81.9645 49.9912 78.5283 50.9856 77.0222 53.7183C69.4371 67.4814 66.3461 83.2721 68.1822 98.8794C68.5468 101.978 71.3545 104.195 74.4533 103.83C77.5522 103.466 79.7688 100.658 79.4043 97.5592C77.8436 84.293 80.4709 70.8709 86.9183 59.1723Z" fill="#E7F6FF" fill-opacity="0.24"/>
</g>
<g clip-path="url(#clip1_1316_149)">
<path d="M255.138 175.523C255.778 174.843 256.32 174.078 256.75 173.25C258.314 170.289 258.722 166.442 255.912 164.083C260.211 157.602 254.23 151.632 248.539 149.068C242.058 146.156 234.729 146.177 227.952 147.994C214.518 151.599 204.335 177.995 199.59 190.908C198.333 171.778 192.749 151.212 179.304 136.859C165.569 122.189 143.467 119.986 124.492 118.358C103.852 116.579 88.1286 117.503 68.0685 123.017C50.9694 127.719 32.3173 136.988 24.9015 153.985C16.7389 172.723 14.842 194.422 13.1278 214.574C11.1986 237.272 11.2308 260.121 11.8166 282.884C12.268 300.333 13.0955 325.831 31.8014 329.528C34.241 332.247 36.7559 332.543 38.8839 333.043C40.2381 333.36 44.1394 333.795 46.5253 332.387C47.3583 333.209 46.6919 346.676 46.708 349.798C46.7725 361.684 46.8048 373.566 46.9499 385.447C47.009 390.633 47.2723 398.661 46.7457 402.836C43.8116 405.147 36.5356 408.608 36.5356 413.046C36.5356 417.485 39.3246 418.737 47.0788 418.737C54.8331 418.737 71.8946 418.431 81.0299 418.431C90.1652 418.431 89.6278 418.576 91.6322 416.432C93.6366 414.288 93.0885 409.693 93.1154 405.034C93.1476 399.263 93.0133 384.614 92.8091 378.832C92.3845 367.047 92.0406 355.279 91.8955 343.478C91.6215 321.559 91.2668 303.788 91.3582 281.869C91.3958 270.584 91.4979 255.538 91.6698 244.253C91.8311 234.097 92.2502 209.2 92.2502 209.2C92.2502 209.2 99.983 208.088 101.595 207.959C106.937 207.464 112.342 207.378 117.684 207.185C119.899 207.179 122.111 207.35 124.299 207.696C124.299 207.696 124.681 314.165 124.648 358.874C124.648 370.417 124.971 392.11 124.971 399.832C124.971 407.554 124.998 413.154 126.045 415.83C127.093 418.506 129.087 418.732 133.246 418.732H164.639C176.854 418.732 180.9 418.28 181.239 414.03C181.577 409.779 173.286 406.152 172.163 403.992C171.039 401.831 171.625 388.671 171.292 382.712C170.663 371.551 171.115 354.994 171.125 343.817C171.147 320.792 171.224 297.77 171.357 274.749C171.437 263.953 170.894 253.173 171.357 242.383C180.771 257.171 197.806 261.685 213.696 252.276C227.743 243.957 236.448 214.939 237.27 193.702C243.364 192.66 252.252 188.721 254.816 182.6C255.579 180.779 255.272 179.623 255.391 177.839C254.276 176.951 254.192 176.179 255.138 175.523Z" fill="#E7F6FF"/>
<path d="M93.1969 94.9283C94.2716 100.028 96.5769 103.779 100.768 105.756C104.207 107.414 108.3 106.894 111.215 104.429C113.681 102.28 115.589 99.5927 116.277 96.2341C117.15 91.5698 117.41 86.8114 117.051 82.0798C116.578 77.41 114.031 72.4071 111.854 70.2899C109.678 68.1726 106.33 67.5331 102.644 68.495C98.9575 69.4569 97.2272 70.9025 95.5882 73.9386C94.6927 75.6704 94.0141 77.5059 93.5677 79.4037C89.3708 80.3118 84.5452 81.8594 84.3571 86.6635C84.169 91.4676 88.7797 94.2727 93.1969 94.9283Z" fill="#E7F6FF"/>
<path d="M254.079 23.8557C247.765 12.9417 233.928 8.76092 222.079 14.7204C210.966 20.3198 208.242 33.7755 209.569 45.3505C210.826 56.286 214.814 66.1413 224.787 71.4022C226.19 72.6973 228.785 73.111 230.376 73.7613C230.383 74.5301 230.462 75.2965 230.612 76.0505C229.767 78.0589 229.133 80.1498 228.721 82.2893C228.302 84.6645 230.268 87.5287 232.988 86.5883C234.159 86.1691 235.137 86.3948 236.309 86.728C239.377 87.5932 241.543 84.2561 240.231 81.6284C239.498 80.1909 238.843 78.7145 238.27 77.2058C238.152 76.8995 238.05 76.5878 237.942 76.2762C238.047 75.7841 238.014 75.2725 237.845 74.7984C244.777 71.1819 248.931 68.4037 252.29 62.8419C258.728 52.1643 260.264 34.544 254.079 23.8557Z" fill="#FECB2E"/>
<path d="M234.676 87.3191C235.079 118.911 232.478 125.161 233.112 156.978" stroke="#FD9426" stroke-width="3.22422" stroke-linecap="round" stroke-linejoin="round"/>
<path d="M237.195 75.3895C235.417 74.7984 233.192 74.6318 231.859 74.9918" stroke="#FD9426" stroke-width="3.22422" stroke-linecap="round" stroke-linejoin="round"/>
<path d="M226.405 154.351C231.204 153.373 236.379 160.353 237.84 164.147C239.302 167.941 239.205 172.944 237.502 174.728C234.407 177.952 230.962 172.068 230.296 170.004C230.957 175.346 228.409 180.548 223.734 182.944" stroke="#96C2DD" stroke-width="3.22422" stroke-linecap="round" stroke-linejoin="round"/>
<path d="M168.832 176.963C172.432 180.897 172.594 208.668 172.395 217.529C172.207 225.203 172.008 236.09 172.008 242.136" stroke="#96C2DD" stroke-width="3.22422" stroke-linecap="round" stroke-linejoin="round"/>
<path d="M241.79 154.791C237.932 154.883 236.067 154.942 233.111 156.978" stroke="#96C2DD" stroke-width="3.22422" stroke-linecap="round" stroke-linejoin="round"/>
<path d="M256.153 163.706C253.466 167.318 241.789 169.65 238.764 168.059" stroke="#96C2DD" stroke-width="3.22422" stroke-linecap="round" stroke-linejoin="round"/>
<path d="M254.079 177.049C249.877 180.155 244.181 181.429 238.839 181.203C236.985 181.123 229.306 178.549 233.014 174.373" stroke="#96C2DD" stroke-width="3.22422" stroke-linecap="round" stroke-linejoin="round"/>
<path d="M248.961 187.619C245.296 189.613 239.342 190.263 235.833 187.619C232.85 185.357 232.893 181.418 234.258 180.161" stroke="#96C2DD" stroke-width="3.22422" stroke-linecap="round" stroke-linejoin="round"/>
<path d="M236.438 194.003C232.59 194.868 226.367 195.153 223.734 191.574" stroke="#96C2DD" stroke-width="3.22422" stroke-linecap="round" stroke-linejoin="round"/>
<path d="M59.5577 176.963C55.2964 185.271 54.7697 257.209 55.8714 295.674C55.8413 297.156 56.0333 298.634 56.441 300.059C57.5157 303.283 60.6916 305.432 62.1263 308.496C63.8079 312.363 62.606 316.879 59.2245 319.399" stroke="#96C2DD" stroke-width="3.22422" stroke-linecap="round" stroke-linejoin="round"/>
<path d="M198.602 192.112C197.28 197.373 193.653 213.279 192.879 223.881" stroke="#96C2DD" stroke-width="3.22422" stroke-linecap="round" stroke-linejoin="round"/>
<path d="M109.477 78.2053C111.019 83.0009 111.791 88.0103 111.766 93.0475C109.597 93.3922 107.401 93.5468 105.205 93.5096" stroke="#96C2DD" stroke-width="3.22422" stroke-linecap="round" stroke-linejoin="round"/>
</g>
<defs>
<clipPath id="clip0_1316_149">
<rect width="258" height="200" fill="white"/>
</clipPath>
<clipPath id="clip1_1316_149">
<rect width="258" height="200" fill="white"/>
</clipPath>
</defs>
</svg>
