<svg xmlns="http://www.w3.org/2000/svg" viewBox="0 0 800 1000"><title>jake-celebrate</title><g id="jake"><g id="celebrate"><path id="body" d="M701.23,275.18q-9.32,10.62-19.17,20.76C637.89,341.63,560.2,397.64,507.59,440.6a11.68,11.68,0,0,0-4.29,9.06q0,15.81-.09,31.63c0,3.57.19,7.47.27,11.43a28.62,28.62,0,0,0,.9,6.64C508.22,514.44,512,529.53,517,544c21.39,61.89,43.38,119.32,66.09,180.74,14.26,38.58,24,63.08,40.74,103.51l16.23,1.29c7.83.63,7.89,11.78,1.34,13.25-11.57,9.23-56.65,30.7-63.2,35.25-6.13,4.24-12.26,7.86-19.58,9.61a7.42,7.42,0,0,1-1.57.2c-2.71.73-6.05.05-7.39-3.32-11-27.59-22.44-60.67-32.51-86.9-17.94-46.71-27-71.8-43.14-119.17-8.06-23.68-25.74-70.74-31.3-86.32-5.05-14.17-13.67-41.76-23.54-63.26-3.55.14-7.11.26-10.66.35-2.74.08-5.49.14-8.23.18q-4.76,13.57-9.5,27.14Q333.84,720,280.49,884.79c-1.57,4.88-8,5.88-11.16,3.45-26.49-8-58.77-27.11-83.49-39.78-5.44-2.79-4.39-9.83-.58-12.27a7.51,7.51,0,0,1,3.79-2.19,84.46,84.46,0,0,1,18.17-2.14l0,0c15.57-34.43,20.66-50,30.48-81.65,17.33-55.79,32.45-112.3,48.32-168.52l26.21-92.84a14.93,14.93,0,0,0,.53-5c-.39-6.08-1.33-21.69-1.68-32.77a11.12,11.12,0,0,0-4.78-8.8c-14.82-10.31-61.37-43.69-85.46-62-3.21-2.45-6.39-4.92-9.55-7.44-9.08-6.63-17.5-14.5-25.51-21.31q-23.68-20.1-45.63-42.13c-5.89-5.89-11.64-11.9-17.32-18-2.23-1.84-4.42-4-6.8-6.44a47.79,47.79,0,0,0-22-12.16c-6.9-1.83-5.86-10.11-1.6-13.73,5-4.24,10.08-2.34,16.08-.75.14-.48.58-1.89.73-2.37a230.8,230.8,0,0,0-20.36-13.5c-5.35-3.14-2.14-14.14,4-14.32,9.47-.26,16.94,3.52,25.68,6.63a42.9,42.9,0,0,0,2.48-5.68l-4.66-3.61c-2-1.58-7.68-6.3-10.29-10.59-4.12-6.77,2-13.75,8.79-11.15s17.06,9.26,23.21,12.87c4.12,2.42,10.55,7.17,16,8.9,2-3.3,2.79-8.63,3.31-11.46,1.14-6.31,8.11-7.66,12-4.9A5.71,5.71,0,0,1,174,215q.33,17,1.35,33.95,7.5,7.67,15.4,14.9a6.81,6.81,0,0,1,.8.56,1634,1634,0,0,0,144.3,104,28.18,28.18,0,0,0,18.18,4.24c39-4.17,87.63-6.19,99.05-6.19,4.28,0,8.61-.06,12.56-.15A34,34,0,0,0,484,360.37c6.62-4.51,13.13-9.11,19.42-13.7,26.84-19.6,76.2-55.69,102.86-75.68,8.71-6.54,20.94-18.18,29.18-25q-.12-12.91-.25-25.84c-.07-7.42,9.86-7,12.78-2a102,102,0,0,1,5.76,11.32c9.69-9.25,19.48-18.4,30.72-25.79,5.85-3.85,15.1,3,9.68,9.13l-14.6,16.54c0,.14.11.27.16.41a12.1,12.1,0,0,0,2.17,3.68,105.14,105.14,0,0,1,14.69-11.18c4.25-2.67,12.42-.53,10.92,5.94s-4.79,10.94-9.35,15.62c-1.93,2-3.78,4-5.58,6,.76,1.65,1.46,3.34,2.11,5a85.82,85.82,0,0,0,8.14-5.94c3.74-3.07,10.4-1,10.88,4.14C714.56,262.23,706.77,268.85,701.23,275.18Zm-307,4.68c4.05-5.88,10.25-10.56,17.41-11.71a19.06,19.06,0,0,1,15,4,1.8,1.8,0,0,1,.76.29c12.6,8.31,13,24.35,9.66,37.61-.14.52-.27,1.05-.41,1.58,8.72.18,20.07,4.51,15.52,14.77-4.07,9.14-15.21,7.91-23.9,5.76a26.28,26.28,0,0,1-15.28,11.26,23.48,23.48,0,0,1-19.06-3.05c-5.37-3.64-8.47-9.5-9.64-15.77-1.42-7.63.05-15.42,1.69-22.89C387.56,294.11,389.69,286.37,394.18,279.86ZM376.67,298c7.48-11.31,12.15-17.34,24.7-25.55,2.23-1.46,11.32-1,10,.69a1.87,1.87,0,0,1,0,1.15l-5,18.21c-1.53,5.5-2.61,11.3-5.4,16.3a2.55,2.55,0,0,1-2.93.64l-19.68-8C376.72,300.83,375.86,299.26,376.67,298Z" style="fill:#1e78f0"/><line id="body-lines" x1="191.06" y1="918.17" x2="643.07" y2="918.17" style="fill:none;stroke:#3741f0;stroke-linecap:round;stroke-linejoin:round;stroke-width:6px"/><path id="object" d="M398.33,253.81a439.36,439.36,0,0,1,45.44,9.47c2.77.73,6.43-1.67,6.66-4.6.76-9.79-3.9-19.59-6.46-28.9q-4.26-15.51-7.33-31.32c-.8-4.12-5.1-6.8-8.94-4.2s-6.09,6.31-8.57,10.1Q415,210.68,411,217.08q-8.17,13.15-15.73,26.71a5.82,5.82,0,0,0-.56,1.37C392.86,248.28,393.7,253.1,398.33,253.81Z" style="fill:#f0b441"/><g id="object-lines"><path d="M385.31,318.62l-59.79-26.81a5,5,0,0,0-3.57-.61,2.46,2.46,0,1,0,2.93,3.55" style="fill:none;stroke:#dc8c2d;stroke-linecap:round;stroke-linejoin:round;stroke-width:6px"/><path d="M307.22,267.83l-5.46-10.28" style="fill:none;stroke:#dc8c2d;stroke-linecap:round;stroke-linejoin:round;stroke-width:6px"/><path d="M296.73,282.64l-12.42-3.89" style="fill:none;stroke:#dc8c2d;stroke-linecap:round;stroke-linejoin:round;stroke-width:6px"/><path d="M294.13,297c-3.28.9-6.55,1.87-9.78,2.94" style="fill:none;stroke:#dc8c2d;stroke-linecap:round;stroke-linejoin:round;stroke-width:6px"/><path d="M412.17,231l15.29,15.27a75.78,75.78,0,0,1,8.27,9.19" style="fill:none;stroke:#dc8c2d;stroke-linecap:round;stroke-linejoin:round;stroke-width:6px"/><path d="M419.44,214.17l5.22,5c4.64,4.4,9.29,8.82,13.52,13.63" style="fill:none;stroke:#dc8c2d;stroke-linecap:round;stroke-linejoin:round;stroke-width:6px"/><path d="M420.59,170.34a44.94,44.94,0,0,0-2.82-7" style="fill:none;stroke:#dc8c2d;stroke-linecap:round;stroke-linejoin:round;stroke-width:6px"/><path d="M448.08,169.34l3-6.23" style="fill:none;stroke:#dc8c2d;stroke-linecap:round;stroke-linejoin:round;stroke-width:6px"/><path d="M478.62,198.16a58.81,58.81,0,0,1,8.25-2" style="fill:none;stroke:#dc8c2d;stroke-linecap:round;stroke-linejoin:round;stroke-width:6px"/><path d="M393.24,183a28.9,28.9,0,0,0-5.37-3.52" style="fill:none;stroke:#dc8c2d;stroke-linecap:round;stroke-linejoin:round;stroke-width:6px"/></g></g></g></svg>