<svg width="258" height="200" viewBox="0 0 258 200" fill="none" xmlns="http://www.w3.org/2000/svg">
<g clip-path="url(#clip0_1151_255)">
<g opacity="0.24">
<path d="M100.206 182.815C104.686 178.031 110.784 171.22 115.099 166.822C117.653 164.219 121.741 159.99 124.65 156.973C125.643 155.945 126.263 154.615 126.412 153.194C126.561 151.773 126.231 150.344 125.473 149.132C123.578 146.102 121.127 142.246 119.788 140.372C98.6229 110.722 76.773 81.5617 54.5538 52.6943C53.3039 51.0727 51.1331 50.4286 49.3138 51.6103C27.3215 65.9107 12.2151 88.4342 4.21715 113.139C0.120288 125.8 -0.524713 138.244 0.351597 151.522C0.889838 159.483 1.77949 168.488 4.15932 176.152C6.35232 183.22 9.15918 189.781 13.4073 195.805C23.5271 210.155 33.3578 223.127 46.5158 234.708C47.2684 235.361 48.245 235.697 49.2404 235.646C50.2358 235.594 51.1725 235.16 51.8537 234.433L84.2861 199.817L100.206 182.815Z" fill="#E7F6FF"/>
<path d="M113.93 109.092C118.227 116.235 122.379 123.463 126.385 130.776C127.235 132.317 129.472 134.57 131.492 134.281C133.511 133.992 135.09 132.224 134.895 129.185C132.498 92.3816 132.825 55.4514 135.873 18.6958C136.06 16.4745 133.978 15.164 132.092 14.9196C108.344 11.9748 84.3492 17.9642 64.7811 31.7212C62.6459 33.2361 62.4012 35.6484 64.016 37.6519C82.2749 60.2938 98.9523 84.1635 113.93 109.092V109.092Z" fill="#E7F6FF"/>
<path d="M254.597 116.871C250.175 101.046 241.581 87.1059 230.576 75.049C219.9 63.3785 206.556 54.1247 192.068 47.4832C189.634 46.3681 181.837 42.6897 173.536 40.0686C165.236 37.4476 159.213 36.3414 157.287 36.3414C155.36 36.3414 152.273 36.2614 152.167 40.082C151.21 72.9565 150.952 129.821 150.361 137.648C149.769 145.476 148.301 149.95 144.845 154.774C124.747 182.846 101.656 211.381 75.9632 234.459C74.4908 235.792 72.8494 237.511 71.4927 238.995C70.7302 239.834 70.3239 240.936 70.3596 242.068C70.3953 243.2 70.8701 244.275 71.6839 245.064C74.046 247.36 77.2799 250.368 79.246 251.616C86.3386 256.06 93.9598 259.6 101.932 262.154C117.821 267.343 134.783 269 151.433 268.907C160.458 268.849 169.226 266.645 177.931 264.113C186.489 261.625 194.39 257.281 201.729 252.341C215.866 242.825 228.681 229.799 238.205 215.468C247.475 201.514 252.217 187.098 255.077 170.821C256.697 161.611 257.746 153.077 257.889 143.721C258.057 134.661 256.948 125.623 254.597 116.871V116.871Z" fill="#E7F6FF"/>
</g>
<path d="M55.532 178.16C55.2297 178.134 54.9253 178.162 54.6329 178.243C52.3101 178.856 49.909 179.12 47.5085 179.026C47.0757 179.009 46.6441 178.968 46.2158 178.903C44.8617 176.243 44.562 173.218 43.569 170.695C42.7638 168.652 40.2072 168.746 39.3623 170.952C38.6401 172.836 38.7881 175.034 38.7845 177.016L38.6906 176.86C38.0587 175.821 37.806 174.529 37.5676 173.352C37.1054 171.092 36.6216 168.53 36.1738 166.27C35.8127 164.361 32.924 163.769 31.9527 165.386C30.5552 167.736 30.4613 171.092 30.4505 173.94C28.6703 170.656 29.3275 166.638 28.2587 163.112C27.6376 161.072 25.0377 161.422 23.7559 162.697C22.474 163.971 22.0479 167.367 22.0623 170.158C22.0922 171.151 22.1802 172.142 22.3259 173.125C21.9034 172.818 21.4774 172.522 21.0404 172.244C19.2711 171.118 17.3754 172.854 17.6787 174.702C18.3286 178.672 21.4124 182.116 24.5069 184.809C24.8681 185.646 25.4195 186.387 26.1174 186.974C27.7604 189.822 29.4214 191.306 31.5807 192.234C34.5164 193.486 38.8531 194.54 43.3198 193.075C51.7333 190.36 56.5864 188.025 58.5941 179.903C58.9913 178.25 56.9511 177.633 55.532 178.16Z" fill="#E7F6FF"/>
<path d="M101.737 66.6572C101.983 67.7798 103.048 70.4509 104.323 72.6202C105.597 74.7895 108.811 76.8145 113.523 75.9554C119.496 74.8726 120.839 68.9276 120.89 63.683C120.94 58.3517 119.864 51.4105 115.495 47.8009C110.656 43.8016 104.908 46.996 102.838 52.1721C102.195 53.8232 101.746 55.5432 101.499 57.2977C100.264 57.2977 98.9712 57.1894 97.7832 57.6767C96.6695 58.1764 95.7731 59.0602 95.2579 60.1665C94.7427 61.2727 94.6431 62.5274 94.9775 63.701C95.855 66.6969 98.8593 66.9749 101.737 66.6572Z" fill="#E7F6FF"/>
<path d="M214.587 113.867C214.418 111.037 210.586 110.618 209.727 112.888C208.644 115.725 207.019 119.501 205.394 122.042C206.091 119.83 206.567 113.311 206.094 110.932C205.733 109.16 202.552 107.911 201.631 109.849C200.014 113.253 199.537 116.971 197.995 120.371C198.197 118.382 197.894 114.758 197.612 112.791C197.32 110.744 193.713 110.196 193.225 112.495C192.503 115.787 191.929 119.826 191.058 122.739C189.541 127.818 187.263 132.638 184.302 137.036C181.753 140.523 177.9 142.274 176.25 141.176C173.6 139.419 172.639 136.766 171.957 133.77C170.469 127.074 169.638 120.187 168.295 113.451C167.151 107.727 166.165 101.789 163.926 96.3674C156.599 78.6265 134.945 80.3519 119.302 81.3589C108.87 82.0267 98.7741 81.7488 88.4577 83.7918C80.2139 85.4233 70.0022 87.2714 64.9867 94.9381C63.6257 96.754 62.3845 98.6567 61.271 100.634C61.164 100.805 61.079 100.99 61.0183 101.183C60.5401 102.766 60.4693 104.445 60.8124 106.063C59.3284 114.607 60.6319 123.941 61.141 132.268C62.051 147.074 62.9585 161.881 63.8637 176.687L64.1851 181.91C63.9251 187.357 63.6362 192.807 63.4195 198.258C63.0368 207.885 64.3259 230.827 63.7806 240.378C63.5243 245.038 64.102 263.371 63.6867 268.02C63.4051 271.182 62.9862 275.477 62.8237 278.635C61.3613 279.31 58.9745 280.516 57.8768 281.79C56.6057 283.266 57.3315 285.512 59.3753 285.663C69.5401 286.41 85.1067 285.681 87.9016 285.681C90.6965 285.681 91.4764 283.761 91.4259 279.675C91.3898 276.852 91.4475 272.532 91.5089 269.713C91.5667 267.092 91.6497 264.468 91.657 261.847C91.657 258.96 91.9928 232.249 92.7402 221.781C93.4985 211.104 92.9388 200.384 93.0038 189.689C93.0761 177.965 93.3649 166.227 93.6502 154.521C98.8246 154.409 103.988 153.604 109.177 153.575C111.643 153.575 114.402 153.637 116.984 153.189C117.146 158.441 118.399 163.707 119.071 168.959C119.645 173.449 119.699 177.983 120.357 182.466C121.05 187.202 121.989 191.905 122.494 196.67C123 201.434 122.924 206.3 123.141 211.108C123.361 216.01 123.671 220.908 124.004 225.806C124.672 235.602 125.426 245.395 125.712 255.209C125.867 260.598 125.506 265.98 125.426 271.373C125.365 275.196 125.61 281.61 125.61 283.025C125.61 284.44 126.062 285.847 127.712 285.873C133.049 285.956 138.314 285.205 143.636 285.064C148.085 284.945 152.591 285.302 156.964 284.277C159.492 283.682 158.95 280.032 156.473 279.848C155.567 279.78 154.668 279.675 153.783 279.549V279.437C152.302 270.193 152.053 260.801 152.23 251.459C152.414 241.443 151.548 231.477 150.493 221.525C149.439 211.574 150.223 201.705 149.627 191.775C149.334 186.909 148.392 182.141 147.821 177.312C147.233 172.406 146.846 167.483 146.319 162.574C145.756 157.347 142.835 126.893 142.575 123.999C142.809 123.638 144.633 123.1 145.12 122.84L145.456 123.006C145.377 130.911 145.817 138.888 147.948 146.54C149.966 153.788 153.494 161.758 159.636 166.429C169.92 174.244 185.996 171.547 194.023 161.736C194.745 160.858 195.454 159.955 196.15 159.026C201.458 152.749 210.348 135.629 212.193 128.983C213.76 123.237 214.948 120.068 214.587 113.867Z" fill="#E7F6FF"/>
<path d="M248.652 107.81C245.475 104.319 241.21 104.312 236.787 104.175C230.829 103.987 224.084 104.316 218.125 104.641C211.702 105.002 187.393 106.943 180.973 107.373C169.19 108.163 149.724 110.488 142.715 111.145C135.811 111.791 128.993 112.408 122.097 113.072C115.2 113.737 96.589 115.787 94.2383 116.209C95.7332 113.285 96.0871 109.791 93.5161 107.474C90.566 104.817 85.5721 105.622 81.907 107.882C80.394 104.373 78.7041 100.944 76.2234 97.9881C72.9735 94.1043 68.3516 91.4549 63.6971 89.5851C53.7634 85.6146 44.0211 87.5385 34.7194 92.1876C18.4341 100.338 7.09222 116.664 5.95478 134.936C5.04482 149.551 10.649 165.761 22.565 174.698C22.3043 173.205 22.1414 171.697 22.0776 170.183C22.0776 167.393 22.4892 164 23.7711 162.722C25.053 161.444 27.6528 161.098 28.2739 163.137C29.3572 166.649 28.6856 170.666 30.4657 173.966C30.4657 171.118 30.5704 167.761 31.9679 165.411C32.9284 163.794 35.8099 164.386 36.189 166.295C36.6368 168.555 37.1207 171.118 37.5829 173.377C37.8212 174.554 38.074 175.846 38.7059 176.886L38.7997 177.041C38.7997 175.059 38.6589 172.861 39.3775 170.977C40.2225 168.771 42.779 168.678 43.5842 170.721C44.96 174.218 44.9961 178.691 48.3759 181.802C51.6853 181.639 54.9761 181.209 58.2157 180.513C66.6255 178.709 75.4398 175.619 80.0004 167.855C83.8171 161.357 86.0198 151.85 87.0923 144.234C90.0279 145.634 94.751 145.064 97.3003 142.429C99.1058 140.559 98.8278 137.585 96.6612 134.636C98.6942 134.365 102.608 134.116 104.641 133.842C117.381 132.116 130.138 130.33 143 129.918C149.33 129.713 155.48 129.113 161.752 128.305C168.024 127.496 174.408 127.247 180.774 127.049C183.775 126.955 186.772 126.763 189.765 126.529C190.235 125.298 190.668 124.042 191.065 122.728C191.954 119.815 192.546 115.776 193.232 112.484C193.719 110.185 197.327 110.733 197.619 112.78C197.901 114.755 198.204 118.379 198.002 120.36C199.544 116.96 200.02 113.242 201.638 109.838C202.559 107.9 205.751 109.149 206.101 110.921C206.574 113.3 206.101 119.819 205.401 122.031C207.018 119.505 208.65 115.715 209.734 112.878C210.593 110.614 214.428 111.026 214.594 113.856C214.955 120.057 213.763 123.241 212.171 128.969C211.679 130.618 211.087 132.236 210.398 133.813C210.503 134.961 210.579 136.098 210.593 137.184C210.651 141.458 210.824 148.233 212.319 152.294C213.763 156.196 217.273 155.571 219.66 152.788C220.021 155.149 220.588 157.459 221.664 159.437C223.632 163.047 227.803 162.715 229.608 159.123C231.103 156.127 231.388 152.431 231.464 148.941C236.025 151.37 236.931 143.245 237.162 139.697C237.448 135.365 237.068 133.463 236.559 129.175C236.292 127.046 236.133 124.905 236.083 122.761C240.362 122.609 245.377 122.273 248.623 119.151C251.512 116.368 251.292 110.708 248.652 107.81ZM44.8914 140.455C44.2876 141.452 43.5488 142.362 42.6959 143.158C37.814 147.684 28.1042 148.933 23.8 142.895C21.7417 140.007 21.5756 136.397 22.24 132.846C22.9045 129.294 24.7677 127.341 26.8476 125.287C29.2055 123.724 31.7476 122.45 34.7916 122.851C40.5402 123.602 44.8733 128.348 45.5088 133.986C45.7457 136.162 45.5356 138.363 44.8914 140.455V140.455Z" fill="#FECB2E"/>
<path d="M74.1863 146.266C71.4998 145.403 68.6905 143.739 66.2748 142.212C64.3249 140.971 60.1362 138.697 59.3201 135.878C58.5041 133.059 67.7769 135.264 71.4745 135.74C68.8782 134.473 65.4334 133.997 64.0613 131.532C62.6891 129.066 67.3942 127.969 69.6835 127.287C68.3402 126.709 66.4553 126.024 65.614 124.782C66.6034 123.403 67.6975 123.219 67.1342 121.356C66.2603 118.469 64.8087 116.606 61.6528 113.451C63.7291 114.191 66.2928 114.343 68.3366 113.451" stroke="#FD9426" stroke-width="4" stroke-linecap="round" stroke-linejoin="round"/>
<path d="M101.672 131.665C109.038 130.864 125.663 128.294 133.051 127.745C149.242 126.54 165.419 125.511 181.549 123.598" stroke="#FD9426" stroke-width="4" stroke-linecap="round" stroke-linejoin="round"/>
<path d="M16.1914 116.646C19.416 109.427 24.8143 103.402 31.4548 99.0493" stroke="#FD9426" stroke-width="4" stroke-linecap="round" stroke-linejoin="round"/>
<path d="M51.4883 176.644C56.3811 176.597 63.5596 174.789 67.5172 171.803C69.4924 170.309 71.695 168.327 73.1285 166.389C74.1071 165.064 74.7426 163.094 75.8259 161.985" stroke="#FD9426" stroke-width="4" stroke-linecap="round" stroke-linejoin="round"/>
<path d="M247.161 115.263C246.406 116.895 245.59 117.595 243.727 118.281C241.987 118.924 239.542 119.674 237.643 119.519" stroke="#FD9426" stroke-width="4" stroke-linecap="round" stroke-linejoin="round"/>
<path d="M114.145 54.8287C115.177 58.0518 115.693 61.4178 115.673 64.8019C114.215 65.0311 112.739 65.1325 111.264 65.1051" stroke="#96C2DD" stroke-width="4" stroke-linecap="round" stroke-linejoin="round"/>
</g>
<defs>
<clipPath id="clip0_1151_255">
<rect width="258" height="200" fill="white"/>
</clipPath>
</defs>
</svg>
