<svg width="431" height="240" viewBox="0 0 431 240" fill="none" xmlns="http://www.w3.org/2000/svg">
<g clip-path="url(#clip0_1144_155)">
<g filter="url(#filter0_d_1144_155)">
<rect width="540" height="40" rx="20" transform="matrix(0.866025 -0.5 0.866025 0.5 -10 198)" fill="white"/>
</g>
<path d="M47.5317 182.018L54.6088 186.104C55.7416 186.758 56.3028 187.418 56.2924 188.084C56.2924 188.756 55.7208 189.422 54.5777 190.082C53.2475 190.85 51.7873 191.297 50.1973 191.423L49.6829 190.64C50.5247 190.538 51.2417 190.4 51.8341 190.226C52.4265 190.052 52.998 189.806 53.5488 189.488C54.2763 189.068 54.6296 188.636 54.6088 188.192C54.5985 187.754 54.2191 187.319 53.4709 186.887L52.1303 186.113C52.4005 186.521 52.4369 186.932 52.2394 187.346C52.0523 187.754 51.6522 188.135 51.0391 188.489C50.374 188.873 49.6257 189.125 48.7943 189.245C47.9734 189.359 47.1316 189.335 46.269 189.173C45.4168 189.005 44.6166 188.705 43.8684 188.273C43.1201 187.841 42.6005 187.379 42.3095 186.887C42.029 186.389 41.9874 185.903 42.1848 185.429C42.3927 184.949 42.8292 184.517 43.4943 184.133C44.097 183.785 44.7517 183.557 45.4584 183.449C46.1651 183.341 46.8718 183.359 47.5784 183.503L46.269 182.747L47.5317 182.018ZM50.2441 187.742C50.9715 187.322 51.3041 186.854 51.2417 186.338C51.169 185.816 50.7065 185.309 49.8544 184.817C49.0126 184.331 48.1448 184.07 47.2511 184.034C46.3574 183.986 45.5416 184.175 44.8037 184.601C44.0658 185.027 43.7281 185.504 43.7905 186.032C43.8528 186.548 44.3049 187.049 45.1466 187.535C45.9988 188.027 46.877 188.294 47.7811 188.336C48.6852 188.366 49.5062 188.168 50.2441 187.742Z" fill="#121212"/>
<path d="M60.7185 183.297C60.0015 183.711 59.2065 183.984 58.3335 184.116C57.4709 184.242 56.5928 184.221 55.6991 184.053C54.8053 183.873 53.9635 183.555 53.1737 183.099C52.3839 182.643 51.8383 182.16 51.5369 181.65C51.2356 181.128 51.194 180.618 51.4122 180.12C51.6409 179.616 52.1137 179.157 52.8308 178.743C53.5479 178.329 54.3429 178.056 55.2158 177.924C56.0888 177.792 56.9721 177.816 57.8659 177.996C58.7596 178.164 59.6014 178.476 60.3912 178.932C61.181 179.388 61.7266 179.877 62.028 180.399C62.3294 180.909 62.3657 181.416 62.1371 181.92C61.9085 182.424 61.4356 182.883 60.7185 183.297ZM59.6741 182.694C60.4224 182.262 60.7497 181.791 60.6562 181.281C60.5627 180.759 60.043 180.225 59.0973 179.679C58.1724 179.145 57.2579 178.851 56.3538 178.797C55.4393 178.737 54.6131 178.92 53.8752 179.346C53.1374 179.772 52.8204 180.249 52.9243 180.777C53.0178 181.299 53.5271 181.827 54.452 182.361C55.3873 182.901 56.3018 183.201 57.1956 183.261C58.0997 183.315 58.9259 183.126 59.6741 182.694Z" fill="#121212"/>
<path d="M69.3653 178.304C68.6482 178.718 67.8532 178.991 66.9802 179.123C66.1177 179.249 65.2395 179.228 64.3458 179.06C63.452 178.88 62.6103 178.562 61.8205 178.106C61.0306 177.65 60.485 177.167 60.1837 176.657C59.8823 176.135 59.8407 175.625 60.059 175.127C60.2876 174.623 60.7604 174.164 61.4775 173.75C62.1946 173.336 62.9896 173.063 63.8625 172.931C64.7355 172.799 65.6188 172.823 66.5126 173.003C67.4063 173.171 68.2481 173.483 69.0379 173.939C69.8277 174.395 70.3733 174.884 70.6747 175.406C70.9761 175.916 71.0124 176.423 70.7838 176.927C70.5552 177.431 70.0823 177.89 69.3653 178.304ZM68.3208 177.701C69.0691 177.269 69.3964 176.798 69.3029 176.288C69.2094 175.766 68.6898 175.232 67.7441 174.686C66.8192 174.152 65.9046 173.858 65.0005 173.804C64.086 173.744 63.2598 173.927 62.5219 174.353C61.7841 174.779 61.4671 175.256 61.571 175.784C61.6646 176.306 62.1738 176.834 63.0987 177.368C64.034 177.908 64.9485 178.208 65.8423 178.268C66.7464 178.322 67.5726 178.133 68.3208 177.701Z" fill="#121212"/>
<path d="M73.959 166.76L81.0361 170.846C82.1689 171.5 82.7301 172.16 82.7197 172.826C82.7197 173.498 82.1481 174.164 81.005 174.824C79.6748 175.592 78.2146 176.039 76.6246 176.165L76.1102 175.382C76.952 175.28 77.669 175.142 78.2614 174.968C78.8538 174.794 79.4253 174.548 79.9761 174.23C80.7036 173.81 81.0569 173.378 81.0362 172.934C81.0258 172.496 80.6464 172.061 79.8982 171.629L78.5576 170.855C78.8278 171.263 78.8642 171.674 78.6667 172.088C78.4796 172.496 78.0795 172.877 77.4664 173.231C76.8013 173.615 76.053 173.867 75.2217 173.987C74.4007 174.101 73.5589 174.077 72.6963 173.915C71.8442 173.747 71.0439 173.447 70.2957 173.015C69.5475 172.583 69.0278 172.121 68.7369 171.629C68.4563 171.131 68.4147 170.645 68.6122 170.171C68.82 169.691 69.2565 169.259 69.9216 168.875C70.5243 168.527 71.179 168.299 71.8857 168.191C72.5924 168.083 73.2991 168.101 74.0058 168.245L72.6963 167.489L73.959 166.76ZM76.6714 172.484C77.3988 172.064 77.7314 171.596 77.669 171.08C77.5963 170.558 77.1338 170.051 76.2817 169.559C75.4399 169.073 74.5721 168.812 73.6784 168.776C72.7847 168.728 71.9689 168.917 71.231 169.343C70.4932 169.769 70.1554 170.246 70.2178 170.774C70.2801 171.29 70.7322 171.791 71.574 172.277C72.4261 172.769 73.3043 173.036 74.2084 173.078C75.1125 173.108 75.9335 172.91 76.6714 172.484Z" fill="#121212"/>
<path d="M83.8879 169.794L72.898 163.449L74.1607 162.72L85.1505 169.065L83.8879 169.794Z" fill="#121212"/>
<path d="M90.2701 161.951L84.7206 165.155C85.6455 165.641 86.5549 165.89 87.4486 165.902C88.332 165.908 89.1737 165.68 89.9739 165.218C90.8573 164.708 91.3665 164.066 91.5016 163.292L92.8422 163.58C92.8214 163.952 92.6448 164.342 92.3122 164.75C91.9693 165.152 91.5276 165.509 90.9872 165.821C89.8025 166.505 88.519 166.844 87.1368 166.838C85.7651 166.826 84.466 166.466 83.2397 165.758C82.4603 165.308 81.9251 164.825 81.6341 164.309C81.3327 163.787 81.286 163.274 81.4938 162.77C81.7121 162.26 82.1693 161.804 82.8656 161.402C83.8737 160.82 84.996 160.556 86.2327 160.61C87.459 160.658 88.6489 161.015 89.8025 161.681L90.2701 161.951ZM83.8633 161.96C83.1982 162.344 82.8708 162.773 82.8812 163.247C82.902 163.715 83.2553 164.189 83.9412 164.669L88.3527 162.122C87.5629 161.69 86.7835 161.462 86.0145 161.438C85.235 161.408 84.518 161.582 83.8633 161.96Z" fill="#121212"/>
<path d="M93.9544 162.146L95.5444 161.228L97.1344 162.146L95.5444 163.064L93.9544 162.146Z" fill="#121212"/>
<path d="M102.355 159.258C101.607 159.69 100.796 159.972 99.9234 160.104C99.0504 160.236 98.1723 160.221 97.2889 160.059C96.4056 159.885 95.569 159.57 94.7792 159.114C93.9894 158.658 93.449 158.172 93.158 157.656C92.867 157.128 92.8306 156.609 93.0489 156.099C93.2775 155.583 93.766 155.109 94.5142 154.677C95.0234 154.383 95.6158 154.149 96.2913 153.975C96.9564 153.795 97.5903 153.705 98.1931 153.705L98.7075 154.488C97.4085 154.566 96.39 154.818 95.6522 155.244C94.8727 155.694 94.5194 156.192 94.5921 156.738C94.6649 157.284 95.1637 157.824 96.0886 158.358C97.0032 158.886 97.9281 159.168 98.8634 159.204C99.7987 159.24 100.656 159.033 101.435 158.583C102.173 158.157 102.61 157.569 102.745 156.819L104.101 157.116C104.08 157.476 103.914 157.848 103.602 158.232C103.29 158.616 102.875 158.958 102.355 159.258Z" fill="#121212"/>
<path d="M109.752 154.987C109.035 155.401 108.24 155.674 107.367 155.806C106.505 155.932 105.626 155.911 104.733 155.743C103.839 155.563 102.997 155.245 102.207 154.789C101.418 154.333 100.872 153.85 100.571 153.34C100.269 152.818 100.228 152.308 100.446 151.81C100.674 151.306 101.147 150.847 101.864 150.433C102.581 150.019 103.376 149.746 104.249 149.614C105.122 149.482 106.006 149.506 106.899 149.686C107.793 149.854 108.635 150.166 109.425 150.622C110.215 151.078 110.76 151.567 111.062 152.089C111.363 152.599 111.399 153.106 111.171 153.61C110.942 154.114 110.469 154.573 109.752 154.987ZM108.708 154.384C109.456 153.952 109.783 153.481 109.69 152.971C109.596 152.449 109.077 151.915 108.131 151.369C107.206 150.835 106.292 150.541 105.387 150.487C104.473 150.427 103.647 150.61 102.909 151.036C102.171 151.462 101.854 151.939 101.958 152.467C102.051 152.989 102.561 153.517 103.486 154.051C104.421 154.591 105.335 154.891 106.229 154.951C107.133 155.005 107.959 154.816 108.708 154.384Z" fill="#121212"/>
<path d="M115.811 142.381C117.495 141.409 119.339 141.502 121.345 142.66L126.115 145.414L124.853 146.143L120.145 143.425C119.449 143.023 118.815 142.801 118.243 142.759C117.682 142.711 117.131 142.843 116.591 143.155C115.957 143.521 115.671 143.932 115.733 144.388C115.796 144.844 116.196 145.285 116.934 145.711L121.267 148.213L120.004 148.942L115.297 146.224C114.59 145.816 113.956 145.594 113.395 145.558C112.823 145.516 112.267 145.651 111.727 145.963C111.093 146.329 110.807 146.74 110.87 147.196C110.932 147.652 111.332 148.093 112.07 148.519L116.404 151.021L115.141 151.75L107.549 147.367L108.796 146.647L109.997 147.34C109.778 146.95 109.752 146.569 109.919 146.197C110.085 145.825 110.433 145.486 110.963 145.18C112.138 144.502 113.411 144.343 114.782 144.703C114.533 144.307 114.502 143.905 114.689 143.497C114.865 143.083 115.24 142.711 115.811 142.381Z" fill="#121212"/>
<g clip-path="url(#clip1_1144_155)">
<path d="M22.2296 201.062L23.5459 202.382L21.8208 203.421C20.2944 203.155 18.9029 202.679 17.7667 202.034C16.6306 201.388 15.7839 200.592 15.3 199.715V199.715L17.1568 198.975L19.4043 199.479C19.9995 200.18 20.9969 200.74 22.2268 201.064L22.2296 201.062Z" fill="#FBBB00"/>
<path d="M30.1537 193.323C31.6238 193.9 32.7939 194.698 33.5385 195.631C34.2831 196.563 34.5742 197.595 34.3806 198.615V198.615L32.3029 199.698L30.2791 198.85C30.6168 198.102 30.4997 197.31 29.9473 196.607L26.2428 198.746L23.502 197.163L30.1565 193.321L30.1537 193.323Z" fill="#518EF8"/>
<path d="M34.3819 198.615C34.2259 199.44 33.7572 200.236 33.0091 200.945C32.261 201.654 31.2518 202.259 30.0531 202.717C28.8545 203.176 27.4957 203.476 26.0732 203.598C24.6508 203.719 23.1995 203.658 21.8224 203.419L22.2298 201.062C23.0025 201.264 23.8426 201.367 24.6913 201.363C25.54 201.359 26.3769 201.247 27.1433 201.037C27.9098 200.826 28.5873 200.522 29.1286 200.144C29.6699 199.767 30.0618 199.326 30.2769 198.852L34.3819 198.615Z" fill="#28B446"/>
<path d="M23.729 192.367L23.3217 194.724C22.4685 194.838 21.671 195.062 20.9885 195.379C20.3061 195.696 19.7562 196.098 19.3799 196.555C19.0035 197.012 18.8103 197.511 18.8147 198.017C18.8191 198.523 19.0209 199.022 19.4052 199.476L15.3016 199.712C14.8582 198.907 14.7331 198.054 14.9355 197.217C15.1378 196.38 15.6625 195.58 16.4709 194.875C17.2793 194.171 18.3509 193.58 19.6069 193.146C20.8629 192.711 22.2715 192.445 23.729 192.367V192.367Z" fill="#F14336"/>
</g>
<g filter="url(#filter1_d_1144_155)">
<rect width="540" height="40" rx="20" transform="matrix(0.866025 -0.5 0.866025 0.5 31.5684 222)" fill="white"/>
</g>
<path d="M87.7601 206.81L89.0227 206.081L94.9152 214.667L93.6213 215.414L92.0001 213.002L81.3065 210.536L82.6471 209.762L91.3922 211.877L87.7601 206.81Z" fill="#121212"/>
<path d="M93.0739 203.508C94.0404 202.95 95.0069 202.68 95.9734 202.698C96.9398 202.704 97.9271 202.998 98.9352 203.58L103.721 206.343L102.489 207.054L101.195 206.307C101.445 206.679 101.492 207.054 101.336 207.432C101.17 207.804 100.821 208.143 100.291 208.449C99.8029 208.731 99.2521 208.935 98.639 209.061C98.0362 209.181 97.4387 209.208 96.8463 209.142C96.254 209.076 95.7447 208.92 95.3186 208.674C94.7471 208.344 94.4509 208.005 94.4301 207.657C94.3989 207.303 94.6483 206.895 95.1784 206.433C95.698 205.965 96.5501 205.389 97.7349 204.705L98.0778 204.507L97.5634 204.21C96.9295 203.844 96.3423 203.655 95.8019 203.643C95.2511 203.625 94.6847 203.784 94.1027 204.12C93.2298 204.624 92.6322 205.281 92.3101 206.091L90.9695 205.803C91.0838 205.413 91.3332 205.011 91.7177 204.597C92.1022 204.171 92.5543 203.808 93.0739 203.508ZM99.4652 207.774C100.089 207.414 100.39 207 100.369 206.532C100.349 206.052 100.006 205.62 99.3405 205.236L98.8884 204.975L98.6078 205.137C97.6933 205.665 97.0386 206.091 96.6437 206.415C96.2384 206.733 96.0253 207.006 96.0045 207.234C95.9838 207.45 96.15 207.66 96.5034 207.864C96.9087 208.098 97.3919 208.209 97.9531 208.197C98.5143 208.173 99.0183 208.032 99.4652 207.774Z" fill="#121212"/>
<path d="M102.073 198.313C103.891 197.263 105.804 197.317 107.809 198.475L112.579 201.229L111.317 201.958L106.625 199.249C105.918 198.841 105.263 198.625 104.66 198.601C104.068 198.571 103.47 198.73 102.868 199.078C102.171 199.48 101.828 199.924 101.839 200.41C101.849 200.896 102.218 201.349 102.946 201.769L107.295 204.28L106.032 205.009L95.0423 198.664L96.305 197.935L100.919 200.599C100.711 200.191 100.706 199.792 100.904 199.402C101.111 199.006 101.501 198.643 102.073 198.313Z" fill="#121212"/>
<path d="M118.15 198.138C117.433 198.552 116.638 198.825 115.765 198.957C114.902 199.083 114.024 199.062 113.131 198.894C112.237 198.714 111.395 198.396 110.605 197.94C109.815 197.484 109.27 197.001 108.968 196.491C108.667 195.969 108.625 195.459 108.844 194.961C109.072 194.457 109.545 193.998 110.262 193.584C110.979 193.17 111.774 192.897 112.647 192.765C113.52 192.633 114.404 192.657 115.297 192.837C116.191 193.005 117.033 193.317 117.823 193.773C118.612 194.229 119.158 194.718 119.459 195.24C119.761 195.75 119.797 196.257 119.569 196.761C119.34 197.265 118.867 197.724 118.15 198.138ZM117.106 197.535C117.854 197.103 118.181 196.632 118.088 196.122C117.994 195.6 117.475 195.066 116.529 194.52C115.604 193.986 114.689 193.692 113.785 193.638C112.871 193.578 112.045 193.761 111.307 194.187C110.569 194.613 110.252 195.09 110.356 195.618C110.449 196.14 110.959 196.668 111.883 197.202C112.819 197.742 113.733 198.042 114.627 198.102C115.531 198.156 116.357 197.967 117.106 197.535Z" fill="#121212"/>
<path d="M126.797 193.146C126.08 193.56 125.285 193.833 124.412 193.965C123.549 194.091 122.671 194.07 121.777 193.902C120.884 193.722 120.042 193.404 119.252 192.948C118.462 192.492 117.917 192.009 117.615 191.499C117.314 190.977 117.272 190.467 117.49 189.969C117.719 189.465 118.192 189.006 118.909 188.592C119.626 188.178 120.421 187.905 121.294 187.773C122.167 187.641 123.05 187.665 123.944 187.845C124.838 188.013 125.68 188.325 126.469 188.781C127.259 189.237 127.805 189.726 128.106 190.248C128.408 190.758 128.444 191.265 128.215 191.769C127.987 192.273 127.514 192.732 126.797 193.146ZM125.752 192.543C126.501 192.111 126.828 191.64 126.734 191.13C126.641 190.608 126.121 190.074 125.176 189.528C124.251 188.994 123.336 188.7 122.432 188.646C121.517 188.586 120.691 188.769 119.953 189.195C119.216 189.621 118.899 190.098 119.003 190.626C119.096 191.148 119.605 191.676 120.53 192.21C121.465 192.75 122.38 193.05 123.274 193.11C124.178 193.164 125.004 192.975 125.752 192.543Z" fill="#121212"/>
<path d="M130.15 189.248L131.74 188.33L133.33 189.248L131.74 190.166L130.15 189.248Z" fill="#121212"/>
<path d="M138.55 186.36C137.802 186.792 136.992 187.074 136.119 187.206C135.246 187.338 134.368 187.323 133.484 187.161C132.601 186.987 131.764 186.672 130.974 186.216C130.185 185.76 129.644 185.274 129.353 184.758C129.062 184.23 129.026 183.711 129.244 183.201C129.473 182.685 129.961 182.211 130.709 181.779C131.219 181.485 131.811 181.251 132.487 181.077C133.152 180.897 133.786 180.807 134.388 180.807L134.903 181.59C133.604 181.668 132.585 181.92 131.847 182.346C131.068 182.796 130.715 183.294 130.787 183.84C130.86 184.386 131.359 184.926 132.284 185.46C133.198 185.988 134.123 186.27 135.059 186.306C135.994 186.342 136.851 186.135 137.631 185.685C138.369 185.259 138.805 184.671 138.94 183.921L140.296 184.218C140.276 184.578 140.109 184.95 139.798 185.334C139.486 185.718 139.07 186.06 138.55 186.36Z" fill="#121212"/>
<path d="M145.947 182.089C145.23 182.503 144.435 182.776 143.562 182.908C142.7 183.034 141.822 183.013 140.928 182.845C140.034 182.665 139.192 182.347 138.403 181.891C137.613 181.435 137.067 180.952 136.766 180.442C136.464 179.92 136.423 179.41 136.641 178.912C136.87 178.408 137.343 177.949 138.06 177.535C138.777 177.121 139.572 176.848 140.445 176.716C141.318 176.584 142.201 176.608 143.095 176.788C143.988 176.956 144.83 177.268 145.62 177.724C146.41 178.18 146.955 178.669 147.257 179.191C147.558 179.701 147.595 180.208 147.366 180.712C147.137 181.216 146.664 181.675 145.947 182.089ZM144.903 181.486C145.651 181.054 145.979 180.583 145.885 180.073C145.792 179.551 145.272 179.017 144.326 178.471C143.401 177.937 142.487 177.643 141.583 177.589C140.668 177.529 139.842 177.712 139.104 178.138C138.366 178.564 138.049 179.041 138.153 179.569C138.247 180.091 138.756 180.619 139.681 181.153C140.616 181.693 141.531 181.993 142.424 182.053C143.329 182.107 144.155 181.918 144.903 181.486Z" fill="#121212"/>
<path d="M152.006 169.483C153.69 168.511 155.535 168.604 157.54 169.762L162.31 172.516L161.048 173.245L156.34 170.527C155.644 170.125 155.01 169.903 154.438 169.861C153.877 169.813 153.326 169.945 152.786 170.257C152.152 170.623 151.866 171.034 151.928 171.49C151.991 171.946 152.391 172.387 153.129 172.813L157.462 175.315L156.2 176.044L151.492 173.326C150.785 172.918 150.151 172.696 149.59 172.66C149.019 172.618 148.463 172.753 147.922 173.065C147.288 173.431 147.003 173.842 147.065 174.298C147.127 174.754 147.527 175.195 148.265 175.621L152.599 178.123L151.336 178.852L143.745 174.469L144.992 173.749L146.192 174.442C145.974 174.052 145.948 173.671 146.114 173.299C146.28 172.927 146.628 172.588 147.158 172.282C148.333 171.604 149.606 171.445 150.978 171.805C150.728 171.409 150.697 171.007 150.884 170.599C151.061 170.185 151.435 169.813 152.006 169.483Z" fill="#121212"/>
<g clip-path="url(#clip2_1144_155)">
<rect width="16" height="16" transform="matrix(0.866025 -0.5 0.866025 0.5 52.3535 222)" fill="#6001D2"/>
<g clip-path="url(#clip3_1144_155)">
<path d="M59.6523 223.214L61.5105 222.141L65.3535 223.111L63.6886 220.884L65.4979 219.839L69.3096 225.186L67.4889 226.237L66.5027 224.807L59.6523 223.214Z" fill="white"/>
<path d="M70.7324 222.433C71.3541 222.074 71.3554 221.493 70.7353 221.135C70.1153 220.777 69.1087 220.778 68.487 221.137C67.8653 221.496 67.864 222.077 68.484 222.435C69.1041 222.793 70.1107 222.792 70.7324 222.433Z" fill="white"/>
<path d="M69.5701 220.035L67.5437 221.205L65.0329 217.679L67.0518 216.513L69.5701 220.035Z" fill="white"/>
</g>
</g>
<g filter="url(#filter2_d_1144_155)">
<rect width="160" height="284" rx="16" transform="matrix(0.866025 -0.5 0.866025 0.5 38 88)" fill="white"/>
</g>
<mask id="path-15-outside-1_1144_155" maskUnits="userSpaceOnUse" x="89.9617" y="38" width="173.205" height="100" fill="black">
<rect fill="white" x="89.9617" y="38" width="173.205" height="100"/>
<path d="M134.995 64C143.217 59.2532 153.692 56.0207 165.095 54.711C176.499 53.4014 188.319 54.0736 199.061 56.6425C209.803 59.2114 218.985 63.5617 225.444 69.1433C231.904 74.7249 235.352 81.2871 235.352 88C235.352 94.7129 231.904 101.275 225.444 106.857C218.985 112.438 209.803 116.789 199.061 119.358C188.319 121.926 176.499 122.599 165.095 121.289C153.692 119.979 143.217 116.747 134.995 112L162.03 96.3914C164.905 98.051 168.567 99.1813 172.554 99.6392C176.541 100.097 180.674 99.862 184.43 98.9638C188.186 98.0656 191.396 96.5446 193.655 94.5931C195.913 92.6415 197.119 90.3471 197.119 88C197.119 85.6529 195.913 83.3585 193.655 81.4069C191.396 79.4554 188.186 77.9344 184.43 77.0362C180.674 76.138 176.541 75.9029 172.554 76.3608C168.567 76.8187 164.905 77.949 162.03 79.6086L134.995 64Z"/>
</mask>
<path d="M134.995 64C143.217 59.2532 153.692 56.0207 165.095 54.711C176.499 53.4014 188.319 54.0736 199.061 56.6425C209.803 59.2114 218.985 63.5617 225.444 69.1433C231.904 74.7249 235.352 81.2871 235.352 88C235.352 94.7129 231.904 101.275 225.444 106.857C218.985 112.438 209.803 116.789 199.061 119.358C188.319 121.926 176.499 122.599 165.095 121.289C153.692 119.979 143.217 116.747 134.995 112L162.03 96.3914C164.905 98.051 168.567 99.1813 172.554 99.6392C176.541 100.097 180.674 99.862 184.43 98.9638C188.186 98.0656 191.396 96.5446 193.655 94.5931C195.913 92.6415 197.119 90.3471 197.119 88C197.119 85.6529 195.913 83.3585 193.655 81.4069C191.396 79.4554 188.186 77.9344 184.43 77.0362C180.674 76.138 176.541 75.9029 172.554 76.3608C168.567 76.8187 164.905 77.949 162.03 79.6086L134.995 64Z" fill="#147EFB"/>
<path d="M134.995 64C143.217 59.2532 153.692 56.0207 165.095 54.711C176.499 53.4014 188.319 54.0736 199.061 56.6425C209.803 59.2114 218.985 63.5617 225.444 69.1433C231.904 74.7249 235.352 81.2871 235.352 88C235.352 94.7129 231.904 101.275 225.444 106.857C218.985 112.438 209.803 116.789 199.061 119.358C188.319 121.926 176.499 122.599 165.095 121.289C153.692 119.979 143.217 116.747 134.995 112L162.03 96.3914C164.905 98.051 168.567 99.1813 172.554 99.6392C176.541 100.097 180.674 99.862 184.43 98.9638C188.186 98.0656 191.396 96.5446 193.655 94.5931C195.913 92.6415 197.119 90.3471 197.119 88C197.119 85.6529 195.913 83.3585 193.655 81.4069C191.396 79.4554 188.186 77.9344 184.43 77.0362C180.674 76.138 176.541 75.9029 172.554 76.3608C168.567 76.8187 164.905 77.949 162.03 79.6086L134.995 64Z" stroke="white" stroke-width="4" mask="url(#path-15-outside-1_1144_155)"/>
<mask id="path-16-outside-2_1144_155" maskUnits="userSpaceOnUse" x="98.6219" y="71.5" width="73.6122" height="42.5" fill="black">
<rect fill="white" x="98.6219" y="71.5" width="73.6122" height="42.5"/>
<path d="M134.995 112C128.87 108.464 124.175 104.19 121.244 99.4844C118.313 94.7786 117.22 89.7571 118.042 84.7789L156.102 86.8738C155.815 88.6144 156.197 90.3701 157.222 92.0154C158.247 93.6607 159.889 95.155 162.03 96.3914L134.995 112Z"/>
</mask>
<path d="M134.995 112C128.87 108.464 124.175 104.19 121.244 99.4844C118.313 94.7786 117.22 89.7571 118.042 84.7789L156.102 86.8738C155.815 88.6144 156.197 90.3701 157.222 92.0154C158.247 93.6607 159.889 95.155 162.03 96.3914L134.995 112Z" fill="#FC3158"/>
<path d="M134.995 112C128.87 108.464 124.175 104.19 121.244 99.4844C118.313 94.7786 117.22 89.7571 118.042 84.7789L156.102 86.8738C155.815 88.6144 156.197 90.3701 157.222 92.0154C158.247 93.6607 159.889 95.155 162.03 96.3914L134.995 112Z" stroke="white" stroke-width="4" mask="url(#path-16-outside-2_1144_155)"/>
<mask id="path-17-outside-3_1144_155" maskUnits="userSpaceOnUse" x="122.005" y="62" width="44.1673" height="25.5" fill="black">
<rect fill="white" x="122.005" y="62" width="44.1673" height="25.5"/>
<path d="M134.995 64C132.038 65.7074 129.405 67.592 127.14 69.622L159.284 81.5743C160.075 80.8645 160.996 80.2056 162.03 79.6086L134.995 64Z"/>
</mask>
<path d="M134.995 64C132.038 65.7074 129.405 67.592 127.14 69.622L159.284 81.5743C160.075 80.8645 160.996 80.2056 162.03 79.6086L134.995 64Z" fill="#FECB2E"/>
<path d="M134.995 64C132.038 65.7074 129.405 67.592 127.14 69.622L159.284 81.5743C160.075 80.8645 160.996 80.2056 162.03 79.6086L134.995 64Z" stroke="white" stroke-width="4" mask="url(#path-17-outside-3_1144_155)"/>
<mask id="path-18-outside-4_1144_155" maskUnits="userSpaceOnUse" x="103.818" y="63.5" width="63.2199" height="36.5" fill="black">
<rect fill="white" x="103.818" y="63.5" width="63.2199" height="36.5"/>
<path d="M127.113 69.6463C122.064 74.1806 118.959 79.3439 118.054 84.7088L156.107 86.8493C156.423 84.9735 157.509 83.1682 159.274 81.5828L127.113 69.6463Z"/>
</mask>
<path d="M127.113 69.6463C122.064 74.1806 118.959 79.3439 118.054 84.7088L156.107 86.8493C156.423 84.9735 157.509 83.1682 159.274 81.5828L127.113 69.6463Z" fill="#53D769"/>
<path d="M127.113 69.6463C122.064 74.1806 118.959 79.3439 118.054 84.7088L156.107 86.8493C156.423 84.9735 157.509 83.1682 159.274 81.5828L127.113 69.6463Z" stroke="white" stroke-width="4" mask="url(#path-18-outside-4_1144_155)"/>
<path d="M215.836 141.456L218.709 139.797C220.075 139.008 221.502 138.614 222.989 138.614C224.477 138.605 225.903 138.994 227.269 139.783C228.635 140.572 229.314 141.398 229.306 142.261C229.306 143.12 228.623 143.943 227.257 144.732L224.384 146.391L215.836 141.456ZM226.348 144.277C228.562 142.998 228.526 141.699 226.239 140.378C223.959 139.062 221.712 139.043 219.497 140.322L217.679 141.372L224.529 145.327L226.348 144.277Z" fill="#121212"/>
<path d="M235.347 136.827L231.031 139.319C231.75 139.697 232.458 139.891 233.153 139.9C233.84 139.905 234.494 139.728 235.117 139.368C235.804 138.972 236.2 138.472 236.305 137.87L237.348 138.094C237.332 138.384 237.194 138.687 236.935 139.004C236.669 139.317 236.325 139.595 235.905 139.837C234.983 140.369 233.985 140.633 232.91 140.628C231.843 140.619 230.833 140.339 229.879 139.788C229.273 139.438 228.857 139.063 228.63 138.661C228.396 138.255 228.359 137.856 228.521 137.464C228.691 137.068 229.047 136.713 229.588 136.4C230.372 135.948 231.245 135.742 232.207 135.784C233.161 135.822 234.086 136.099 234.983 136.617L235.347 136.827ZM230.364 136.834C229.847 137.133 229.592 137.467 229.6 137.835C229.616 138.199 229.891 138.568 230.425 138.941L233.856 136.96C233.242 136.624 232.635 136.447 232.037 136.428C231.431 136.405 230.873 136.54 230.364 136.834Z" fill="#121212"/>
<path d="M241.68 136.503C240.686 137.077 239.643 137.385 238.552 137.427L238.152 136.818C238.718 136.78 239.219 136.701 239.655 136.58C240.092 136.449 240.516 136.265 240.929 136.027C241.365 135.775 241.624 135.541 241.704 135.327C241.785 135.103 241.684 134.909 241.401 134.746C241.167 134.61 240.904 134.547 240.613 134.557C240.322 134.566 239.959 134.65 239.522 134.809L238.298 135.25C237.683 135.474 237.105 135.583 236.564 135.579C236.022 135.574 235.549 135.455 235.145 135.222C234.62 134.918 234.402 134.554 234.49 134.13C234.579 133.705 234.967 133.294 235.654 132.898C236.067 132.66 236.527 132.473 237.037 132.338C237.538 132.198 238.039 132.128 238.54 132.128L238.928 132.73C237.926 132.776 237.101 132.986 236.455 133.36C236.042 133.598 235.8 133.831 235.727 134.06C235.654 134.279 235.76 134.47 236.042 134.634C236.277 134.769 236.535 134.839 236.818 134.844C237.101 134.839 237.437 134.767 237.825 134.627L239.073 134.186C239.752 133.943 240.359 133.822 240.892 133.822C241.418 133.817 241.89 133.936 242.311 134.179C242.828 134.477 243.03 134.837 242.917 135.257C242.812 135.672 242.4 136.087 241.68 136.503Z" fill="#121212"/>
<path d="M250.682 131.207L249.409 131.942L243.577 132.047L246.402 133.678L245.42 134.245L236.873 129.31L237.855 128.743L243.177 131.816L243.262 128.687L244.511 127.966L244.402 131.291L250.682 131.207Z" fill="#121212"/>
<path d="M253.326 128.869C253.504 128.766 253.67 128.657 253.824 128.54L254.551 129.016C254.397 129.142 254.212 129.268 253.993 129.394C253.282 129.805 252.559 130.008 251.823 130.003C251.096 129.994 250.4 129.798 249.738 129.415L246.634 127.623L245.482 128.288L244.706 127.84L245.858 127.175L244.063 126.139L245.046 125.572L246.84 126.608L248.513 125.642L249.289 126.09L247.616 127.056L250.647 128.806C251.576 129.343 252.47 129.364 253.326 128.869Z" fill="#121212"/>
<path d="M258.089 127.029C257.532 127.351 256.913 127.563 256.234 127.666C255.564 127.764 254.881 127.748 254.185 127.617C253.49 127.477 252.836 127.23 252.221 126.875C251.607 126.52 251.183 126.145 250.948 125.748C250.714 125.342 250.681 124.945 250.851 124.558C251.029 124.166 251.397 123.809 251.954 123.487C252.512 123.165 253.131 122.953 253.81 122.85C254.488 122.747 255.176 122.766 255.871 122.906C256.566 123.037 257.22 123.279 257.835 123.634C258.449 123.989 258.873 124.369 259.108 124.775C259.342 125.172 259.371 125.566 259.193 125.958C259.015 126.35 258.647 126.707 258.089 127.029ZM257.277 126.56C257.859 126.224 258.114 125.858 258.041 125.461C257.968 125.055 257.564 124.64 256.828 124.215C256.109 123.8 255.398 123.571 254.695 123.529C253.983 123.482 253.341 123.625 252.767 123.956C252.193 124.287 251.946 124.658 252.027 125.069C252.1 125.475 252.496 125.886 253.215 126.301C253.943 126.721 254.654 126.954 255.349 127.001C256.053 127.043 256.695 126.896 257.277 126.56Z" fill="#121212"/>
<path d="M259.201 119.303C259.718 119.004 260.304 118.815 260.959 118.736C261.614 118.657 262.285 118.689 262.972 118.834C263.651 118.974 264.297 119.221 264.912 119.576C265.526 119.931 265.954 120.304 266.197 120.696C266.431 121.083 266.476 121.464 266.33 121.837C266.193 122.206 265.861 122.542 265.336 122.845C264.875 123.111 264.37 123.286 263.82 123.37C263.279 123.449 262.733 123.433 262.184 123.321L265.445 125.204L264.463 125.771L256.376 121.102L257.358 120.535L258.377 121.123C258.183 120.806 258.154 120.491 258.292 120.178C258.437 119.861 258.74 119.569 259.201 119.303ZM264.33 122.488C264.904 122.157 265.154 121.788 265.081 121.382C265.009 120.976 264.617 120.568 263.905 120.157C263.194 119.746 262.483 119.518 261.771 119.471C261.052 119.42 260.405 119.56 259.832 119.891C259.258 120.222 259.007 120.591 259.08 120.997C259.161 121.398 259.561 121.807 260.28 122.222C261 122.637 261.711 122.871 262.414 122.922C263.117 122.964 263.756 122.819 264.33 122.488Z" fill="#121212"/>
<circle r="4" transform="matrix(0.866025 -0.5 0.866025 0.5 208.608 150.5)" fill="#147EFB"/>
<path d="M247.766 159.891L239.219 154.956L240.213 154.382L247.912 158.827L252.192 156.356L253.041 156.846L247.766 159.891Z" fill="#121212"/>
<path d="M250.519 151.316C251.271 150.882 252.023 150.672 252.774 150.686C253.526 150.69 254.294 150.919 255.078 151.372L258.8 153.521L257.842 154.074L256.836 153.493C257.03 153.782 257.066 154.074 256.945 154.368C256.816 154.657 256.545 154.921 256.133 155.159C255.753 155.378 255.324 155.537 254.848 155.635C254.379 155.728 253.914 155.749 253.453 155.698C252.992 155.646 252.596 155.525 252.265 155.334C251.82 155.077 251.59 154.813 251.574 154.543C251.55 154.267 251.744 153.95 252.156 153.591C252.56 153.227 253.223 152.779 254.144 152.247L254.411 152.093L254.011 151.862C253.518 151.577 253.061 151.43 252.641 151.421C252.212 151.407 251.772 151.53 251.319 151.792C250.64 152.184 250.176 152.695 249.925 153.325L248.882 153.101C248.971 152.797 249.165 152.485 249.464 152.163C249.763 151.831 250.115 151.549 250.519 151.316ZM255.49 154.634C255.975 154.354 256.209 154.032 256.193 153.668C256.177 153.294 255.91 152.958 255.393 152.66L255.042 152.457L254.823 152.583C254.112 152.993 253.603 153.325 253.296 153.577C252.98 153.824 252.815 154.036 252.799 154.214C252.782 154.382 252.912 154.545 253.186 154.704C253.502 154.886 253.878 154.972 254.314 154.963C254.751 154.944 255.143 154.834 255.49 154.634Z" fill="#121212"/>
<path d="M257.518 147.275C258.035 146.976 258.622 146.787 259.276 146.708C259.931 146.628 260.602 146.661 261.289 146.806C261.968 146.946 262.614 147.193 263.229 147.548C263.843 147.902 264.271 148.276 264.514 148.668C264.748 149.055 264.793 149.435 264.647 149.809C264.51 150.177 264.179 150.513 263.653 150.817C263.192 151.083 262.687 151.258 262.138 151.342C261.596 151.421 261.05 151.405 260.501 151.293L263.762 153.176L262.78 153.743L254.693 149.074L255.675 148.507L256.694 149.095C256.5 148.777 256.471 148.462 256.609 148.15C256.754 147.832 257.057 147.541 257.518 147.275ZM262.647 150.46C263.221 150.128 263.471 149.76 263.399 149.354C263.326 148.948 262.934 148.539 262.222 148.129C261.511 147.718 260.8 147.489 260.089 147.443C259.369 147.391 258.723 147.531 258.149 147.863C257.575 148.194 257.324 148.563 257.397 148.969C257.478 149.37 257.878 149.778 258.597 150.194C259.317 150.609 260.028 150.842 260.731 150.894C261.434 150.936 262.073 150.791 262.647 150.46Z" fill="#121212"/>
<path d="M269.534 146.511C269.712 146.409 269.878 146.299 270.031 146.182L270.759 146.658C270.605 146.784 270.419 146.91 270.201 147.036C269.49 147.447 268.766 147.65 268.031 147.645C267.303 147.636 266.608 147.44 265.945 147.057L262.841 145.265L261.69 145.93L260.914 145.482L262.065 144.817L260.271 143.781L261.253 143.214L263.048 144.25L264.721 143.284L265.497 143.732L263.824 144.698L266.855 146.448C267.784 146.985 268.677 147.006 269.534 146.511Z" fill="#121212"/>
<path d="M274.297 144.672C273.739 144.994 273.121 145.206 272.442 145.309C271.771 145.407 271.088 145.39 270.393 145.26C269.698 145.12 269.043 144.872 268.429 144.518C267.815 144.163 267.39 143.787 267.156 143.391C266.921 142.985 266.889 142.588 267.059 142.201C267.237 141.809 267.604 141.452 268.162 141.13C268.72 140.808 269.338 140.595 270.017 140.493C270.696 140.39 271.383 140.409 272.078 140.549C272.773 140.679 273.428 140.922 274.042 141.277C274.657 141.631 275.081 142.012 275.316 142.418C275.55 142.814 275.578 143.209 275.4 143.601C275.223 143.993 274.855 144.35 274.297 144.672ZM273.485 144.203C274.067 143.867 274.321 143.5 274.249 143.104C274.176 142.698 273.772 142.282 273.036 141.858C272.317 141.442 271.605 141.214 270.902 141.172C270.191 141.125 269.548 141.267 268.974 141.599C268.401 141.93 268.154 142.301 268.235 142.712C268.308 143.118 268.704 143.528 269.423 143.944C270.151 144.364 270.862 144.597 271.557 144.644C272.26 144.686 272.903 144.539 273.485 144.203Z" fill="#121212"/>
<path d="M275.409 136.946C275.926 136.647 276.512 136.458 277.167 136.379C277.821 136.299 278.492 136.332 279.179 136.477C279.858 136.617 280.505 136.864 281.119 137.219C281.734 137.573 282.162 137.947 282.404 138.339C282.639 138.726 282.683 139.106 282.538 139.48C282.4 139.848 282.069 140.184 281.544 140.488C281.083 140.754 280.578 140.929 280.028 141.013C279.487 141.092 278.941 141.076 278.391 140.964L281.653 142.847L280.671 143.414L272.584 138.745L273.566 138.178L274.584 138.766C274.39 138.448 274.362 138.133 274.499 137.821C274.645 137.503 274.948 137.212 275.409 136.946ZM280.537 140.131C281.111 139.799 281.362 139.431 281.289 139.025C281.216 138.619 280.824 138.21 280.113 137.8C279.402 137.389 278.69 137.16 277.979 137.114C277.26 137.062 276.613 137.202 276.039 137.534C275.465 137.865 275.215 138.234 275.287 138.64C275.368 139.041 275.768 139.449 276.488 139.865C277.207 140.28 277.918 140.513 278.622 140.565C279.325 140.607 279.963 140.462 280.537 140.131Z" fill="#121212"/>
<circle r="4" transform="matrix(0.866025 -0.5 0.866025 0.5 231.991 164)" fill="#FC3158"/>
<path d="M269.864 164.263L270.676 163.794L279.224 168.729L278.315 169.254L271.707 165.425L274.192 170.066L273.489 170.472L265.487 169.072L272.071 172.859L271.149 173.391L262.602 168.456L263.426 167.98L272.859 169.688L269.864 164.263Z" fill="#121212"/>
<path d="M283.732 166.224C283.174 166.546 282.556 166.758 281.877 166.861C281.206 166.959 280.523 166.943 279.828 166.812C279.133 166.672 278.478 166.425 277.864 166.07C277.25 165.715 276.825 165.34 276.591 164.943C276.356 164.537 276.324 164.14 276.494 163.753C276.672 163.361 277.039 163.004 277.597 162.682C278.155 162.36 278.773 162.148 279.452 162.045C280.131 161.942 280.818 161.961 281.513 162.101C282.209 162.232 282.863 162.474 283.478 162.829C284.092 163.184 284.516 163.564 284.751 163.97C284.985 164.367 285.013 164.761 284.835 165.153C284.658 165.545 284.29 165.902 283.732 166.224ZM282.92 165.755C283.502 165.419 283.756 165.053 283.684 164.656C283.611 164.25 283.207 163.835 282.471 163.41C281.752 162.995 281.041 162.766 280.337 162.724C279.626 162.677 278.983 162.82 278.41 163.151C277.836 163.482 277.589 163.853 277.67 164.264C277.743 164.67 278.139 165.081 278.858 165.496C279.586 165.916 280.297 166.149 280.992 166.196C281.695 166.238 282.338 166.091 282.92 165.755Z" fill="#121212"/>
<path d="M284.844 158.498C285.361 158.2 285.943 158.008 286.59 157.924C287.236 157.84 287.899 157.868 288.578 158.008C289.257 158.148 289.9 158.393 290.506 158.743C291.12 159.098 291.553 159.474 291.803 159.87C292.046 160.262 292.098 160.647 291.961 161.025C291.823 161.403 291.496 161.742 290.979 162.04C290.518 162.306 290.013 162.481 289.463 162.565C288.922 162.645 288.376 162.628 287.826 162.516L288.905 163.139L287.923 163.706L279.376 158.771L280.358 158.204L284.019 160.318C283.825 160.001 283.797 159.686 283.934 159.373C284.08 159.056 284.383 158.764 284.844 158.498ZM289.972 161.683C290.546 161.352 290.793 160.981 290.712 160.57C290.623 160.155 290.219 159.74 289.5 159.324C288.796 158.918 288.093 158.694 287.39 158.652C286.687 158.61 286.048 158.755 285.474 159.086C284.9 159.418 284.65 159.786 284.723 160.192C284.803 160.594 285.203 161.002 285.923 161.417C286.642 161.833 287.354 162.066 288.057 162.117C288.76 162.159 289.399 162.015 289.972 161.683Z" fill="#121212"/>
<path d="M294.98 159.632L289.076 156.223L290.058 155.656L295.962 159.065L294.98 159.632ZM286.42 154.802L287.609 154.116L288.712 154.753L287.524 155.439L286.42 154.802Z" fill="#121212"/>
<path d="M297.798 158.005L289.25 153.07L290.232 152.503L298.78 157.438L297.798 158.005Z" fill="#121212"/>
<path d="M302.762 151.905L298.446 154.397C299.165 154.775 299.872 154.969 300.568 154.978C301.255 154.983 301.909 154.805 302.532 154.446C303.219 154.049 303.615 153.55 303.72 152.948L304.763 153.172C304.746 153.461 304.609 153.765 304.35 154.082C304.084 154.395 303.74 154.672 303.32 154.915C302.398 155.447 301.4 155.711 300.325 155.706C299.258 155.697 298.248 155.417 297.294 154.866C296.688 154.516 296.271 154.14 296.045 153.739C295.811 153.333 295.774 152.934 295.936 152.542C296.106 152.145 296.461 151.791 297.003 151.478C297.787 151.025 298.66 150.82 299.622 150.862C300.576 150.899 301.501 151.177 302.398 151.695L302.762 151.905ZM297.779 151.912C297.262 152.211 297.007 152.544 297.015 152.913C297.031 153.277 297.306 153.646 297.84 154.019L301.271 152.038C300.656 151.702 300.05 151.525 299.452 151.506C298.846 151.483 298.288 151.618 297.779 151.912Z" fill="#121212"/>
<circle r="4" transform="matrix(0.866025 -0.5 0.866025 0.5 255.372 177.5)" fill="#53D769"/>
<path d="M298.207 184.882C297.415 185.339 296.546 185.636 295.6 185.771C294.662 185.902 293.709 185.869 292.739 185.673C291.769 185.477 290.839 185.122 289.95 184.609C289.053 184.091 288.43 183.554 288.083 182.999C287.735 182.434 287.679 181.884 287.913 181.347C288.148 180.801 288.665 180.297 289.465 179.835C290.265 179.373 291.134 179.077 292.072 178.946C293.009 178.806 293.963 178.839 294.933 179.044C295.903 179.24 296.833 179.595 297.722 180.108C298.611 180.621 299.229 181.16 299.577 181.725C299.916 182.285 299.969 182.838 299.734 183.384C299.508 183.925 298.999 184.425 298.207 184.882ZM297.358 184.392C298.263 183.869 298.663 183.288 298.558 182.649C298.453 182 297.835 181.349 296.703 180.696C295.572 180.043 294.452 179.686 293.345 179.625C292.237 179.564 291.227 179.798 290.314 180.325C289.408 180.848 289.008 181.433 289.113 182.082C289.218 182.721 289.833 183.365 290.956 184.014C292.08 184.663 293.199 185.02 294.315 185.085C295.438 185.146 296.453 184.915 297.358 184.392Z" fill="#121212"/>
<path d="M305.538 179.725C305.716 179.623 305.881 179.513 306.035 179.396L306.762 179.872C306.609 179.998 306.423 180.124 306.205 180.25C305.493 180.661 304.77 180.864 304.035 180.859C303.307 180.85 302.612 180.654 301.949 180.271L298.845 178.479L297.693 179.144L296.918 178.696L298.069 178.031L296.275 176.995L297.257 176.428L299.051 177.464L300.725 176.498L301.501 176.946L299.827 177.912L302.858 179.662C303.788 180.199 304.681 180.22 305.538 179.725Z" fill="#121212"/>
<path d="M304.687 174.042C306.102 173.226 307.589 173.268 309.149 174.168L312.859 176.31L311.877 176.877L308.228 174.77C307.678 174.453 307.169 174.285 306.7 174.266C306.239 174.243 305.774 174.367 305.306 174.637C304.764 174.95 304.497 175.295 304.505 175.673C304.514 176.051 304.801 176.404 305.366 176.73L308.749 178.683L307.767 179.25L299.219 174.315L300.201 173.748L303.79 175.82C303.628 175.503 303.624 175.193 303.778 174.889C303.94 174.581 304.243 174.299 304.687 174.042Z" fill="#121212"/>
<path d="M316.804 170.799L312.488 173.291C313.207 173.669 313.914 173.863 314.609 173.872C315.296 173.877 315.951 173.699 316.574 173.34C317.261 172.943 317.657 172.444 317.762 171.842L318.804 172.066C318.788 172.355 318.651 172.659 318.392 172.976C318.125 173.289 317.782 173.566 317.362 173.809C316.44 174.341 315.442 174.605 314.367 174.6C313.3 174.591 312.29 174.311 311.336 173.76C310.73 173.41 310.313 173.034 310.087 172.633C309.853 172.227 309.816 171.828 309.978 171.436C310.148 171.039 310.503 170.685 311.045 170.372C311.829 169.919 312.702 169.714 313.664 169.756C314.618 169.793 315.543 170.071 316.44 170.589L316.804 170.799ZM311.821 170.806C311.304 171.105 311.049 171.438 311.057 171.807C311.073 172.171 311.348 172.54 311.881 172.913L315.313 170.932C314.698 170.596 314.092 170.419 313.494 170.4C312.888 170.377 312.33 170.512 311.821 170.806Z" fill="#121212"/>
<path d="M319.197 166.645L318.615 167.051C318.065 167.434 317.814 167.798 317.863 168.143C317.919 168.484 318.186 168.792 318.663 169.067L322.034 171.013L321.052 171.58L315.147 168.171L316.105 167.618L317.135 168.213C316.78 167.625 317.047 167.028 317.936 166.421L318.263 166.204L319.197 166.645Z" fill="#121212"/>
<circle r="4" transform="matrix(0.866025 -0.5 0.866025 0.5 278.756 191)" fill="#FECB2E"/>
</g>
<defs>
<filter id="filter0_d_1144_155" x="-1.85352" y="-66.1422" width="486.002" height="282.284" filterUnits="userSpaceOnUse" color-interpolation-filters="sRGB">
<feFlood flood-opacity="0" result="BackgroundImageFix"/>
<feColorMatrix in="SourceAlpha" type="matrix" values="0 0 0 0 0 0 0 0 0 0 0 0 0 0 0 0 0 0 127 0" result="hardAlpha"/>
<feOffset dy="2"/>
<feGaussianBlur stdDeviation="1"/>
<feColorMatrix type="matrix" values="0 0 0 0 0 0 0 0 0 0 0 0 0 0 0 0 0 0 0.04 0"/>
<feBlend mode="normal" in2="BackgroundImageFix" result="effect1_dropShadow_1144_155"/>
<feBlend mode="normal" in="SourceGraphic" in2="effect1_dropShadow_1144_155" result="shape"/>
</filter>
<filter id="filter1_d_1144_155" x="39.7148" y="-42.1421" width="486.002" height="282.284" filterUnits="userSpaceOnUse" color-interpolation-filters="sRGB">
<feFlood flood-opacity="0" result="BackgroundImageFix"/>
<feColorMatrix in="SourceAlpha" type="matrix" values="0 0 0 0 0 0 0 0 0 0 0 0 0 0 0 0 0 0 127 0" result="hardAlpha"/>
<feOffset dy="2"/>
<feGaussianBlur stdDeviation="1"/>
<feColorMatrix type="matrix" values="0 0 0 0 0 0 0 0 0 0 0 0 0 0 0 0 0 0 0.04 0"/>
<feBlend mode="normal" in2="BackgroundImageFix" result="effect1_dropShadow_1144_155"/>
<feBlend mode="normal" in="SourceGraphic" in2="effect1_dropShadow_1144_155" result="shape"/>
</filter>
<filter id="filter2_d_1144_155" x="34.1172" y="12.6863" width="392.281" height="236.627" filterUnits="userSpaceOnUse" color-interpolation-filters="sRGB">
<feFlood flood-opacity="0" result="BackgroundImageFix"/>
<feColorMatrix in="SourceAlpha" type="matrix" values="0 0 0 0 0 0 0 0 0 0 0 0 0 0 0 0 0 0 127 0" result="hardAlpha"/>
<feOffset dy="12"/>
<feGaussianBlur stdDeviation="6"/>
<feColorMatrix type="matrix" values="0 0 0 0 0 0 0 0 0 0 0 0 0 0 0 0 0 0 0.03 0"/>
<feBlend mode="normal" in2="BackgroundImageFix" result="effect1_dropShadow_1144_155"/>
<feBlend mode="normal" in="SourceGraphic" in2="effect1_dropShadow_1144_155" result="shape"/>
</filter>
<clipPath id="clip0_1144_155">
<path d="M0 0H415C423.837 0 431 7.16345 431 16V240H0V0Z" fill="white"/>
</clipPath>
<clipPath id="clip1_1144_155">
<rect width="16" height="16" fill="white" transform="matrix(0.866025 -0.5 0.866025 0.5 10.7852 198)"/>
</clipPath>
<clipPath id="clip2_1144_155">
<rect width="16" height="16" fill="white" transform="matrix(0.866025 -0.5 0.866025 0.5 52.3535 222)"/>
</clipPath>
<clipPath id="clip3_1144_155">
<rect width="11" height="10" fill="white" transform="matrix(0.866025 -0.5 0.866025 0.5 57.5488 222)"/>
</clipPath>
</defs>
</svg>
