<?xml version="1.0" encoding="UTF-8" standalone="no"?>
<svg
   xmlns:dc="http://purl.org/dc/elements/1.1/"
   xmlns:cc="http://creativecommons.org/ns#"
   xmlns:rdf="http://www.w3.org/1999/02/22-rdf-syntax-ns#"
   xmlns:svg="http://www.w3.org/2000/svg"
   xmlns="http://www.w3.org/2000/svg"
   xmlns:xlink="http://www.w3.org/1999/xlink"
   xmlns:sodipodi="http://sodipodi.sourceforge.net/DTD/sodipodi-0.dtd"
   xmlns:inkscape="http://www.inkscape.org/namespaces/inkscape"
   inkscape:version="1.0 (6e3e5246a0, 2020-05-07)"
   sodipodi:docname="Beta-badge.svg"
   id="svg2"
   viewBox="0 0 80.209755 80.209755"
   height="80.209755"
   width="80.209755"
   version="1.0">
  <metadata
     id="metadata116">
    <rdf:RDF>
      <cc:Work
         rdf:about="">
        <dc:format>image/svg+xml</dc:format>
        <dc:type
           rdf:resource="http://purl.org/dc/dcmitype/StillImage" />
      </cc:Work>
    </rdf:RDF>
  </metadata>
  <sodipodi:namedview
     inkscape:current-layer="g3307"
     inkscape:window-maximized="1"
     inkscape:window-y="27"
     inkscape:window-x="0"
     inkscape:cy="34.232875"
     inkscape:cx="17.883381"
     inkscape:zoom="5.9333333"
     showgrid="false"
     id="namedview114"
     inkscape:window-height="745"
     inkscape:window-width="1280"
     inkscape:pageshadow="2"
     inkscape:pageopacity="0"
     guidetolerance="10"
     gridtolerance="10"
     objecttolerance="10"
     borderopacity="1"
     bordercolor="#666666"
     pagecolor="#ffffff" />
  <defs
     id="defs4">
    <linearGradient
       id="linearGradient3179">
      <stop
         offset="0"
         style="stop-color:#ffffff;stop-opacity:1"
         id="stop3181" />
      <stop
         offset="1"
         style="stop-color:#ffffff;stop-opacity:0.06666667"
         id="stop3183" />
    </linearGradient>
    <linearGradient
       id="linearGradient3214">
      <stop
         offset="0"
         style="stop-color:#ffffff;stop-opacity:0"
         id="stop3216" />
      <stop
         offset="1"
         style="stop-color:#ffffff;stop-opacity:1"
         id="stop3218" />
    </linearGradient>
    <linearGradient
       id="linearGradient3184">
      <stop
         offset="0"
         style="stop-color:#004878;stop-opacity:1"
         id="stop3186" />
      <stop
         offset="1"
         style="stop-color:#008ee0;stop-opacity:1"
         id="stop3188" />
    </linearGradient>
    <filter
       id="filter3169">
      <feGaussianBlur
         inkscape:collect="always"
         stdDeviation="1.1889245"
         id="feGaussianBlur3171" />
    </filter>
    <clipPath
       id="clipPath3208">
      <path
         style="font-style:normal;font-weight:normal;font-size:40px;font-family:'Bitstream Vera Sans';fill:url(#linearGradient3212);fill-opacity:1;stroke:none;stroke-width:1px;stroke-linecap:butt;stroke-linejoin:miter;stroke-opacity:1"
         id="path3210"
         d="m 122.68324,429.04156 c -0.002,-2.23793 0.0195,-4.18791 0.063,-5.84993 0.0435,-1.66193 0.11849,-3.21591 0.225,-4.66194 -0.15001,-0.17844 -0.33601,-0.30744 -0.55799,-0.38699 -0.22201,-0.0795 -0.44401,-0.11845 -0.66599,-0.117 -1.87499,0.81604 -3.79496,1.59603 -5.75993,2.33997 -1.96498,0.74404 -3.74095,1.30803 -5.32793,1.69198 -0.252,0.25204 -0.378,0.61203 -0.378,1.07998 0,0.46804 0.126,0.82804 0.378,1.07999 l 1.22398,0.71999 c 0.68999,0.38704 1.10999,0.89103 1.25999,1.51198 0.14999,0.62103 0.20999,1.62902 0.18,3.02396 v 32.54358 c -1e-5,1.87648 -0.018,3.41546 -0.054,4.61694 -0.036,1.20149 -0.09,2.03848 -0.162,2.51097 0.18599,0.183 0.40799,0.321 0.66599,0.41399 0.25799,0.093 0.51599,0.123 0.77399,0.09 0.27749,-0.26549 0.65848,-0.50849 1.14299,-0.72899 0.48448,-0.22049 0.91948,-0.33749 1.30498,-0.35099 0.24599,0 0.54598,0.054 0.89999,0.162 0.35398,0.10799 0.79797,0.26999 1.33198,0.48599 0.71698,0.306 1.76696,0.59399 3.14996,0.86399 1.38297,0.26999 2.90095,0.41399 4.55394,0.43199 5.27391,-0.0315 9.52185,-1.46248 12.74384,-4.29294 3.22192,-2.83046 4.8779,-6.8714 4.96793,-12.12285 -0.0525,-4.19092 -1.27952,-7.61688 -3.68095,-10.27786 -2.4015,-2.66094 -5.66246,-4.03492 -9.78287,-4.12195 -1.55551,0.021 -2.98049,0.23103 -4.27495,0.62999 -1.2945,0.39903 -2.41349,0.86102 -3.35696,1.38598 -0.25651,-0.0615 -0.46351,-0.22647 -0.62099,-0.49499 -0.15751,-0.26847 -0.23851,-0.70346 -0.243,-1.30498 z m 0,19.29575 c -0.005,-0.87147 0.0405,-1.59446 0.135,-2.16897 0.0945,-0.57447 0.26548,-0.95547 0.513,-1.14299 0.29098,-0.22197 0.68097,-0.40797 1.16998,-0.55799 0.48898,-0.14998 1.05897,-0.22797 1.70998,-0.234 2.52745,0.054 4.56442,1.17001 6.11092,3.34796 1.54645,2.17799 2.34144,5.09395 2.38497,8.74789 0.0285,2.97297 -0.44252,5.50493 -1.41298,7.5959 -0.97051,2.09097 -2.61149,3.18296 -4.92294,3.27596 -0.90601,-0.012 -1.72199,-0.24 -2.44797,-0.684 -0.726,-0.44399 -1.326,-1.03198 -1.79997,-1.76397 -0.53251,-0.80099 -0.90751,-1.66498 -1.12499,-2.59197 -0.21751,-0.92698 -0.32251,-1.86297 -0.315,-2.80796 z m 50.92184,4.10395 c 1.08446,-0.0135 1.79545,-0.23848 2.13297,-0.675 0.33747,-0.43647 0.49047,-1.00347 0.459,-1.70097 -0.012,-2.85745 -0.99602,-5.27841 -2.95196,-7.26291 -1.956,-1.98445 -4.81196,-3.01943 -8.56789,-3.10496 -4.58546,0.10503 -8.30241,1.65901 -11.15086,4.66194 -2.84847,3.00298 -4.31545,6.82493 -4.40094,11.46585 0.0165,4.04546 1.29748,7.47441 3.84295,10.28687 2.54546,2.81246 6.2564,4.27944 11.13285,4.40094 2.23046,0.0405 4.50143,-0.56249 6.81292,-1.80898 2.31144,-1.24648 4.24041,-3.37945 5.78692,-6.39891 -0.0285,-0.61349 -0.24152,-1.06048 -0.63899,-1.34099 -0.39752,-0.28048 -0.80852,-0.38548 -1.23298,-0.31499 -1.00352,1.60498 -2.1105,2.64297 -3.32096,3.11396 -1.21051,0.471 -2.3355,0.681 -3.37496,0.62999 -3.35247,-0.10649 -5.88144,-1.20748 -7.5869,-3.30296 -1.70549,-2.09546 -2.56048,-4.54642 -2.56497,-7.3529 -0.0285,-0.55798 0.0645,-0.91797 0.279,-1.07999 0.21448,-0.16198 0.72148,-0.23398 1.52098,-0.21599 z m -11.73585,-3.16796 c -1.146,0.018 -1.98598,-0.036 -2.51996,-0.162 -0.53401,-0.12598 -0.79801,-0.43198 -0.79199,-0.91799 0.045,-1.22396 0.60298,-2.37595 1.67397,-3.45596 1.07098,-1.07996 2.38496,-1.65595 3.94195,-1.72797 1.22997,0.0165 2.17195,0.37952 2.82597,1.08898 0.65397,0.70952 0.98396,1.66651 0.98998,2.87097 0.001,0.37051 -0.0375,0.70951 -0.117,1.01698 -0.0795,0.30752 -0.20851,0.52052 -0.38699,0.63899 -0.40652,0.24752 -0.87151,0.41852 -1.39498,0.513 -0.52352,0.0945 -1.04251,0.13952 -1.55698,0.135 z m 37.57828,-4.67994 c 0.35397,-0.24448 0.59997,-0.61947 0.73799,-1.12499 0.13798,-0.50547 0.20398,-0.97046 0.198,-1.39498 -0.012,-0.63597 -0.20402,-1.09196 -0.57599,-1.36798 h -6.40792 c -0.62401,0.0255 -1.014,-0.0435 -1.16999,-0.207 -0.15601,-0.16347 -0.22201,-0.57446 -0.19799,-1.23299 v -5.39993 c -0.21601,-0.28495 -0.55801,-0.45295 -1.02599,-0.50399 -0.46801,-0.051 -0.846,-0.003 -1.13398,0.144 -1.1175,1.56151 -2.12249,2.7765 -3.01497,3.64495 -0.89249,0.86852 -1.66348,1.52551 -2.31297,1.97098 -0.86549,0.58952 -1.79848,1.17451 -2.79896,1.75497 -1.00049,0.58052 -2.05948,1.07552 -3.17696,1.48498 -0.2835,0.29553 -0.38249,0.69452 -0.29699,1.19699 0.0855,0.50252 0.32849,0.84751 0.72899,1.03499 h 2.23197 c 0.62398,-0.0255 1.01398,0.0615 1.16998,0.26099 0.15599,0.19953 0.22199,0.66452 0.198,1.39498 v 16.0558 c -0.0375,2.42097 0.55949,4.38294 1.79098,5.88592 1.23147,1.50298 3.32244,2.27697 6.27292,2.32197 2.25895,-0.039 4.29292,-0.46499 6.10192,-1.27798 1.80895,-0.81299 3.23093,-1.77898 4.26594,-2.89796 0.066,-0.44249 0.006,-0.83549 -0.18,-1.17899 -0.18602,-0.34349 -0.46201,-0.57449 -0.82798,-0.69299 -0.44102,0.297 -0.92702,0.549 -1.45799,0.75599 -0.53101,0.207 -1.053,0.315 -1.56598,0.324 -2.41498,-0.102 -3.88496,-1.01399 -4.40994,-2.73597 -0.52501,-1.72197 -0.73501,-3.64194 -0.62999,-5.75992 v -10.79987 c -0.0165,-0.76196 0.0345,-1.23596 0.153,-1.42198 0.11848,-0.18597 0.40348,-0.26397 0.85499,-0.23399 z m 28.02707,5.54392 c 0.15147,-3.67943 -0.58352,-6.34639 -2.20498,-8.00089 -1.6215,-1.65445 -3.95847,-2.46744 -7.01091,-2.43897 -2.58748,0.0615 -4.93645,0.55052 -7.04691,1.46698 -2.11048,0.91652 -3.79345,1.8915 -5.04893,2.92496 -0.89999,0.71252 -1.69198,1.57351 -2.37597,2.58297 -0.68399,1.00951 -1.04399,1.9965 -1.07999,2.96096 -0.007,0.51601 0.1155,0.94201 0.369,1.27798 0.25349,0.33602 0.68249,0.51002 1.28698,0.522 0.71549,-0.0195 1.60648,-0.19648 2.67297,-0.531 1.06648,-0.33447 1.90347,-0.70947 2.51097,-1.12498 0.32548,-0.24448 0.59248,-0.54747 0.80099,-0.90899 0.20848,-0.36148 0.34948,-0.82647 0.42299,-1.39498 0.26849,-1.52546 0.73948,-2.59644 1.41298,-3.21296 0.67348,-0.61647 1.45047,-0.91346 2.33097,-0.89099 1.52847,0.087 2.61145,0.77702 3.24896,2.06998 0.63747,1.293 0.94647,2.66698 0.92699,4.12194 -0.012,0.85201 -0.06,1.668 -0.144,2.44797 -0.0225,0.28951 -0.15752,0.55651 -0.40499,0.80099 -0.24752,0.24451 -0.68851,0.45751 -1.32299,0.63899 -0.993,0.28201 -2.03099,0.58201 -3.11396,0.89999 -1.083,0.31801 -2.30098,0.69 -3.65395,1.11599 -2.61147,0.7755 -4.51645,1.76248 -5.71493,2.96096 -1.19849,1.19849 -1.78948,2.70747 -1.77297,4.52694 0.075,2.51997 0.89698,4.40995 2.46596,5.66993 1.56898,1.25998 3.43495,1.88997 5.59793,1.88997 1.33947,-0.0375 2.53046,-0.30449 3.57296,-0.80099 1.04247,-0.49649 1.89146,-0.99749 2.54696,-1.50298 0.35548,-0.25349 0.65248,-0.44849 0.89099,-0.58499 0.23848,-0.1365 0.44548,-0.2055 0.62099,-0.207 0.17398,-0.003 0.34798,0.039 0.522,0.126 0.17398,0.087 0.38397,0.237 0.62999,0.44999 0.94497,0.82949 1.88095,1.45649 2.80796,1.88098 0.92697,0.42449 2.00695,0.63749 3.23996,0.63899 2.08945,-0.09 3.88642,-0.59399 5.39093,-1.51198 1.50445,-0.91799 2.49144,-1.70997 2.96096,-2.37597 0.099,-0.34349 0.063,-0.68249 -0.108,-1.01699 -0.17103,-0.33449 -0.42302,-0.54748 -0.75598,-0.63899 -0.56403,0.3195 -1.05602,0.5445 -1.47599,0.67499 -0.42002,0.13051 -0.84002,0.19351 -1.25998,0.189 -0.78302,0.048 -1.53901,-0.37199 -2.26797,-1.25998 -0.72902,-0.88799 -1.05301,-2.53196 -0.97199,-4.93194 z m -9.28788,12.16785 c -0.006,1.12349 -0.19202,1.99048 -0.558,2.60096 -0.36601,0.6105 -1.092,0.9195 -2.17797,0.92699 -1.035,-0.036 -1.89899,-0.46799 -2.59197,-1.29598 -0.693,-0.82798 -1.05299,-1.83597 -1.07998,-3.02396 0.0495,-1.66347 0.65248,-2.87246 1.80898,-3.62696 1.15647,-0.75447 2.56945,-1.22547 4.23894,-1.41298 0.24598,-0.0495 0.40198,0.0135 0.46799,0.189 0.066,0.17551 0.078,0.54451 0.036,1.10699 z" />
    </clipPath>
    <linearGradient
       gradientUnits="userSpaceOnUse"
       xlink:href="#linearGradient3184"
       id="linearGradient3212"
       y2="470.51495"
       x2="167.79349"
       y1="418.02563"
       x1="167.06712" />
    <filter
       id="filter3280">
      <feGaussianBlur
         inkscape:collect="always"
         stdDeviation="1.08889"
         id="feGaussianBlur3282" />
    </filter>
    <linearGradient
       gradientUnits="userSpaceOnUse"
       xlink:href="#linearGradient3214"
       id="linearGradient3227"
       y2="459.14792"
       x2="175"
       y1="392.89484"
       x1="175" />
    <linearGradient
       gradientTransform="translate(-97.389162,-386.67326)"
       gradientUnits="userSpaceOnUse"
       xlink:href="#linearGradient3184"
       id="linearGradient3236"
       y2="470.51495"
       x2="167.79349"
       y1="418.02563"
       x1="167.06712" />
    <linearGradient
       gradientUnits="userSpaceOnUse"
       xlink:href="#linearGradient3179"
       id="linearGradient3287"
       y2="37.539753"
       x2="160.97615"
       y1="8.4496469"
       x1="140.54771" />
    <mask
       id="mask3303">
      <path
         style="fill:#dc002e;fill-opacity:1;fill-rule:evenodd;stroke:none;stroke-width:7;stroke-linecap:round;stroke-linejoin:round;stroke-miterlimit:4;stroke-opacity:1"
         id="path3305"
         d="m 149.00532,5.1211694 -2.13922,6.8407936 -5.47734,-4.6310526 0.0705,7.1699046 -6.62923,-2.703407 2.28027,6.770271 -7.12289,-0.517174 4.25493,5.759432 -6.95834,1.716075 3.78477,2.679899 c 4.87485,-4.064613 11.96012,-7.511709 20.21678,-9.403154 6.22048,-1.424996 12.2451,-1.771047 17.46636,-1.198902 l 1.90414,-4.678068 -6.77027,2.280264 0.51717,-7.1463962 -5.75943,4.2549272 -1.71608,-6.9348259 -4.13738,5.8299549 z m 20.16976,42.5727766 c -0.34916,0.155563 -0.70062,0.296841 -1.05785,0.44665 l 1.41047,0.587697 z m -6.22959,2.32728 c -0.91526,0.281734 -1.84712,0.533519 -2.79744,0.77576 l 2.82095,2.397805 z m -6.39414,1.575028 c -1.08418,0.207082 -2.15657,0.374721 -3.22058,0.517174 l 2.02168,3.291104 z m -16.54955,0.587698 -0.0235,0.282094 0.3056,-0.235079 c -0.0953,-0.01279 -0.18736,-0.0336 -0.28209,-0.04702 z m 9.30912,0.32911 c -0.84361,0.05093 -1.67119,0.08405 -2.49184,0.09403 l 0.61121,2.538852 z" />
    </mask>
  </defs>
  <g
     transform="translate(-107.81235,3.2758242)"
     id="g3307">
    <g
       id="g119">
      <path
         d="m 170.97656,61.38575 -8.81143,-3.59063 0.0944,9.51446 -7.2706,-6.13777 -2.85036,9.07797 -5.01808,-8.08412 -5.51611,7.75286 -2.27435,-9.23913 -7.64188,5.66884 0.69202,-9.48975 -9.01963,3.0299 3.59062,-8.81143 -9.51446,0.09439 6.13777,-7.2706 -9.07796,-2.85036 8.08411,-5.01808 -7.75285,-5.5161 9.23912,-2.27435 -5.66883,-7.64189 9.48973,0.69201 -3.0299,-9.01962 8.81144,3.59063 -0.0944,-9.51448 7.2706,6.13778 2.85036,-9.07796 5.01808,8.08411 5.51611,-7.75285 2.27434,9.23912 7.64189,-5.66883 -0.69202,9.48974 9.01963,-3.02991 -3.59062,8.81144 9.51446,-0.09439 -6.13777,7.2706 9.07796,2.85036 -8.08411,5.01808 7.75285,5.51611 -9.23912,2.27434 5.66883,7.64188 -9.48974,-0.692 z"
         id="path3226"
         style="fill:#dc002e;fill-opacity:1;fill-rule:evenodd;stroke:none;stroke-width:7;stroke-linecap:round;stroke-linejoin:round;stroke-miterlimit:4;stroke-opacity:1" />
    </g>
    <g
       id="g122">
      <path
         d="m 73.214287,373.07646 -10.508301,-4.2821 0.112572,11.34672 -8.670747,-7.31976 -3.399268,10.82616 -5.984439,-9.64092 -6.578363,9.24586 -2.712334,-11.01835 -9.113522,6.76051 0.825274,-11.31723 -10.756586,3.61339 4.282098,-10.5083 -11.3467208,0.11257 7.3197608,-8.67074 -10.8261591,-3.39927 9.6409141,-5.98444 -9.2458575,-6.57836 11.0183475,-2.71234 -6.760507,-9.11352 11.317229,0.82527 -3.613391,-10.75658 10.5083,4.2821 -0.112571,-11.34673 8.670746,7.31977 3.399268,-10.82616 5.98444,9.64091 6.578363,-9.24586 2.712333,11.01835 9.113523,-6.76051 -0.825274,11.31723 10.756586,-3.61339 -4.282098,10.5083 11.34672,-0.11257 -7.319761,8.67075 10.82616,3.39926 -9.640915,5.98444 9.245858,6.57837 -11.018348,2.71233 6.760507,9.11352 -11.317228,-0.82527 z"
         transform="matrix(0.8385215,0,0,0.8385215,109.58481,-251.44688)"
         id="path3232"
         style="opacity:0.25;fill:#000000;fill-opacity:1;fill-rule:evenodd;stroke:#000000;stroke-width:1.78886;stroke-linecap:butt;stroke-linejoin:miter;stroke-miterlimit:4;stroke-opacity:1;filter:url(#filter3280)" />
    </g>
    <path
       style="font-style:normal;font-weight:normal;font-size:5.90584px;line-height:125%;fill:#ffffff;fill-opacity:1;stroke:none;stroke-width:1px;stroke-linecap:butt;stroke-linejoin:miter;stroke-opacity:1"
       id="text3228"
       d="m 136.81476,33.54076 c -0.4682,0.81089 -1.07971,1.33764 -1.83456,1.58022 -1.09316,0.35116 -2.32343,0.13199 -3.69083,-0.65748 L 126.7658,31.85181 133.0311,21 l 4.19762,2.4235 c 2.03519,1.17504 2.50813,2.70595 1.4188,4.59277 -0.32743,0.5671 -0.71261,0.97719 -1.15552,1.23027 -0.37216,0.21621 -0.81748,0.32656 -1.33596,0.33109 0.76515,0.68204 1.15834,1.37191 1.17953,2.0696 0.0139,0.63694 -0.15976,1.26812 -0.52081,1.89353 z m -0.99059,-6.65635 c 0.28457,-0.4929 0.25015,-0.94737 -0.10323,-1.36341 -0.12842,-0.1448 -0.32512,-0.2937 -0.59011,-0.4467 l -0.51676,-0.29835 -1.22551,2.12266 0.51676,0.29835 c 0.48758,0.28152 0.90622,0.36423 1.25594,0.24812 0.27975,-0.09288 0.50072,-0.27977 0.66291,-0.56067 z m -1.72152,4.83611 c 0.36412,-0.63071 0.25238,-1.1899 -0.33526,-1.67757 -0.18836,-0.15114 -0.53427,-0.37206 -1.03777,-0.66277 l -0.58036,-0.33506 -1.32191,2.28962 0.62806,0.3626 c 0.7208,0.41616 1.27326,0.62205 1.65738,0.6177 0.43346,-0.0042 0.76341,-0.20232 0.98986,-0.59452 z m 8.92099,9.51776 -6.17719,-3.5664 6.2653,-10.85181 6.17718,3.5664 -1.36322,2.36116 -3.35492,-1.93696 -1.06027,1.83646 3.17207,1.83139 -1.36323,2.36116 -3.17206,-1.83139 -1.11536,1.93186 3.35491,1.93696 z m 13.13832,-3.73545 -2.33731,-1.34945 -4.90208,8.49065 -2.82226,-1.62944 4.90207,-8.49064 -2.29756,-1.3265 1.36322,-2.36116 7.45714,4.30538 z m 6.64138,15.15527 -3.01306,-1.7396 0.39281,-2.29603 -3.89552,-2.24907 -1.83972,1.46065 -2.98127,-1.72124 10.43907,-8.44208 3.07667,1.77632 z m -2.14417,-6.62278 0.82797,-4.13299 -3.18118,2.77437 z" />
    <path
       style="opacity:1;fill:url(#linearGradient3287);fill-opacity:1;fill-rule:evenodd;stroke:none;stroke-width:1.5;stroke-linecap:butt;stroke-linejoin:miter;stroke-miterlimit:4;stroke-dasharray:none;stroke-opacity:1"
       id="path2407"
       mask="url(#mask3303)"
       transform="matrix(1.3293413,0,0,1.3293413,-54.391423,-3.401532)"
       d="m 181.07774,31.492933 c 0.006,15.077257 -12.21514,27.30285 -27.2924,27.30285 -15.07726,0 -27.29817,-12.225593 -27.2924,-27.30285 -0.006,-15.077257 12.21514,-27.3028504 27.2924,-27.3028504 15.07726,0 27.29817,12.2255934 27.2924,27.3028504 z" />
  </g>
</svg>
