<svg id="Layer_1" data-name="Layer 1" xmlns="http://www.w3.org/2000/svg" viewBox="0 0 400 300"><title>#114_report presentation_twocolour</title><rect x="69.56" y="43.07" width="250.5" height="166.02" fill="#e6e6e6"/><line x1="197.82" y1="193.07" x2="197.82" y2="226.07" fill="none" stroke="#c9c9c9" stroke-miterlimit="10" stroke-width="3"/><circle cx="197.82" cy="232.63" r="6.56" fill="none" stroke="#c9c9c9" stroke-miterlimit="10" stroke-width="3"/><path d="M90.59,179.62s5.12,7.27,9.16,8.31l1.75,14.84H92.35l-1.76-10.44S82.18,186.24,90.59,179.62Z" opacity="0.08"/><ellipse cx="216.28" cy="259.3" rx="160.14" ry="11.63" fill="#e6e6e6" opacity="0.45"/><rect x="92.35" y="85.95" width="165" height="75.05" fill="#fff" opacity="0.36"/><path d="M315,60.84S303.85,62.6,302.6,75.18s6.2,18.57,6.2,18.57-33.95,2.5-30.45,17.75S285.1,151,270.1,149s-32.5-22.92-32.5-22.92-9.9,6.81-.95,16.87c7.56,8.49,23.4,29.43,40,34.82a10.7,10.7,0,0,1,7.21,12.11l-3.53,19.21h29.9l11-80.21V73.43Z" opacity="0.08"/><rect x="105.82" y="129.75" width="13.84" height="19.25" fill="#a5a5a5"/><rect x="126.98" y="116.5" width="13.84" height="32.5" fill="#c9c9c9"/><rect x="147.98" y="128.17" width="13.84" height="20.83" fill="#a5a5a5"/><rect x="229.73" y="100.5" width="13.84" height="48.5" fill="#a5a5a5"/><rect x="210.48" y="119.5" width="13.84" height="29.5" fill="#c9c9c9"/><rect x="190.54" y="108.75" width="13.84" height="40.25" fill="#a5a5a5"/><rect x="168.98" y="101.75" width="13.84" height="47.25" fill="#c9c9c9"/><path d="M316.12,90.28S295,88.7,295.61,105.93s-2.93,49.46-19.59,43.13-31.34-20.89-31.34-20.89L240,132.23s37.15,53.32,66.91,25.08S316.12,90.28,316.12,90.28Z" fill="#68e1fd"/><path d="M316.12,90.28S295,88.7,295.61,105.93s-2.93,49.46-19.59,43.13-31.34-20.89-31.34-20.89L240,132.23s37.15,53.32,66.91,25.08S316.12,90.28,316.12,90.28Z" fill="#fff" opacity="0.46"/><path d="M314.52,68.72s-11.46,16.81,3.19,15.66,7.81-16.66,7.81-16.66Z" fill="#ffd200"/><path d="M314.52,68.72s-11.46,16.81,3.19,15.66,7.81-16.66,7.81-16.66Z" fill="#24285b"/><rect x="69.56" y="43.07" width="250.5" height="24.79" fill="#c9c9c9"/><rect x="86.06" y="202.82" width="44" height="15.82" fill="#c9c9c9"/><polygon points="86.06 218.64 82.06 259.18 89.06 259.18 96.3 218.64 86.06 218.64" fill="#a5a5a5"/><polygon points="129.9 218.64 133.9 259.18 126.9 259.18 119.66 218.64 129.9 218.64" fill="#a5a5a5"/><path d="M102.47,189s-10.92-3-13.29-13.15c0,0,16.91-3.42,17.4,14Z" fill="#68e1fd" opacity="0.58"/><path d="M103.81,187.9s-7.63-12.06-.92-23.33c0,0,12.87,8.17,7.15,23.36Z" fill="#68e1fd" opacity="0.73"/><path d="M105.77,187.91s4-12.73,16.22-15.15c0,0,2.28,8.27-7.89,15.19Z" fill="#68e1fd"/><polygon points="97.86 187.62 100.07 202.77 114.01 202.82 116.06 187.7 97.86 187.62" fill="#24285b"/><path d="M315.78,67.81s-1.17,5.65-.66,9.55a2.9,2.9,0,0,0,3.27,2.49,6.39,6.39,0,0,0,5.53-4.19l2.3-4.8a5.17,5.17,0,0,0-1.61-5.76C321.66,62.4,316.33,64.33,315.78,67.81Z" fill="#f4a28c"/><polygon points="325.81 71.73 326.56 90.61 316.12 90.28 319.77 76.68 325.81 71.73" fill="#f4a28c"/><path d="M321.29,73.43s.3-2.2,1.94-1.83,1.21,3.55-1.07,3.58Z" fill="#f4a28c"/><path d="M315.23,71.4l-1.86,2a.93.93,0,0,0,.4,1.51l2.14.67Z" fill="#f4a28c"/><path d="M318.84,79.62a6.83,6.83,0,0,0,3.59-1.6s-.55,3.42-4.72,6.36Z" fill="#ce8172" opacity="0.31"/><path d="M316.12,90.28s-46,25-24.52,48.53l10.5,27.25h33s30.42-56.84-8.54-75.45Z" fill="#68e1fd"/><path d="M319.35,105.9s-13.09,10.85-.67,25.1-8.39,12-13.61,1.75l-7.17,22.4,4.2,10.91,32.25-1.81,7.5-12.09,3.5-21.16Z" opacity="0.08"/><rect x="289.51" y="123.85" width="21.63" height="31.49" transform="translate(21.08 -38.45) rotate(7.59)" fill="#ffd200"/><path d="M311.33,138.91s-7.57-1.48-8.62,4.64a25.61,25.61,0,0,1-3.62,9.77l-1.19,1.83L309,156.63Z" opacity="0.08"/><path d="M316.1,147.05s-5.08-6-8.42-3.49,5.45,8.6,5.45,8.6Z" fill="#f4a28c"/><path d="M244.27,128.67s-4.75-7-8.08-4.5,3.83,8.06,3.83,8.06Z" fill="#f4a28c"/><polygon points="324.29 201.24 342.93 254.19 346.7 253.91 339.02 200.17 324.29 201.24" fill="#f4a28c"/><path d="M342.73,253.38s-1.16,3.2-3.76,3.93-1.78,4.47,2.21,2.73a24.38,24.38,0,0,0,3.58-1.91,7,7,0,0,1,3.52-1,1.19,1.19,0,0,0,1-.86c.71-1.76-3.21-4-3.21-4Z" fill="#68e1fd"/><polygon points="303.5 198.11 299.66 254.11 303.23 255.35 317.45 202.96 303.5 198.11" fill="#f4a28c"/><path d="M299.79,253.29s-2.33,2.48-5,2.12-3.4,3.4,1,3.38a24.38,24.38,0,0,0,4-.34,7,7,0,0,1,3.64.45,1.16,1.16,0,0,0,1.27-.39c1.36-1.33-1.37-4.91-1.37-4.91Z" fill="#68e1fd"/><polygon points="302.1 166.06 297.68 211.72 348.68 211.72 338.35 163.78 302.1 166.06" fill="#24285b"/><path d="M319.56,108.61c-2-10,10-16.84,17.75-10.21,4.06,3.48,7.38,8.14,10.91,17.91,10.88,30.07,8.25,77.87-36.71,35.85l4.06-5.69s21.28,17.34,23,3.84C339.82,140.87,322.42,123.11,319.56,108.61Z" fill="#68e1fd"/><path d="M319.56,108.61c-2-10,10-16.84,17.75-10.21,4.06,3.48,7.38,8.14,10.91,17.91,10.88,30.07,8.25,77.87-36.71,35.85l4.06-5.69s21.28,17.34,23,3.84C339.82,140.87,322.42,123.11,319.56,108.61Z" fill="#fff" opacity="0.46"/><path d="M315,60.84A6.68,6.68,0,0,0,312.37,66c0,1.75.75,3.59,3.77,3.92,6,.67,8.08.67,8.08.67s-6.7,16.5,5.13,15.33,7.33-11.17,2.17-20.17C326.86,57.61,320.72,56.27,315,60.84Z" fill="#24285b"/><rect x="103.6" y="94.98" width="12.47" height="5.25" opacity="0.08"/><rect x="103.6" y="103.27" width="12.47" height="5.25" opacity="0.08"/><rect x="155.68" y="170.33" width="101.67" height="24.17" fill="#c9c9c9" opacity="0.4"/><rect x="47.95" y="25.67" width="63.12" height="54.21" fill="#ffd200"/><path d="M80.5,37.08c.8,0,1,.28,1,1.08v1.7A7.8,7.8,0,0,1,88,44.7c.42.84.25,1.29-.69,1.71l-1.71.76c-.8.39-1.18.21-1.64-.62a4.35,4.35,0,0,0-4.45-2.68c-3,0-4.32.87-4.32,2.85a2.63,2.63,0,0,0,2.4,2.33,20.43,20.43,0,0,0,2.51.39,16.26,16.26,0,0,1,4.63.9,6.1,6.1,0,0,1,2,1.12,6.68,6.68,0,0,1,1.85,4.87c0,3.79-2.54,6.37-7,7v1.81c0,.8-.25,1.08-1,1.08H78.59c-.8,0-1.08-.28-1.08-1.08V63.4a7.93,7.93,0,0,1-7-5.37c-.28-.76,0-1.28.8-1.6l1.7-.62c.87-.32,1.26-.11,1.64.76.77,2,2.33,2.93,4.7,2.93,3.2,0,4.8-1,4.8-3.07a2.13,2.13,0,0,0-1.49-2.16,12,12,0,0,0-3.45-.66,15.3,15.3,0,0,1-4.67-1,6.5,6.5,0,0,1-2-1.14,6.35,6.35,0,0,1-1.88-4.74c0-3.76,2.36-6.26,6.82-6.86v-1.7c0-.8.28-1.08,1.08-1.08Z" fill="#fff"/></svg>