<?xml version="1.0" encoding="UTF-8" standalone="no"?>
<svg
   xmlns:dc="http://purl.org/dc/elements/1.1/"
   xmlns:cc="http://creativecommons.org/ns#"
   xmlns:rdf="http://www.w3.org/1999/02/22-rdf-syntax-ns#"
   xmlns:svg="http://www.w3.org/2000/svg"
   xmlns="http://www.w3.org/2000/svg"
   xmlns:sodipodi="http://sodipodi.sourceforge.net/DTD/sodipodi-0.dtd"
   xmlns:inkscape="http://www.inkscape.org/namespaces/inkscape"
   inkscape:version="1.0 (6e3e5246a0, 2020-05-07)"
   height="235.15828"
   width="216.53999"
   sodipodi:docname="image.svg"
   version="1.1"
   viewBox="0 0 216.53999 235.15828"
   data-name="Layer 1"
   id="Layer_1">
  <metadata
     id="metadata63">
    <rdf:RDF>
      <cc:Work
         rdf:about="">
        <dc:format>image/svg+xml</dc:format>
        <dc:type
           rdf:resource="http://purl.org/dc/dcmitype/StillImage" />
      </cc:Work>
    </rdf:RDF>
  </metadata>
  <defs
     id="defs61" />
  <sodipodi:namedview
     inkscape:current-layer="Layer_1"
     inkscape:window-maximized="0"
     inkscape:window-y="27"
     inkscape:window-x="0"
     inkscape:cy="105.77828"
     inkscape:cx="121.27"
     inkscape:zoom="1.87"
     showgrid="false"
     id="namedview59"
     inkscape:window-height="480"
     inkscape:window-width="732"
     inkscape:pageshadow="2"
     inkscape:pageopacity="0"
     guidetolerance="10"
     gridtolerance="10"
     objecttolerance="10"
     borderopacity="1"
     bordercolor="#666666"
     pagecolor="#ffffff" />
  <ellipse
     id="ellipse2"
     opacity="0.45"
     fill="#e6e6e6"
     ry="11.07"
     rx="103.82"
     cy="224.08829"
     cx="112.71999" />
  <path
     id="path4"
     fill="#ffd200"
     d="m 128.88,21.268283 c 0,0 -33.73,-1.49 -42.74,17.26 -9.01,18.75 -5.56,34.67 -43.07,31.74 -31.92,-2.5 -40.71,17.92 -42.61,24.07 a 16.08,16.08 0 0 0 -0.46,1.71 c 0,0 36.12,-14.05 56,12.889997 19.88,26.94 47.27,32.45 75.75,21.84 28.48,-10.61 39.59,-68.079997 39.59,-68.079997 z" />
  <path
     id="path6"
     opacity="0.04"
     d="m 0,96.048283 c 0,0 21.49,-24.78 45.88,-15.83 24.39,8.95 36.92,-6.64 50.4,-30.59 13.48,-23.95 53.68,-13.4 53.68,-13.4 L 99.19,135.82828 c 0,0 -24.21,0 -49.23,-33.51 0,0 -16.12,-16.979997 -49.96,-6.269997 z" />
  <path
     id="path8"
     fill="#68e1fd"
     d="m 112.15,156.06828 c 0,0 1.46,16.54 6.25,16.85 4.79,0.31 2.62,-16 2.62,-16 z" />
  <path
     id="path10"
     opacity="0.14"
     d="m 112.15,156.06828 c 0,0 1.46,16.54 6.25,16.85 4.79,0.31 2.62,-16 2.62,-16 z" />
  <path
     id="path12"
     fill="#f4a28c"
     d="m 148.67,121.71828 c 0,0 12.16,73.37 -38.13,85.41 l -2.74,-3.7 c 0,0 28.58,-23.46 21.08,-78.73 z" />
  <path
     id="path14"
     fill="#f4a28c"
     d="m 163.63,30.388283 c 0,0 50,21.79 42.29,106.459997 l -9.27,-1.87 c 0,0 -2.46,-38.599997 -31.88,-65.299997 -29.42,-26.7 -1.14,-39.29 -1.14,-39.29 z" />
  <path
     id="path16"
     fill="#f4a28c"
     d="m 140.32,33.378283 c 0,0 -18,-15.82 -32.51,0.16 a 311.87,311.87 0 0 0 -25.54,32.48 l -11.45,-29.8 -6.09,2.08 c 0,0 -2.84,34.85 10.89,47.17 13.73,12.32 64.7,-52.09 64.7,-52.09 z" />
  <path
     id="path18"
     fill="#24285b"
     d="m 167.75,17.778283 c 0,0 5.12,14.39 -4.36,15.93 -9.48,1.54 -4.45,-21.58 -4.45,-21.58 z" />
  <path
     id="path20"
     fill="#f4a28c"
     d="m 167.27,7.9682829 a 32.08,32.08 0 0 1 0.92,8.5700001 2.6,2.6 0 0 1 -2.85,2.36 5.77,5.77 0 0 1 -5.07,-3.58 l -2.24,-4.24 a 4.65,4.65 0 0 1 1.24,-5.2300001 c 2.53,-2.54 7.4,-0.98 8,2.12 z" />
  <polygon
     transform="translate(-78.73,-44.221717)"
     id="polygon22"
     fill="#f4a28c"
     points="242.36,74.61 241.96,62.25 237.67,56.36 233.15,72.76 " />
  <path
     id="path24"
     fill="#f4a28c"
     d="m 167.9,11.188283 1.74,1.75 a 0.82,0.82 0 0 1 -0.31,1.36 l -1.9,0.68 z" />
  <path
     id="path26"
     opacity="0.31"
     fill="#ce8172"
     d="m 163.27,18.378283 a 6.35,6.35 0 0 1 -2.72,-2 c 0,0 -1.32,3.48 2.83,5.57 z" />
  <path
     id="path28"
     fill="#f4a28c"
     d="m 161.99,12.538283 c 0,0 -0.35,-2 -1.81,-1.58 -1.46,0.42 -1,3.23 1.09,3.18 z" />
  <path
     id="path30"
     fill="#24285b"
     d="m 161.12,10.068283 10.22,-0.2900001 c 0,0 -1,-10.95 -10,-9.67000002 z" />
  <path
     id="path32"
     fill="#68e1fd"
     d="m 154.42,28.538283 9.21,1.85 c 0,0 40.6,33.22 18.23,55.44 -22,21.859997 -22.17,26.819997 -22.17,26.819997 L 114.04,98.878283 c 0,0 -11.47,-92.4100001 40.38,-70.34 z" />
  <path
     id="path34"
     fill="#ffd200"
     d="m 142.58,40.248283 c 0,0 19.7,9.34 34.46,-0.41 v 0 a 42.93,42.93 0 0 0 -11.69,-9.47 l -1.75,-1 -19.49,-4 z" />
  <path
     id="path36"
     opacity="0.08"
     d="m 157.4,28.138283 c 0,0 -5.59,20.46 -25.84,27.64 0,0 -14.9,18.93 -6.13,46.559997 l -11.39,-3.439997 c 0,0 -0.88,-8.69 -1,-13.93 0,0 -0.6,-17.37 1.79,-29.88 0,0 -12.5,-6.5 -14.38,-13.11 0,0 6.16,-7 7.88,-9 1.72,-2 49.07,-4.84 49.07,-4.84 z" />
  <path
     id="path38"
     fill="#24285b"
     d="m 161.35,0.07828288 c 0,0 -9.86,-0.8 -12.08,5.70000002 -2.22,6.5000001 -2.2,16.3800001 -15.65,9.9000001 -13.45,-6.4800001 -30.61,5.62 -26,15.85 4.61,10.23 16.14,17.83 28.3,11.89 12.16,-5.94 23,-8.49 24.61,-27 1.61,-18.5100001 0.82,-16.34000012 0.82,-16.34000012 z" />
  <path
     id="path40"
     fill="#68e1fd"
     d="m 190.09,118.89828 16.92,3.41 c 0,0 -0.41,21.45 -3.69,27.39 0,0 -4.84,11.53 -10.87,7.18 -6.03,-4.35 3.87,-12.1 3.87,-12.1 z" />
  <path
     id="path42"
     fill="#68e1fd"
     d="m 83.15,65.848283 -18.68,0.64 c 0,0 -2.74,-24 0.05,-31.16 0,0 3.7,-13.6 11.08,-9.65 7.38,3.95 -2.53,14.1 -2.53,14.1 z" />
  <circle
     id="circle44"
     opacity="0.34"
     fill="#ffffff"
     r="12.2"
     cy="61.828285"
     cx="153.72" />
  <path
     id="path46"
     fill="#f4a28c"
     d="m 124.81,123.59828 c 0,0 17.24,32.11 3.18,40.83 -14.06,8.72 -26.25,-29 -21.89,-37.59 4.36,-8.59 18.71,-3.24 18.71,-3.24 z" />
  <path
     id="path48"
     opacity="0.14"
     d="m 124.81,123.59828 c 0,0 17.24,32.11 3.18,40.83 -14.06,8.72 -26.25,-29 -21.89,-37.59 4.36,-8.59 18.71,-3.24 18.71,-3.24 z" />
  <polygon
     transform="translate(-78.73,-44.221717)"
     id="polygon50"
     fill="#ffd200"
     points="236.13,165.53 189.26,150.79 192.77,143.1 238.42,156.87 " />
  <path
     id="path52"
     fill="#24285b"
     d="m 110.53,106.56828 v 0 a 42.42,42.42 0 0 0 -11,25 l -0.74,8.55 c 0,0 36.87,19.19 60.87,13.94 0,0 -3.27,-20.37 -2.29,-32.72 z" />
  <path
     id="path54"
     fill="#68e1fd"
     d="m 120.74,185.60828 12.38,10.62 c 0,0 -13.59,9.32 -24.14,13.66 a 17.13,17.13 0 0 0 -7.16,5.45 l -2.6,4.58 a 0.91,0.91 0 0 1 -1.67,-0.68 l 2.82,-10.71 a 10.9,10.9 0 0 1 5.17,-6.77 c 3.46,-1.98 8.99,-6.33 15.2,-16.15 z" />
  <polygon
     transform="translate(-78.73,-44.221717)"
     id="polygon56"
     opacity="0.08"
     points="204.16,155.48 189.26,150.79 192.77,143.1 204.16,146.54 " />
</svg>
