<svg width="32" height="32" viewBox="0 0 32 32" fill="none" xmlns="http://www.w3.org/2000/svg">
<path d="M17.875 32C25.6487 32 32 25.648 32 17.875C32 10.1209 25.6636 3.8125 17.875 3.8125C17.3573 3.8125 16.9375 4.23225 16.9375 4.75V16.9375H4.75C4.23225 16.9375 3.8125 17.3573 3.8125 17.875C3.8125 25.6636 10.1209 32 17.875 32Z" fill="#147EFB"/>
<path d="M0.9375 0H14.125C14.6428 0 15.0625 0.41975 15.0625 0.9375V14.125C15.0625 14.6428 14.6428 15.0625 14.125 15.0625C6.35131 15.0625 0 8.7105 0 0.9375C0 0.41975 0.41975 0 0.9375 0Z" fill="#FC3158"/>
</svg>