<?xml version="1.0" encoding="UTF-8" standalone="no"?>
<svg
   xmlns:dc="http://purl.org/dc/elements/1.1/"
   xmlns:cc="http://creativecommons.org/ns#"
   xmlns:rdf="http://www.w3.org/1999/02/22-rdf-syntax-ns#"
   xmlns:svg="http://www.w3.org/2000/svg"
   xmlns="http://www.w3.org/2000/svg"
   xmlns:sodipodi="http://sodipodi.sourceforge.net/DTD/sodipodi-0.dtd"
   xmlns:inkscape="http://www.inkscape.org/namespaces/inkscape"
   id="a11d453a-83a5-491b-94b4-3bbd3d308a29"
   data-name="Layer 1"
   width="732.78284"
   height="727.95337"
   viewBox="0 0 732.78283 727.95339"
   version="1.1"
   sodipodi:docname="super.svg"
   inkscape:version="1.0 (6e3e5246a0, 2020-05-07)">
  <metadata
     id="metadata87">
    <rdf:RDF>
      <cc:Work
         rdf:about="">
        <dc:format>image/svg+xml</dc:format>
        <dc:type
           rdf:resource="http://purl.org/dc/dcmitype/StillImage" />
        <dc:title>super woman</dc:title>
      </cc:Work>
    </rdf:RDF>
  </metadata>
  <defs
     id="defs85" />
  <sodipodi:namedview
     inkscape:document-rotation="0"
     pagecolor="#ffffff"
     bordercolor="#666666"
     borderopacity="1"
     objecttolerance="10"
     gridtolerance="10"
     guidetolerance="10"
     inkscape:pageopacity="0"
     inkscape:pageshadow="2"
     inkscape:window-width="1280"
     inkscape:window-height="745"
     id="namedview83"
     showgrid="false"
     inkscape:zoom="1.1942346"
     inkscape:cx="540.32227"
     inkscape:cy="302.91398"
     inkscape:window-x="0"
     inkscape:window-y="27"
     inkscape:window-maximized="1"
     inkscape:current-layer="a11d453a-83a5-491b-94b4-3bbd3d308a29" />
  <title
     id="title2">super woman</title>
  <path
     style="fill:#a8cbfe"
     d="m 307.05244,173.50214 c 0,0 105.12,52.19753 123.96913,44.94787 18.84913,-7.24966 25.3738,-71.7716 25.3738,-71.7716 L 378.82404,132.1791 Z"
     fill="#0b4273"
     id="path36" />
  <rect
     x="444.0329"
     y="95.568336"
     width="68.871742"
     height="60.17215"
     fill="#ff6584"
     id="rect40" />
  <rect
     x="444.0329"
     y="95.568336"
     width="68.871742"
     height="60.17215"
     opacity="0.1"
     id="rect42" />
  <path
     d="m 381.32337,351.84369 c 0,0 -2.89987,63.072 16.67421,61.62208 19.57408,-1.44992 0,-59.44718 0,-59.44718 z"
     fill="#fbbebe"
     id="path44" />
  <path
     d="m 461.79455,104.6304 c 0,0 4.3498,27.5487 -3.62483,31.17353 -7.97463,3.62483 -13.04938,6.52469 -13.04938,6.52469 l 18.1241,12.32441 33.34842,2.1749 8.69959,-6.52469 7.97462,-7.24966 c 0,0 -13.04938,-2.89986 -13.04938,-9.42455 0,-6.52469 -0.725,-26.09876 -0.725,-26.09876 z"
     fill="#fbbebe"
     id="path46" />
  <path
     d="m 461.79455,104.6304 c 0,0 4.3498,27.5487 -3.62483,31.17353 -7.97463,3.62483 -13.04938,6.52469 -13.04938,6.52469 l 18.1241,12.32441 33.34842,2.1749 8.69959,-6.52469 7.97462,-7.24966 c 0,0 -13.04938,-2.89986 -13.04938,-9.42455 0,-6.52469 -0.725,-26.09876 -0.725,-26.09876 z"
     opacity="0.1"
     id="path48" />
  <path
     d="m 416.12172,362.71823 c 0,0 -21.024,67.4218 -21.024,116.71947 0,0 -34.79835,78.29629 -33.34842,116.71947 l -8.69958,52.92249 12.32441,4.34979 9.42455,-7.97462 c 0,0 2.89987,-28.27366 12.32442,-42.048 9.42455,-13.77434 31.17352,-79.02125 31.17352,-79.02125 0,0 57.99726,-121.79423 55.82236,-139.19341 -2.1749,-17.39918 -57.99726,-22.47394 -57.99726,-22.47394 z"
     fill="#fbbebe"
     id="path50" />
  <path
     d="m 544.44064,347.4939 c 0,0 13.77434,6.52469 -5.79973,122.51919 0,0 10.87449,76.84636 1.44993,118.89437 l -1.44993,42.048 h -15.22428 l -2.89986,-4.3498 c 0,0 -0.725,-37.69821 -5.79972,-47.84773 -5.07472,-10.14952 -9.42456,-68.87174 -9.42456,-68.87174 0,0 -23.1989,-119.61933 -18.12414,-129.76885 5.07476,-10.14952 57.27229,-32.62344 57.27229,-32.62344 z"
     fill="#fbbebe"
     id="path52" />
  <path
     d="m 350.87481,636.75523 c 0,0 5.07476,11.59945 14.49931,8.69959 9.42455,-2.89986 11.59945,-2.89986 11.59945,-2.89986 0,0 -6.52469,33.34842 -4.34979,49.29766 2.1749,15.94924 -1.44993,26.09877 -15.94925,26.09877 -14.49932,0 -16.67421,-17.39918 -16.67421,-17.39918 l 6.52469,-41.323 z"
     fill="#2f2e41"
     id="path54" />
  <path
     d="m 517.61691,618.63105 c 0,0 5.07476,10.14952 13.04938,7.97462 7.97462,-2.1749 10.87448,-5.79972 10.87448,-5.79972 0,0 -0.725,22.47393 2.1749,32.62345 2.8999,10.14952 9.42456,39.14815 -5.79972,40.59808 a 19.57344,19.57344 0 0 1 -20.299,-11.59945 v -63.797 z"
     fill="#2f2e41"
     id="path56" />
  <circle
     cx="481.36862"
     cy="91.581032"
     r="31.898491"
     fill="#fbbebe"
     id="circle58" />
  <path
     style="fill:#0099ff"
     d="m 540.09084,148.85331 c 0,0 -25.26734,-9.92145 -34.38264,-8.58555 a 37.25942,37.25942 0 0 1 -28.68937,8.58555 c -17.39917,-2.1749 -24.2029,-10.52478 -24.2029,-10.52478 0,0 -46.84373,10.52478 -43.94387,14.87457 2.89986,4.34979 15.94924,75.39643 15.94924,75.39643 0,0 8.69959,61.62208 -1.44993,82.64609 -10.14952,21.02401 -15.22428,55.82235 -10.87448,58.72221 4.3498,2.89986 52.92249,15.94925 58.72222,19.57408 5.79973,3.62483 7.97462,-8.69959 11.59945,-6.52469 3.62483,2.1749 11.59945,5.79972 16.67421,2.89986 5.07476,-2.89986 54.37242,-28.99863 52.92249,-34.07339 -1.44993,-5.07476 -20.299,-66.69684 -26.82373,-79.02125 -6.52473,-12.32441 -1.44993,-38.42318 2.1749,-43.49794 3.62483,-5.07476 10.87448,-10.87449 12.32441,-25.3738 1.44993,-14.49931 0,-55.09739 0,-55.09739 z"
     fill="#2f2e41"
     id="path60" />
  <path
     style="fill:#191919"
     d="m 410.46985,150.96256 c 0,0 -5.94758,4.41544 -8.12248,13.84 -2.1749,9.42456 -5.07476,84.821 -5.07476,84.821 0,0 -26.82373,103.67008 -21.024,105.845 5.79973,2.17492 22.47393,6.52469 24.64883,4.34979 2.1749,-2.1749 26.82373,-89.89574 24.64883,-99.32029 -2.1749,-9.42455 2.89986,-36.97325 2.89986,-36.97325 z"
     fill="#2f2e41"
     id="path62" />
  <path
     d="m 544.44064,285.87182 c 0,0 -39.14815,-19.57407 -43.49794,-6.52469 -4.34979,13.04938 41.323,26.82373 41.323,26.82373 0,0 15.94924,-5.79973 15.94924,-9.42456 0,-3.62483 -13.7743,-10.87448 -13.7743,-10.87448 z"
     fill="#fbbebe"
     id="path64" />
  <path
     style="fill:#171717"
     d="m 532.11622,151.75317 7.97462,-2.89986 c 0,0 4.3498,-2.89986 9.42456,7.97462 5.07476,10.87448 60.17215,74.67146 50.02263,94.9705 -10.14952,20.29904 -43.49794,61.62208 -44.94787,58.72222 -1.44993,-2.89986 -18.12414,-24.64883 -15.22428,-26.82373 2.89986,-2.1749 36.24828,-31.89849 31.89849,-36.24828 -4.34979,-4.34979 -22.47394,-41.323 -32.62346,-42.773 -10.14952,-1.45 -6.52469,-52.92247 -6.52469,-52.92247 z"
     fill="#2f2e41"
     id="path66" />
  <path
     style="fill:#99ccff"
     d="m 446.20779,90.493569 c 0,0 -110.54869,-44.44993 -206.24416,-87.2228999 0,0 -50.02263,-12.32442 -76.12139,10.8744799 0,0 21.749,-2.89986 21.749,9.42456 0,0 18.8491,24.64883 -39.87311,28.99862 -40.89583,3.02933 -57.17843,27.50732 -63.29552,42.08979 A 59.24487,59.24487 0 0 1 58.4649,122.82823 C 44.33026,131.27591 23.84473,137.49094 0,126.51479 c 0,0 1.35559,2.084 3.92695,5.55645 46.0383,62.17216 217.481,116.28076 278.02235,68.11808 37.41476,-29.7647 96.72794,-67.385 139.24718,-48.43619 66.69684,29.72359 79.02125,16.67421 79.02125,16.67421 l 2.89987,-7.97462 c 0,0 -64.522,-17.39918 -65.97188,-39.87311 -1.44988,-22.473931 9.06207,-30.086041 9.06207,-30.086041 z"
     fill="#0b4273"
     id="path68" />
  <path
     style="fill:#008cec"
     d="m 510.72973,96.293299 c 0,0 15.58677,6.162211 18.48663,26.461251 0,0 16.67421,32.62345 -2.1749,40.59807 -18.84911,7.97462 -22.47393,5.79973 -22.47393,5.79973 v -3.62483 c 0,0 20.299,-12.32442 15.94924,-21.749 -4.34976,-9.42458 -9.78704,-47.485221 -9.78704,-47.485221 z"
     fill="#0b4273"
     id="path70" />
  <path
     style="fill:#99ccff"
     d="m 482.81856,188.72642 c 0,0 5.07476,-13.04938 3.62483,-13.04938 -1.44993,0 5.89836,-8.026 8.7489,-5.10045 2.85054,2.92555 7.92531,11.62514 2.12558,13.8 -5.79973,2.17486 -14.49931,4.34983 -14.49931,4.34983 z"
     fill="#0b4273"
     id="path72" />
  <path
     style="fill:#99ccff"
     d="m 518.54744,180.98079 c 0,0 -13.25223,-4.51862 -13.19094,-3.07 0.0613,1.44862 -8.26815,-5.55384 -5.46571,-8.5255 2.80244,-2.97166 11.27974,-8.40961 13.69785,-2.707 2.41811,5.70261 4.9588,14.3025 4.9588,14.3025 z"
     fill="#0b4273"
     id="path74" />
  <path
     style="fill:#99ccff"
     d="m 497.31787,161.17773 c 0,0 6.61905,-3.71513 10.55918,2.12974 3.94013,5.84487 -4.75945,15.9944 -10.55918,15.9944 -5.79973,0 -5.79973,-12.32442 -5.79973,-12.32442 z"
     fill="#0b4273"
     id="path76" />
  <path
     style="fill:#996600"
     d="m 453.71251,39.526999 c -3.82238,3.15091 -7.44723,6.682 -9.82414,11.0281 a 49.47886,49.47886 0 0 0 -3.11533,7.58425 c -2.93163,8.43717 -10.21915,16.98234 -7.13481,25.36489 0.88011,2.39193 2.25238,4.91391 1.46341,7.33743 -0.70069,2.15231 -2.86338,3.40831 -4.42762,5.04432 -3.35738,3.51142 -3.92177,8.780081 -4.12686,13.634001 -0.3756,8.8891 4.51213,19.36439 10.418,26.01854 a 36.35608,36.35608 0 0 1 3.55418,4.0236 9.43178,9.43178 0 0 1 1.1133,7.75883 l 8.60341,-1.79561 a 71.36278,71.36278 0 0 1 0.29032,9.55906 8.92381,8.92381 0 0 0 9.46276,-6.11555 25.551,25.551 0 0 0 2.36354,6.53063 33.70927,33.70927 0 0 0 5.71418,-10.58251 30.25635,30.25635 0 0 0 1.02617,-15.2781 64.78435,64.78435 0 0 0 -3.70426,-10.85941 c -3.04,-7.68275 -5.52249,-15.57226 -8.00218,-23.453701 -1.28788,-4.09341 -2.59131,-8.31991 -2.201,-12.59335 l 3.057,-0.3325 a 14.59645,14.59645 0 0 1 0.96489,-4.93366 18.10138,18.10138 0 0 1 5.11254,1.92416 l 3.52412,-8.94225 c 2.3259,2.41217 5.66385,3.504 8.86,4.51037 l 12.14847,3.82516 0.074,-2.40425 a 62.35343,62.35343 0 0 0 17.28717,10.84362 3.93274,3.93274 0 0 1 -0.85375,-3.12932 c 2.99375,5.36313 1.79654,12.04445 -0.0511,17.902101 -1.8476,5.85765 -4.29883,11.82112 -3.55478,17.918 0.55648,4.55993 2.89237,8.92087 2.45932,13.49417 -0.21326,2.25209 -1.09408,4.39517 -1.368,6.64069 -0.65327,5.35552 2.16255,10.45542 4.88066,15.11592 l 5.28537,-7.25854 c 1.93437,-2.65651 3.92822,-5.37093 6.66714,-7.18672 2.81156,-1.864 6.2965,-2.70073 8.74663,-5.01936 4.37384,-4.1391 3.81852,-11.19066 2.39615,-17.04212 -0.75612,-3.11056 -1.67107,-6.26525 -1.39309,-9.4543 0.47124,-5.40617 4.22787,-9.879211 6.34364,-14.876441 a 25.82573,25.82573 0 0 0 -1.44726,-22.70338 c -2.62532,-4.50312 -6.59227,-8.12979 -9.06629,-12.71777 -2.46279,-4.56715 -3.40224,-10.0014 -6.77676,-13.94308 a 23.52175,23.52175 0 0 0 -5.6807,-4.526 74.05661,74.05661 0 0 0 -31.5064,-10.27882 c -10.5681,-1.10487 -19.48364,2.69313 -27.58203,9.3689 z"
     fill="#ff6584"
     id="path80" />
  <path
     id="path34"
     fill="#2f2e41"
     d="m 540.09084,148.85331 c 0,0 -25.26734,-9.92145 -34.38264,-8.58555 a 37.25942,37.25942 0 0 1 -28.68937,8.58555 c -17.39917,-2.1749 -24.2029,-10.52478 -24.2029,-10.52478 0,0 -46.84373,10.52478 -43.94387,14.87457 2.89986,4.34979 15.94924,75.39643 15.94924,75.39643 0,0 8.69959,61.62208 -1.44993,82.64609 -10.14952,21.02401 -15.22428,55.82235 -10.87448,58.72221 4.3498,2.89986 52.92249,15.94925 58.72222,19.57408 5.79973,3.62483 7.97462,-8.69959 11.59945,-6.52469 3.62483,2.1749 11.59945,5.79972 16.67421,2.89986 5.07476,-2.89986 54.37242,-28.99863 52.92249,-34.07339 -1.44993,-5.07476 -20.299,-66.69684 -26.82373,-79.02125 -6.52473,-12.32441 -1.44993,-38.42318 2.1749,-43.49794 3.62483,-5.07476 10.87448,-10.87449 12.32441,-25.3738 1.44993,-14.49931 0,-55.09739 0,-55.09739 z"
     style="fill:#121212" />
</svg>
