<svg width="318" height="212" viewBox="0 0 318 212" fill="none" xmlns="http://www.w3.org/2000/svg">
<rect y="-0.00012207" width="318" height="212" fill="#E7F6FF"/>
<line y1="-0.5" x2="32" y2="-0.5" transform="matrix(-1 0 0 1 56 23.9999)" stroke="#B1E2FF"/>
<line y1="-0.5" x2="32" y2="-0.5" transform="matrix(0 -1 -1 0 24 54.9999)" stroke="#B1E2FF"/>
<line y1="-0.5" x2="32" y2="-0.5" transform="matrix(1 0 0 -1 262 188)" stroke="#B1E2FF"/>
<line y1="-0.5" x2="32" y2="-0.5" transform="matrix(0 1 1 0 294 157)" stroke="#B1E2FF"/>
<g clip-path="url(#clip0)">
<path d="M363.592 320.587C358.052 313.62 345.865 300.198 329.234 290.645C320.956 285.885 306.415 281.597 295.181 278.861C286.277 276.688 269.486 274.096 254.646 273.245C239.807 272.394 220.265 272.21 205.633 272.21C191 272.21 167.354 269.503 157.078 265.773C145.539 261.626 134.944 255.214 125.912 246.913C122.388 243.637 119.466 239.142 118.742 233.917C118.019 228.691 121.423 222.541 123.966 219.081C130.109 210.694 137.17 200.376 144.707 192.065C147.164 190.202 149.478 188.42 151.349 186.84C155.259 187.742 158.158 189.495 161.837 191.093C165.391 192.634 170.046 194.502 173.979 193.392C174.829 193.194 175.583 192.702 176.107 192.003C176.632 191.304 176.895 190.443 176.849 189.57C176.711 187.506 175.087 185.816 173.761 184.397C170.739 181.181 167.214 178.48 163.324 176.401C168.973 171.13 172.905 166.566 178.824 161.571C182.228 158.697 186.901 154.811 190.305 151.937C192.647 149.954 194.479 146.373 192.154 143.62C189.605 140.602 184.794 143.183 181.884 144.281C177.99 145.753 174.19 147.463 170.506 149.402C168.852 150.276 167.228 151.201 165.626 152.161C163.772 148.298 158.737 147.373 154.943 145.976C154.853 145.945 154.761 145.92 154.667 145.901C154.398 145.606 154.106 145.331 153.795 145.08C149.719 141.786 143.502 142.849 139.024 144.643C134.11 146.603 129.087 151.908 124.787 156.208C117.026 163.267 109.035 171.699 101.486 178.821C93.8108 186.046 86.9967 197.428 81.6464 206.487C73.3454 220.546 71.9906 234.756 78.1446 256.058C84.2986 277.361 105.349 295.427 139.667 308.245C151.091 312.516 156.831 312.614 161.711 314.166C161.711 314.166 161.487 340.032 161.292 353.828C161.039 371.607 161.43 389.506 161.057 407.285C160.861 416.678 160.264 426.059 160.092 435.451C159.926 444.544 159.914 453.638 159.811 462.731C159.593 481.367 158.215 574.578 158.146 574.618C154.237 576.665 144.34 582.631 144.34 585.804C144.34 588.977 145.907 590.512 151.165 590.512C156.424 590.512 196.516 590.592 202.412 590.592C208.308 590.592 210.3 585.574 210.3 579.884C210.3 574.193 212.349 361.875 212.349 361.875L243.062 360.973C243.062 360.973 243.4 413.062 244.485 439.342C245.777 470.503 245.059 501.698 245.019 532.876C245.019 541.498 244.939 579.487 244.939 583.649C244.939 587.81 246.219 590.615 250.811 590.615H302.977C308.235 590.615 309.056 584.988 306.484 582.758C303.912 580.527 297.247 576.055 297.247 576.055C297.247 576.055 296.851 543.676 297.012 535.704C297.379 517.62 297.471 499.525 297.408 481.436C297.37 469.284 297.266 457.131 297.098 444.976C297.098 436.785 297.511 426.518 297.534 418.31C297.534 416.321 297.534 413.758 297.494 411.769C298.1 412.449 298.836 413 299.658 413.39C307.357 416.229 318.247 412.78 327.902 407.176C337.558 401.572 349.447 388.144 356.278 381.206C362.834 374.538 371.726 361.03 372.18 349.591C372.633 338.153 369.126 327.553 363.592 320.587ZM308.401 380.809C305.933 373.86 301.358 367.842 295.772 362.898C295.554 352.552 295.25 341.533 295.031 330.818C295.072 329.588 295.106 328.283 295.141 326.858C304.526 328.007 313.734 330.812 321.84 336.342C329.946 341.872 335.566 346.648 335.733 351.063C335.899 355.478 317.655 377.832 308.401 380.809Z" fill="#147EFB"/>
<path d="M125.36 175.964L127.312 178.689" stroke="#0053C7" stroke-width="4" stroke-linecap="round" stroke-linejoin="round"/>
<path d="M155.838 147.04C156.422 147.812 156.866 148.682 157.146 149.609C157.68 151.604 157.055 153.713 156.337 155.65C155.652 157.687 154.659 159.606 153.392 161.341C151.998 163.119 150.158 164.496 148.059 165.33C146.159 166.083 143.788 166.284 142.244 164.939C140.522 163.451 140.619 160.663 141.67 158.616C142.72 156.57 144.471 155.058 145.906 153.294" stroke="#0053C7" stroke-width="4" stroke-linecap="round" stroke-linejoin="round"/>
<path d="M165.993 152.811C166.638 154.978 166.762 157.266 166.356 159.49C165.949 161.714 165.022 163.81 163.652 165.607C162.282 167.404 160.506 168.851 158.471 169.83C156.435 170.809 154.197 171.292 151.94 171.239C150.858 171.259 149.787 171.012 148.823 170.521C147.158 169.567 146.406 167.946 147.003 166.123" stroke="#0053C7" stroke-width="4" stroke-linecap="round" stroke-linejoin="round"/>
<path d="M211.562 108.205L201.654 107.556C203.451 105.142 205.202 102.699 206.775 100.124C207.286 99.2843 206.201 98.1635 205.322 98.5773C202.372 100.018 199.501 101.595 196.711 103.308C196.36 103.042 195.988 102.806 195.598 102.601C194.045 101.818 192.276 101.575 190.571 101.913C188.865 102.25 187.321 103.148 186.183 104.463C185.045 105.93 184.243 107.629 183.835 109.441C183.37 110.885 183.089 112.382 182.997 113.896C179.788 113.522 176.567 113.223 173.347 113.022C172.159 112.953 170.477 112.528 169.828 113.896C169.283 115.092 169.438 116.925 169.541 118.201C169.581 118.73 169.656 119.253 169.748 119.771C167.926 119.253 166.12 118.678 164.328 118.046C164.146 117.964 163.945 117.932 163.746 117.951C163.547 117.971 163.356 118.043 163.193 118.159C163.03 118.275 162.9 118.432 162.817 118.614C162.733 118.796 162.698 118.996 162.715 119.196C162.801 121.265 163.634 123.254 164.397 125.151C165.146 127.119 166.129 128.989 167.325 130.721C169.7 133.959 173.167 136.224 177.084 137.095C181.054 137.939 185.188 137.515 188.904 135.883C192.71 134.267 196.367 131.663 197.877 127.663C199.386 123.662 199.88 119.213 199.834 114.856C203.94 113.732 207.936 112.241 211.775 110.401C212.705 109.959 212.797 108.292 211.562 108.205Z" fill="#FC3158"/>
<path d="M179.461 136.457L179.765 145.792" stroke="#C2002F" stroke-width="3" stroke-linecap="round" stroke-linejoin="round"/>
<path d="M185.368 135.153C185.269 138.717 185.45 142.284 185.908 145.821" stroke="#C2002F" stroke-width="3" stroke-linecap="round" stroke-linejoin="round"/>
<path d="M170.063 120.501C170.333 121.861 170.783 123.18 171.401 124.421C172.17 125.864 172.94 127.531 174.088 128.692C175.236 129.853 176.705 130.491 178.169 131.123" stroke="#C2002F" stroke-width="3" stroke-linecap="round" stroke-linejoin="round"/>
<path d="M191.568 107.855L191.292 109.579" stroke="#C2002F" stroke-width="3" stroke-linecap="round" stroke-linejoin="round"/>
<path d="M224.582 88.2078C226.248 87.0654 227.996 86.0472 229.812 85.1613" stroke="#FC3158" stroke-width="3" stroke-linecap="round" stroke-linejoin="round"/>
<path d="M232.734 100L238.734 101" stroke="#FC3158" stroke-width="3" stroke-linecap="round" stroke-linejoin="round"/>
<path d="M226.729 115.707L233.366 118.638" stroke="#FC3158" stroke-width="3" stroke-linecap="round" stroke-linejoin="round"/>
</g>
<defs>
<clipPath id="clip0">
<rect width="163" height="129" fill="white" transform="translate(78 83)"/>
</clipPath>
</defs>
</svg>
