<svg width="20" height="18" viewBox="0 0 20 18" fill="none" xmlns="http://www.w3.org/2000/svg">
<path d="M0.0338194 8.81932C2.16809 3.31515 8.36027 0.583306 13.8644 2.71758C16.6654 3.80367 18.8801 6.01833 19.9662 8.81932C20.0113 8.93561 20.0113 9.06456 19.9662 9.18085C17.8319 14.685 11.6397 17.4169 6.13556 15.2826C3.33457 14.1965 1.11992 11.9818 0.0338194 9.18085C-0.0112731 9.06456 -0.0112731 8.93561 0.0338194 8.81932ZM6.49709 14.3502C11.4257 16.2613 16.9629 13.8681 18.9617 9.00013C17.9533 6.54674 15.9813 4.61095 13.5029 3.64994C8.57431 1.73885 3.03714 4.13206 1.03835 9.00004C2.04671 11.4534 4.01868 13.3892 6.49709 14.3502ZM10 13.0001C7.79086 13.0001 6 11.2092 6 9.00008C6 6.79094 7.79086 5.00008 10 5.00008C12.2091 5.00008 14 6.79094 14 9.00008C14 11.2092 12.2091 13.0001 10 13.0001ZM10 12.0001C11.6569 12.0001 13 10.6569 13 9.00008C13 7.34323 11.6569 6.00008 10 6.00008C8.34315 6.00008 7 7.34323 7 9.00008C7 10.6569 8.34315 12.0001 10 12.0001Z" fill="#616161"/>
</svg>
