<svg width="540" height="436" viewBox="0 0 540 436" fill="none" xmlns="http://www.w3.org/2000/svg">
<g clip-path="url(#clip0)">
<g filter="url(#filter0_d)">
<rect width="160" height="284" rx="16" transform="matrix(0.866025 -0.5 0.866025 0.5 32 253)" fill="white"/>
</g>
<mask id="path-2-outside-1" maskUnits="userSpaceOnUse" x="83.9615" y="203" width="173.205" height="100" fill="black">
<rect fill="white" x="83.9615" y="203" width="173.205" height="100"/>
<path d="M128.995 229C137.216 224.253 147.691 221.021 159.095 219.711C170.499 218.401 182.319 219.074 193.061 221.642C203.803 224.211 212.985 228.562 219.444 234.143C225.904 239.725 229.352 246.287 229.352 253C229.352 259.713 225.904 266.275 219.444 271.857C212.985 277.438 203.803 281.789 193.061 284.358C182.319 286.926 170.499 287.599 159.095 286.289C147.691 284.979 137.216 281.747 128.995 277L156.03 261.391C158.904 263.051 162.567 264.181 166.554 264.639C170.541 265.097 174.674 264.862 178.43 263.964C182.186 263.066 185.396 261.545 187.655 259.593C189.913 257.642 191.119 255.347 191.119 253C191.119 250.653 189.913 248.358 187.655 246.407C185.396 244.455 182.186 242.934 178.43 242.036C174.674 241.138 170.541 240.903 166.554 241.361C162.567 241.819 158.904 242.949 156.03 244.609L128.995 229Z"/>
</mask>
<path d="M128.995 229C137.216 224.253 147.691 221.021 159.095 219.711C170.499 218.401 182.319 219.074 193.061 221.642C203.803 224.211 212.985 228.562 219.444 234.143C225.904 239.725 229.352 246.287 229.352 253C229.352 259.713 225.904 266.275 219.444 271.857C212.985 277.438 203.803 281.789 193.061 284.358C182.319 286.926 170.499 287.599 159.095 286.289C147.691 284.979 137.216 281.747 128.995 277L156.03 261.391C158.904 263.051 162.567 264.181 166.554 264.639C170.541 265.097 174.674 264.862 178.43 263.964C182.186 263.066 185.396 261.545 187.655 259.593C189.913 257.642 191.119 255.347 191.119 253C191.119 250.653 189.913 248.358 187.655 246.407C185.396 244.455 182.186 242.934 178.43 242.036C174.674 241.138 170.541 240.903 166.554 241.361C162.567 241.819 158.904 242.949 156.03 244.609L128.995 229Z" fill="#147EFB"/>
<path d="M128.995 229C137.216 224.253 147.691 221.021 159.095 219.711C170.499 218.401 182.319 219.074 193.061 221.642C203.803 224.211 212.985 228.562 219.444 234.143C225.904 239.725 229.352 246.287 229.352 253C229.352 259.713 225.904 266.275 219.444 271.857C212.985 277.438 203.803 281.789 193.061 284.358C182.319 286.926 170.499 287.599 159.095 286.289C147.691 284.979 137.216 281.747 128.995 277L156.03 261.391C158.904 263.051 162.567 264.181 166.554 264.639C170.541 265.097 174.674 264.862 178.43 263.964C182.186 263.066 185.396 261.545 187.655 259.593C189.913 257.642 191.119 255.347 191.119 253C191.119 250.653 189.913 248.358 187.655 246.407C185.396 244.455 182.186 242.934 178.43 242.036C174.674 241.138 170.541 240.903 166.554 241.361C162.567 241.819 158.904 242.949 156.03 244.609L128.995 229Z" stroke="white" stroke-width="4" mask="url(#path-2-outside-1)"/>
<mask id="path-3-outside-2" maskUnits="userSpaceOnUse" x="92.6218" y="236.5" width="73.6122" height="42.5" fill="black">
<rect fill="white" x="92.6218" y="236.5" width="73.6122" height="42.5"/>
<path d="M128.995 277C122.87 273.464 118.175 269.19 115.244 264.484C112.313 259.779 111.22 254.757 112.042 249.779L150.102 251.874C149.815 253.614 150.197 255.37 151.222 257.015C152.247 258.661 153.888 260.155 156.03 261.391L128.995 277Z"/>
</mask>
<path d="M128.995 277C122.87 273.464 118.175 269.19 115.244 264.484C112.313 259.779 111.22 254.757 112.042 249.779L150.102 251.874C149.815 253.614 150.197 255.37 151.222 257.015C152.247 258.661 153.888 260.155 156.03 261.391L128.995 277Z" fill="#FC3158"/>
<path d="M128.995 277C122.87 273.464 118.175 269.19 115.244 264.484C112.313 259.779 111.22 254.757 112.042 249.779L150.102 251.874C149.815 253.614 150.197 255.37 151.222 257.015C152.247 258.661 153.888 260.155 156.03 261.391L128.995 277Z" stroke="white" stroke-width="4" mask="url(#path-3-outside-2)"/>
<mask id="path-4-outside-3" maskUnits="userSpaceOnUse" x="116.004" y="227" width="44.1673" height="25.5" fill="black">
<rect fill="white" x="116.004" y="227" width="44.1673" height="25.5"/>
<path d="M128.995 229C126.038 230.707 123.404 232.592 121.14 234.622L153.283 246.574C154.075 245.865 154.996 245.206 156.03 244.609L128.995 229Z"/>
</mask>
<path d="M128.995 229C126.038 230.707 123.404 232.592 121.14 234.622L153.283 246.574C154.075 245.865 154.996 245.206 156.03 244.609L128.995 229Z" fill="#FECB2E"/>
<path d="M128.995 229C126.038 230.707 123.404 232.592 121.14 234.622L153.283 246.574C154.075 245.865 154.996 245.206 156.03 244.609L128.995 229Z" stroke="white" stroke-width="4" mask="url(#path-4-outside-3)"/>
<mask id="path-5-outside-4" maskUnits="userSpaceOnUse" x="97.8179" y="228.5" width="63.2199" height="36.5" fill="black">
<rect fill="white" x="97.8179" y="228.5" width="63.2199" height="36.5"/>
<path d="M121.113 234.646C116.064 239.181 112.959 244.344 112.053 249.709L150.106 251.849C150.423 249.973 151.509 248.168 153.274 246.583L121.113 234.646Z"/>
</mask>
<path d="M121.113 234.646C116.064 239.181 112.959 244.344 112.053 249.709L150.106 251.849C150.423 249.973 151.509 248.168 153.274 246.583L121.113 234.646Z" fill="#53D769"/>
<path d="M121.113 234.646C116.064 239.181 112.959 244.344 112.053 249.709L150.106 251.849C150.423 249.973 151.509 248.168 153.274 246.583L121.113 234.646Z" stroke="white" stroke-width="4" mask="url(#path-5-outside-4)"/>
<path d="M209.837 306.456L212.71 304.797C214.076 304.008 215.503 303.614 216.99 303.614C218.477 303.605 219.904 303.994 221.27 304.783C222.636 305.572 223.315 306.398 223.307 307.261C223.307 308.12 222.624 308.943 221.258 309.732L218.384 311.391L209.837 306.456ZM220.348 309.277C222.563 307.998 222.527 306.699 220.239 305.378C217.96 304.062 215.713 304.043 213.498 305.322L211.679 306.372L218.53 310.327L220.348 309.277Z" fill="#121212"/>
<path d="M229.348 301.827L225.032 304.319C225.751 304.697 226.458 304.891 227.153 304.9C227.84 304.905 228.495 304.728 229.117 304.368C229.804 303.972 230.201 303.472 230.306 302.87L231.348 303.094C231.332 303.384 231.195 303.687 230.936 304.004C230.669 304.317 230.326 304.595 229.906 304.837C228.984 305.369 227.986 305.633 226.911 305.628C225.844 305.619 224.833 305.339 223.88 304.788C223.273 304.438 222.857 304.063 222.631 303.661C222.396 303.255 222.36 302.856 222.522 302.464C222.692 302.068 223.047 301.713 223.589 301.4C224.373 300.948 225.246 300.742 226.208 300.784C227.161 300.822 228.087 301.099 228.984 301.617L229.348 301.827ZM224.365 301.834C223.847 302.133 223.593 302.467 223.601 302.835C223.617 303.199 223.892 303.568 224.425 303.941L227.856 301.96C227.242 301.624 226.636 301.447 226.038 301.428C225.432 301.405 224.874 301.54 224.365 301.834Z" fill="#121212"/>
<path d="M235.681 301.503C234.687 302.077 233.644 302.385 232.553 302.427L232.153 301.818C232.718 301.78 233.22 301.701 233.656 301.58C234.093 301.449 234.517 301.265 234.929 301.027C235.366 300.775 235.624 300.541 235.705 300.327C235.786 300.103 235.685 299.909 235.402 299.746C235.168 299.61 234.905 299.547 234.614 299.557C234.323 299.566 233.959 299.65 233.523 299.809L232.298 300.25C231.684 300.474 231.106 300.583 230.564 300.579C230.023 300.574 229.55 300.455 229.146 300.222C228.62 299.918 228.402 299.554 228.491 299.13C228.58 298.705 228.968 298.294 229.655 297.898C230.067 297.66 230.528 297.473 231.037 297.338C231.538 297.198 232.04 297.128 232.541 297.128L232.929 297.73C231.926 297.776 231.102 297.986 230.455 298.36C230.043 298.598 229.801 298.831 229.728 299.06C229.655 299.279 229.76 299.47 230.043 299.634C230.277 299.769 230.536 299.839 230.819 299.844C231.102 299.839 231.437 299.767 231.825 299.627L233.074 299.186C233.753 298.943 234.359 298.822 234.893 298.822C235.418 298.817 235.891 298.936 236.311 299.179C236.829 299.477 237.031 299.837 236.918 300.257C236.812 300.672 236.4 301.087 235.681 301.503Z" fill="#121212"/>
<path d="M244.683 296.207L243.41 296.942L237.578 297.047L240.403 298.678L239.421 299.245L230.873 294.31L231.855 293.743L237.178 296.816L237.263 293.687L238.512 292.966L238.402 296.291L244.683 296.207Z" fill="#121212"/>
<path d="M247.327 293.869C247.505 293.766 247.671 293.657 247.824 293.54L248.552 294.016C248.398 294.142 248.212 294.268 247.994 294.394C247.283 294.805 246.559 295.008 245.824 295.003C245.096 294.994 244.401 294.798 243.738 294.415L240.634 292.623L239.483 293.288L238.707 292.84L239.858 292.175L238.064 291.139L239.046 290.572L240.841 291.608L242.514 290.642L243.29 291.09L241.617 292.056L244.648 293.806C245.577 294.343 246.47 294.364 247.327 293.869Z" fill="#121212"/>
<path d="M252.09 292.029C251.532 292.351 250.914 292.563 250.235 292.666C249.564 292.764 248.881 292.748 248.186 292.617C247.491 292.477 246.836 292.23 246.222 291.875C245.608 291.52 245.183 291.145 244.949 290.748C244.714 290.342 244.682 289.945 244.852 289.558C245.03 289.166 245.397 288.809 245.955 288.487C246.513 288.165 247.131 287.953 247.81 287.85C248.489 287.747 249.176 287.766 249.871 287.906C250.566 288.037 251.221 288.279 251.835 288.634C252.45 288.989 252.874 289.369 253.109 289.775C253.343 290.172 253.371 290.566 253.193 290.958C253.016 291.35 252.648 291.707 252.09 292.029ZM251.278 291.56C251.86 291.224 252.114 290.858 252.042 290.461C251.969 290.055 251.565 289.64 250.829 289.215C250.11 288.8 249.398 288.571 248.695 288.529C247.984 288.482 247.341 288.625 246.767 288.956C246.194 289.287 245.947 289.658 246.028 290.069C246.101 290.475 246.497 290.886 247.216 291.301C247.944 291.721 248.655 291.954 249.35 292.001C250.053 292.043 250.696 291.896 251.278 291.56Z" fill="#121212"/>
<path d="M253.202 284.303C253.719 284.004 254.305 283.815 254.96 283.736C255.614 283.657 256.285 283.689 256.972 283.834C257.651 283.974 258.298 284.221 258.912 284.576C259.527 284.931 259.955 285.304 260.197 285.696C260.432 286.083 260.476 286.464 260.331 286.837C260.193 287.206 259.862 287.542 259.337 287.845C258.876 288.111 258.371 288.286 257.821 288.37C257.28 288.449 256.734 288.433 256.184 288.321L259.446 290.204L258.464 290.771L250.377 286.102L251.359 285.535L252.377 286.123C252.183 285.806 252.155 285.491 252.292 285.178C252.438 284.861 252.741 284.569 253.202 284.303ZM258.33 287.488C258.904 287.157 259.155 286.788 259.082 286.382C259.009 285.976 258.617 285.568 257.906 285.157C257.195 284.746 256.483 284.518 255.772 284.471C255.053 284.42 254.406 284.56 253.832 284.891C253.258 285.222 253.008 285.591 253.08 285.997C253.161 286.398 253.561 286.807 254.281 287.222C255 287.637 255.711 287.871 256.415 287.922C257.118 287.964 257.756 287.819 258.33 287.488Z" fill="#121212"/>
<circle r="4" transform="matrix(0.866025 -0.5 0.866025 0.5 202.607 315.5)" fill="#147EFB"/>
<path d="M241.767 324.891L233.219 319.956L234.213 319.382L241.912 323.827L246.192 321.356L247.041 321.846L241.767 324.891Z" fill="#121212"/>
<path d="M244.52 316.316C245.271 315.882 246.023 315.672 246.775 315.686C247.526 315.69 248.294 315.919 249.078 316.372L252.801 318.521L251.843 319.074L250.836 318.493C251.03 318.782 251.067 319.074 250.945 319.368C250.816 319.657 250.545 319.921 250.133 320.159C249.753 320.378 249.325 320.537 248.848 320.635C248.379 320.728 247.914 320.749 247.454 320.698C246.993 320.646 246.597 320.525 246.265 320.334C245.821 320.077 245.591 319.813 245.574 319.543C245.55 319.267 245.744 318.95 246.156 318.591C246.561 318.227 247.223 317.779 248.145 317.247L248.411 317.093L248.011 316.862C247.518 316.577 247.062 316.43 246.641 316.421C246.213 316.407 245.772 316.53 245.32 316.792C244.641 317.184 244.176 317.695 243.925 318.325L242.883 318.101C242.972 317.797 243.166 317.485 243.465 317.163C243.764 316.831 244.115 316.549 244.52 316.316ZM249.491 319.634C249.976 319.354 250.21 319.032 250.194 318.668C250.178 318.294 249.911 317.958 249.394 317.66L249.042 317.457L248.824 317.583C248.112 317.993 247.603 318.325 247.296 318.577C246.981 318.824 246.815 319.036 246.799 319.214C246.783 319.382 246.912 319.545 247.187 319.704C247.502 319.886 247.878 319.972 248.315 319.963C248.751 319.944 249.143 319.834 249.491 319.634Z" fill="#121212"/>
<path d="M251.519 312.275C252.036 311.976 252.622 311.787 253.277 311.708C253.931 311.628 254.602 311.661 255.289 311.806C255.968 311.946 256.615 312.193 257.229 312.548C257.844 312.902 258.272 313.276 258.514 313.668C258.749 314.055 258.793 314.435 258.648 314.809C258.51 315.177 258.179 315.513 257.654 315.817C257.193 316.083 256.688 316.258 256.138 316.342C255.596 316.421 255.051 316.405 254.501 316.293L257.763 318.176L256.781 318.743L248.694 314.074L249.676 313.507L250.694 314.095C250.5 313.777 250.472 313.462 250.609 313.15C250.755 312.832 251.058 312.541 251.519 312.275ZM256.647 315.46C257.221 315.128 257.472 314.76 257.399 314.354C257.326 313.948 256.934 313.539 256.223 313.129C255.512 312.718 254.8 312.489 254.089 312.443C253.37 312.391 252.723 312.531 252.149 312.863C251.575 313.194 251.325 313.563 251.397 313.969C251.478 314.37 251.878 314.778 252.598 315.194C253.317 315.609 254.028 315.842 254.732 315.894C255.435 315.936 256.073 315.791 256.647 315.46Z" fill="#121212"/>
<path d="M263.535 311.511C263.712 311.409 263.878 311.299 264.032 311.182L264.759 311.658C264.606 311.784 264.42 311.91 264.201 312.036C263.49 312.447 262.767 312.65 262.031 312.645C261.304 312.636 260.609 312.44 259.946 312.057L256.842 310.265L255.69 310.93L254.914 310.482L256.066 309.817L254.272 308.781L255.254 308.214L257.048 309.25L258.721 308.284L259.497 308.732L257.824 309.698L260.855 311.448C261.785 311.985 262.678 312.006 263.535 311.511Z" fill="#121212"/>
<path d="M268.298 309.672C267.74 309.994 267.121 310.206 266.443 310.309C265.772 310.407 265.089 310.39 264.393 310.26C263.698 310.12 263.044 309.872 262.429 309.518C261.815 309.163 261.391 308.787 261.156 308.391C260.922 307.985 260.89 307.588 261.059 307.201C261.237 306.809 261.605 306.452 262.163 306.13C262.72 305.808 263.339 305.595 264.018 305.493C264.697 305.39 265.384 305.409 266.079 305.549C266.774 305.679 267.429 305.922 268.043 306.277C268.657 306.631 269.082 307.012 269.316 307.418C269.55 307.814 269.579 308.209 269.401 308.601C269.223 308.993 268.855 309.35 268.298 309.672ZM267.485 309.203C268.067 308.867 268.322 308.5 268.249 308.104C268.176 307.698 267.772 307.282 267.037 306.858C266.317 306.442 265.606 306.214 264.903 306.172C264.191 306.125 263.549 306.267 262.975 306.599C262.401 306.93 262.155 307.301 262.235 307.712C262.308 308.118 262.704 308.528 263.424 308.944C264.151 309.364 264.862 309.597 265.557 309.644C266.261 309.686 266.903 309.539 267.485 309.203Z" fill="#121212"/>
<path d="M269.409 301.946C269.926 301.647 270.512 301.458 271.167 301.379C271.822 301.299 272.493 301.332 273.18 301.477C273.859 301.617 274.505 301.864 275.12 302.219C275.734 302.573 276.162 302.947 276.405 303.339C276.639 303.726 276.684 304.106 276.538 304.48C276.401 304.848 276.069 305.184 275.544 305.488C275.083 305.754 274.578 305.929 274.029 306.013C273.487 306.092 272.941 306.076 272.392 305.964L275.653 307.847L274.671 308.414L266.584 303.745L267.566 303.178L268.585 303.766C268.391 303.448 268.362 303.133 268.5 302.821C268.645 302.503 268.948 302.212 269.409 301.946ZM274.538 305.131C275.112 304.799 275.362 304.431 275.289 304.025C275.217 303.619 274.825 303.21 274.113 302.8C273.402 302.389 272.691 302.16 271.98 302.114C271.26 302.062 270.614 302.202 270.04 302.534C269.466 302.865 269.215 303.234 269.288 303.64C269.369 304.041 269.769 304.449 270.488 304.865C271.208 305.28 271.919 305.513 272.622 305.565C273.325 305.607 273.964 305.462 274.538 305.131Z" fill="#121212"/>
<circle r="4" transform="matrix(0.866025 -0.5 0.866025 0.5 225.99 329)" fill="#FC3158"/>
<path d="M263.864 329.263L264.677 328.794L273.224 333.729L272.315 334.254L265.707 330.425L268.193 335.066L267.49 335.472L259.488 334.072L266.071 337.859L265.15 338.391L256.602 333.456L257.426 332.98L266.859 334.688L263.864 329.263Z" fill="#121212"/>
<path d="M277.732 331.224C277.175 331.546 276.556 331.759 275.877 331.861C275.207 331.959 274.524 331.943 273.828 331.812C273.133 331.672 272.479 331.425 271.864 331.07C271.25 330.716 270.826 330.34 270.591 329.943C270.357 329.537 270.325 329.141 270.494 328.753C270.672 328.361 271.04 328.004 271.598 327.682C272.155 327.36 272.774 327.148 273.453 327.045C274.132 326.943 274.819 326.961 275.514 327.101C276.209 327.232 276.864 327.475 277.478 327.829C278.092 328.184 278.517 328.564 278.751 328.97C278.985 329.367 279.014 329.761 278.836 330.153C278.658 330.545 278.29 330.902 277.732 331.224ZM276.92 330.755C277.502 330.419 277.757 330.053 277.684 329.656C277.611 329.25 277.207 328.835 276.472 328.41C275.752 327.995 275.041 327.766 274.338 327.724C273.626 327.678 272.984 327.82 272.41 328.151C271.836 328.483 271.589 328.854 271.67 329.264C271.743 329.67 272.139 330.081 272.858 330.496C273.586 330.916 274.297 331.15 274.992 331.196C275.696 331.238 276.338 331.091 276.92 330.755Z" fill="#121212"/>
<path d="M278.844 323.498C279.361 323.2 279.943 323.008 280.59 322.924C281.237 322.84 281.899 322.868 282.578 323.008C283.257 323.148 283.9 323.393 284.506 323.743C285.121 324.098 285.553 324.474 285.804 324.87C286.046 325.262 286.099 325.647 285.961 326.025C285.824 326.403 285.496 326.742 284.979 327.04C284.518 327.306 284.013 327.481 283.464 327.565C282.922 327.645 282.376 327.628 281.827 327.516L282.906 328.139L281.924 328.706L273.376 323.771L274.358 323.204L278.02 325.318C277.826 325.001 277.797 324.686 277.935 324.373C278.08 324.056 278.383 323.764 278.844 323.498ZM283.973 326.683C284.547 326.352 284.793 325.981 284.712 325.57C284.623 325.155 284.219 324.74 283.5 324.324C282.797 323.918 282.093 323.694 281.39 323.652C280.687 323.61 280.048 323.755 279.475 324.086C278.901 324.418 278.65 324.786 278.723 325.192C278.804 325.594 279.204 326.002 279.923 326.417C280.643 326.833 281.354 327.066 282.057 327.117C282.76 327.159 283.399 327.015 283.973 326.683Z" fill="#121212"/>
<path d="M288.98 324.632L283.076 321.223L284.058 320.656L289.963 324.065L288.98 324.632ZM280.421 319.802L281.609 319.116L282.712 319.753L281.524 320.439L280.421 319.802Z" fill="#121212"/>
<path d="M291.798 323.005L283.251 318.07L284.233 317.503L292.781 322.438L291.798 323.005Z" fill="#121212"/>
<path d="M296.762 316.905L292.446 319.397C293.166 319.775 293.873 319.969 294.568 319.978C295.255 319.983 295.91 319.806 296.532 319.446C297.219 319.05 297.615 318.55 297.72 317.948L298.763 318.172C298.747 318.462 298.609 318.765 298.351 319.082C298.084 319.395 297.74 319.673 297.32 319.915C296.399 320.447 295.4 320.711 294.325 320.706C293.258 320.697 292.248 320.417 291.294 319.866C290.688 319.516 290.272 319.141 290.046 318.739C289.811 318.333 289.775 317.934 289.936 317.542C290.106 317.146 290.462 316.791 291.003 316.478C291.787 316.026 292.66 315.82 293.622 315.862C294.576 315.9 295.501 316.177 296.399 316.695L296.762 316.905ZM291.779 316.912C291.262 317.211 291.007 317.545 291.015 317.913C291.032 318.277 291.306 318.646 291.84 319.019L295.271 317.038C294.657 316.702 294.051 316.525 293.452 316.506C292.846 316.483 292.289 316.618 291.779 316.912Z" fill="#121212"/>
<circle r="4" transform="matrix(0.866025 -0.5 0.866025 0.5 249.372 342.5)" fill="#53D769"/>
<path d="M292.206 349.882C291.414 350.339 290.545 350.636 289.599 350.771C288.662 350.902 287.708 350.869 286.738 350.673C285.768 350.477 284.838 350.122 283.949 349.609C283.052 349.091 282.43 348.554 282.082 347.999C281.735 347.434 281.678 346.884 281.912 346.347C282.147 345.801 282.664 345.297 283.464 344.835C284.264 344.373 285.133 344.077 286.071 343.946C287.009 343.806 287.962 343.839 288.932 344.044C289.902 344.24 290.832 344.595 291.721 345.108C292.61 345.621 293.228 346.16 293.576 346.725C293.915 347.285 293.968 347.838 293.734 348.384C293.507 348.925 292.998 349.425 292.206 349.882ZM291.357 349.392C292.263 348.869 292.663 348.288 292.558 347.649C292.452 347 291.834 346.349 290.703 345.696C289.571 345.043 288.451 344.686 287.344 344.625C286.237 344.564 285.226 344.798 284.313 345.325C283.408 345.848 283.008 346.433 283.113 347.082C283.218 347.721 283.832 348.365 284.956 349.014C286.079 349.663 287.199 350.02 288.314 350.085C289.438 350.146 290.452 349.915 291.357 349.392Z" fill="#121212"/>
<path d="M299.537 344.725C299.715 344.623 299.881 344.513 300.034 344.396L300.762 344.872C300.608 344.998 300.422 345.124 300.204 345.25C299.493 345.661 298.769 345.864 298.034 345.859C297.306 345.85 296.611 345.654 295.948 345.271L292.845 343.479L291.693 344.144L290.917 343.696L292.069 343.031L290.274 341.995L291.256 341.428L293.051 342.464L294.724 341.498L295.5 341.946L293.827 342.912L296.858 344.662C297.787 345.199 298.68 345.22 299.537 344.725Z" fill="#121212"/>
<path d="M298.687 339.042C300.101 338.226 301.588 338.268 303.148 339.168L306.858 341.31L305.876 341.877L302.227 339.77C301.677 339.453 301.168 339.285 300.699 339.266C300.239 339.243 299.774 339.367 299.305 339.637C298.763 339.95 298.497 340.295 298.505 340.673C298.513 341.051 298.8 341.404 299.366 341.73L302.748 343.683L301.766 344.25L293.219 339.315L294.201 338.748L297.789 340.82C297.628 340.503 297.624 340.193 297.777 339.889C297.939 339.581 298.242 339.299 298.687 339.042Z" fill="#121212"/>
<path d="M310.803 335.799L306.487 338.291C307.206 338.669 307.914 338.863 308.609 338.872C309.296 338.877 309.95 338.699 310.573 338.34C311.26 337.943 311.656 337.444 311.761 336.842L312.804 337.066C312.788 337.355 312.65 337.659 312.391 337.976C312.125 338.289 311.781 338.566 311.361 338.809C310.439 339.341 309.441 339.605 308.366 339.6C307.299 339.591 306.289 339.311 305.335 338.76C304.729 338.41 304.313 338.034 304.086 337.633C303.852 337.227 303.816 336.828 303.977 336.436C304.147 336.039 304.503 335.685 305.044 335.372C305.828 334.919 306.701 334.714 307.663 334.756C308.617 334.793 309.542 335.071 310.439 335.589L310.803 335.799ZM305.82 335.806C305.303 336.105 305.048 336.438 305.056 336.807C305.072 337.171 305.347 337.54 305.881 337.913L309.312 335.932C308.698 335.596 308.091 335.419 307.493 335.4C306.887 335.377 306.329 335.512 305.82 335.806Z" fill="#121212"/>
<path d="M313.196 331.645L312.614 332.051C312.064 332.434 311.814 332.798 311.862 333.143C311.919 333.484 312.185 333.792 312.662 334.067L316.033 336.013L315.051 336.58L309.146 333.171L310.104 332.618L311.135 333.213C310.779 332.625 311.046 332.028 311.935 331.421L312.262 331.204L313.196 331.645Z" fill="#121212"/>
<circle r="4" transform="matrix(0.866025 -0.5 0.866025 0.5 272.755 356)" fill="#FECB2E"/>
<g filter="url(#filter1_d)">
<rect width="160" height="296" rx="16" transform="matrix(0.866025 -0.5 0.866025 0.5 73 80)" fill="white"/>
</g>
<line y1="-0.5" x2="96" y2="-0.5" transform="matrix(0.866025 -0.5 0.866025 0.5 215.028 130)" stroke="#121212"/>
<path d="M160.469 90.5L167.397 86.5L228.019 121.5L221.09 125.5L160.469 90.5Z" fill="#147EFB"/>
<path d="M156.138 64L163.067 60L248.803 109.5L241.875 113.5L156.138 64Z" fill="#FC3158"/>
<path d="M221.09 77.5L228.019 73.5L269.588 97.5L262.66 101.5L221.09 77.5Z" fill="#53D769"/>
<path d="M266.99 80L273.918 76L290.372 85.5L283.444 89.5L266.99 80Z" fill="#FECB2E"/>
<path d="M268.491 135.263L269.304 134.794L277.851 139.729L276.942 140.254L270.334 136.425L272.82 141.066L272.117 141.472L264.114 140.072L270.698 143.859L269.777 144.391L261.229 139.456L262.053 138.98L271.486 140.688L268.491 135.263Z" fill="#121212"/>
<path d="M282.359 137.224C281.802 137.546 281.183 137.759 280.504 137.861C279.834 137.959 279.151 137.943 278.455 137.812C277.76 137.672 277.106 137.425 276.491 137.07C275.877 136.716 275.453 136.34 275.218 135.943C274.984 135.537 274.951 135.141 275.121 134.753C275.299 134.361 275.667 134.004 276.225 133.682C276.782 133.36 277.401 133.148 278.08 133.045C278.759 132.943 279.446 132.961 280.141 133.101C280.836 133.232 281.491 133.475 282.105 133.829C282.719 134.184 283.143 134.564 283.378 134.97C283.612 135.367 283.641 135.761 283.463 136.153C283.285 136.545 282.917 136.902 282.359 137.224ZM281.547 136.755C282.129 136.419 282.384 136.053 282.311 135.656C282.238 135.25 281.834 134.835 281.099 134.41C280.379 133.995 279.668 133.766 278.965 133.724C278.253 133.678 277.611 133.82 277.037 134.151C276.463 134.483 276.216 134.854 276.297 135.264C276.37 135.67 276.766 136.081 277.485 136.496C278.213 136.916 278.924 137.15 279.619 137.196C280.323 137.238 280.965 137.091 281.547 136.755Z" fill="#121212"/>
<path d="M284.696 129.771L284.114 130.177C283.564 130.56 283.313 130.924 283.362 131.269C283.419 131.61 283.685 131.918 284.162 132.193L287.533 134.139L286.551 134.706L280.646 131.297L281.604 130.744L282.635 131.339C282.279 130.751 282.546 130.154 283.435 129.547L283.762 129.33L284.696 129.771Z" fill="#121212"/>
<path d="M287.745 127.031C289.16 126.214 290.647 126.256 292.207 127.157L295.917 129.299L294.935 129.866L291.286 127.759C290.736 127.441 290.227 127.273 289.758 127.255C289.297 127.231 288.833 127.355 288.364 127.626C287.822 127.938 287.555 128.284 287.564 128.662C287.572 129.04 287.859 129.392 288.424 129.719L291.807 131.672L290.825 132.239L284.92 128.83L285.89 128.27L286.86 128.83C286.691 128.508 286.687 128.193 286.848 127.885C287.002 127.572 287.301 127.287 287.745 127.031Z" fill="#121212"/>
<path d="M297.716 128.26L291.811 124.851L292.794 124.284L298.698 127.693L297.716 128.26ZM289.156 123.43L290.344 122.744L291.448 123.381L290.26 124.067L289.156 123.43Z" fill="#121212"/>
<path d="M297.454 121.425C298.869 120.609 300.356 120.651 301.916 121.551L305.626 123.693L304.644 124.26L300.995 122.153C300.445 121.836 299.936 121.668 299.467 121.649C299.006 121.626 298.542 121.75 298.073 122.02C297.531 122.333 297.264 122.678 297.273 123.056C297.281 123.434 297.568 123.787 298.133 124.113L301.516 126.066L300.534 126.633L294.629 123.224L295.599 122.664L296.569 123.224C296.4 122.902 296.396 122.587 296.557 122.279C296.711 121.967 297.01 121.682 297.454 121.425Z" fill="#121212"/>
<path d="M306.807 116.194L312.311 119.372C313.192 119.88 313.629 120.394 313.62 120.912C313.62 121.434 313.176 121.952 312.287 122.466C311.252 123.063 310.117 123.411 308.88 123.509L308.48 122.9C309.134 122.82 309.692 122.713 310.153 122.578C310.614 122.442 311.058 122.251 311.487 122.004C312.052 121.677 312.327 121.341 312.311 120.996C312.303 120.655 312.008 120.317 311.426 119.981L310.383 119.379C310.593 119.696 310.622 120.016 310.468 120.338C310.323 120.655 310.011 120.951 309.535 121.227C309.017 121.525 308.435 121.721 307.789 121.815C307.15 121.903 306.495 121.885 305.825 121.759C305.162 121.628 304.539 121.395 303.957 121.059C303.375 120.723 302.971 120.363 302.745 119.981C302.527 119.593 302.494 119.215 302.648 118.847C302.81 118.473 303.149 118.137 303.666 117.839C304.135 117.568 304.644 117.391 305.194 117.307C305.744 117.223 306.293 117.237 306.843 117.349L305.825 116.761L306.807 116.194ZM308.916 120.646C309.482 120.319 309.741 119.955 309.692 119.554C309.636 119.148 309.276 118.753 308.613 118.371C307.958 117.993 307.284 117.79 306.588 117.762C305.893 117.724 305.259 117.871 304.685 118.203C304.111 118.534 303.848 118.905 303.897 119.316C303.945 119.717 304.297 120.107 304.952 120.485C305.614 120.867 306.297 121.075 307.001 121.108C307.704 121.131 308.342 120.977 308.916 120.646Z" fill="#121212"/>
<circle r="4" transform="matrix(0.866025 -0.5 0.866025 0.5 253.999 148.5)" fill="#147EFB"/>
<path d="M299.694 154.118L296.554 153.397L292.092 155.973L293.341 157.786L292.323 158.374L287.534 151.269L288.394 150.772L300.701 153.537L299.694 154.118ZM291.619 155.294L295.378 153.124L289.122 151.682L291.619 155.294Z" fill="#121212"/>
<path d="M297.157 148.765L298.83 147.799L299.606 148.247L297.933 149.213L303.061 152.174L302.079 152.741L296.951 149.78L295.799 150.445L295.023 149.997L296.175 149.332L295.981 149.22C295.197 148.767 294.796 148.312 294.78 147.855C294.772 147.393 295.152 146.912 295.92 146.413L296.381 146.119L297.217 146.518L296.696 146.861C296.235 147.164 296.017 147.454 296.041 147.729C296.057 148 296.32 148.282 296.829 148.576L297.157 148.765Z" fill="#121212"/>
<path d="M307.337 148.893C307.515 148.791 307.681 148.681 307.834 148.564L308.562 149.04C308.408 149.166 308.222 149.292 308.004 149.418C307.293 149.829 306.569 150.032 305.834 150.027C305.106 150.018 304.411 149.822 303.749 149.439L300.645 147.647L299.493 148.312L298.717 147.864L299.869 147.199L298.074 146.163L299.056 145.596L300.851 146.632L302.524 145.666L303.3 146.114L301.627 147.08L304.658 148.83C305.587 149.367 306.481 149.388 307.337 148.893Z" fill="#121212"/>
<path d="M311.712 143.945L307.396 146.437C308.115 146.815 308.823 147.009 309.518 147.018C310.205 147.023 310.86 146.846 311.482 146.486C312.169 146.09 312.565 145.59 312.67 144.988L313.713 145.212C313.697 145.502 313.559 145.805 313.301 146.122C313.034 146.435 312.69 146.713 312.27 146.955C311.349 147.487 310.35 147.751 309.275 147.746C308.208 147.737 307.198 147.457 306.244 146.906C305.638 146.556 305.222 146.181 304.995 145.779C304.761 145.373 304.725 144.974 304.886 144.582C305.056 144.186 305.412 143.831 305.953 143.518C306.737 143.066 307.61 142.86 308.572 142.902C309.526 142.94 310.451 143.217 311.349 143.735L311.712 143.945ZM306.729 143.952C306.212 144.251 305.957 144.585 305.965 144.953C305.982 145.317 306.256 145.686 306.79 146.059L310.221 144.078C309.607 143.742 309.001 143.565 308.402 143.546C307.796 143.523 307.238 143.658 306.729 143.952Z" fill="#121212"/>
<path d="M314.105 139.792L313.523 140.198C312.973 140.581 312.723 140.945 312.771 141.29C312.828 141.631 313.095 141.939 313.572 142.214L316.942 144.16L315.96 144.727L310.055 141.318L311.013 140.765L312.044 141.36C311.688 140.772 311.955 140.175 312.844 139.568L313.171 139.351L314.105 139.792Z" fill="#121212"/>
<path d="M317.155 137.051C318.569 136.235 320.057 136.277 321.617 137.177L325.327 139.319L324.345 139.886L320.695 137.779C320.145 137.462 319.636 137.294 319.167 137.275C318.707 137.252 318.242 137.376 317.773 137.646C317.232 137.959 316.965 138.304 316.973 138.682C316.981 139.06 317.268 139.413 317.834 139.739L321.216 141.692L320.234 142.259L314.33 138.85L315.3 138.29L316.27 138.85C316.1 138.528 316.096 138.213 316.258 137.905C316.411 137.593 316.71 137.308 317.155 137.051Z" fill="#121212"/>
<path d="M329.659 136.916C329.102 137.238 328.483 137.45 327.804 137.553C327.133 137.651 326.45 137.634 325.755 137.504C325.06 137.364 324.405 137.116 323.791 136.762C323.177 136.407 322.752 136.031 322.518 135.635C322.284 135.229 322.251 134.832 322.421 134.445C322.599 134.053 322.967 133.696 323.524 133.374C324.082 133.052 324.7 132.839 325.379 132.737C326.058 132.634 326.745 132.653 327.441 132.793C328.136 132.923 328.79 133.166 329.405 133.521C330.019 133.875 330.443 134.256 330.678 134.662C330.912 135.058 330.94 135.453 330.763 135.845C330.585 136.237 330.217 136.594 329.659 136.916ZM328.847 136.447C329.429 136.111 329.684 135.744 329.611 135.348C329.538 134.942 329.134 134.526 328.398 134.102C327.679 133.686 326.968 133.458 326.265 133.416C325.553 133.369 324.911 133.511 324.337 133.843C323.763 134.174 323.516 134.545 323.597 134.956C323.67 135.362 324.066 135.772 324.785 136.188C325.513 136.608 326.224 136.841 326.919 136.888C327.622 136.93 328.265 136.783 328.847 136.447Z" fill="#121212"/>
<path d="M336.385 133.033C335.827 133.355 335.208 133.567 334.53 133.67C333.859 133.768 333.176 133.752 332.481 133.621C331.785 133.481 331.131 133.234 330.516 132.879C329.902 132.524 329.478 132.149 329.243 131.752C329.009 131.346 328.977 130.949 329.146 130.562C329.324 130.17 329.692 129.813 330.25 129.491C330.807 129.169 331.426 128.957 332.105 128.854C332.784 128.751 333.471 128.77 334.166 128.91C334.861 129.041 335.516 129.283 336.13 129.638C336.744 129.993 337.169 130.373 337.403 130.779C337.637 131.176 337.666 131.57 337.488 131.962C337.31 132.354 336.942 132.711 336.385 133.033ZM335.572 132.564C336.154 132.228 336.409 131.862 336.336 131.465C336.263 131.059 335.859 130.644 335.124 130.219C334.404 129.804 333.693 129.575 332.99 129.533C332.278 129.486 331.636 129.629 331.062 129.96C330.488 130.291 330.242 130.662 330.322 131.073C330.395 131.479 330.791 131.89 331.511 132.305C332.238 132.725 332.949 132.958 333.644 133.005C334.348 133.047 334.99 132.9 335.572 132.564Z" fill="#121212"/>
<path d="M337.496 125.307C338.911 124.49 340.398 124.532 341.958 125.433L345.668 127.575L344.686 128.142L341.037 126.035C340.487 125.718 339.978 125.55 339.509 125.531C339.048 125.508 338.583 125.631 338.115 125.902C337.573 126.215 337.306 126.56 337.314 126.938C337.322 127.316 337.609 127.668 338.175 127.995L341.558 129.948L340.576 130.515L334.671 127.106L335.641 126.546L336.611 127.106C336.441 126.784 336.437 126.469 336.599 126.161C336.753 125.848 337.052 125.564 337.496 125.307Z" fill="#121212"/>
<circle r="4" transform="matrix(0.866025 -0.5 0.866025 0.5 277.382 162)" fill="#FC3158"/>
<path d="M316.542 171.391L307.994 166.456L313.402 163.334L314.226 163.81L309.801 166.365L312.771 168.08L316.954 165.665L317.779 166.141L313.596 168.556L316.7 170.348L321.125 167.793L321.949 168.269L316.542 171.391Z" fill="#121212"/>
<path d="M321.792 161.556L322.774 160.989L326.121 165.861L325.199 166.393L316.773 164.454L317.815 163.852L324.617 165.497L321.792 161.556Z" fill="#121212"/>
<path d="M331.756 159.373L327.44 161.865C328.159 162.243 328.866 162.437 329.562 162.446C330.249 162.451 330.903 162.273 331.526 161.914C332.213 161.517 332.609 161.018 332.714 160.416L333.757 160.64C333.74 160.929 333.603 161.233 333.344 161.55C333.078 161.863 332.734 162.14 332.314 162.383C331.392 162.915 330.394 163.179 329.319 163.174C328.252 163.165 327.242 162.885 326.288 162.334C325.682 161.984 325.266 161.608 325.039 161.207C324.805 160.801 324.768 160.402 324.93 160.01C325.1 159.613 325.455 159.259 325.997 158.946C326.781 158.493 327.654 158.288 328.616 158.33C329.57 158.367 330.495 158.645 331.392 159.163L331.756 159.373ZM326.773 159.38C326.256 159.679 326.001 160.012 326.009 160.381C326.025 160.745 326.3 161.114 326.834 161.487L330.265 159.506C329.65 159.17 329.044 158.993 328.446 158.974C327.84 158.951 327.282 159.086 326.773 159.38Z" fill="#121212"/>
<path d="M332.924 154.947C334.339 154.13 335.826 154.172 337.386 155.073L341.096 157.215L340.114 157.782L336.465 155.675C335.915 155.357 335.406 155.189 334.937 155.171C334.476 155.147 334.011 155.271 333.543 155.542C333.001 155.854 332.734 156.2 332.742 156.578C332.75 156.956 333.037 157.308 333.603 157.635L336.986 159.588L336.004 160.155L330.099 156.746L331.069 156.186L332.039 156.746C331.869 156.424 331.865 156.109 332.027 155.801C332.181 155.488 332.48 155.203 332.924 154.947Z" fill="#121212"/>
<path d="M342.895 156.176L336.99 152.767L337.972 152.2L343.877 155.609L342.895 156.176ZM334.335 151.346L335.523 150.66L336.626 151.297L335.438 151.983L334.335 151.346Z" fill="#121212"/>
<path d="M342.633 149.341C344.048 148.525 345.535 148.567 347.095 149.467L350.805 151.609L349.823 152.176L346.173 150.069C345.624 149.752 345.115 149.584 344.646 149.565C344.185 149.542 343.72 149.666 343.251 149.936C342.71 150.249 342.443 150.594 342.451 150.972C342.459 151.35 342.746 151.703 343.312 152.029L346.695 153.982L345.713 154.549L339.808 151.14L340.778 150.58L341.748 151.14C341.578 150.818 341.574 150.503 341.736 150.195C341.89 149.883 342.189 149.598 342.633 149.341Z" fill="#121212"/>
<path d="M351.985 144.11L357.49 147.288C358.371 147.796 358.807 148.31 358.799 148.828C358.799 149.35 358.355 149.868 357.466 150.382C356.431 150.979 355.295 151.327 354.059 151.425L353.659 150.816C354.313 150.736 354.871 150.629 355.332 150.494C355.792 150.358 356.237 150.167 356.665 149.92C357.231 149.593 357.506 149.257 357.49 148.912C357.482 148.571 357.187 148.233 356.605 147.897L355.562 147.295C355.772 147.612 355.801 147.932 355.647 148.254C355.501 148.571 355.19 148.867 354.713 149.143C354.196 149.441 353.614 149.637 352.967 149.731C352.329 149.819 351.674 149.801 351.003 149.675C350.341 149.544 349.718 149.311 349.136 148.975C348.554 148.639 348.15 148.279 347.924 147.897C347.705 147.509 347.673 147.131 347.827 146.763C347.988 146.389 348.328 146.053 348.845 145.755C349.314 145.484 349.823 145.307 350.373 145.223C350.922 145.139 351.472 145.153 352.022 145.265L351.003 144.677L351.985 144.11ZM354.095 148.562C354.661 148.235 354.919 147.871 354.871 147.47C354.814 147.064 354.455 146.669 353.792 146.287C353.137 145.909 352.462 145.706 351.767 145.678C351.072 145.64 350.438 145.787 349.864 146.119C349.29 146.45 349.027 146.821 349.076 147.232C349.124 147.633 349.476 148.023 350.13 148.401C350.793 148.783 351.476 148.991 352.179 149.024C352.883 149.047 353.521 148.893 354.095 148.562Z" fill="#121212"/>
<circle r="4" transform="matrix(0.866025 -0.5 0.866025 0.5 300.765 175.5)" fill="#53D769"/>
<path d="M337.294 176.54L338.227 176.001L346.775 180.936L346.011 181.377L333.984 180.383L340.858 184.352L339.925 184.891L331.377 179.956L332.141 179.515L344.168 180.509L337.294 176.54Z" fill="#121212"/>
<path d="M348.742 179.8L342.838 176.391L343.82 175.824L349.724 179.233L348.742 179.8ZM340.182 174.97L341.371 174.284L342.474 174.921L341.286 175.607L340.182 174.97Z" fill="#121212"/>
<path d="M350.942 171.712L356.446 174.89C357.327 175.399 357.764 175.912 357.756 176.43C357.756 176.953 357.311 177.471 356.422 177.984C355.387 178.582 354.252 178.929 353.015 179.027L352.615 178.418C353.27 178.339 353.827 178.232 354.288 178.096C354.749 177.961 355.193 177.77 355.622 177.522C356.188 177.196 356.462 176.86 356.446 176.514C356.438 176.174 356.143 175.835 355.561 175.499L354.518 174.897C354.729 175.215 354.757 175.534 354.603 175.856C354.458 176.174 354.147 176.47 353.67 176.745C353.152 177.044 352.57 177.24 351.924 177.333C351.285 177.422 350.631 177.403 349.96 177.277C349.297 177.147 348.674 176.913 348.093 176.577C347.511 176.241 347.106 175.882 346.88 175.499C346.662 175.112 346.63 174.734 346.783 174.365C346.945 173.992 347.284 173.656 347.802 173.357C348.27 173.087 348.78 172.909 349.329 172.825C349.879 172.741 350.428 172.755 350.978 172.867L349.96 172.279L350.942 171.712ZM353.051 176.164C353.617 175.838 353.876 175.474 353.827 175.072C353.771 174.666 353.411 174.272 352.748 173.889C352.094 173.511 351.419 173.308 350.724 173.28C350.028 173.243 349.394 173.39 348.82 173.721C348.246 174.053 347.983 174.424 348.032 174.834C348.08 175.236 348.432 175.625 349.087 176.003C349.75 176.386 350.433 176.594 351.136 176.626C351.839 176.65 352.478 176.496 353.051 176.164Z" fill="#121212"/>
<path d="M355.585 168.864C356.999 168.047 358.486 168.089 360.046 168.99L363.756 171.132L362.774 171.699L359.125 169.592C358.575 169.274 358.066 169.106 357.597 169.088C357.137 169.064 356.672 169.188 356.203 169.459C355.661 169.771 355.395 170.117 355.403 170.495C355.411 170.873 355.698 171.225 356.264 171.552L359.646 173.505L358.664 174.072L350.117 169.137L351.099 168.57L354.687 170.642C354.526 170.324 354.522 170.014 354.675 169.711C354.837 169.403 355.14 169.12 355.585 168.864Z" fill="#121212"/>
<path d="M367.447 168.189C367.624 168.086 367.79 167.977 367.944 167.86L368.671 168.336C368.518 168.462 368.332 168.588 368.113 168.714C367.402 169.125 366.679 169.328 365.943 169.323C365.216 169.314 364.521 169.118 363.858 168.735L360.754 166.943L359.602 167.608L358.826 167.16L359.978 166.495L358.184 165.459L359.166 164.892L360.96 165.928L362.633 164.962L363.409 165.41L361.736 166.376L364.767 168.126C365.697 168.663 366.59 168.684 367.447 168.189Z" fill="#121212"/>
<circle r="4" transform="matrix(0.866025 -0.5 0.866025 0.5 324.147 189)" fill="#FECB2E"/>
</g>
<defs>
<filter id="filter0_d" x="8.11689" y="177.686" width="432.281" height="276.627" filterUnits="userSpaceOnUse" color-interpolation-filters="sRGB">
<feFlood flood-opacity="0" result="BackgroundImageFix"/>
<feColorMatrix in="SourceAlpha" type="matrix" values="0 0 0 0 0 0 0 0 0 0 0 0 0 0 0 0 0 0 127 0"/>
<feOffset dy="32"/>
<feGaussianBlur stdDeviation="16"/>
<feColorMatrix type="matrix" values="0 0 0 0 0.0784314 0 0 0 0 0.494118 0 0 0 0 0.984314 0 0 0 0.08 0"/>
<feBlend mode="normal" in2="BackgroundImageFix" result="effect1_dropShadow"/>
<feBlend mode="normal" in="SourceGraphic" in2="effect1_dropShadow" result="shape"/>
</filter>
<filter id="filter1_d" x="49.1169" y="4.68629" width="442.674" height="282.627" filterUnits="userSpaceOnUse" color-interpolation-filters="sRGB">
<feFlood flood-opacity="0" result="BackgroundImageFix"/>
<feColorMatrix in="SourceAlpha" type="matrix" values="0 0 0 0 0 0 0 0 0 0 0 0 0 0 0 0 0 0 127 0"/>
<feOffset dy="32"/>
<feGaussianBlur stdDeviation="16"/>
<feColorMatrix type="matrix" values="0 0 0 0 0 0 0 0 0 0 0 0 0 0 0 0 0 0 0.03 0"/>
<feBlend mode="normal" in2="BackgroundImageFix" result="effect1_dropShadow"/>
<feBlend mode="normal" in="SourceGraphic" in2="effect1_dropShadow" result="shape"/>
</filter>
<clipPath id="clip0">
<rect width="540" height="436" fill="white"/>
</clipPath>
</defs>
</svg>
