<svg width="140" height="32" viewBox="0 0 140 32" fill="none" xmlns="http://www.w3.org/2000/svg">
<path d="M17.875 32C25.6487 32 32 25.648 32 17.875C32 10.1209 25.6636 3.8125 17.875 3.8125C17.3573 3.8125 16.9375 4.23225 16.9375 4.75V16.9375H4.75C4.23225 16.9375 3.8125 17.3573 3.8125 17.875C3.8125 25.6636 10.1209 32 17.875 32Z" fill="#C9C9C9"/>
<path d="M0.9375 0H14.125C14.6428 0 15.0625 0.41975 15.0625 0.9375V14.125C15.0625 14.6428 14.6428 15.0625 14.125 15.0625C6.35131 15.0625 0 8.7105 0 0.9375C0 0.41975 0.41975 0 0.9375 0Z" fill="#C9C9C9"/>
<path d="M52.056 24.336C50.296 24.336 48.712 23.968 47.304 23.232C45.912 22.48 44.816 21.44 44.016 20.112C43.216 18.784 42.816 17.28 42.816 15.6C42.816 13.92 43.216 12.416 44.016 11.088C44.816 9.76001 45.912 8.72801 47.304 7.99201C48.712 7.24001 50.296 6.86401 52.056 6.86401C53.592 6.86401 54.976 7.13601 56.208 7.68001C57.44 8.22401 58.464 9.00801 59.28 10.032L56.256 12.768C55.168 11.456 53.848 10.8 52.296 10.8C51.384 10.8 50.568 11 49.848 11.4C49.144 11.8 48.592 12.368 48.192 13.104C47.808 13.824 47.616 14.656 47.616 15.6C47.616 16.544 47.808 17.384 48.192 18.12C48.592 18.84 49.144 19.4 49.848 19.8C50.568 20.2 51.384 20.4 52.296 20.4C53.848 20.4 55.168 19.744 56.256 18.432L59.28 21.168C58.464 22.192 57.44 22.976 56.208 23.52C54.976 24.064 53.592 24.336 52.056 24.336Z" fill="#C9C9C9"/>
<path d="M66.5923 24.216C65.2003 24.216 63.9443 23.928 62.8243 23.352C61.7043 22.776 60.8243 21.976 60.1843 20.952C59.5603 19.928 59.2483 18.768 59.2483 17.472C59.2483 16.192 59.5603 15.04 60.1843 14.016C60.8243 12.992 61.6963 12.2 62.8003 11.64C63.9203 11.064 65.1843 10.776 66.5923 10.776C68.0003 10.776 69.2643 11.064 70.3843 11.64C71.5043 12.2 72.3763 12.992 73.0003 14.016C73.6243 15.024 73.9363 16.176 73.9363 17.472C73.9363 18.768 73.6243 19.928 73.0003 20.952C72.3763 21.976 71.5043 22.776 70.3843 23.352C69.2643 23.928 68.0003 24.216 66.5923 24.216ZM66.5923 20.592C67.3923 20.592 68.0483 20.32 68.5603 19.776C69.0723 19.216 69.3283 18.448 69.3283 17.472C69.3283 16.512 69.0723 15.76 68.5603 15.216C68.0483 14.672 67.3923 14.4 66.5923 14.4C65.7923 14.4 65.1363 14.672 64.6243 15.216C64.1123 15.76 63.8563 16.512 63.8563 17.472C63.8563 18.448 64.1123 19.216 64.6243 19.776C65.1363 20.32 65.7923 20.592 66.5923 20.592Z" fill="#C9C9C9"/>
<path d="M89.0087 10.992V24H84.6647V22.608C84.1847 23.136 83.6087 23.536 82.9367 23.808C82.2647 24.08 81.5527 24.216 80.8007 24.216C79.1207 24.216 77.7767 23.72 76.7687 22.728C75.7767 21.736 75.2807 20.248 75.2807 18.264V10.992H79.8407V17.52C79.8407 18.496 80.0247 19.208 80.3927 19.656C80.7607 20.104 81.2967 20.328 82.0007 20.328C82.7207 20.328 83.3047 20.08 83.7527 19.584C84.2167 19.072 84.4487 18.296 84.4487 17.256V10.992H89.0087Z" fill="#C9C9C9"/>
<path d="M99.6979 10.776C101.314 10.776 102.61 11.256 103.586 12.216C104.578 13.176 105.074 14.624 105.074 16.56V24H100.514V17.304C100.514 15.528 99.8019 14.64 98.3779 14.64C97.5939 14.64 96.9619 14.896 96.4819 15.408C96.0179 15.92 95.7859 16.688 95.7859 17.712V24H91.2259V10.992H95.5699V12.408C96.0819 11.88 96.6899 11.48 97.3939 11.208C98.0979 10.92 98.8659 10.776 99.6979 10.776Z" fill="#C9C9C9"/>
<path d="M115.593 23.472C115.209 23.712 114.737 23.896 114.177 24.024C113.633 24.152 113.049 24.216 112.425 24.216C110.729 24.216 109.425 23.8 108.513 22.968C107.617 22.136 107.169 20.896 107.169 19.248V8.08801H111.729V11.472H114.681V14.88H111.729V19.2C111.729 19.68 111.849 20.048 112.089 20.304C112.329 20.56 112.657 20.688 113.073 20.688C113.601 20.688 114.065 20.552 114.465 20.28L115.593 23.472Z" fill="#C9C9C9"/>
<path d="M123.207 20.736C123.831 20.736 124.367 20.648 124.815 20.472C125.279 20.296 125.743 20.008 126.207 19.608L128.583 22.104C127.351 23.512 125.511 24.216 123.063 24.216C121.543 24.216 120.207 23.928 119.055 23.352C117.903 22.776 117.007 21.976 116.367 20.952C115.743 19.928 115.431 18.768 115.431 17.472C115.431 16.192 115.743 15.048 116.367 14.04C116.991 13.016 117.847 12.216 118.935 11.64C120.039 11.064 121.271 10.776 122.631 10.776C123.895 10.776 125.047 11.04 126.087 11.568C127.143 12.08 127.983 12.84 128.607 13.848C129.231 14.84 129.543 16.024 129.543 17.4L120.255 19.176C120.751 20.216 121.735 20.736 123.207 20.736ZM122.655 14.016C121.871 14.016 121.231 14.264 120.735 14.76C120.239 15.24 119.959 15.936 119.895 16.848L125.175 15.816C125.015 15.272 124.711 14.84 124.263 14.52C123.815 14.184 123.279 14.016 122.655 14.016Z" fill="#C9C9C9"/>
<path d="M135.269 12.552C135.733 11.96 136.333 11.52 137.069 11.232C137.821 10.928 138.677 10.776 139.637 10.776V14.88C139.221 14.832 138.877 14.808 138.605 14.808C137.629 14.808 136.861 15.072 136.301 15.6C135.757 16.128 135.485 16.936 135.485 18.024V24H130.925V10.992H135.269V12.552Z" fill="#C9C9C9"/>
</svg>
