<svg width="730" height="121" viewBox="0 0 730 121" fill="none" xmlns="http://www.w3.org/2000/svg">
<path d="M48.3111 28.698C40.3225 28.8544 41.9864 33.8989 36.3564 35.1746C30.6372 36.4707 29.7343 21.2413 24.0164 21.2413C18.2979 21.2413 17.0311 36.035 9.87073 46.1909L9.66644 46.4784L25.0182 55.3181L48.3111 41.9049V28.698Z" fill="#36A2EB"/>
<path d="M48.3111 28.2389C45.6368 24.8154 43.8229 20.8795 39.9204 20.8795C33.0143 20.8795 34.8314 32.1174 27.1989 32.1174C19.5657 32.1174 18.7632 20.0295 10.1161 31.3925C7.36073 35.013 5.14287 39.0501 3.40073 42.8701L25.0182 55.3186L48.3111 41.9054V28.2389Z" fill="#FFCE56"/>
<path opacity="0.8" d="M1.72464 32.894C4.34535 25.6547 5.47643 19.7915 10.4796 19.7915C18.1121 19.7915 19.9289 41.1804 26.4721 39.0044C33.0143 36.8295 32.2871 25.2286 42.4646 25.2286C44.4018 25.2286 46.3796 26.4124 48.3114 28.3273V41.905L25.0186 55.3182L1.725 41.905V32.894H1.72464Z" fill="#FE6184"/>
<path d="M25 57L0.252869 42.7504V14.25L25 0L49.7472 14.25V42.75L25 57ZM3.16037 41.076L25 53.652L46.8396 41.076V15.9244L25 3.34839L3.16037 15.9244V41.076Z" fill="#E7E9ED"/>
<g clip-path="url(#clip0)">
<path d="M125.773 20.9476C125.572 20.9476 125.522 20.8424 125.622 20.6845L126.675 19.2634C126.776 19.1055 127.026 19.0002 127.227 19.0002H145.129C145.33 19.0002 145.38 19.1581 145.279 19.316L144.427 20.6845C144.327 20.8424 144.076 21.0002 143.926 21.0002L125.773 20.9476Z" fill="#00ACD7"/>
<path d="M118.201 26.0002C118 26.0002 117.95 25.8921 118.05 25.73L119.103 24.2705C119.204 24.1084 119.454 24.0002 119.655 24.0002H142.521C142.722 24.0002 142.822 24.1624 142.772 24.3246L142.371 25.6219C142.321 25.8381 142.12 25.9462 141.92 25.9462L118.201 26.0002Z" fill="#00ACD7"/>
<path d="M130.336 30.9476C130.135 30.9476 130.085 30.7897 130.185 30.6318L130.888 29.316C130.988 29.1581 131.188 29.0002 131.389 29.0002H141.418C141.619 29.0002 141.719 29.1581 141.719 29.3687L141.619 30.6318C141.619 30.8423 141.418 31.0002 141.268 31.0002L130.336 30.9476Z" fill="#00ACD7"/>
<path d="M182.388 20.3234C179.228 21.0953 177.072 21.6741 173.963 22.446C173.211 22.6389 173.161 22.6872 172.509 21.9636C171.757 21.1435 171.205 20.6129 170.152 20.1305C166.993 18.635 163.934 19.0692 161.075 20.8541C157.665 22.9766 155.91 26.1122 155.961 30.0196C156.011 33.8788 158.769 37.0627 162.73 37.5933C166.14 38.0275 168.998 36.8697 171.255 34.4095C171.706 33.8788 172.108 33.2999 172.609 32.6246C170.804 32.6246 168.547 32.6246 162.931 32.6246C161.878 32.6246 161.627 31.9975 161.978 31.1774C162.63 29.682 163.833 27.1735 164.536 25.9192C164.686 25.6298 165.037 25.1474 165.789 25.1474C168.347 25.1474 177.774 25.1474 184.042 25.1474C183.942 26.4499 183.942 27.7524 183.741 29.0548C183.19 32.5281 181.836 35.7119 179.629 38.5099C176.019 43.0926 171.305 45.9388 165.338 46.7106C160.424 47.3378 155.86 46.4212 151.849 43.5268C148.138 40.8254 146.032 37.2556 145.48 32.8175C144.828 27.5594 146.433 22.8319 149.742 18.6833C153.303 14.1969 158.017 11.3508 163.783 10.3378C168.497 9.51768 173.01 10.0483 177.072 12.7015C179.73 14.3899 181.635 16.7054 182.889 19.5033C183.19 19.9375 182.989 20.1787 182.388 20.3234Z" fill="#00ACD7"/>
<path d="M198.986 47C194.423 46.9036 190.26 45.6493 186.75 42.7549C183.792 40.2947 181.936 37.1591 181.334 33.4446C180.432 27.9935 181.986 23.1695 185.396 18.8762C189.057 14.2452 193.47 11.8332 199.437 10.8201C204.552 9.9518 209.366 10.4342 213.729 13.2804C217.69 15.8853 220.147 19.4068 220.799 24.0379C221.652 30.5502 219.696 35.8566 215.033 40.3912C211.723 43.6232 207.661 45.6493 202.998 46.5659C201.644 46.8071 200.29 46.8553 198.986 47ZM210.921 27.5111C210.87 26.884 210.87 26.4016 210.77 25.9192C209.868 21.1435 205.304 18.442 200.54 19.5033C195.877 20.5163 192.868 23.3625 191.765 27.897C190.862 31.6598 192.768 35.4707 196.378 37.0144C199.136 38.1721 201.894 38.0274 204.552 36.7249C208.514 34.7471 210.67 31.6598 210.921 27.5111Z" fill="#00ACD7"/>
</g>
<path d="M344.716 41.3962C341.622 43.0146 325.591 49.628 322.178 51.4132C318.765 53.1987 316.869 53.1814 314.173 51.8882C311.477 50.5951 294.417 43.681 291.344 42.2071C289.808 41.4707 289 40.8489 289 40.2616V34.3807C289 34.3807 311.21 29.5296 314.795 28.2389C318.381 26.9482 319.625 26.9016 322.676 28.023C325.728 29.1448 343.973 32.4475 346.988 33.5557L346.987 39.3535C346.987 39.9348 346.291 40.5726 344.716 41.3962Z" fill="#912626"/>
<path d="M344.715 35.5499C341.621 37.1676 325.59 43.7813 322.177 45.5663C318.764 47.352 316.869 47.3345 314.173 46.0413C311.476 44.749 294.417 37.8338 291.344 36.3608C288.271 34.887 288.207 33.8726 291.226 32.6867C294.244 31.5004 311.21 24.822 314.796 23.5313C318.381 22.2411 319.625 22.194 322.676 23.3158C325.727 24.4372 341.662 30.8011 344.678 31.909C347.694 33.0183 347.81 33.9317 344.715 35.5499Z" fill="#C6302B"/>
<path d="M344.716 31.8804C341.622 33.4991 325.591 40.1122 322.178 41.8981C318.765 43.6829 316.869 43.6656 314.173 42.3725C311.476 41.08 294.417 34.1652 291.344 32.6913C289.808 31.955 289 31.3341 289 30.7466V24.865C289 24.865 311.21 20.0141 314.795 18.7234C318.381 17.4327 319.625 17.3859 322.676 18.5075C325.728 19.6291 343.973 22.9311 346.988 24.0395L346.987 29.8379C346.987 30.4191 346.291 31.0568 344.716 31.8804Z" fill="#912626"/>
<path d="M344.715 26.0343C341.621 27.6525 325.59 34.2657 322.177 36.0513C318.764 37.8363 316.869 37.8188 314.173 36.5257C311.476 35.2334 294.417 28.3184 291.344 26.8452C288.271 25.3718 288.207 24.3573 291.226 23.1709C294.244 21.9852 311.21 15.3063 314.796 14.0159C318.381 12.7254 319.625 12.6786 322.676 13.8002C325.727 14.9216 341.662 21.285 344.678 22.3934C347.694 23.5025 347.81 24.4161 344.715 26.0343Z" fill="#C6302B"/>
<path d="M344.716 22.012C341.622 23.6302 325.591 30.2439 322.178 32.0298C318.765 33.8148 316.869 33.7973 314.173 32.5041C311.476 31.2116 294.417 24.2966 291.344 22.8234C289.808 22.0864 289 21.4652 289 20.8784V14.9966C289 14.9966 311.21 10.1459 314.795 8.85544C318.381 7.56453 319.625 7.51817 322.676 8.63953C325.728 9.76112 343.973 13.0632 346.988 14.1716L346.987 19.9698C346.987 20.5504 346.291 21.1882 344.716 22.012Z" fill="#912626"/>
<path d="M344.715 16.166C341.621 17.7842 325.59 24.3978 322.177 26.1828C318.764 27.9678 316.869 27.9503 314.173 26.6578C311.477 25.3646 294.417 18.4501 291.344 16.9767C288.271 15.5035 288.207 14.4887 291.226 13.3026C294.244 12.1167 311.21 5.43872 314.796 4.14781C318.381 2.85713 319.625 2.81076 322.676 3.93235C325.727 5.05394 341.662 11.4174 344.678 12.5258C347.694 13.6339 347.81 14.5478 344.715 16.166Z" fill="#C6302B"/>
<path d="M325.08 10.4448L320.095 10.9641L318.979 13.6586L317.176 10.6518L311.419 10.1327L315.715 8.57841L314.426 6.1925L318.448 7.77069L322.239 6.52523L321.214 8.99228L325.08 10.4448ZM318.681 23.517L309.376 19.645L322.709 17.5916L318.681 23.517ZM305.781 11.9425C309.717 11.9425 312.907 13.1834 312.907 14.7139C312.907 16.2448 309.717 17.4855 305.781 17.4855C301.845 17.4855 298.655 16.2445 298.655 14.7139C298.655 13.1834 301.845 11.9425 305.781 11.9425Z" fill="white"/>
<path d="M330.972 11.1814L338.863 14.31L330.979 17.4357L330.972 11.1812" fill="#621B1C"/>
<path d="M322.242 14.6462L330.972 11.1814L330.979 17.4357L330.123 17.7716L322.242 14.6462Z" fill="#9A2928"/>
<path d="M431.389 42.5848C431.389 42.784 431.162 42.9434 430.876 42.9434C430.55 42.9732 430.322 42.8139 430.322 42.5848C430.322 42.3855 430.55 42.2262 430.836 42.2262C431.132 42.1963 431.389 42.3557 431.389 42.5848ZM428.317 42.1365C428.248 42.3357 428.445 42.5648 428.742 42.6246C428.999 42.7242 429.295 42.6246 429.354 42.4254C429.414 42.2262 429.226 41.9971 428.929 41.9074C428.673 41.8377 428.386 41.9373 428.317 42.1365ZM432.683 41.9672C432.397 42.0369 432.199 42.2262 432.229 42.4553C432.259 42.6545 432.516 42.784 432.812 42.7143C433.098 42.6445 433.296 42.4553 433.266 42.2561C433.237 42.0668 432.97 41.9373 432.683 41.9672ZM439.184 3.79688C425.482 3.79688 415 14.2857 415 28.1016C415 39.1482 421.896 48.6012 431.745 51.9281C433.009 52.1572 433.454 51.3703 433.454 50.7229C433.454 50.1053 433.424 46.6986 433.424 44.6068C433.424 44.6068 426.509 46.101 425.057 41.6385C425.057 41.6385 423.931 38.7398 422.31 37.9928C422.31 37.9928 420.048 36.4289 422.469 36.4588C422.469 36.4588 424.928 36.658 426.282 39.0287C428.445 42.8736 432.071 41.768 433.484 41.1105C433.711 39.5168 434.353 38.4111 435.064 37.7537C429.542 37.1361 423.97 36.3293 423.97 26.7469C423.97 24.0076 424.721 22.633 426.302 20.8799C426.045 20.2324 425.205 17.5629 426.558 14.1164C428.623 13.4689 433.375 16.8059 433.375 16.8059C435.351 16.248 437.475 15.9592 439.579 15.9592C441.683 15.9592 443.807 16.248 445.783 16.8059C445.783 16.8059 450.535 13.459 452.6 14.1164C453.953 17.5729 453.113 20.2324 452.856 20.8799C454.437 22.643 455.405 24.0176 455.405 26.7469C455.405 36.3592 449.586 37.1262 444.064 37.7537C444.973 38.5406 445.744 40.0348 445.744 42.3756C445.744 45.7324 445.714 49.8861 445.714 50.7029C445.714 51.3504 446.168 52.1373 447.423 51.9082C457.302 48.6012 464 39.1482 464 28.1016C464 14.2857 452.886 3.79688 439.184 3.79688ZM424.602 38.1521C424.474 38.2518 424.504 38.4809 424.672 38.6701C424.83 38.8295 425.057 38.8992 425.185 38.7697C425.314 38.6701 425.284 38.441 425.116 38.2518C424.958 38.0924 424.731 38.0227 424.602 38.1521ZM423.535 37.3453C423.466 37.4748 423.565 37.6342 423.763 37.7338C423.921 37.8334 424.118 37.8035 424.188 37.6641C424.257 37.5346 424.158 37.3752 423.96 37.2756C423.763 37.2158 423.605 37.2457 423.535 37.3453ZM426.736 40.8914C426.578 41.0209 426.637 41.3197 426.865 41.509C427.092 41.7381 427.378 41.768 427.507 41.6086C427.635 41.4791 427.576 41.1803 427.378 40.991C427.161 40.7619 426.865 40.732 426.736 40.8914ZM425.61 39.4272C425.452 39.5268 425.452 39.7857 425.61 40.0148C425.768 40.2439 426.035 40.3436 426.163 40.2439C426.321 40.1145 426.321 39.8555 426.163 39.6264C426.025 39.3973 425.768 39.2977 425.61 39.4272Z" fill="black"/>
<g clip-path="url(#clip1)">
<path d="M543.999 25.8285L541.728 10.525L532.528 4.76135L535.268 19.1506L543.999 25.8285H543.999ZM546.152 42.2846L544.703 31.433L536.521 24.5565L538.635 35.2888L546.152 42.2846ZM539.653 39.86L541.101 48.0083L548.07 55.3622L547.091 47.0545L539.653 39.86ZM560.441 37.3555L556.859 34.6528C556.859 34.6528 556.808 35.6206 556.713 35.6863L554.099 37.5545L556.957 39.9394L557.124 42.6524L560.52 45.4646L560.442 37.3557L560.441 37.3555ZM571.267 29.4258L570.62 37.0675L568.213 35.4577C568.213 35.4577 568.478 31.5941 568.477 31.5921C568.463 31.5662 563.838 28.4121 563.838 28.4121L563.985 24.8944L571.267 29.4258Z" fill="#004711"/>
<path d="M556.018 19.5083L555.352 5.27808L541.728 10.5249L543.999 25.8284L556.018 19.5083ZM556.644 35.6465L556.096 24.7949L544.703 31.4328L546.387 42.5628L556.644 35.6465ZM556.84 40.0586L547.092 47.0544L548.305 55.6004L557.192 48.4059L556.84 40.0586ZM560.598 37.3159L560.755 45.5838L567.802 39.7805L568.154 31.91L560.598 37.3159ZM577.384 25.3414L576.464 32.5957L570.954 37.0874L571.609 29.4655L577.384 25.3412V25.3414Z" fill="#00B159"/>
<path d="M557.207 39.9224C557.207 39.9154 557.204 39.9091 557.203 39.9023C557.201 39.8736 557.194 39.8454 557.184 39.8184C557.178 39.802 557.171 39.7861 557.162 39.771C557.157 39.7618 557.152 39.7527 557.146 39.7443C557.135 39.7291 557.123 39.7148 557.11 39.7017C557.103 39.6953 557.098 39.6882 557.091 39.6821L557.086 39.6767L554.479 37.5164L556.876 35.8765C556.972 35.8108 557.027 35.7003 557.022 35.5841L556.997 35.0068L560.176 37.47L560.238 44.9503L557.314 42.4509L557.207 39.9224ZM544.41 31.5401L545.884 41.7682L538.898 35.0859L536.875 25.1661L544.41 31.5401H544.41ZM556.353 35.4247L546.599 42.0963L545.078 31.5421L555.927 25.2726L556.353 35.4247ZM555.099 5.60951L555.679 19.3804L544.201 25.4446L542.072 10.6916L555.099 5.60951ZM541.402 10.6769L543.494 25.1814L535.602 18.9366L532.813 5.2549L541.402 10.6771L541.402 10.6769ZM541.523 47.957L540.032 40.6414L546.679 47.2788L547.744 54.6606L541.523 47.957ZM556.895 48.2231L548.467 55.0398L547.346 47.2724L556.572 40.5703L556.895 48.2231ZM567.475 39.659L560.899 44.9839L560.838 37.4748L567.913 32.3363L567.475 39.659ZM568.393 35.3946L568.615 31.6743C568.615 31.6701 568.614 31.6663 568.614 31.6621C568.614 31.6572 568.616 31.6526 568.616 31.6475C568.615 31.6329 568.612 31.6187 568.61 31.6043C568.608 31.5939 568.608 31.5835 568.605 31.5733C568.599 31.5473 568.589 31.5222 568.577 31.4985C568.576 31.4967 568.576 31.4943 568.575 31.4923C568.56 31.4665 568.543 31.4427 568.522 31.4215C568.518 31.4171 568.513 31.4138 568.509 31.4098C568.496 31.3971 568.483 31.3841 568.467 31.3733L564.038 28.4033L564.102 25.144L571.073 29.5543L570.451 36.8495L568.393 35.3946ZM571.127 36.7072L571.736 29.5613L577.238 25.5636L576.313 32.5101L571.127 36.7072H571.127ZM577.998 24.8184C577.997 24.812 577.995 24.8062 577.994 24.7998C577.993 24.7879 577.99 24.7761 577.988 24.7644C577.981 24.735 577.971 24.7066 577.957 24.68C577.948 24.6626 577.937 24.6461 577.925 24.6307C577.918 24.6225 577.912 24.6141 577.905 24.6065C577.889 24.5905 577.872 24.5763 577.854 24.564C577.848 24.5599 577.844 24.5543 577.838 24.5506C577.837 24.5497 577.835 24.5495 577.834 24.5486C577.832 24.5475 577.83 24.5457 577.828 24.5446L570.298 20.3085C570.247 20.2798 570.19 20.2654 570.131 20.2668C570.073 20.2682 570.016 20.2853 569.966 20.3164L563.611 24.261C563.6 24.2672 563.592 24.2761 563.583 24.2834C563.572 24.2922 563.56 24.3002 563.55 24.3104C563.539 24.3212 563.531 24.3336 563.522 24.3458C563.514 24.3564 563.505 24.3662 563.499 24.3777C563.49 24.3918 563.485 24.4073 563.479 24.4224C563.474 24.4339 563.469 24.4443 563.465 24.4565C563.461 24.4729 563.46 24.4901 563.458 24.5072C563.456 24.5182 563.453 24.5288 563.453 24.5401L563.385 27.9655L560.8 26.2321C560.747 26.1967 560.686 26.1773 560.623 26.1761C560.56 26.1749 560.498 26.192 560.445 26.2254L556.725 28.5339L556.564 24.6947C556.564 24.6867 556.561 24.6794 556.56 24.6714C556.558 24.6546 556.556 24.638 556.552 24.6216C556.548 24.6096 556.544 24.5983 556.539 24.5866C556.534 24.5723 556.528 24.5584 556.52 24.545C556.514 24.5331 556.506 24.5226 556.498 24.5116C556.49 24.4999 556.481 24.4887 556.471 24.4782C556.461 24.4678 556.45 24.4589 556.439 24.4496C556.432 24.4438 556.426 24.4365 556.418 24.431L552.548 21.7913L556.171 19.8771C556.226 19.8474 556.273 19.8024 556.304 19.7471C556.335 19.6918 556.351 19.6286 556.348 19.5648L555.74 5.1139C555.739 5.09621 555.735 5.07924 555.731 5.0621C555.73 5.0548 555.729 5.0475 555.728 5.04057C555.72 5.01175 555.709 4.98413 555.694 4.95849C555.691 4.95374 555.687 4.94991 555.685 4.94553C555.672 4.92497 555.656 4.90594 555.639 4.8888C555.633 4.8826 555.626 4.87731 555.619 4.87166C555.61 4.86363 555.601 4.85451 555.591 4.84758C555.583 4.84211 555.574 4.83919 555.565 4.83445C555.561 4.83208 555.558 4.82843 555.553 4.82624L545.791 0.0434365C545.716 0.00622898 545.629 -0.0002968 545.549 0.0251955L532.234 4.23596L532.232 4.23742C532.226 4.23906 532.222 4.24289 532.216 4.24471C532.191 4.2537 532.168 4.26571 532.146 4.28047L532.144 4.28138C532.137 4.28667 532.131 4.29415 532.125 4.29998C532.108 4.31403 532.091 4.32808 532.077 4.3454C532.067 4.35781 532.061 4.37204 532.053 4.38553C532.044 4.39922 532.035 4.4118 532.029 4.42639C532.022 4.44391 532.018 4.46251 532.014 4.48112C532.012 4.49243 532.007 4.50264 532.005 4.51395C532.005 4.51578 532.006 4.51742 532.005 4.51906C532.003 4.53602 532.005 4.55299 532.006 4.57013C532.007 4.586 532.006 4.60169 532.009 4.61701C532.009 4.61957 532.009 4.62194 532.009 4.62431L534.98 19.1932C534.996 19.2711 535.038 19.3406 535.1 19.3897L539.133 22.5806L536.218 23.9899C536.212 23.9925 536.208 23.9965 536.203 23.999C536.199 24.0018 536.194 24.0023 536.19 24.0049C536.183 24.0089 536.179 24.0147 536.173 24.0191C536.156 24.0308 536.141 24.044 536.127 24.0585C536.118 24.0667 536.11 24.0747 536.103 24.0837C536.089 24.1016 536.077 24.1208 536.067 24.1411C536.064 24.1484 536.059 24.1554 536.056 24.163C536.044 24.1911 536.036 24.2207 536.032 24.2509V24.2546C536.031 24.2593 536.032 24.2641 536.032 24.2688C536.03 24.2962 536.031 24.3235 536.036 24.3504C536.036 24.354 536.035 24.3575 536.036 24.3609L538.271 35.3254C538.285 35.3933 538.319 35.4546 538.368 35.5018L541.175 38.1858L539.315 39.3408C539.291 39.3559 539.27 39.3738 539.25 39.3943C539.245 39.3996 539.241 39.4056 539.237 39.4113C539.22 39.4306 539.207 39.4512 539.195 39.4736C539.176 39.5093 539.164 39.5481 539.159 39.5882C539.155 39.6205 539.158 39.6524 539.163 39.6838C539.164 39.6872 539.163 39.6907 539.164 39.6944L540.895 48.1863C540.908 48.2465 540.936 48.3025 540.978 48.3479L547.982 55.897C547.993 55.9083 548.005 55.917 548.016 55.9269C548.021 55.9303 548.024 55.9342 548.029 55.9376C548.051 55.9537 548.074 55.9668 548.099 55.977C548.1 55.9776 548.1 55.9785 548.102 55.9789C548.104 55.9798 548.106 55.9794 548.108 55.9801C548.145 55.994 548.184 56.0024 548.223 56.0024C548.264 56.0018 548.304 55.9935 548.341 55.978C548.35 55.9747 548.359 55.973 548.367 55.9688C548.38 55.9623 548.39 55.9517 548.402 55.9433C548.411 55.9378 548.421 55.9351 548.429 55.9285L557.438 48.6412C557.521 48.5741 557.567 48.4714 557.562 48.3647L557.352 43.3612L560.362 45.9332C560.367 45.9377 560.374 45.9394 560.379 45.9436C560.396 45.9563 560.413 45.9698 560.432 45.9793C560.439 45.9822 560.445 45.9835 560.452 45.9862C560.46 45.9895 560.468 45.9921 560.476 45.9946C560.508 46.005 560.541 46.0121 560.574 46.0121C560.607 46.0121 560.639 46.0054 560.671 45.9955C560.678 45.9932 560.685 45.9908 560.692 45.9879C560.7 45.985 560.708 45.9835 560.715 45.98C560.732 45.972 560.745 45.9603 560.76 45.9499C560.766 45.9454 560.774 45.9436 560.78 45.9386L568.002 40.0913C568.075 40.0311 568.12 39.9435 568.126 39.8483L568.345 36.1791L570.543 37.732C570.547 37.7351 570.553 37.7362 570.557 37.7391C570.564 37.7431 570.568 37.749 570.575 37.7526C570.588 37.7595 570.602 37.763 570.615 37.7681C570.624 37.7716 570.633 37.7758 570.642 37.7785C570.672 37.7867 570.701 37.792 570.731 37.792C570.764 37.792 570.796 37.7854 570.828 37.7756C570.835 37.7734 570.842 37.771 570.849 37.7683C570.856 37.7654 570.864 37.7639 570.872 37.7606C570.89 37.7519 570.905 37.7396 570.921 37.7282C570.926 37.7245 570.932 37.723 570.937 37.719L576.829 32.9519C576.895 32.8978 576.939 32.8198 576.95 32.7339L577.995 24.8828C577.996 24.8744 577.995 24.8664 577.995 24.858C577.996 24.8447 577.998 24.8319 577.998 24.8184Z" fill="black"/>
</g>
<g clip-path="url(#clip2)">
<path d="M712.398 25.1808L710.656 24.485C702.465 42.8835 669.883 31.6981 667.922 37.1714C667.596 40.8685 685.716 37.8744 698.67 38.5011C702.62 38.6921 704.601 41.6692 702.923 46.5217L706.227 46.5319C710.038 34.6703 722.201 40.7238 722.71 36.8091C721.875 34.2353 708.731 36.8091 712.398 25.1808Z" fill="white"/>
<path d="M703.859 44.4929C704.382 42.7531 704.207 41.0133 703.336 39.9693C702.465 38.9253 701.245 38.2295 699.676 38.0555L669.353 37.7073C669.178 37.7073 669.004 37.5333 668.83 37.5333C668.656 37.3594 668.656 37.1854 668.83 37.0115C669.004 36.6636 669.178 36.4893 669.527 36.4893L700.025 36.1414C703.685 35.9675 707.519 33.0097 708.913 29.5301L710.656 25.0064C710.656 24.8322 710.83 24.6582 710.656 24.4843C708.738 15.6109 700.722 8.99927 691.311 8.99927C682.597 8.99927 675.104 14.5669 672.49 22.3966C670.747 21.1786 668.656 20.4825 666.216 20.6568C662.033 21.0046 658.722 24.4843 658.199 28.66C658.025 29.704 658.199 30.748 658.374 31.7917C651.577 31.9657 646 37.5333 646 44.4929C646 45.1887 646 45.7109 646.174 46.4067C646.174 46.7549 646.523 46.9288 646.697 46.9288H702.639C702.987 46.9288 703.336 46.7549 703.336 46.4067L703.859 44.4929Z" fill="#F4811F"/>
<path d="M713.4 25.1852H712.527C712.352 25.1852 712.177 25.3611 712.003 25.537L710.779 29.7592C710.255 31.5184 710.43 33.2779 711.304 34.3332C712.177 35.3889 713.4 36.0924 714.973 36.2686L721.438 36.6204C721.613 36.6204 721.788 36.7963 721.962 36.7963C722.137 36.9722 722.137 37.1481 721.962 37.324C721.788 37.6761 721.613 37.8519 721.263 37.8519L714.624 38.2037C710.954 38.3796 707.11 41.3703 705.712 44.8887L705.363 46.4723C705.188 46.6482 705.363 47 705.712 47H728.777C729.126 47 729.301 46.8241 729.301 46.4723C729.651 45.0649 730 43.4816 730 41.898C730 32.7499 722.486 25.1852 713.4 25.1852Z" fill="#FAAD3F"/>
</g>
<line y1="88.5" x2="730" y2="88.5" stroke="#B1E2FF"/>
<line x1="25.5" y1="89" x2="25.5" y2="121" stroke="#B1E2FF"/>
<line x1="252.5" y1="89" x2="252.5" y2="121" stroke="#B1E2FF"/>
<line x1="555.5" y1="89" x2="555.5" y2="121" stroke="#B1E2FF"/>
<defs>
<clipPath id="clip0">
<rect width="103" height="37" fill="white" transform="translate(118 10)"/>
</clipPath>
<clipPath id="clip1">
<rect width="46" height="56" fill="white" transform="translate(532)"/>
</clipPath>
<clipPath id="clip2">
<rect width="84" height="38" fill="white" transform="translate(646 9)"/>
</clipPath>
</defs>
</svg>
