<svg width="24" height="24" viewBox="0 0 24 24" fill="none" xmlns="http://www.w3.org/2000/svg">
<path d="M12 19C15.866 19 19 15.866 19 12C19 8.13401 15.866 5 12 5C8.13401 5 5 8.13401 5 12C5 15.866 8.13401 19 12 19Z" stroke="#147EFB" stroke-width="2" stroke-linecap="round" stroke-linejoin="round"/>
<path d="M12 9V12L13.5 13.5" stroke="#147EFB" stroke-width="2" stroke-linecap="round" stroke-linejoin="round"/>
<path d="M16.5105 17.35L16.1605 21.18C16.1154 21.6787 15.885 22.1423 15.5147 22.4792C15.1444 22.8162 14.6611 23.002 14.1605 23H9.83047C9.3298 23.002 8.84657 22.8162 8.47627 22.4792C8.10597 22.1423 7.87553 21.6787 7.83047 21.18L7.48047 17.35M7.49047 6.65002L7.84047 2.82002C7.88537 2.32309 8.1144 1.8609 8.48258 1.52417C8.85077 1.18744 9.33152 1.00049 9.83047 1.00002H14.1805C14.6811 0.997985 15.1644 1.18381 15.5347 1.52079C15.905 1.85776 16.1354 2.32137 16.1805 2.82002L16.5305 6.65002" stroke="#147EFB" stroke-width="2" stroke-linecap="round" stroke-linejoin="round"/>
</svg>
