<svg width="350" height="495" viewBox="0 0 350 495" fill="none" xmlns="http://www.w3.org/2000/svg">
<path d="M142.669 283.764C144.014 282.573 147.714 279.659 149.125 278.555C163.891 267.074 179.462 256.667 195.718 247.413C186.592 229.649 176.031 212.659 164.141 196.613C162.602 194.514 163.772 190.455 166.774 190.501C200.522 190.843 234.268 190.754 268.012 190.235C258.743 166.387 247.116 143.525 233.305 121.988C231.647 119.422 233.043 116.523 235.937 115.876L336.555 93.3906C337.601 94.1821 338.474 95.1792 339.121 96.3206C342.374 101.837 343.124 108.851 343.704 115.106C344.294 121.546 344.248 128.063 345.125 134.472C346.116 141.656 347.378 148.84 348.369 156.024C349.164 161.797 350.201 167.959 349.734 173.799C349.523 176.452 348.707 178.32 346.321 179.546C343.683 180.901 340.676 181.665 337.807 182.527C329.822 182.394 321.838 182.565 313.856 183.04C322.156 198.027 327.88 214.301 330.792 231.183C330.902 232.194 330.61 233.209 329.98 234.007C329.349 234.806 328.43 235.325 327.42 235.452C298.399 237.699 269.059 229.469 240.253 234.395C249.075 249.158 256.96 264.461 263.861 280.213C265.067 282.968 262.516 285.791 259.719 285.447C229.231 281.721 198.393 281.876 167.944 285.909C161.365 286.781 150.798 288.705 148.284 289.054C145.769 289.403 141.904 289.87 141.13 288.382C140.355 286.894 141.325 284.954 142.669 283.764Z" fill="#E7F6FF"/>
<path d="M0.55423 75.8362C-0.405441 73.1936 0.749237 69.1655 4.01831 69.6273C19.0932 71.6493 33.9417 75.0994 48.3636 79.931C35.0799 56.9438 25.9166 31.8121 21.2874 5.67014C20.8306 3.10447 22.519 0.328409 25.1312 0.513137L63.6723 3.23788L82.9428 4.61822C89.0088 5.04925 95.3365 4.96201 101.346 6.03447C107.504 7.13258 109.475 13.5622 112.062 18.9398C115.089 25.2274 118.116 31.5133 121.14 37.7975C127.117 50.1914 133.096 62.5922 139.076 74.9998L159.604 117.688C159.939 118.311 160.111 119.009 160.105 119.717C160.099 120.424 159.915 121.119 159.57 121.737C159.225 122.355 158.73 122.876 158.13 123.253C157.531 123.629 156.847 123.849 156.14 123.891C138.691 125.431 121.219 126.175 103.722 126.123C120.134 152.669 133.141 181.174 142.438 210.965C143.095 213.048 141.529 215.614 139.62 216.009C121.455 219.781 103.033 222.183 84.5081 223.193C90.0234 244.524 92.6437 266.501 92.2984 288.531C92.2522 291.609 88.8856 293.718 86.4582 291.948C81.0134 287.953 76.808 282.501 74.3263 276.221C74.1696 276.018 74.0289 275.803 73.9054 275.579L27.3688 190.039C25.8292 187.212 27.9795 183.795 30.8328 183.831L60.1415 184.231C49.7236 167.616 39.2031 151.057 29.1957 134.154C18.2082 115.604 8.05203 96.3873 0.55423 75.8362Z" fill="#E7F6FF"/>
<path d="M315.972 224.832C316.16 224.185 316.168 223.5 315.996 222.85C315.824 222.199 315.478 221.608 314.996 221.139C313.407 219.687 307.684 217.316 304.031 215.708L304.897 215.578C310.256 214.711 307.983 206.551 302.644 207.418C298.895 208.016 295.11 208.355 291.315 208.433C285.884 204.435 281.977 199.316 278.097 193.774C275.108 189.515 272.198 185.211 269.632 180.697C263.564 162.886 255.842 145.485 242.507 131.894C234.732 123.904 225.149 117.902 214.567 114.395C203.238 110.664 188.249 107.883 178.873 106.874C175.519 106.379 172.049 106.021 168.279 105.806C165.095 105.63 160.511 105.337 155.869 105.291C147.157 102.986 133.288 103.155 125.058 106.47C114.444 110.735 107.595 119.175 105.179 130.097C100.673 150.467 99.065 170.838 100.96 191.41C100.849 196.119 100.901 200.892 101.24 205.405C102.607 223.594 108.402 237.869 112.276 249.038C116.3 260.708 126.06 286.158 129.31 297.62C132.266 308.04 131.621 331.92 129.648 347.459C128.04 360.054 119.881 410.628 118.345 423.451C116.912 435.538 112.087 476.768 111.781 482.121C111.475 487.474 112.895 491.889 117.095 491.889H185.495C190.997 491.889 188.203 485.455 186.256 483.606C182.617 480.154 178.84 475.381 175.187 471.955C176.639 462.708 177.597 453.362 179.146 444.141C181.614 429.449 193.946 355.834 195.802 341.246C197.488 328 199.337 302.576 190.795 277.464C187.038 266.393 182.76 255.524 178.267 244.74C185.052 243.437 191.778 241.829 198.4 239.856C198.901 239.712 199.389 239.543 199.891 239.393C203.361 247.208 206.89 255.023 209.794 261.151C215.089 272.176 219.779 283.48 223.846 295.015C228.905 309.661 229.758 316.506 229.211 329.849C228.976 335.613 226.717 348.937 225.871 354.648C223.715 369.216 217.269 400.137 214.606 414.627C211.878 429.456 203.661 478.982 203.381 484.055C203.101 489.128 204.266 491.87 207.808 491.87H273.467C276.723 491.87 277.374 487.962 275.108 485.045C272.842 482.127 267.861 475.081 262.294 470.386C262.711 467.963 274.724 417.206 279.835 394.035C282.713 381.01 285.617 368.148 288.365 355.072C290.969 342.822 292.871 328.449 292.239 317.072C291.608 305.695 288.052 295.021 286.073 289.584C279.008 270.125 270.322 248.81 262.112 229.019C284.087 241.764 294.394 244.414 297.585 245.189C300.775 245.964 305.034 246.908 309.305 245.345C312.352 244.225 313.101 240.227 310.21 238.403C309.696 238.078 309.175 237.791 308.654 237.518L311.734 237.329C314.449 237.166 316.676 234.177 314.989 231.611C314.225 230.421 313.231 229.396 312.066 228.596C312.339 228.478 312.613 228.361 312.873 228.231C313.609 227.929 314.269 227.468 314.805 226.88C315.341 226.292 315.74 225.592 315.972 224.832Z" fill="#147EFB"/>
<path d="M155.315 80.4271C158.308 81.5538 161.412 82.3614 164.574 82.8367C164.703 85.6791 165.531 88.4459 166.983 90.8924C168.128 92.6341 169.695 94.0571 171.538 95.0286C173.382 96.0001 175.442 96.4882 177.525 96.4474C187.324 96.3693 192.943 87.6558 195.105 79.053L201.779 79.4828C202.01 79.5228 202.248 79.5089 202.473 79.4424C202.698 79.3759 202.905 79.2584 203.077 79.0991C203.25 78.9398 203.383 78.743 203.468 78.5238C203.552 78.3046 203.585 78.069 203.563 77.8352C202.464 69.9705 199.973 62.3646 196.205 55.3741C195.367 52.7541 193.805 50.4244 191.7 48.6534C186.79 44.5637 177.551 44.5832 173.853 46.8625C170.154 49.1419 167.712 54.8141 166.69 59.4574C166.527 60.1803 166.378 60.9031 166.234 61.626C162.562 61.1571 158.857 61.1766 155.4 62.7657C151.721 64.4523 149.019 67.8388 148.921 71.9676C148.804 76.2136 151.5 78.9683 155.315 80.4271Z" fill="#147EFB"/>
<path d="M224.802 149.588C226.725 155.271 228.095 161.127 228.891 167.074" stroke="#0053C7" stroke-width="4" stroke-linecap="round" stroke-linejoin="round"/>
<path d="M329.333 492.892H82.3569" stroke="#0053C7" stroke-width="4" stroke-linecap="round" stroke-linejoin="round"/>
<path d="M150.184 148.416C148.882 154.896 150.535 173.026 154.312 191.749C169.9 191.834 190.469 190.753 214.052 184.377" stroke="#0053C7" stroke-width="4" stroke-linecap="round" stroke-linejoin="round"/>
<path d="M102.353 191.482C105.107 205.679 108.565 219.023 114.321 232.288C116.534 237.381 121.437 243.659 125.871 247C131.491 251.239 139.2 251.871 146.219 251.382C154.436 250.809 168.018 249.513 177.167 247.683" stroke="#0053C7" stroke-width="4" stroke-linecap="round" stroke-linejoin="round"/>
<path d="M305.072 165.765C303.497 158.907 296.738 136.609 291.295 136.459C285.851 136.309 257.918 136.622 244.141 143.766C237.46 147.224 232.85 152.935 228.676 159.024C224.399 165.27 220.524 171.776 217.966 178.933C217.34 180.669 216.8 182.441 216.344 184.247L216.474 184.208C218.096 183.423 219.549 182.331 220.752 180.991C223.877 177.87 227.51 175.304 231.496 173.404C233.124 172.616 235.702 173.814 236.138 175.585C237.011 179.148 235.018 180.626 232.935 183.185C232.792 183.361 232.655 183.543 232.525 183.719C240.143 182.638 247.798 181.863 255.49 181.394C259.533 181.153 261.005 187.125 257.026 188.428L240.156 193.944C240.201 194.406 240.247 194.862 240.286 195.324L252.761 192.876C256.792 192.081 263.928 190.824 263.772 197.31C263.635 202.781 256.609 203.777 252.605 205.125C248.763 206.428 244.941 207.73 241.126 209.033C240.836 209.565 240.413 210.013 239.898 210.334C239.384 210.655 238.795 210.837 238.189 210.863L238.28 210.986C241.319 210.057 244.401 209.245 247.526 208.551C250.782 207.834 255.164 206.083 258.048 208.434C258.537 208.84 258.906 209.372 259.117 209.971C259.328 210.571 259.373 211.216 259.246 211.839C258.081 215.604 253.816 216.606 250.554 218.189L248.952 218.97C241.336 223.715 233.108 227.398 224.496 229.918C222.96 230.66 221.384 231.331 219.867 231.963C221.176 235.59 222.74 239.12 224.548 242.526C225.944 245.28 228.011 247.638 230.558 249.383C235.526 255.023 242.487 259.308 248.991 262.206C262.185 268.098 276.87 269.796 291.06 267.071C291.6 266.968 292.109 266.745 292.551 266.419C293.156 266.406 293.741 266.203 294.225 265.84C309.506 254.176 308.771 227.697 310.138 212.439C311.584 196.77 308.439 180.548 305.072 165.765Z" fill="#FECB2E"/>
<path d="M333.357 197.389L288.04 199.46C287.003 199.483 286.019 199.917 285.303 200.666C284.587 201.415 284.197 202.419 284.221 203.455C284.244 204.491 284.678 205.476 285.427 206.192C286.176 206.908 287.179 207.298 288.215 207.274H288.391L333.722 205.203C334.758 205.157 335.733 204.7 336.433 203.935C337.133 203.169 337.5 202.157 337.453 201.12C337.406 200.084 336.95 199.109 336.184 198.409C335.419 197.709 334.407 197.342 333.371 197.389H333.357Z" fill="#FD9426"/>
<path d="M345.703 184.97L301.335 186.969C300.299 186.992 299.315 187.426 298.599 188.176C297.883 188.925 297.493 189.928 297.517 190.964C297.54 192.001 297.974 192.985 298.723 193.701C299.472 194.418 300.475 194.807 301.511 194.784H301.687L346.054 192.784C347.09 192.738 348.066 192.281 348.765 191.516C349.465 190.75 349.832 189.737 349.785 188.701C349.739 187.665 349.282 186.69 348.517 185.99C347.751 185.29 346.739 184.923 345.703 184.97Z" fill="#FD9426"/>
<path d="M110.14 244.277C104.795 304.66 92.5601 486.64 3.16797 486.64" stroke="#FD9426" stroke-width="4" stroke-linecap="round" stroke-linejoin="round"/>
<path d="M288.586 139.976C284.087 148.351 280.577 162.938 279.842 173.462C277.745 203.419 280.909 234.144 288.957 261.913" stroke="#FD9426" stroke-width="4" stroke-linecap="round" stroke-linejoin="round"/>
<path d="M182.33 187.92C179.723 181.436 178.042 174.618 177.336 167.666C175.981 155.338 175.519 142.919 173.52 130.689C171.345 117.346 168.962 107.421 156.051 103.337C152.838 102.367 149.438 102.186 146.141 102.81" stroke="#FD9426" stroke-width="4" stroke-linecap="round" stroke-linejoin="round"/>
</svg>
