<svg width="255" height="150" viewBox="0 0 255 150" fill="none" xmlns="http://www.w3.org/2000/svg">
<line x1="93" y1="42.5" x2="163" y2="42.5" stroke="#0053C7"/>
<line x1="112" y1="74.5" x2="195" y2="74.5" stroke="#0053C7"/>
<line x1="94" y1="106.5" x2="163" y2="106.5" stroke="#0053C7"/>
<path d="M195.741 64.408L214.203 74.562C214.281 74.6051 214.347 74.6686 214.392 74.7456C214.438 74.8226 214.462 74.9105 214.462 75C214.462 75.0895 214.438 75.1773 214.392 75.2544C214.347 75.3314 214.281 75.3948 214.203 75.438L195.741 85.592C195.665 85.6339 195.579 85.6552 195.492 85.6538C195.405 85.6525 195.32 85.6285 195.246 85.5843C195.171 85.5401 195.109 85.4772 195.066 85.4017C195.023 85.3263 195 85.2409 195 85.154V64.846C195 64.7591 195.023 64.6737 195.066 64.5983C195.109 64.5228 195.171 64.4599 195.246 64.4156C195.32 64.3714 195.405 64.3475 195.492 64.3461C195.579 64.3448 195.665 64.3661 195.741 64.408ZM197 76V82.617L210.85 75L197 67.383V74H202V76H197Z" fill="white"/>
<path d="M163.741 32.408L182.203 42.562C182.281 42.6051 182.347 42.6686 182.392 42.7456C182.438 42.8226 182.462 42.9105 182.462 43C182.462 43.0895 182.438 43.1773 182.392 43.2544C182.347 43.3314 182.281 43.3948 182.203 43.438L163.741 53.592C163.665 53.6339 163.579 53.6552 163.492 53.6538C163.405 53.6525 163.32 53.6285 163.246 53.5843C163.171 53.5401 163.109 53.4772 163.066 53.4017C163.023 53.3263 163 53.2409 163 53.154V32.846C163 32.7591 163.023 32.6737 163.066 32.5983C163.109 32.5228 163.171 32.4599 163.246 32.4156C163.32 32.3714 163.405 32.3475 163.492 32.3461C163.579 32.3448 163.665 32.3661 163.741 32.408ZM165 44V50.617L178.85 43L165 35.383V42H170V44H165Z" fill="white"/>
<path d="M163.741 95.408L182.203 105.562C182.281 105.605 182.347 105.669 182.392 105.746C182.438 105.823 182.462 105.91 182.462 106C182.462 106.089 182.438 106.177 182.392 106.254C182.347 106.331 182.281 106.395 182.203 106.438L163.741 116.592C163.665 116.634 163.579 116.655 163.492 116.654C163.405 116.652 163.32 116.629 163.246 116.584C163.171 116.54 163.109 116.477 163.066 116.402C163.023 116.326 163 116.241 163 116.154V95.846C163 95.7591 163.023 95.6737 163.066 95.5983C163.109 95.5228 163.171 95.4599 163.246 95.4156C163.32 95.3714 163.405 95.3475 163.492 95.3461C163.579 95.3448 163.665 95.3661 163.741 95.408ZM165 107V113.617L178.85 106L165 98.383V105H170V107H165Z" fill="white"/>
<circle cx="80" cy="75" r="48" fill="url(#paint0_linear)" fill-opacity="0.24"/>
<path d="M80 71H114.132C114.308 72.54 114.4 74.12 114.4 75.736C114.4 86.672 110.48 95.88 103.688 102.136C97.748 107.62 89.616 110.836 79.92 110.836C75.2027 110.838 70.5312 109.911 66.1725 108.106C61.8137 106.302 57.8533 103.657 54.5175 100.321C51.1816 96.9859 48.5358 93.0258 46.7311 88.6673C44.9265 84.3088 43.9984 79.6373 44 74.92C43.9979 70.2023 44.9256 65.5305 46.73 61.1715C48.5344 56.8126 51.1801 52.8519 54.516 49.516C57.8519 46.1801 61.8126 43.5344 66.1715 41.73C70.5305 39.9256 75.2023 38.9979 79.92 39C89.6 39 97.732 42.56 103.952 48.356L98.104 54.2C93.472 49.724 87.212 47 80 47C76.323 47 72.682 47.7242 69.2849 49.1314C65.8878 50.5385 62.8011 52.601 60.201 55.201C57.601 57.8011 55.5385 60.8878 54.1314 64.2849C52.7242 67.682 52 71.323 52 75C52 78.677 52.7242 82.318 54.1314 85.7151C55.5385 89.1123 57.601 92.199 60.201 94.799C62.8011 97.399 65.8878 99.4615 69.2849 100.869C72.682 102.276 76.323 103 80 103C94.104 103 104.576 92.568 106.308 79H80V71Z" fill="white"/>
<defs>
<linearGradient id="paint0_linear" x1="80" y1="27" x2="80" y2="123" gradientUnits="userSpaceOnUse">
<stop stop-color="white"/>
<stop offset="1" stop-color="#147EFB"/>
</linearGradient>
</defs>
</svg>
