<?xml version="1.0" encoding="UTF-8" standalone="no"?>
<!-- Generator: Adobe Illustrator 19.0.0, SVG Export Plug-In . SVG Version: 6.00 Build 0)  -->

<svg
   version="1.1"
   id="Capa_1"
   x="0px"
   y="0px"
   viewBox="0 0 60 60"
   style="enable-background:new 0 0 60 60;"
   xml:space="preserve"
   sodipodi:docname="phone.svg"
   inkscape:version="1.2.1 (9c6d41e, 2022-07-14)"
   xmlns:inkscape="http://www.inkscape.org/namespaces/inkscape"
   xmlns:sodipodi="http://sodipodi.sourceforge.net/DTD/sodipodi-0.dtd"
   xmlns="http://www.w3.org/2000/svg"
   xmlns:svg="http://www.w3.org/2000/svg"><defs
   id="defs193" /><sodipodi:namedview
   id="namedview191"
   pagecolor="#ffffff"
   bordercolor="#000000"
   borderopacity="0.25"
   inkscape:showpageshadow="2"
   inkscape:pageopacity="0.0"
   inkscape:pagecheckerboard="0"
   inkscape:deskcolor="#d1d1d1"
   showgrid="false"
   inkscape:zoom="3.9333333"
   inkscape:cx="30.127119"
   inkscape:cy="30"
   inkscape:window-width="1309"
   inkscape:window-height="456"
   inkscape:window-x="0"
   inkscape:window-y="25"
   inkscape:window-maximized="0"
   inkscape:current-layer="g158" />
<g
   id="g158">
	
	
	
	
	
	
	
	<g
   id="g156">
		<path
   d="M44.553,0H16.447C14.822,0,13.5,1.322,13.5,2.947V9c-0.552,0-1,0.447-1,1v1c0,0.553,0.448,1,1,1v1c-0.552,0-1,0.447-1,1v1    c0,0.553,0.448,1,1,1v1c-0.552,0-1,0.447-1,1v1c0,0.553,0.448,1,1,1v37.053c0,1.625,1.322,2.947,2.947,2.947h28.106    c1.625,0,2.947-1.322,2.947-2.947V2.947C47.5,1.322,46.178,0,44.553,0z M27.5,3h5c0.552,0,1,0.447,1,1s-0.448,1-1,1h-5    c-0.552,0-1-0.447-1-1S26.948,3,27.5,3z M30.5,59c-2.206,0-4-1.794-4-4s1.794-4,4-4s4,1.794,4,4S32.706,59,30.5,59z M44.5,50h-28    V8h28V50z"
   id="path152" />
		<circle
   cx="30.5"
   cy="55"
   r="2"
   id="circle154" />
	</g>
</g>
<g
   id="g160">
</g>
<g
   id="g162">
</g>
<g
   id="g164">
</g>
<g
   id="g166">
</g>
<g
   id="g168">
</g>
<g
   id="g170">
</g>
<g
   id="g172">
</g>
<g
   id="g174">
</g>
<g
   id="g176">
</g>
<g
   id="g178">
</g>
<g
   id="g180">
</g>
<g
   id="g182">
</g>
<g
   id="g184">
</g>
<g
   id="g186">
</g>
<g
   id="g188">
</g>
</svg>
