<?xml version="1.0" encoding="iso-8859-1"?>
<!-- Generator: Adobe Illustrator 19.0.0, SVG Export Plug-In . SVG Version: 6.00 Build 0)  -->
<svg version="1.1" id="Capa_1" xmlns="http://www.w3.org/2000/svg" xmlns:xlink="http://www.w3.org/1999/xlink" x="0px" y="0px"
	 viewBox="0 0 60 60" style="enable-background:new 0 0 60 60;" xml:space="preserve">
<g>
	<path d="M47.521,25H46v-9.706C46,12.375,43.625,10,40.706,10h-0.127l-0.685-1.193c-0.642-1.119-0.981-2.368-0.981-3.613
		C38.913,2.33,36.306,0,33.101,0H22.899c-3.205,0-5.813,2.33-5.813,5.193c0,1.245-0.34,2.494-0.981,3.613L15.421,10h-0.127
		C12.375,10,10,12.375,10,15.294v29.412C10,47.625,12.375,50,15.294,50h0.127l0.685,1.193c0.642,1.119,0.981,2.368,0.981,3.613
		c0,2.863,2.607,5.193,5.813,5.193h10.201c3.205,0,5.813-2.33,5.813-5.193c0-1.245,0.34-2.494,0.981-3.613L40.579,50h0.127
		C43.625,50,46,47.625,46,44.706V35h1.521C48.888,35,50,33.888,50,32.521v-5.043C50,26.112,48.888,25,47.521,25z M44,44.706
		C44,46.522,42.522,48,40.706,48H15.294C13.478,48,12,46.522,12,44.706V15.294C12,13.478,13.478,12,15.294,12h25.412
		C42.522,12,44,13.478,44,15.294V25v10V44.706z"/>
	<path d="M16,21c0.256,0,0.512-0.098,0.707-0.293l4-4c0.391-0.391,0.391-1.023,0-1.414s-1.023-0.391-1.414,0l-4,4
		c-0.391,0.391-0.391,1.023,0,1.414C15.488,20.902,15.744,21,16,21z"/>
	<path d="M16,26c0.256,0,0.512-0.098,0.707-0.293l2-2c0.391-0.391,0.391-1.023,0-1.414s-1.023-0.391-1.414,0l-2,2
		c-0.391,0.391-0.391,1.023,0,1.414C15.488,25.902,15.744,26,16,26z"/>
	<path d="M19.29,20.29C19.109,20.479,19,20.729,19,21c0,0.27,0.109,0.52,0.29,0.7C19.479,21.89,19.729,22,20,22
		c0.27,0,0.52-0.11,0.71-0.29C20.89,21.52,21,21.26,21,21s-0.11-0.521-0.29-0.71C20.33,19.92,19.66,19.92,19.29,20.29z"/>
	<path d="M21.293,19.707C21.488,19.902,21.744,20,22,20s0.512-0.098,0.707-0.293l3-3c0.391-0.391,0.391-1.023,0-1.414
		s-1.023-0.391-1.414,0l-3,3C20.902,18.684,20.902,19.316,21.293,19.707z"/>
	<path d="M24.293,20.293l-9,9c-0.391,0.391-0.391,1.023,0,1.414C15.488,30.902,15.744,31,16,31s0.512-0.098,0.707-0.293l9-9
		c0.391-0.391,0.391-1.023,0-1.414S24.684,19.902,24.293,20.293z"/>
	<path d="M26.3,18.29C26.109,18.47,26,18.729,26,19c0,0.27,0.109,0.52,0.29,0.71C26.479,19.89,26.74,20,27,20s0.52-0.11,0.71-0.29
		C27.89,19.52,28,19.26,28,19s-0.11-0.521-0.29-0.71C27.33,17.92,26.66,17.92,26.3,18.29z"/>
	<path d="M29.293,15.293l-1,1c-0.391,0.391-0.391,1.023,0,1.414C28.488,17.902,28.744,18,29,18s0.512-0.098,0.707-0.293l1-1
		c0.391-0.391,0.391-1.023,0-1.414S29.684,14.902,29.293,15.293z"/>
</g>
<g>
</g>
<g>
</g>
<g>
</g>
<g>
</g>
<g>
</g>
<g>
</g>
<g>
</g>
<g>
</g>
<g>
</g>
<g>
</g>
<g>
</g>
<g>
</g>
<g>
</g>
<g>
</g>
<g>
</g>
</svg>
