<svg width="20" height="18" viewBox="0 0 20 18" fill="none" xmlns="http://www.w3.org/2000/svg">
<path d="M3.56743 12.5622C3.77394 12.7455 3.79272 13.0615 3.60938 13.2681C3.42605 13.4746 3.11002 13.4933 2.90352 13.31C1.63534 12.1841 0.650191 10.7704 0.0338194 9.18076C-0.0112731 9.06447 -0.0112731 8.93553 0.0338194 8.81924C2.09127 3.51317 7.94271 0.756724 13.3273 2.52527C13.5897 2.61143 13.7325 2.89397 13.6463 3.15632C13.5601 3.41868 13.2776 3.5615 13.0153 3.47533C8.19686 1.89276 2.96479 4.30886 1.03835 8.99996C1.60037 10.3673 2.46614 11.5845 3.56743 12.5622ZM10.6197 5.04779C10.8926 5.09028 11.0793 5.34591 11.0369 5.61876C10.9944 5.89162 10.7387 6.07837 10.4659 6.03589C10.3129 6.01206 10.1573 6 10 6C8.34315 6 7 7.34315 7 9C7 9.15562 7.01181 9.30957 7.03513 9.46101C7.07717 9.73394 6.88999 9.98926 6.61707 10.0313C6.34414 10.0733 6.08882 9.88616 6.04678 9.61323C6.01571 9.41146 6 9.20663 6 9C6 6.79086 7.79086 5 10 5C10.2088 5 10.4159 5.01605 10.6197 5.04779ZM9.4559 12.9632C9.18228 12.926 8.99067 12.674 9.02793 12.4004C9.06519 12.1267 9.3172 11.9351 9.59082 11.9724C9.72553 11.9907 9.86211 12 10 12C11.6569 12 13 10.6569 13 9C13 8.87844 12.9928 8.75789 12.9785 8.63874C12.9457 8.36456 13.1413 8.11566 13.4155 8.08281C13.6897 8.04996 13.9386 8.2456 13.9714 8.51978C13.9904 8.67839 14 8.83866 14 9C14 11.2091 12.2091 13 10 13C9.81695 13 9.63529 12.9877 9.4559 12.9632ZM1.85355 17.8536C1.65829 18.0488 1.34171 18.0488 1.14645 17.8536C0.951184 17.6583 0.951184 17.3417 1.14645 17.1464L18.1464 0.146447C18.3417 -0.0488155 18.6583 -0.0488155 18.8536 0.146447C19.0488 0.341709 19.0488 0.658291 18.8536 0.853553L1.85355 17.8536ZM16.4326 5.43781C16.2261 5.25448 16.2073 4.93845 16.3906 4.73195C16.5739 4.52545 16.89 4.50667 17.0965 4.69C18.3647 5.8159 19.3498 7.22965 19.9662 8.81924C20.0113 8.93553 20.0113 9.06447 19.9662 9.18076C17.9087 14.4868 12.0573 17.2433 6.6727 15.4747C6.41035 15.3886 6.26752 15.106 6.35369 14.8437C6.43986 14.5813 6.72239 14.4385 6.98475 14.5247C11.8031 16.1072 17.0352 13.6911 18.9617 9.00004C18.3996 7.63266 17.5339 6.41555 16.4326 5.43781Z" fill="#616161"/>
</svg>
