<svg width="255" height="150" viewBox="0 0 255 150" fill="none" xmlns="http://www.w3.org/2000/svg">
<line x1="32" y1="42.5" x2="151" y2="42.5" stroke="#0053C7"/>
<line x1="32" y1="74.5" x2="135" y2="74.5" stroke="#0053C7"/>
<line x1="32" y1="106.5" x2="150" y2="106.5" stroke="#0053C7"/>
<path d="M175 35L39.5 74.5L175 114.5V35Z" fill="url(#paint0_linear)" fill-opacity="0.24"/>
<circle cx="39.5" cy="74.5" r="6.5" fill="white" stroke="white" stroke-width="2"/>
<path d="M175 115C197.091 115 215 97.0914 215 75C215 52.9086 197.091 35 175 35C152.909 35 135 52.9086 135 75C135 97.0914 152.909 115 175 115Z" stroke="white" stroke-width="2" stroke-linecap="round" stroke-linejoin="round"/>
<path d="M135 75H215" stroke="white" stroke-width="2" stroke-linecap="round" stroke-linejoin="round"/>
<path d="M175 35C185.005 45.9534 190.691 60.1681 191 75C190.691 89.8319 185.005 104.047 175 115C164.995 104.047 159.309 89.8319 159 75C159.309 60.1681 164.995 45.9534 175 35V35Z" stroke="white" stroke-width="2" stroke-linecap="round" stroke-linejoin="round"/>
<path d="M154 61.9091C154 65.7273 149 69 149 69C149 69 144 65.7273 144 61.9091C144 60.6071 144.527 59.3585 145.464 58.4378C146.402 57.5172 147.674 57 149 57C150.326 57 151.598 57.5172 152.536 58.4378C153.473 59.3585 154 60.6071 154 61.9091Z" fill="white"/>
<circle cx="149" cy="62" r="2" fill="#147EFB"/>
<path d="M206 85.9091C206 89.7273 201 93 201 93C201 93 196 89.7273 196 85.9091C196 84.6071 196.527 83.3585 197.464 82.4378C198.402 81.5172 199.674 81 201 81C202.326 81 203.598 81.5172 204.536 82.4378C205.473 83.3585 206 84.6071 206 85.9091Z" fill="white"/>
<circle cx="201" cy="86" r="2" fill="#147EFB"/>
<defs>
<linearGradient id="paint0_linear" x1="40" y1="75" x2="175" y2="75" gradientUnits="userSpaceOnUse">
<stop stop-color="white"/>
<stop offset="1" stop-color="#147EFB"/>
</linearGradient>
</defs>
</svg>
