<svg width="445" height="488" viewBox="0 0 445 488" fill="none" xmlns="http://www.w3.org/2000/svg">
<g clip-path="url(#clip0)">
<path d="M230.939 253.059C237.015 246.567 245.289 237.326 251.142 231.359C254.606 227.827 260.152 222.088 264.098 217.995C265.445 216.6 266.287 214.795 266.489 212.867C266.691 210.94 266.243 209 265.215 207.356C262.644 203.245 259.319 198.013 257.503 195.469C228.791 155.239 199.149 115.672 169.007 76.5028C167.311 74.3026 164.366 73.4286 161.898 75.032C132.064 94.4357 111.571 124.997 100.721 158.518C95.1629 175.697 94.2879 192.582 95.4767 210.599C96.2069 221.401 97.4138 233.619 100.642 244.017C103.617 253.608 107.425 262.511 113.188 270.685C126.916 290.155 140.253 307.756 158.103 323.471C159.124 324.356 160.448 324.812 161.799 324.743C163.149 324.673 164.42 324.083 165.344 323.097L209.341 276.128L230.939 253.059Z" fill="#E7F6FF"/>
<path d="M249.555 153.027C255.385 162.719 261.017 172.527 266.452 182.449C267.604 184.54 270.64 187.597 273.379 187.205C276.119 186.813 278.261 184.414 277.996 180.291C274.745 130.353 275.188 80.2439 279.323 30.3715C279.577 27.3575 276.753 25.5793 274.194 25.2478C241.978 21.2521 209.426 29.3789 182.88 48.0452C179.984 50.1007 179.652 53.3738 181.842 56.0924C206.612 86.8143 229.237 119.202 249.555 153.027Z" fill="#E7F6FF"/>
<path d="M440.384 163.581C434.385 142.11 422.727 123.195 407.797 106.835C393.315 90.9998 375.211 78.4438 355.557 69.4321C352.256 67.9191 341.678 62.928 330.417 59.3716C319.157 55.8151 310.986 54.3142 308.373 54.3142C305.76 54.3142 301.572 54.2057 301.428 59.3897C300.13 103.996 299.78 181.153 298.978 191.774C298.175 202.395 296.184 208.465 291.495 215.011C264.231 253.101 232.906 291.818 198.051 323.133C196.053 324.942 193.827 327.274 191.986 329.288C190.952 330.426 190.401 331.921 190.449 333.457C190.497 334.993 191.142 336.451 192.246 337.522C195.45 340.638 199.837 344.719 202.504 346.413C212.126 352.442 222.465 357.245 233.28 360.711C254.835 367.752 277.845 370 300.432 369.873C312.676 369.795 324.57 366.805 336.379 363.369C347.99 359.994 358.707 354.098 368.664 347.395C387.841 334.484 405.227 316.81 418.147 297.364C430.722 278.431 437.155 258.87 441.035 236.784C443.232 224.288 444.656 212.709 444.849 200.014C445.077 187.721 443.573 175.457 440.384 163.581Z" fill="#E7F6FF"/>
<path d="M249.81 106.962C244.329 110.321 236.375 110.471 229.096 108.853C228.552 110.219 227.98 111.646 227.367 113.032C227.227 113.265 227.043 113.468 226.824 113.629C226.605 113.789 226.357 113.905 226.093 113.969C225.829 114.032 225.556 114.042 225.288 113.999C225.02 113.955 224.764 113.859 224.534 113.715C218.622 109.514 213.724 104.039 210.2 97.69C208.625 95.5421 207.535 93.0764 207.004 90.4638C206.474 87.8512 206.517 85.1542 207.129 82.5598C207.729 78.8532 209.722 75.5179 212.699 73.24C215.906 70.4609 219.977 68.8849 224.214 68.7815C224.582 68.7405 224.949 68.6996 225.317 68.6723C228.211 68.4704 231.119 68.6888 233.951 69.3209C234.203 68.9932 234.448 68.6381 234.7 68.365C235.688 67.1702 236.668 65.9685 237.656 64.7805C239.624 62.4113 242.32 60.6292 245.534 61.5373C246.294 61.776 246.999 62.1659 247.605 62.6838C248.211 63.2017 248.707 63.8369 249.063 64.5514C249.419 65.2659 249.628 66.0451 249.677 66.8423C249.726 67.6395 249.613 68.4384 249.347 69.1912C248.666 71.3009 247.25 73.2878 245.888 75.1927C259.65 85.5776 258.628 101.554 249.81 106.962Z" fill="#147EFB"/>
<path d="M166.294 218.369C168.337 215.003 173.062 213.276 178.653 211.808C200.763 206.025 231.262 204.195 253.787 207.711L250.171 159.883C249.606 152.448 250.723 143.627 252.398 136.266C253.95 129.439 255.952 123.546 259.84 117.9C269.054 104.518 274.467 97.7787 285.593 85.9531C295.235 75.7116 303.863 66.6581 316.916 60.6907C323.126 57.8435 334.273 55.9113 341.096 56.8945C347.919 57.8777 359.107 62.3566 364.752 66.0777C376.423 73.7999 384.152 80.9621 393.249 91.5041C402.517 102.237 411.035 113.79 417.381 126.53C424.15 140.138 427.888 157.883 430.748 187.153C433.608 216.424 432.791 256.058 432.505 259.663C431.994 265.631 431.041 269.222 426.887 269.222C422.733 269.222 421.882 263.193 421.304 251.853C421.201 249.736 420.548 249.381 419.179 248.76C419.635 278.597 419.479 333.826 419.24 357.026C419.125 368.483 418.743 437.627 418.382 459.442C418.382 459.442 424.81 464.064 427.759 468.871C429.182 471.185 428.528 476.566 423.312 476.566H371.67C360.476 476.566 354.769 475.07 354.769 464.959C354.769 449.712 355.403 205.445 355.403 205.445L336.337 205.11C336.337 205.11 335.37 248.541 334.566 292.238C334.117 315.719 331.618 463.054 331.618 467.027C331.618 471.001 329.67 476.586 320.512 476.586C313.879 476.586 268.461 476.525 262.292 476.525C256.123 476.525 253.916 475.316 253.828 473.07C253.644 468.29 260.317 464.194 265.588 458.513C265.588 458.513 270.02 334.017 271.764 256.318C267.869 255.956 264.192 255.505 260.998 255.164C247.529 253.728 234.176 251.358 221.034 248.07C219.484 249.129 217.719 249.829 215.866 250.118C210.466 253.082 203.357 253.607 198.795 249.613C196.801 250.65 194.561 251.116 192.321 250.959C190.08 250.802 187.926 250.03 186.095 248.725C184.63 247.635 183.501 246.151 182.84 244.444C181.331 244.602 179.806 244.376 178.406 243.79C177.006 243.203 175.775 242.273 174.826 241.085C172.293 238.049 170.661 234.361 170.114 230.441C167.751 229.676 166.13 227.894 165.477 224.644L165.415 224.31C165.015 223.332 164.885 222.264 165.04 221.218C165.195 220.173 165.628 219.189 166.294 218.369Z" fill="#147EFB"/>
<path d="M137.831 212.443C132.417 211.603 98.18 207.186 98.8746 219.783C99.5147 231.472 127.256 232.237 135.175 232.496C168.602 233.595 165.204 216.676 137.831 212.443Z" stroke="#FC3158" stroke-width="6" stroke-linecap="round" stroke-linejoin="round"/>
<path d="M230.955 233.349C232.031 233.5 232.998 233.643 233.829 233.78" stroke="#FC3158" stroke-width="6" stroke-linecap="round" stroke-linejoin="round"/>
<path d="M159.287 224.883C158.967 224.883 161.153 225.143 164.973 225.566" stroke="#FC3158" stroke-width="6" stroke-linecap="round" stroke-linejoin="round"/>
<path d="M183.712 244.526C187.437 244.144 191.686 241.536 194.219 238.825C196.098 236.825 198.012 230.127 194.58 228.529" stroke="#0053C7" stroke-width="4" stroke-linecap="round" stroke-linejoin="round"/>
<path d="M199.653 249.811C203.881 248.234 210.296 246.274 212.019 241.693C213.986 236.449 210.949 231.506 206.353 228.263" stroke="#0053C7" stroke-width="4" stroke-linecap="round" stroke-linejoin="round"/>
<path d="M220.891 247.387C226.863 245.646 229.164 238.907 228.15 233.268C226.945 226.563 219.604 224.542 213.626 226.215" stroke="#0053C7" stroke-width="4" stroke-linecap="round" stroke-linejoin="round"/>
<path d="M271 163.461C269.74 171.108 270.319 226.802 269.74 254.27" stroke="#0053C7" stroke-width="4" stroke-linecap="round" stroke-linejoin="round"/>
<path d="M346.51 103.794C358.521 116.575 367.312 132.081 374.864 147.942C378.384 155.1 381.394 162.499 383.873 170.084C390.083 189.959 390.478 211.255 388.367 231.984C387.829 237.282 387.686 242.621 388.666 247.858C389.129 250.309 390.621 251.416 391.88 251.805C393.14 252.194 396.191 251.061 396.592 249.797" stroke="#0053C7" stroke-width="4" stroke-linecap="round" stroke-linejoin="round"/>
<path d="M396.654 236.149C396.517 242.294 396.81 253.764 397.525 259.848C397.954 263.466 398.887 267.604 402.169 269.202C402.737 269.506 403.369 269.671 404.012 269.684C404.656 269.697 405.294 269.558 405.874 269.277C407.467 268.382 407.916 266.334 408.155 264.497C408.727 259.554 408.366 247.995 408.366 247.995C408.366 247.995 408.992 265.631 410.776 271.585C411.303 272.9 412.054 274.113 412.996 275.169C413.378 275.698 413.897 276.112 414.498 276.365C415.098 276.618 415.757 276.7 416.401 276.603C417.428 276.261 418.278 275.524 418.764 274.555C420.309 272.015 420.296 265.242 420.343 262.265C420.418 257.909 420.153 253.553 419.894 249.203" stroke="#0053C7" stroke-width="4" stroke-linecap="round" stroke-linejoin="round"/>
<path d="M228.745 477H442" stroke="#0053C7" stroke-width="4" stroke-linecap="round" stroke-linejoin="round"/>
<path d="M170.958 231.281C175.166 231.916 179.483 232.4 183.63 231.479C187.777 230.557 191.802 228.003 193.415 224.071C195.383 226.447 198.556 227.403 201.587 228.072C204.869 228.809 215.362 228.529 217.2 220.868" stroke="#0053C7" stroke-width="4" stroke-linecap="round" stroke-linejoin="round"/>
<circle cx="48" cy="306" r="48" fill="#FFF0F3"/>
<path fill-rule="evenodd" clip-rule="evenodd" d="M69.715 348.819C63.1942 352.132 55.8152 354 48 354C33.4767 354 20.46 347.55 11.658 337.358C25.2968 333.974 41.4556 335.224 56.9922 341.917C61.5501 343.881 65.8042 346.205 69.715 348.819Z" fill="#FFE0E6"/>
<path d="M62.0028 302.611L51.924 301.951C53.7517 299.498 55.5328 297.016 57.1328 294.399C57.6525 293.547 56.5488 292.408 55.6554 292.828C52.6539 294.292 49.7342 295.895 46.8963 297.635C46.5391 297.365 46.1602 297.125 45.7634 296.917C44.1844 296.121 42.3848 295.875 40.6501 296.217C38.9153 296.56 37.3446 297.472 36.1868 298.809C35.029 300.299 34.2135 302.026 33.7985 303.867C33.3258 305.334 33.0393 306.855 32.9459 308.394C29.6817 308.014 26.4058 307.71 23.1299 307.506C21.9211 307.436 20.2101 307.004 19.5503 308.394C18.9955 309.609 19.1532 311.472 19.2583 312.768C19.2992 313.306 19.3751 313.837 19.4685 314.363C17.6155 313.837 15.778 313.253 13.9561 312.611C13.7704 312.528 13.5661 312.494 13.3636 312.514C13.161 312.534 12.9673 312.607 12.8015 312.725C12.6356 312.843 12.5035 313.002 12.4183 313.187C12.333 313.372 12.2975 313.576 12.3153 313.779C12.4029 315.882 13.2496 317.902 14.0262 319.83C14.7876 321.829 15.7875 323.73 17.0043 325.489C19.4196 328.78 22.9471 331.082 26.9313 331.967C30.9693 332.824 35.1744 332.393 38.9547 330.734C42.8262 329.093 46.5459 326.447 48.0817 322.382C49.6174 318.317 50.1196 313.796 50.0729 309.369C54.2489 308.227 58.3138 306.712 62.2189 304.843C63.1649 304.393 63.2583 302.699 62.0028 302.611Z" fill="#FC3158"/>
<path d="M29.3489 331.318L29.6584 340.804" stroke="#C2002F" stroke-width="3" stroke-linecap="round" stroke-linejoin="round"/>
<path d="M35.3576 329.993C35.2571 333.615 35.4406 337.239 35.9065 340.833" stroke="#C2002F" stroke-width="3" stroke-linecap="round" stroke-linejoin="round"/>
<path d="M19.7897 315.105C20.0638 316.487 20.5214 317.827 21.1503 319.088C21.9328 320.554 22.7153 322.248 23.8832 323.428C25.0511 324.608 26.5459 325.256 28.035 325.898" stroke="#C2002F" stroke-width="3" stroke-linecap="round" stroke-linejoin="round"/>
<path d="M41.6642 302.255L41.3839 304.007" stroke="#C2002F" stroke-width="3" stroke-linecap="round" stroke-linejoin="round"/>
<path d="M67.2466 282.292C68.9417 281.131 70.7197 280.096 72.5664 279.196" stroke="#FC3158" stroke-width="3" stroke-linecap="round" stroke-linejoin="round"/>
<path d="M75.5386 295.246L82.1664 295.556" stroke="#FC3158" stroke-width="3" stroke-linecap="round" stroke-linejoin="round"/>
<path d="M69.4306 310.234L76.181 313.212" stroke="#FC3158" stroke-width="3" stroke-linecap="round" stroke-linejoin="round"/>
<path d="M47.2441 362.127C47.6428 362.588 48.3572 362.588 48.7559 362.127L56.9593 352.655C57.5202 352.007 57.0602 351 56.2034 351H39.7966C38.9398 351 38.4798 352.007 39.0407 352.655L47.2441 362.127Z" fill="#FFE0E6"/>
<circle cx="48" cy="382" r="7.5" fill="white" stroke="#FC3158"/>
<circle cx="48" cy="382" r="3" fill="#FC3158"/>
<g filter="url(#filter0_d)">
<rect y="406" width="159" height="32" rx="16" fill="white"/>
</g>
<path d="M11.5121 425H16.1719C16.0595 424.052 16 423.044 16 422C16 420.956 16.0595 419.948 16.1719 419H11.5121C11.1805 419.938 11 420.948 11 422C11 423.052 11.1805 424.062 11.5121 425ZM11.9355 426C13.1259 428.395 15.3521 430.185 18.028 430.783C17.2489 429.723 16.6522 428.037 16.3138 426H11.9355ZM28.4879 425C28.8195 424.062 29 423.052 29 422C29 420.948 28.8195 419.938 28.4879 419H23.8281C23.9405 419.948 24 420.956 24 422C24 423.044 23.9405 424.052 23.8281 425H28.4879ZM28.0645 426H23.6862C23.3478 428.037 22.7511 429.723 21.972 430.783C24.6479 430.185 26.8741 428.395 28.0645 426ZM17.1844 425H22.8156C22.934 424.062 23 423.053 23 422C23 420.947 22.934 419.938 22.8156 419H17.1844C17.066 419.938 17 420.947 17 422C17 423.053 17.066 424.062 17.1844 425ZM17.335 426C17.8572 428.968 18.9181 431 20 431C21.0819 431 22.1428 428.968 22.665 426H17.335ZM11.9355 418H16.3138C16.6522 415.963 17.2489 414.277 18.028 413.217C15.3521 413.815 13.1259 415.605 11.9355 418ZM28.0645 418C26.8741 415.605 24.6479 413.815 21.972 413.217C22.7511 414.277 23.3478 415.963 23.6862 418H28.0645ZM17.335 418H22.665C22.1428 415.032 21.0819 413 20 413C18.9181 413 17.8572 415.032 17.335 418ZM20 432C14.4772 432 10 427.523 10 422C10 416.477 14.4772 412 20 412C25.5228 412 30 416.477 30 422C30 427.523 25.5228 432 20 432Z" fill="#121212"/>
<path d="M45.432 426.112C44.4987 426.112 43.6867 425.911 42.996 425.51C42.3053 425.099 41.7733 424.516 41.4 423.76C41.036 422.995 40.854 422.094 40.854 421.058C40.854 420.022 41.036 419.126 41.4 418.37C41.7733 417.614 42.3053 417.035 42.996 416.634C43.6867 416.223 44.4987 416.018 45.432 416.018C46.1133 416.018 46.7387 416.125 47.308 416.34C47.8773 416.545 48.372 416.853 48.792 417.264L48.358 418.146C47.882 417.745 47.4153 417.455 46.958 417.278C46.5007 417.101 45.9967 417.012 45.446 417.012C44.3633 417.012 43.5233 417.367 42.926 418.076C42.338 418.776 42.044 419.77 42.044 421.058C42.044 422.355 42.338 423.359 42.926 424.068C43.5233 424.768 44.3633 425.118 45.446 425.118C45.9967 425.118 46.5007 425.029 46.958 424.852C47.4153 424.675 47.882 424.385 48.358 423.984L48.792 424.866C48.372 425.277 47.8773 425.589 47.308 425.804C46.7387 426.009 46.1133 426.112 45.432 426.112Z" fill="#121212"/>
<path d="M53.9546 419.014C55.5879 419.014 56.4046 419.915 56.4046 421.716V426H55.2706V421.786C55.2706 421.151 55.1446 420.689 54.8926 420.4C54.6499 420.111 54.2579 419.966 53.7166 419.966C53.0913 419.966 52.5919 420.157 52.2186 420.54C51.8453 420.923 51.6586 421.441 51.6586 422.094V426H50.5246V416.13H51.6586V420.274C51.8826 419.863 52.1906 419.551 52.5826 419.336C52.9839 419.121 53.4413 419.014 53.9546 419.014Z" fill="#121212"/>
<path d="M62.3456 419.994L61.6036 420.064C60.9036 420.129 60.395 420.349 60.0776 420.722C59.7696 421.095 59.6156 421.557 59.6156 422.108V426H58.4816V419.182H59.5876V420.372C59.9703 419.579 60.7216 419.135 61.8416 419.042L62.2476 419.014L62.3456 419.994Z" fill="#121212"/>
<path d="M66.1085 426.098C65.4645 426.098 64.8951 425.953 64.4005 425.664C63.9151 425.375 63.5371 424.964 63.2665 424.432C63.0051 423.891 62.8745 423.265 62.8745 422.556C62.8745 421.847 63.0051 421.226 63.2665 420.694C63.5371 420.153 63.9151 419.737 64.4005 419.448C64.8951 419.159 65.4645 419.014 66.1085 419.014C66.7525 419.014 67.3218 419.159 67.8165 419.448C68.3111 419.737 68.6891 420.153 68.9505 420.694C69.2211 421.226 69.3565 421.847 69.3565 422.556C69.3565 423.265 69.2211 423.891 68.9505 424.432C68.6891 424.964 68.3111 425.375 67.8165 425.664C67.3218 425.953 66.7525 426.098 66.1085 426.098ZM66.1085 425.16C66.7805 425.16 67.2938 424.941 67.6485 424.502C68.0125 424.054 68.1945 423.405 68.1945 422.556C68.1945 421.725 68.0125 421.086 67.6485 420.638C67.2845 420.181 66.7711 419.952 66.1085 419.952C65.4458 419.952 64.9325 420.181 64.5685 420.638C64.2045 421.086 64.0225 421.725 64.0225 422.556C64.0225 423.396 64.1998 424.04 64.5545 424.488C64.9185 424.936 65.4365 425.16 66.1085 425.16Z" fill="#121212"/>
<path d="M78.6341 419.014C80.1461 419.014 80.9021 419.915 80.9021 421.716V426H79.7681V421.772C79.7681 421.147 79.6561 420.689 79.4321 420.4C79.2174 420.111 78.8674 419.966 78.3821 419.966C77.8128 419.966 77.3648 420.157 77.0381 420.54C76.7114 420.923 76.5481 421.445 76.5481 422.108V426H75.4141V421.772C75.4141 421.137 75.3021 420.68 75.0781 420.4C74.8541 420.111 74.4994 419.966 74.0141 419.966C73.4448 419.966 72.9968 420.157 72.6701 420.54C72.3434 420.923 72.1801 421.445 72.1801 422.108V426H71.0461V419.182H72.1661V420.26C72.3714 419.859 72.6561 419.551 73.0201 419.336C73.3841 419.121 73.8041 419.014 74.2801 419.014C75.3348 419.014 76.0301 419.462 76.3661 420.358C76.5621 419.938 76.8608 419.611 77.2621 419.378C77.6634 419.135 78.1208 419.014 78.6341 419.014Z" fill="#121212"/>
<path d="M88.68 422.766H83.696C83.7333 423.559 83.948 424.161 84.34 424.572C84.732 424.973 85.2873 425.174 86.006 425.174C86.7993 425.174 87.5273 424.903 88.19 424.362L88.568 425.188C88.2693 425.468 87.8866 425.692 87.42 425.86C86.9533 426.019 86.4773 426.098 85.992 426.098C84.928 426.098 84.088 425.785 83.472 425.16C82.8653 424.535 82.562 423.671 82.562 422.57C82.562 421.87 82.6973 421.254 82.968 420.722C83.2386 420.181 83.6166 419.761 84.102 419.462C84.5966 419.163 85.1566 419.014 85.782 419.014C86.6873 419.014 87.3966 419.313 87.91 419.91C88.4233 420.498 88.68 421.31 88.68 422.346V422.766ZM85.796 419.896C85.1986 419.896 84.718 420.083 84.354 420.456C83.9993 420.829 83.7893 421.357 83.724 422.038H87.686C87.6673 421.347 87.4946 420.82 87.168 420.456C86.8413 420.083 86.384 419.896 85.796 419.896Z" fill="#121212"/>
<g filter="url(#filter1_d)">
<rect y="446" width="159" height="32" rx="16" fill="white"/>
</g>
<path d="M13 463H27V456.5C27 455.672 26.3285 455 25.5 455H14.5C13.6716 455 13 455.672 13 456.5V463ZM28 463.4L29.8846 467.923C29.9608 468.106 30 468.302 30 468.5C30 469.328 29.3285 470 28.5 470H11.5C11.302 470 11.1059 469.961 10.9231 469.885C10.1584 469.566 9.79678 468.688 10.1154 467.923L12 463.4V456.5C12 455.119 13.1193 454 14.5 454H25.5C26.8807 454 28 455.119 28 456.5V463.4ZM12.8334 464L11.0385 468.308C10.9323 468.563 11.0528 468.855 11.3077 468.962C11.3687 468.987 11.434 469 11.5 469H28.5C28.7762 469 29 468.776 29 468.5C29 468.434 28.987 468.369 28.9616 468.308L27.1667 464H12.8334ZM14.5 466C14.2239 466 14 465.776 14 465.5C14 465.224 14.2239 465 14.5 465H15.5C15.7762 465 16 465.224 16 465.5C16 465.776 15.7762 466 15.5 466H14.5ZM13.5 468C13.2239 468 13 467.776 13 467.5C13 467.224 13.2239 467 13.5 467H14.5C14.7762 467 15 467.224 15 467.5C15 467.776 14.7762 468 14.5 468H13.5ZM16.5 468C16.2239 468 16 467.776 16 467.5C16 467.224 16.2239 467 16.5 467H20.5C20.7762 467 21 467.224 21 467.5C21 467.776 20.7762 468 20.5 468H16.5ZM22.5 468C22.2239 468 22 467.776 22 467.5C22 467.224 22.2239 467 22.5 467H23.5C23.7762 467 24 467.224 24 467.5C24 467.776 23.7762 468 23.5 468H22.5ZM25.5 468C25.2239 468 25 467.776 25 467.5C25 467.224 25.2239 467 25.5 467H26.5C26.7762 467 27 467.224 27 467.5C27 467.776 26.7762 468 26.5 468H25.5ZM17.5 466C17.2239 466 17 465.776 17 465.5C17 465.224 17.2239 465 17.5 465H18.5C18.7762 465 19 465.224 19 465.5C19 465.776 18.7762 466 18.5 466H17.5ZM20.5 466C20.2239 466 20 465.776 20 465.5C20 465.224 20.2239 465 20.5 465H21.5C21.7762 465 22 465.224 22 465.5C22 465.776 21.7762 466 21.5 466H20.5ZM23.5 466C23.2239 466 23 465.776 23 465.5C23 465.224 23.2239 465 23.5 465H24.5C24.7762 465 25 465.224 25 465.5C25 465.776 24.7762 466 24.5 466H23.5Z" fill="#121212"/>
<path d="M41.218 466V456.13H42.366V465.02H47.308V466H41.218Z" fill="#121212"/>
<path d="M51.3826 459.014C52.2506 459.014 52.8946 459.238 53.3146 459.686C53.7439 460.125 53.9586 460.797 53.9586 461.702V466H52.8526V464.838C52.6752 465.239 52.4046 465.552 52.0406 465.776C51.6766 465.991 51.2566 466.098 50.7806 466.098C50.3419 466.098 49.9359 466.009 49.5626 465.832C49.1986 465.655 48.9092 465.407 48.6946 465.09C48.4799 464.773 48.3726 464.423 48.3726 464.04C48.3726 463.527 48.5032 463.13 48.7646 462.85C49.0259 462.561 49.4552 462.355 50.0526 462.234C50.6499 462.103 51.4806 462.038 52.5446 462.038H52.8526V461.576C52.8526 461.007 52.7359 460.596 52.5026 460.344C52.2692 460.083 51.8912 459.952 51.3686 459.952C50.5846 459.952 49.8052 460.195 49.0306 460.68L48.6526 459.854C49.0072 459.602 49.4319 459.401 49.9266 459.252C50.4306 459.093 50.9159 459.014 51.3826 459.014ZM50.9346 465.202C51.4946 465.202 51.9519 465.015 52.3066 464.642C52.6706 464.259 52.8526 463.769 52.8526 463.172V462.766H52.6006C51.7792 462.766 51.1539 462.803 50.7246 462.878C50.2952 462.943 49.9872 463.06 49.8006 463.228C49.6232 463.387 49.5346 463.625 49.5346 463.942C49.5346 464.306 49.6652 464.609 49.9266 464.852C50.1972 465.085 50.5332 465.202 50.9346 465.202Z" fill="#121212"/>
<path d="M59.4644 459.014C60.0617 459.014 60.5891 459.163 61.0464 459.462C61.5037 459.761 61.8584 460.181 62.1104 460.722C62.3624 461.254 62.4884 461.875 62.4884 462.584C62.4884 463.293 62.3624 463.914 62.1104 464.446C61.8584 464.969 61.5037 465.375 61.0464 465.664C60.5984 465.953 60.0711 466.098 59.4644 466.098C58.9324 466.098 58.4657 465.981 58.0644 465.748C57.6724 465.515 57.3737 465.183 57.1684 464.754V468.52H56.0344V459.182H57.1684V460.358C57.3737 459.929 57.6724 459.597 58.0644 459.364C58.4657 459.131 58.9324 459.014 59.4644 459.014ZM59.2404 465.16C59.9031 465.16 60.4164 464.936 60.7804 464.488C61.1444 464.04 61.3264 463.405 61.3264 462.584C61.3264 461.763 61.1444 461.123 60.7804 460.666C60.4164 460.199 59.9031 459.966 59.2404 459.966C58.5777 459.966 58.0644 460.19 57.7004 460.638C57.3457 461.086 57.1684 461.725 57.1684 462.556C57.1684 463.387 57.3457 464.031 57.7004 464.488C58.0644 464.936 58.5777 465.16 59.2404 465.16Z" fill="#121212"/>
<path d="M67.1652 465.188C67.3705 465.188 67.5758 465.174 67.7812 465.146L67.7252 466.042C67.5105 466.079 67.2772 466.098 67.0252 466.098C66.2038 466.098 65.5832 465.883 65.1632 465.454C64.7525 465.025 64.5472 464.427 64.5472 463.662V460.078H63.2172V459.182H64.5472V457.11H65.6812V459.182H67.6132V460.078H65.6812V463.578C65.6812 464.651 66.1758 465.188 67.1652 465.188Z" fill="#121212"/>
<path d="M71.755 466.098C71.111 466.098 70.5416 465.953 70.047 465.664C69.5616 465.375 69.1836 464.964 68.913 464.432C68.6516 463.891 68.521 463.265 68.521 462.556C68.521 461.847 68.6516 461.226 68.913 460.694C69.1836 460.153 69.5616 459.737 70.047 459.448C70.5416 459.159 71.111 459.014 71.755 459.014C72.399 459.014 72.9683 459.159 73.463 459.448C73.9576 459.737 74.3356 460.153 74.597 460.694C74.8676 461.226 75.003 461.847 75.003 462.556C75.003 463.265 74.8676 463.891 74.597 464.432C74.3356 464.964 73.9576 465.375 73.463 465.664C72.9683 465.953 72.399 466.098 71.755 466.098ZM71.755 465.16C72.427 465.16 72.9403 464.941 73.295 464.502C73.659 464.054 73.841 463.405 73.841 462.556C73.841 461.725 73.659 461.086 73.295 460.638C72.931 460.181 72.4176 459.952 71.755 459.952C71.0923 459.952 70.579 460.181 70.215 460.638C69.851 461.086 69.669 461.725 69.669 462.556C69.669 463.396 69.8463 464.04 70.201 464.488C70.565 464.936 71.083 465.16 71.755 465.16Z" fill="#121212"/>
<path d="M80.1226 459.014C80.7199 459.014 81.2473 459.163 81.7046 459.462C82.1619 459.761 82.5166 460.181 82.7686 460.722C83.0206 461.254 83.1466 461.875 83.1466 462.584C83.1466 463.293 83.0206 463.914 82.7686 464.446C82.5166 464.969 82.1619 465.375 81.7046 465.664C81.2566 465.953 80.7293 466.098 80.1226 466.098C79.5906 466.098 79.1239 465.981 78.7226 465.748C78.3306 465.515 78.0319 465.183 77.8266 464.754V468.52H76.6926V459.182H77.8266V460.358C78.0319 459.929 78.3306 459.597 78.7226 459.364C79.1239 459.131 79.5906 459.014 80.1226 459.014ZM79.8986 465.16C80.5613 465.16 81.0746 464.936 81.4386 464.488C81.8026 464.04 81.9846 463.405 81.9846 462.584C81.9846 461.763 81.8026 461.123 81.4386 460.666C81.0746 460.199 80.5613 459.966 79.8986 459.966C79.2359 459.966 78.7226 460.19 78.3586 460.638C78.0039 461.086 77.8266 461.725 77.8266 462.556C77.8266 463.387 78.0039 464.031 78.3586 464.488C78.7226 464.936 79.2359 465.16 79.8986 465.16Z" fill="#121212"/>
</g>
<defs>
<filter id="filter0_d" x="-8" y="406" width="175" height="48" filterUnits="userSpaceOnUse" color-interpolation-filters="sRGB">
<feFlood flood-opacity="0" result="BackgroundImageFix"/>
<feColorMatrix in="SourceAlpha" type="matrix" values="0 0 0 0 0 0 0 0 0 0 0 0 0 0 0 0 0 0 127 0"/>
<feOffset dy="8"/>
<feGaussianBlur stdDeviation="4"/>
<feColorMatrix type="matrix" values="0 0 0 0 0.0784314 0 0 0 0 0.494117 0 0 0 0 0.984314 0 0 0 0.04 0"/>
<feBlend mode="normal" in2="BackgroundImageFix" result="effect1_dropShadow"/>
<feBlend mode="normal" in="SourceGraphic" in2="effect1_dropShadow" result="shape"/>
</filter>
<filter id="filter1_d" x="-8" y="446" width="175" height="48" filterUnits="userSpaceOnUse" color-interpolation-filters="sRGB">
<feFlood flood-opacity="0" result="BackgroundImageFix"/>
<feColorMatrix in="SourceAlpha" type="matrix" values="0 0 0 0 0 0 0 0 0 0 0 0 0 0 0 0 0 0 127 0"/>
<feOffset dy="8"/>
<feGaussianBlur stdDeviation="4"/>
<feColorMatrix type="matrix" values="0 0 0 0 0.0784314 0 0 0 0 0.494117 0 0 0 0 0.984314 0 0 0 0.04 0"/>
<feBlend mode="normal" in2="BackgroundImageFix" result="effect1_dropShadow"/>
<feBlend mode="normal" in="SourceGraphic" in2="effect1_dropShadow" result="shape"/>
</filter>
<clipPath id="clip0">
<rect width="445" height="488" fill="white" transform="matrix(-1 0 0 1 445 0)"/>
</clipPath>
</defs>
</svg>
