<svg width="24px" height="24px" viewBox="-0.5 0 24 24" xmlns="http://www.w3.org/2000/svg"><path d="m20.394 19.768c.068-.033.149-.052.234-.052.041 0 .08.004.118.013l-.004-.001q.147.04.147.234c-.017.175-.09.33-.201.449-.184.21-.376.4-.582.576l-.008.006c-.377.317-.795.617-1.235.885l-.045.025c-.531.338-1.151.669-1.796.955l-.092.036c-.713.309-1.556.577-2.428.761l-.089.016c-.915.209-1.965.328-3.043.328-.011 0-.021 0-.032 0h.002c-1.134-.002-2.231-.153-3.275-.436l.088.02c-1.07-.271-2.002-.621-2.881-1.062l.081.037c-.892-.454-1.648-.916-2.365-1.43l.055.037c-.663-.462-1.241-.924-1.788-1.42l.015.013c-.399-.367-.767-.749-1.11-1.154l-.015-.018c-.059-.061-.105-.135-.132-.217l-.001-.004c-.007-.019-.011-.042-.011-.065 0-.035.009-.068.025-.096v.001c.027-.04.063-.072.106-.093l.002-.001c.036-.018.079-.028.124-.028.011 0 .021.001.032.002h-.001c.059.004.112.026.155.06h-.001c1.103.71 2.419 1.45 3.777 2.117l.24.107c2.094.999 4.552 1.583 7.146 1.583 1.259 0 2.486-.138 3.666-.398l-.112.021c1.986-.441 3.734-1.064 5.376-1.87l-.14.062zm2.772-1.54c.059.153.093.331.093.516 0 .148-.022.291-.062.425l.003-.011c-.082.516-.215.977-.397 1.414l.015-.041c-.245.661-.635 1.219-1.134 1.656l-.005.004q-.228.187-.348.121t0-.32c.203-.44.406-.979.572-1.535l.024-.092q.314-1.025.087-1.319c-.053-.068-.123-.121-.204-.153l-.003-.001c-.106-.043-.229-.071-.358-.08h-.004q-.221-.02-.395-.034c-.07-.004-.152-.007-.234-.007s-.164.002-.246.007l.011-.001q-.294.014-.422.026l-.415.04-.302.026q-.08.014-.174.02t-.147.014l-.114.014c-.027.004-.06.006-.093.006h-.134l-.04-.006-.026-.02-.02-.04q-.08-.214.63-.536c.401-.191.866-.332 1.355-.397l.024-.003c.234-.033.504-.051.779-.051.235 0 .467.014.696.04l-.028-.003q.829.078 1.017.319zm-5.28-5.933c.004.31.07.604.186.871l-.006-.015c.12.297.264.553.436.787l-.007-.01q.248.335.502.616c.136.155.281.296.435.424l.006.005.174.147-3.04 3q-.536-.495-1.058-1.011t-.777-.783l-.254-.268c-.123-.13-.233-.275-.329-.43l-.007-.012c-.354.541-.788.996-1.291 1.363l-.015.01c-.486.363-1.053.653-1.665.84l-.039.01c-.555.169-1.197.28-1.86.308l-.016.001c-.065.003-.142.005-.219.005-.582 0-1.139-.105-1.654-.297l.033.011c-.603-.222-1.124-.519-1.585-.889l.011.009c-.482-.4-.861-.908-1.103-1.488l-.009-.025c-.263-.615-.416-1.331-.416-2.083 0-.033 0-.065.001-.098v.005c0-.019 0-.041 0-.064 0-.719.138-1.406.389-2.036l-.013.037c.234-.603.56-1.121.967-1.563l-.003.003c.412-.428.881-.797 1.396-1.096l.03-.016c.468-.283 1.01-.541 1.577-.743l.064-.02c.471-.167 1.055-.327 1.653-.448l.088-.015c.433-.097.978-.184 1.533-.242l.067-.006q.663-.06 1.333-.087v-1.698c.003-.047.005-.101.005-.156 0-.418-.107-.812-.295-1.154l.006.012c-.327-.439-.844-.72-1.428-.72-.068 0-.135.004-.201.011l.008-.001q-.08 0-.221.014c-.206.039-.388.094-.561.167l.018-.007c-.286.106-.534.24-.759.402l.009-.006c-.29.228-.538.492-.742.788l-.008.012c-.266.369-.484.795-.631 1.253l-.009.032-3.938-.362c.002-.573.11-1.121.305-1.625l-.011.031c.226-.582.528-1.083.903-1.522l-.006.007c.415-.491.891-.912 1.421-1.257l.025-.015c.583-.374 1.259-.675 1.978-.868l.051-.012c.744-.208 1.598-.328 2.48-.328h.075-.004c.03 0 .066-.001.101-.001.828 0 1.627.123 2.381.351l-.058-.015c.661.188 1.238.47 1.752.836l-.017-.012c.42.314.779.681 1.075 1.096l.01.015c.245.331.449.712.593 1.122l.009.03c.101.293.162.63.167.981v.003zm-9 .282c-.001.022-.001.048-.001.074 0 .715.371 1.343.931 1.703l.008.005c.34.245.766.392 1.226.392.227 0 .446-.036.651-.102l-.015.004c.763-.243 1.341-.861 1.523-1.632l.003-.015c.119-.387.188-.832.188-1.292 0-.021 0-.043 0-.064v.003-2.17c-.537.016-1.049.074-1.547.17l.06-.01c-.541.109-1.019.264-1.47.466l.044-.017c-.948.396-1.602 1.315-1.602 2.387 0 .034.001.068.002.101v-.005z"/></svg>