<?xml version="1.0" encoding="iso-8859-1"?>
<!-- Generator: Adobe Illustrator 19.0.0, SVG Export Plug-In . SVG Version: 6.00 Build 0)  -->
<svg version="1.1" id="Layer_1" xmlns="http://www.w3.org/2000/svg" xmlns:xlink="http://www.w3.org/1999/xlink" x="0px" y="0px"
	 viewBox="0 0 455.251 455.251" style="enable-background:new 0 0 455.251 455.251;" xml:space="preserve">
<g>
	<g>
		<g>
			<path d="M23.696,14.663c-5.952,2.143-9.919,7.788-9.919,14.113v173.839c66.664-13.975,132.876-4.386,197.506,7.039V10.629
				C178.976,4.975,145.909,0,112.82,0C80.257,0,51.104,4.796,23.696,14.663z"/>
			<path d="M435.099,16.504c-3.996-2.809-9.109-3.497-13.706-1.841c-24.093,8.674-49.922,12.89-78.963,12.89
				c-33.279,0-67.62-5.591-101.147-11.568V215.03c68.784,12.311,134.533,22.766,200.191,7.292V28.776
				C441.474,23.891,439.096,19.313,435.099,16.504z"/>
			<path d="M13.777,233.311v193.163c0,4.885,2.378,9.463,6.375,12.272c3.996,2.809,9.11,3.496,13.706,1.841
				c24.093-8.674,49.922-12.89,78.962-12.89c32.39,0,65.789,5.296,98.463,11.089V240.123
				C143.472,228.024,78.58,218.04,13.777,233.311z"/>
			<path d="M241.283,245.501v198.65c33.158,5.846,67.142,11.1,101.147,11.1c32.563,0,61.717-4.797,89.125-14.664
				c5.951-2.143,9.919-7.788,9.919-14.113V253.006C374.365,267.075,308.122,257.374,241.283,245.501z"/>
		</g>
	</g>
</g>
<g>
</g>
<g>
</g>
<g>
</g>
<g>
</g>
<g>
</g>
<g>
</g>
<g>
</g>
<g>
</g>
<g>
</g>
<g>
</g>
<g>
</g>
<g>
</g>
<g>
</g>
<g>
</g>
<g>
</g>
</svg>
