<?xml version="1.0" encoding="utf-8"?>
<!-- Generator: Adobe Illustrator 20.0.0, SVG Export Plug-In . SVG Version: 6.00 Build 0)  -->
<svg version="1.1" xmlns="http://www.w3.org/2000/svg" xmlns:xlink="http://www.w3.org/1999/xlink" x="0px" y="0px"
	 viewBox="0 0 252 115.3" style="enable-background:new 0 0 252 115.3;" xml:space="preserve">
<style type="text/css">
	.st0{fill:none;stroke:#E6E6E5;stroke-width:0.5;stroke-miterlimit:10;}
	.st1{fill:#FFFFFF;}
	.st2{fill:#F48220;}
	.st3{fill:#FBAD40;}
	.st4{fill:#56575B;}
	.st5{display:none;}
	.st6{display:inline;fill:#6D6E71;}
	.st7{display:inline;}
</style>
<g id="Layer_1">
	<rect x="0.4" y="0.3" class="st0" width="251.3" height="114.7"/>
	<g>
		<polygon class="st1" points="208.5,45.5 198.1,43 196.4,42.3 148.7,42.7 148.7,65.7 208.6,65.8 		"/>
		<g>
			<path class="st2" d="M189.1,63.6c0.5-1.9,0.3-3.6-0.6-4.9c-0.8-1.2-2.2-1.9-3.9-1.9l-32.2-0.4c-0.2,0-0.4-0.1-0.5-0.3
				c-0.1-0.2-0.1-0.4-0.1-0.6c0.1-0.3,0.4-0.6,0.7-0.6l32.5-0.4c3.9-0.2,8-3.3,9.5-7.1l1.9-4.8c0.1-0.2,0.1-0.4,0.1-0.6
				c-2.1-9.5-10.5-16.5-20.6-16.5c-9.3,0-17.2,6-20,14.3c-1.8-1.4-4.2-2.1-6.7-1.8c-4.5,0.4-8,4-8.5,8.5c-0.1,1.2,0,2.3,0.2,3.3
				c-7.3,0.2-13.1,6.2-13.1,13.5c0,0.7,0.1,1.3,0.1,2c0,0.3,0.3,0.5,0.6,0.5l59.4,0c0.3,0,0.7-0.2,0.8-0.6L189.1,63.6z"/>
			<path class="st3" d="M199.3,42.9c-0.3,0-0.6,0-0.9,0c-0.2,0-0.4,0.2-0.5,0.4l-1.3,4.4c-0.5,1.9-0.3,3.6,0.6,4.9
				c0.8,1.2,2.2,1.9,3.9,1.9l6.9,0.4c0.2,0,0.4,0.1,0.5,0.3c0.1,0.2,0.1,0.4,0.1,0.6c-0.1,0.3-0.4,0.6-0.7,0.6l-7.1,0.4
				c-3.9,0.2-8,3.3-9.5,7.1l-0.5,1.3c-0.1,0.2,0.1,0.5,0.4,0.5h24.5c0.3,0,0.6-0.2,0.6-0.5c0.4-1.5,0.7-3.1,0.7-4.8
				C216.9,50.8,209,42.9,199.3,42.9"/>
			<path class="st4" d="M219.4,76.1c-0.9,0-1.6-0.7-1.6-1.6c0-0.9,0.7-1.6,1.6-1.6c0.9,0,1.6,0.7,1.6,1.6
				C220.9,75.4,220.2,76.1,219.4,76.1 M219.4,73.3c-0.7,0-1.3,0.6-1.3,1.3c0,0.7,0.6,1.3,1.3,1.3c0.7,0,1.3-0.6,1.3-1.3
				C220.6,73.8,220.1,73.3,219.4,73.3 M220.2,75.4h-0.4l-0.3-0.6H219v0.6h-0.3v-1.7h0.8c0.4,0,0.6,0.2,0.6,0.6
				c0,0.2-0.1,0.5-0.4,0.5L220.2,75.4z M219.5,74.5c0.1,0,0.3-0.1,0.3-0.3c0-0.2-0.1-0.3-0.3-0.3H219v0.5H219.5z"/>
			<polygon class="st4" points="53.3,72.8 57.4,72.8 57.4,83.9 64.5,83.9 64.5,87.5 53.3,87.5 			"/>
			<path class="st4" d="M68.7,80.2L68.7,80.2c0-4.3,3.4-7.7,7.9-7.7c4.5,0,7.9,3.4,7.9,7.6v0c0,4.2-3.4,7.6-7.9,7.6
				C72,87.7,68.7,84.4,68.7,80.2 M80.3,80.2L80.3,80.2c0-2.2-1.5-4-3.8-4c-2.2,0-3.7,1.8-3.7,3.9v0c0,2.1,1.5,4,3.7,4
				C78.8,84.1,80.3,82.3,80.3,80.2"/>
			<path class="st4" d="M89.4,81v-8.2h4.1v8.1c0,2.1,1.1,3.1,2.7,3.1s2.7-1,2.7-3v-8.3h4.1v8.1c0,4.7-2.7,6.8-6.9,6.8
				C92,87.7,89.4,85.6,89.4,81"/>
			<path class="st4" d="M109.3,72.8h5.7c5.2,0,8.3,3,8.3,7.2v0c0,4.2-3.1,7.4-8.4,7.4h-5.6V72.8z M115,83.9c2.4,0,4-1.3,4-3.7v0
				c0-2.3-1.6-3.7-4-3.7h-1.7v7.5H115z"/>
			<polygon class="st4" points="129.1,72.8 140.8,72.8 140.8,76.4 133.2,76.4 133.2,78.8 140.1,78.8 140.1,82.2 133.2,82.2 
				133.2,87.5 129.1,87.5 			"/>
			<polygon class="st4" points="146.5,72.8 150.6,72.8 150.6,83.9 157.7,83.9 157.7,87.5 146.5,87.5 			"/>
			<path class="st4" d="M168.3,72.7h3.9l6.2,14.8h-4.4l-1.1-2.6h-5.7l-1,2.6H162L168.3,72.7z M171.8,81.7l-1.6-4.2l-1.7,4.2H171.8z"
				/>
			<path class="st4" d="M183.7,72.8h6.9c2.2,0,3.8,0.6,4.8,1.6c0.9,0.8,1.3,2,1.3,3.4v0c0,2.2-1.2,3.7-3,4.5l3.5,5.1h-4.7l-3-4.4
				h-1.8v4.4h-4.1V72.8z M190.4,79.8c1.4,0,2.2-0.7,2.2-1.7v0c0-1.2-0.8-1.7-2.2-1.7h-2.7v3.5H190.4z"/>
			<polygon class="st4" points="202.5,72.8 214.3,72.8 214.3,76.3 206.6,76.3 206.6,78.5 213.6,78.5 213.6,81.7 206.6,81.7 
				206.6,84 214.4,84 214.4,87.5 202.5,87.5 			"/>
			<path class="st4" d="M44.4,81.9c-0.6,1.3-1.8,2.2-3.4,2.2c-2.2,0-3.7-1.8-3.7-4v0c0-2.1,1.5-3.9,3.7-3.9c1.7,0,2.9,1,3.5,2.4h4.3
				c-0.7-3.5-3.8-6.1-7.7-6.1c-4.5,0-7.9,3.4-7.9,7.6v0c0,4.2,3.3,7.6,7.9,7.6c3.9,0,6.9-2.5,7.7-5.9H44.4z"/>
		</g>
	</g>
</g>
<g id="Layer_1_copy" class="st5">
	<rect x="0.4" y="0.3" class="st6" width="251.3" height="114.7"/>
	<g class="st7">
		<polygon class="st1" points="208.5,45.5 198.1,43 196.4,42.3 148.7,42.7 148.7,65.7 208.6,65.8 		"/>
		<g>
			<path class="st2" d="M189.1,63.6c0.5-1.9,0.3-3.6-0.6-4.9c-0.8-1.2-2.2-1.9-3.9-1.9l-32.2-0.4c-0.2,0-0.4-0.1-0.5-0.3
				c-0.1-0.2-0.1-0.4-0.1-0.6c0.1-0.3,0.4-0.6,0.7-0.6l32.5-0.4c3.9-0.2,8-3.3,9.5-7.1l1.9-4.8c0.1-0.2,0.1-0.4,0.1-0.6
				c-2.1-9.5-10.5-16.5-20.6-16.5c-9.3,0-17.2,6-20,14.3c-1.8-1.4-4.2-2.1-6.7-1.8c-4.5,0.4-8,4-8.5,8.5c-0.1,1.2,0,2.3,0.2,3.3
				c-7.3,0.2-13.1,6.2-13.1,13.5c0,0.7,0.1,1.3,0.1,2c0,0.3,0.3,0.5,0.6,0.5l59.4,0c0.3,0,0.7-0.2,0.8-0.6L189.1,63.6z"/>
			<path class="st3" d="M199.3,42.9c-0.3,0-0.6,0-0.9,0c-0.2,0-0.4,0.2-0.5,0.4l-1.3,4.4c-0.5,1.9-0.3,3.6,0.6,4.9
				c0.8,1.2,2.2,1.9,3.9,1.9l6.9,0.4c0.2,0,0.4,0.1,0.5,0.3c0.1,0.2,0.1,0.4,0.1,0.6c-0.1,0.3-0.4,0.6-0.7,0.6l-7.1,0.4
				c-3.9,0.2-8,3.3-9.5,7.1l-0.5,1.3c-0.1,0.2,0.1,0.5,0.4,0.5h24.5c0.3,0,0.6-0.2,0.6-0.5c0.4-1.5,0.7-3.1,0.7-4.8
				C216.9,50.8,209,42.9,199.3,42.9"/>
			<path class="st1" d="M219.4,76.1c-0.9,0-1.6-0.7-1.6-1.6c0-0.9,0.7-1.6,1.6-1.6c0.9,0,1.6,0.7,1.6,1.6
				C220.9,75.4,220.2,76.1,219.4,76.1 M219.4,73.3c-0.7,0-1.3,0.6-1.3,1.3c0,0.7,0.6,1.3,1.3,1.3c0.7,0,1.3-0.6,1.3-1.3
				C220.6,73.8,220.1,73.3,219.4,73.3 M220.2,75.4h-0.4l-0.3-0.6H219v0.6h-0.3v-1.7h0.8c0.4,0,0.6,0.2,0.6,0.6
				c0,0.2-0.1,0.5-0.4,0.5L220.2,75.4z M219.5,74.5c0.1,0,0.3-0.1,0.3-0.3c0-0.2-0.1-0.3-0.3-0.3H219v0.5H219.5z"/>
			<polygon class="st1" points="53.3,72.8 57.4,72.8 57.4,83.9 64.5,83.9 64.5,87.5 53.3,87.5 			"/>
			<path class="st1" d="M68.7,80.2L68.7,80.2c0-4.3,3.4-7.7,7.9-7.7c4.5,0,7.9,3.4,7.9,7.6v0c0,4.2-3.4,7.6-7.9,7.6
				C72,87.7,68.7,84.4,68.7,80.2 M80.3,80.2L80.3,80.2c0-2.2-1.5-4-3.8-4c-2.2,0-3.7,1.8-3.7,3.9v0c0,2.1,1.5,4,3.7,4
				C78.8,84.1,80.3,82.3,80.3,80.2"/>
			<path class="st1" d="M89.4,81v-8.2h4.1v8.1c0,2.1,1.1,3.1,2.7,3.1s2.7-1,2.7-3v-8.3h4.1v8.1c0,4.7-2.7,6.8-6.9,6.8
				C92,87.7,89.4,85.6,89.4,81"/>
			<path class="st1" d="M109.3,72.8h5.7c5.2,0,8.3,3,8.3,7.2v0c0,4.2-3.1,7.4-8.4,7.4h-5.6V72.8z M115,83.9c2.4,0,4-1.3,4-3.7v0
				c0-2.3-1.6-3.7-4-3.7h-1.7v7.5H115z"/>
			<polygon class="st1" points="129.1,72.8 140.8,72.8 140.8,76.4 133.2,76.4 133.2,78.8 140.1,78.8 140.1,82.2 133.2,82.2 
				133.2,87.5 129.1,87.5 			"/>
			<polygon class="st1" points="146.5,72.8 150.6,72.8 150.6,83.9 157.7,83.9 157.7,87.5 146.5,87.5 			"/>
			<path class="st1" d="M168.3,72.7h3.9l6.2,14.8h-4.4l-1.1-2.6h-5.7l-1,2.6H162L168.3,72.7z M171.8,81.7l-1.6-4.2l-1.7,4.2H171.8z"
				/>
			<path class="st1" d="M183.7,72.8h6.9c2.2,0,3.8,0.6,4.8,1.6c0.9,0.8,1.3,2,1.3,3.4v0c0,2.2-1.2,3.7-3,4.5l3.5,5.1h-4.7l-3-4.4
				h-1.8v4.4h-4.1V72.8z M190.4,79.8c1.4,0,2.2-0.7,2.2-1.7v0c0-1.2-0.8-1.7-2.2-1.7h-2.7v3.5H190.4z"/>
			<polygon class="st1" points="202.5,72.8 214.3,72.8 214.3,76.3 206.6,76.3 206.6,78.5 213.6,78.5 213.6,81.7 206.6,81.7 
				206.6,84 214.4,84 214.4,87.5 202.5,87.5 			"/>
			<path class="st1" d="M44.4,81.9c-0.6,1.3-1.8,2.2-3.4,2.2c-2.2,0-3.7-1.8-3.7-4v0c0-2.1,1.5-3.9,3.7-3.9c1.7,0,2.9,1,3.5,2.4h4.3
				c-0.7-3.5-3.8-6.1-7.7-6.1c-4.5,0-7.9,3.4-7.9,7.6v0c0,4.2,3.3,7.6,7.9,7.6c3.9,0,6.9-2.5,7.7-5.9H44.4z"/>
		</g>
	</g>
</g>
</svg>
