<svg height="60" width="120" xmlns="http://www.w3.org/2000/svg"><path d="m49.203 21.408 2.776-.666v13.358c0 1.466.437 2.34 1.3 2.62-.43.815-1.162 1.222-2.198 1.222-1.26 0-1.888-.873-1.888-2.62v-13.914m8.415-.178a1.55 1.55 0 0 1 1.138.472 1.55 1.55 0 0 1 .472 1.138 1.55 1.55 0 0 1 -.472 1.138 1.55 1.55 0 0 1 -1.138.472 1.55 1.55 0 0 1 -1.138-.472 1.55 1.55 0 0 1 -.472-1.138 1.55 1.55 0 0 1 .472-1.138 1.55 1.55 0 0 1 1.138-.472zm-1.432 16.5v-9.616h-1.52v-2.276h4.33v11.892h-2.8m13.68 0v-6.873c0-1.014-.194-1.755-.583-2.22s-1.024-.7-1.904-.7c-.408 0-.842.115-1.305.344s-.824.515-1.083.855v8.594h-2.776v-11.892h2l.5 1.1c.755-.888 1.87-1.333 3.342-1.333 1.414 0 2.53.424 3.348 1.27s1.227 2.03 1.227 3.548v7.296h-2.776m7.883-5.973c0 2.62.944 3.93 2.83 3.93a2.43 2.43 0 0 0 2.06-1.022c.508-.682.76-1.65.76-2.9 0-2.583-.94-3.875-2.82-3.875-.866 0-1.555.34-2.065 1.022s-.766 1.632-.766 2.853zm-2.887 0c0-1.814.524-3.3 1.57-4.43s2.43-1.7 4.148-1.7c1.806 0 3.2.548 4.208 1.643s1.5 2.595 1.5 4.497c0 1.895-.5 3.402-1.528 4.52s-2.4 1.677-4.18 1.677c-1.806 0-3.2-.565-4.214-1.693s-1.505-2.63-1.505-4.503m21.31-3.077c-.592-.474-1.2-.7-1.854-.7-1.1 0-1.966.338-2.564 1.016s-.9 1.65-.9 2.915c0 2.472 1.192 3.7 3.576 3.7.266 0 .594-.08.983-.24s.642-.32.76-.483v-6.208zm0 9.05v-.722c-.23.252-.617.472-1.166.66s-1.114.283-1.7.283c-1.66 0-2.964-.526-3.915-1.577s-1.427-2.518-1.427-4.398.546-3.4 1.638-4.6 2.46-1.77 4.102-1.77c.904 0 1.725.185 2.465.555v-4.764l2.776-.666v17h-2.774m7.774-7.185h5.84c-.193-1.74-1.154-2.6-2.887-2.6-1.585 0-2.57.87-2.954 2.6zm8.395 2.087h-8.495c.052.947.377 1.684.977 2.2s1.407.788 2.42.788c1.265 0 2.228-.33 2.886-.988l1.078 2.12c-.978.793-2.436 1.2-4.376 1.2-1.814 0-3.248-.53-4.302-1.594s-1.583-2.544-1.583-4.447c0-1.872.58-3.4 1.738-4.552s2.548-1.743 4.17-1.743c1.724 0 3.1.515 4.152 1.543s1.566 2.34 1.566 3.93c0 .34-.078.855-.233 1.543" fill="#231f20"/><path d="m14.837 27.508-1.595-10.9-6.547-4.07 2.125 10.282 6.016 4.69zm1.82 12.453-1.124-7.68-5.744-4.785 1.542 7.448 5.325 5.017zm-4.46-.846 1.137 5.493 4.742 5.033-.812-5.542-5.067-4.983zm15.355-2.38-2.423-1.85.018.434a.25.25 0 0 1 -.111.219l-1.836 1.232 1.987 1.622c.01.008.013.014.018.02.01.01.02.02.028.032.004.006.008.013.012.02s.013.023.017.035a.24.24 0 0 1 .007.023c.004.013.006.026.007.04l.084 1.914 2.23 1.876-.047-5.616zm8.307-5.943-.474 5.477-1.57-1.092.17-2.793c0-.03-.003-.042-.004-.052s-.001-.016-.003-.023a.25.25 0 0 0 -.021-.056c-.013-.024-.026-.042-.042-.058l-.042-.036-3.377-2.23.05-2.447 5.314 3.31" fill="#123d10"/><path d="m24.125 23.152-.442-10.34-9.93 3.816 1.623 11.076 8.75-4.553zm.515 12.048-.325-7.622-8.27 4.707 1.16 7.924 7.435-5.01zm.167 3.863-7.033 5.032.854 5.832 6.424-5.118zm3.25-2.324.047 5.638 5.012-3.998.334-5.498zm12.5-8.943-.703 5.204-3.954 3.16.464-5.365 4.194-3.002" fill="#33b652"/><path d="m25.3 38.575-.01-.055-.007-.023c-.005-.012-.01-.024-.017-.035l-.012-.02c-.008-.012-.018-.022-.028-.032l-.014-.015-1.99-1.626 1.827-1.23a.25.25 0 0 0 .111-.219l-.018-.434 2.423 1.85.047 5.616-2.23-1.876-.08-1.9zm-9.755-6.293 1.124 7.68-5.325-5.017-1.542-7.448 5.744 4.785zm9.095 2.918-7.435 5.01-1.16-7.924 8.27-4.707.325 7.622zm-.956-22.385.442 10.34-8.75 4.553-1.623-11.076 9.93-3.816zm-10.44 3.805 1.595 10.9-6.016-4.69-2.126-10.272 6.547 4.07zm.093 27.99-1.137-5.493 5.067 4.983.812 5.542-4.742-5.033zm11.717.2-6.424 5.118-.854-5.832 7.033-5.032zm8.065-6.43-5.012 3.998-.047-5.638 5.393-3.858zm.7-3.202.17-2.793c0-.03-.003-.042-.004-.052s-.001-.016-.003-.023a.25.25 0 0 0 -.021-.056c-.013-.024-.026-.042-.042-.058l-.042-.036-3.377-2.23.05-2.447 5.314 3.31-.474 5.477-1.57-1.092zm2.085.985.464-5.365 4.194-3.002-.708 5.204-3.954 3.16zm5.237-8.926-.008-.04c-.003-.014-.007-.027-.013-.04l-.01-.023a.25.25 0 0 0 -.025-.037l-.015-.018c-.012-.012-.025-.022-.04-.032l-.02-.015-5.74-3.18c-.08-.044-.176-.042-.253.006l-4.844 2.96c-.008.005-.014.01-.02.017s-.018.013-.025.02-.015.018-.02.027l-.018.024c-.006.01-.01.022-.015.033s-.008.017-.01.026-.004.025-.006.038-.004.016-.004.025l-.055 2.57-1.97-1.302c-.082-.054-.187-.056-.27-.005l-2.835 1.733-.123-2.882v-.055c-.002-.01-.006-.018-.01-.026l-.014-.03c-.005-.01-.01-.017-.017-.025l-.02-.025c-.008-.008-.016-.015-.025-.02s-.01-.01-.016-.014l-2.95-1.982 2.762-1.437c.087-.045.14-.137.135-.234l-.464-10.85c-.001-.013-.004-.026-.006-.04-.008-.038-.017-.06-.028-.078-.017-.025-.028-.04-.042-.052l-.037-.03c-.006-.004-.013-.006-.02-.01l-7.45-3.597a.25.25 0 0 0 -.185-.014l-10.15 3.16c-.033.014-.05.022-.067.033-.007.005-.01.01-.016.015-.013.01-.026.02-.036.034s-.013.02-.02.03-.013.02-.018.03-.008.027-.01.04c-.002.008-.006.016-.007.025-.001.016 0 .03.001.042s0 .023.002.035l2.265 10.944c.012.058.044.11.092.148l3.074 2.396-2.225 1.058c-.014.01-.018.01-.02.01l-.048.04-.018.02a.25.25 0 0 0 -.027.043c-.018.037-.024.06-.027.083-.001.034-.001.054.003.074l1.704 8.24a.25.25 0 0 0 .074.132l2.14 2.015-1.418.867c-.018.01-.035.025-.05.04-.023.027-.033.043-.042.06a.28.28 0 0 0 -.028.086c-.003.024-.001.048.003.072l1.32 6.383c.01.045.03.087.063.12l5.34 5.668c.008.008.017.015.026.022.026.02.044.03.063.038.035.013.065.02.095.02a.25.25 0 0 0 .074-.013l.036-.013c.01-.005.018-.013.027-.02s.014-.006.02-.01l6.867-5.47c.063-.05.098-.128.095-.208l-.16-3.757 2.294 1.93.054.035.033.01a.25.25 0 0 0 .075.013c.025 0 .05-.005.073-.012l.034-.012c.013-.006.023-.015.034-.023l5.52-4.4c.056-.045.1-.11.094-.182l.168-2.755 1.675 1.166c.016.008.02.013.025.015s.02.008.03.012l.02.008c.022.006.045.01.068.01s.05-.005.074-.012l.034-.01c.014-.007.025-.016.038-.024l4.503-3.586c.05-.04.084-.1.093-.164l.797-5.894.002-.048" fill="#231f20"/></svg>